<?xml version="1.0" encoding="us-ascii" standalone="no"?><svg xmlns="http://www.w3.org/2000/svg" xmlns:xlink="http://www.w3.org/1999/xlink" contentStyleType="text/css" height="931.875px" preserveAspectRatio="none" style="width:5775px;height:931px;background:#FCFCFD;" version="1.1" viewBox="0 0 5775 931" width="5775px" zoomAndPan="magnify"><defs/><g><rect fill="#FCFCFD" height="931.875" style="stroke:none;stroke-width:1.875;" width="5775" x="0" y="0"/><text fill="#29384D" font-family="Arial" font-size="33.75" font-weight="bold" lengthAdjust="spacing" textLength="982.5" x="2383.125" y="50.0775">&#1044;&#1086;&#1087;&#1086;&#1083;&#1085;&#1080;&#1090;&#1077;&#1083;&#1100;&#1085;&#1099;&#1077; &#1074;&#1086;&#1079;&#1084;&#1086;&#1078;&#1085;&#1086;&#1089;&#1090;&#1080; Synopsis Generator</text><!--cluster ???????????--><g id="cluster_&#1056;&#1077;&#1072;&#1083;&#1080;&#1079;&#1086;&#1074;&#1072;&#1085;&#1086;"><path d="M2415.9375,229.5246 L2603.4375,229.5246 A7.0313,7.0313 0 0 1 2608.125,234.2121 L2621.25,269.1486 L3803.4375,269.1486 A4.6875,4.6875 0 0 1 3808.125,273.8361 L3808.125,708.5871 A4.6875,4.6875 0 0 1 3803.4375,713.2746 L2415.9375,713.2746 A4.6875,4.6875 0 0 1 2411.25,708.5871 L2411.25,234.2121 A4.6875,4.6875 0 0 1 2415.9375,229.5246 " fill="#E7F2ED" style="stroke:#000000;stroke-width:2.8125;"/><line style="stroke:#000000;stroke-width:2.8125;" x1="2411.25" x2="2621.25" y1="269.1486" y2="269.1486"/><text fill="#000000" font-family="Arial" font-size="24.375" font-weight="bold" lengthAdjust="spacing" textLength="185.625" x="2418.75" y="255.9">&#1056;&#1077;&#1072;&#1083;&#1080;&#1079;&#1086;&#1074;&#1072;&#1085;&#1086;</text></g><!--cluster ????????--><g id="cluster_&#1063;&#1072;&#1089;&#1090;&#1080;&#1095;&#1085;&#1086;"><path d="M15.9375,229.5246 L152.8125,229.5246 A7.0313,7.0313 0 0 1 157.5,234.2121 L170.625,269.1486 L854.0625,269.1486 A4.6875,4.6875 0 0 1 858.75,273.8361 L858.75,431.0871 A4.6875,4.6875 0 0 1 854.0625,435.7746 L15.9375,435.7746 A4.6875,4.6875 0 0 1 11.25,431.0871 L11.25,234.2121 A4.6875,4.6875 0 0 1 15.9375,229.5246 " fill="#F4F0E5" style="stroke:#000000;stroke-width:2.8125;"/><line style="stroke:#000000;stroke-width:2.8125;" x1="11.25" x2="170.625" y1="269.1486" y2="269.1486"/><text fill="#000000" font-family="Arial" font-size="24.375" font-weight="bold" lengthAdjust="spacing" textLength="135" x="18.75" y="255.9">&#1063;&#1072;&#1089;&#1090;&#1080;&#1095;&#1085;&#1086;</text></g><!--cluster ?? ???????????--><g id="cluster_&#1053;&#1077; &#1088;&#1077;&#1072;&#1083;&#1080;&#1079;&#1086;&#1074;&#1072;&#1085;&#1086;"><path d="M4407.1875,229.5246 L4641.5625,229.5246 A7.0313,7.0313 0 0 1 4646.25,234.2121 L4659.375,269.1486 L5234.0625,269.1486 A4.6875,4.6875 0 0 1 5238.75,273.8361 L5238.75,431.0871 A4.6875,4.6875 0 0 1 5234.0625,435.7746 L4407.1875,435.7746 A4.6875,4.6875 0 0 1 4402.5,431.0871 L4402.5,234.2121 A4.6875,4.6875 0 0 1 4407.1875,229.5246 " fill="#F5E9E9" style="stroke:#000000;stroke-width:2.8125;"/><line style="stroke:#000000;stroke-width:2.8125;" x1="4402.5" x2="4659.375" y1="269.1486" y2="269.1486"/><text fill="#000000" font-family="Arial" font-size="24.375" font-weight="bold" lengthAdjust="spacing" textLength="232.5" x="4410" y="255.9">&#1053;&#1077; &#1088;&#1077;&#1072;&#1083;&#1080;&#1079;&#1086;&#1074;&#1072;&#1085;&#1086;</text></g><!--entity Memory--><g id="elem_Memory"><rect fill="#BFE0D1" height="112.998" rx="4.6875" ry="4.6875" style="stroke:#66788C;stroke-width:0.9375;" width="309.375" x="2442.1875" y="293.2746"/><rect fill="#BFE0D1" height="18.75" style="stroke:#66788C;stroke-width:0.9375;" width="28.125" x="2714.0625" y="302.6496"/><rect fill="#BFE0D1" height="3.75" style="stroke:#66788C;stroke-width:0.9375;" width="7.5" x="2710.3125" y="306.3996"/><rect fill="#BFE0D1" height="3.75" style="stroke:#66788C;stroke-width:0.9375;" width="7.5" x="2710.3125" y="313.8996"/><text fill="#243244" font-family="Arial" font-size="24.375" lengthAdjust="spacing" textLength="234.375" x="2470.3125" y="353.4">Long-term memory</text><text fill="#243244" font-family="Arial" font-size="24.375" lengthAdjust="spacing" textLength="226.875" x="2470.3125" y="381.7741">&#1084;&#1077;&#1078;&#1076;&#1091; &#1079;&#1072;&#1087;&#1088;&#1086;&#1089;&#1072;&#1084;&#1080;</text></g><!--entity HITL--><g id="elem_HITL"><rect fill="#B6DCCA" height="84.624" rx="4.6875" ry="4.6875" style="stroke:#66788C;stroke-width:0.9375;" width="309.375" x="2817.1875" y="307.3371"/><rect fill="#B6DCCA" height="18.75" style="stroke:#66788C;stroke-width:0.9375;" width="28.125" x="3089.0625" y="316.7121"/><rect fill="#B6DCCA" height="3.75" style="stroke:#66788C;stroke-width:0.9375;" width="7.5" x="3085.3125" y="320.4621"/><rect fill="#B6DCCA" height="3.75" style="stroke:#66788C;stroke-width:0.9375;" width="7.5" x="3085.3125" y="327.9621"/><text fill="#243244" font-family="Arial" font-size="24.375" lengthAdjust="spacing" textLength="234.375" x="2845.3125" y="367.4625">Human-in-the-Loop</text></g><!--entity Critic--><g id="elem_Critic"><rect fill="#ADD8C3" height="112.998" rx="4.6875" ry="4.6875" style="stroke:#66788C;stroke-width:0.9375;" width="240" x="3193.125" y="293.2746"/><rect fill="#ADD8C3" height="18.75" style="stroke:#66788C;stroke-width:0.9375;" width="28.125" x="3395.625" y="302.6496"/><rect fill="#ADD8C3" height="3.75" style="stroke:#66788C;stroke-width:0.9375;" width="7.5" x="3391.875" y="306.3996"/><rect fill="#ADD8C3" height="3.75" style="stroke:#66788C;stroke-width:0.9375;" width="7.5" x="3391.875" y="313.8996"/><text fill="#243244" font-family="Arial" font-size="24.375" lengthAdjust="spacing" textLength="165" x="3221.25" y="353.4">Writer &#8596; Critic</text><text fill="#243244" font-family="Arial" font-size="24.375" lengthAdjust="spacing" textLength="150" x="3221.25" y="381.7741">revision loop</text></g><!--entity Versions--><g id="elem_Versions"><rect fill="#A5D4BC" height="112.998" rx="4.6875" ry="4.6875" style="stroke:#66788C;stroke-width:0.9375;" width="300" x="2446.875" y="570.7746"/><rect fill="#A5D4BC" height="18.75" style="stroke:#66788C;stroke-width:0.9375;" width="28.125" x="2709.375" y="580.1496"/><rect fill="#A5D4BC" height="3.75" style="stroke:#66788C;stroke-width:0.9375;" width="7.5" x="2705.625" y="583.8996"/><rect fill="#A5D4BC" height="3.75" style="stroke:#66788C;stroke-width:0.9375;" width="7.5" x="2705.625" y="591.3996"/><text fill="#243244" font-family="Arial" font-size="24.375" lengthAdjust="spacing" textLength="225" x="2475" y="630.9">&#1042;&#1077;&#1088;&#1089;&#1080;&#1086;&#1085;&#1080;&#1088;&#1086;&#1074;&#1072;&#1085;&#1080;&#1077;</text><text fill="#243244" font-family="Arial" font-size="24.375" lengthAdjust="spacing" textLength="168.75" x="2475" y="659.2741">Story Memory</text></g><!--entity Logging--><g id="elem_Logging"><rect fill="#94CBAE" height="112.998" rx="4.6875" ry="4.6875" style="stroke:#66788C;stroke-width:0.9375;" width="206.25" x="2812.5" y="570.7746"/><rect fill="#94CBAE" height="18.75" style="stroke:#66788C;stroke-width:0.9375;" width="28.125" x="2981.25" y="580.1496"/><rect fill="#94CBAE" height="3.75" style="stroke:#66788C;stroke-width:0.9375;" width="7.5" x="2977.5" y="583.8996"/><rect fill="#94CBAE" height="3.75" style="stroke:#66788C;stroke-width:0.9375;" width="7.5" x="2977.5" y="591.3996"/><text fill="#243244" font-family="Arial" font-size="24.375" lengthAdjust="spacing" textLength="131.25" x="2840.625" y="630.9">Application</text><text fill="#243244" font-family="Arial" font-size="24.375" lengthAdjust="spacing" textLength="93.75" x="2840.625" y="659.2741">Logging</text></g><!--entity Graceful--><g id="elem_Graceful"><rect fill="#8BC7A7" height="112.998" rx="4.6875" ry="4.6875" style="stroke:#66788C;stroke-width:0.9375;" width="279.375" x="3499.6875" y="293.2746"/><rect fill="#8BC7A7" height="18.75" style="stroke:#66788C;stroke-width:0.9375;" width="28.125" x="3741.5625" y="302.6496"/><rect fill="#8BC7A7" height="3.75" style="stroke:#66788C;stroke-width:0.9375;" width="7.5" x="3737.8125" y="306.3996"/><rect fill="#8BC7A7" height="3.75" style="stroke:#66788C;stroke-width:0.9375;" width="7.5" x="3737.8125" y="313.8996"/><text fill="#243244" font-family="Arial" font-size="24.375" lengthAdjust="spacing" textLength="99.375" x="3527.8125" y="353.4">Graceful</text><text fill="#243244" font-family="Arial" font-size="24.375" lengthAdjust="spacing" textLength="204.375" x="3527.8125" y="381.7741">MCP degradation</text></g><!--entity History--><g id="elem_History"><rect fill="#E5D7A7" height="112.998" rx="4.6875" ry="4.6875" style="stroke:#66788C;stroke-width:0.9375;" width="215.625" x="612.1875" y="293.2746"/><rect fill="#E5D7A7" height="18.75" style="stroke:#66788C;stroke-width:0.9375;" width="28.125" x="790.3125" y="302.6496"/><rect fill="#E5D7A7" height="3.75" style="stroke:#66788C;stroke-width:0.9375;" width="7.5" x="786.5625" y="306.3996"/><rect fill="#E5D7A7" height="3.75" style="stroke:#66788C;stroke-width:0.9375;" width="7.5" x="786.5625" y="313.8996"/><text fill="#243244" font-family="Arial" font-size="24.375" lengthAdjust="spacing" textLength="108.75" x="640.3125" y="353.4">&#1048;&#1089;&#1090;&#1086;&#1088;&#1080;&#1103;</text><text fill="#243244" font-family="Arial" font-size="24.375" lengthAdjust="spacing" textLength="140.625" x="640.3125" y="381.7741">&#1089;&#1086;&#1086;&#1073;&#1097;&#1077;&#1085;&#1080;&#1081;</text></g><!--entity Model--><g id="elem_Model"><rect fill="#DDCE9E" height="112.998" rx="4.6875" ry="4.6875" style="stroke:#66788C;stroke-width:0.9375;" width="225" x="320.625" y="293.2746"/><rect fill="#DDCE9E" height="18.75" style="stroke:#66788C;stroke-width:0.9375;" width="28.125" x="508.125" y="302.6496"/><rect fill="#DDCE9E" height="3.75" style="stroke:#66788C;stroke-width:0.9375;" width="7.5" x="504.375" y="306.3996"/><rect fill="#DDCE9E" height="3.75" style="stroke:#66788C;stroke-width:0.9375;" width="7.5" x="504.375" y="313.8996"/><text fill="#243244" font-family="Arial" font-size="24.375" lengthAdjust="spacing" textLength="80.625" x="348.75" y="353.4">&#1042;&#1099;&#1073;&#1086;&#1088;</text><text fill="#243244" font-family="Arial" font-size="24.375" lengthAdjust="spacing" textLength="150" x="348.75" y="381.7741">LLM &#1084;&#1086;&#1076;&#1077;&#1083;&#1080;</text></g><!--entity Tools--><g id="elem_Tools"><rect fill="#D7C894" height="112.998" rx="4.6875" ry="4.6875" style="stroke:#66788C;stroke-width:0.9375;" width="211.875" x="42.1875" y="293.2746"/><rect fill="#D7C894" height="18.75" style="stroke:#66788C;stroke-width:0.9375;" width="28.125" x="216.5625" y="302.6496"/><rect fill="#D7C894" height="3.75" style="stroke:#66788C;stroke-width:0.9375;" width="7.5" x="212.8125" y="306.3996"/><rect fill="#D7C894" height="3.75" style="stroke:#66788C;stroke-width:0.9375;" width="7.5" x="212.8125" y="313.8996"/><text fill="#243244" font-family="Arial" font-size="24.375" lengthAdjust="spacing" textLength="136.875" x="70.3125" y="353.4">&#1053;&#1077;&#1089;&#1082;&#1086;&#1083;&#1100;&#1082;&#1086;</text><text fill="#243244" font-family="Arial" font-size="24.375" lengthAdjust="spacing" textLength="118.125" x="70.3125" y="381.7741">MCP tools</text></g><!--entity Tracing--><g id="elem_Tracing"><rect fill="#E6C1C1" height="112.998" rx="4.6875" ry="4.6875" style="stroke:#66788C;stroke-width:0.9375;" width="206.25" x="4711.875" y="293.2746"/><rect fill="#E6C1C1" height="18.75" style="stroke:#66788C;stroke-width:0.9375;" width="28.125" x="4880.625" y="302.6496"/><rect fill="#E6C1C1" height="3.75" style="stroke:#66788C;stroke-width:0.9375;" width="7.5" x="4876.875" y="306.3996"/><rect fill="#E6C1C1" height="3.75" style="stroke:#66788C;stroke-width:0.9375;" width="7.5" x="4876.875" y="313.8996"/><text fill="#243244" font-family="Arial" font-size="24.375" lengthAdjust="spacing" textLength="131.25" x="4740" y="353.4">Distributed</text><text fill="#243244" font-family="Arial" font-size="24.375" lengthAdjust="spacing" textLength="86.25" x="4740" y="381.7741">Tracing</text></g><!--entity Retry--><g id="elem_Retry"><rect fill="#DFB7B7" height="112.998" rx="4.6875" ry="4.6875" style="stroke:#66788C;stroke-width:0.9375;" width="211.875" x="4433.4375" y="293.2746"/><rect fill="#DFB7B7" height="18.75" style="stroke:#66788C;stroke-width:0.9375;" width="28.125" x="4607.8125" y="302.6496"/><rect fill="#DFB7B7" height="3.75" style="stroke:#66788C;stroke-width:0.9375;" width="7.5" x="4604.0625" y="306.3996"/><rect fill="#DFB7B7" height="3.75" style="stroke:#66788C;stroke-width:0.9375;" width="7.5" x="4604.0625" y="313.8996"/><text fill="#243244" font-family="Arial" font-size="24.375" lengthAdjust="spacing" textLength="136.875" x="4461.5625" y="353.4">Retry policy</text><text fill="#243244" font-family="Arial" font-size="24.375" lengthAdjust="spacing" textLength="114.375" x="4461.5625" y="381.7741">&#1076;&#1083;&#1103; tools</text></g><!--entity MultiMCP--><g id="elem_MultiMCP"><rect fill="#D8AEAE" height="112.998" rx="4.6875" ry="4.6875" style="stroke:#66788C;stroke-width:0.9375;" width="223.125" x="4984.6875" y="293.2746"/><rect fill="#D8AEAE" height="18.75" style="stroke:#66788C;stroke-width:0.9375;" width="28.125" x="5170.3125" y="302.6496"/><rect fill="#D8AEAE" height="3.75" style="stroke:#66788C;stroke-width:0.9375;" width="7.5" x="5166.5625" y="306.3996"/><rect fill="#D8AEAE" height="3.75" style="stroke:#66788C;stroke-width:0.9375;" width="7.5" x="5166.5625" y="313.8996"/><text fill="#243244" font-family="Arial" font-size="24.375" lengthAdjust="spacing" textLength="136.875" x="5012.8125" y="353.4">&#1053;&#1077;&#1089;&#1082;&#1086;&#1083;&#1100;&#1082;&#1086;</text><text fill="#243244" font-family="Arial" font-size="24.375" lengthAdjust="spacing" textLength="148.125" x="5012.8125" y="381.7741">MCP servers</text></g><g id="elem_GMN17"><path d="M894.375,240.7746 L894.375,342.0246 L828.0375,349.5246 L894.375,357.0246 L894.375,458.1428 A0,0 0 0 0 894.375,458.1428 L1288.125,458.1428 A0,0 0 0 0 1288.125,458.1428 L1288.125,259.5246 L1269.375,240.7746 L894.375,240.7746 A0,0 0 0 0 894.375,240.7746 " fill="#F8FAFC" style="stroke:#BEC8D5;stroke-width:0.9375;"/><path d="M1269.375,240.7746 L1269.375,259.5246 L1288.125,259.5246 L1269.375,240.7746 " fill="#F8FAFC" style="stroke:#BEC8D5;stroke-width:0.9375;"/><text fill="#334155" font-family="Arial" font-size="24.375" lengthAdjust="spacing" textLength="67.5" x="905.625" y="272.775">&#1045;&#1089;&#1090;&#1100;:</text><text fill="#334155" font-family="Arial" font-size="24.375" lengthAdjust="spacing" textLength="264.375" x="905.625" y="301.1491">original_user_request,</text><text fill="#334155" font-family="Arial" font-size="24.375" lengthAdjust="spacing" textLength="264.375" x="905.625" y="329.5231">latest_user_message,</text><text fill="#334155" font-family="Arial" font-size="24.375" lengthAdjust="spacing" textLength="322.5" x="905.625" y="357.8971">checkpoints &#1080; generations.</text><text fill="#334155" font-family="Arial" font-size="24.375" lengthAdjust="spacing" textLength="7.5" x="905.625" y="386.2711">&#160;</text><text fill="#334155" font-family="Arial" font-size="24.375" lengthAdjust="spacing" textLength="348.75" x="905.625" y="414.6452">&#1053;&#1077;&#1090; &#1087;&#1086;&#1083;&#1085;&#1086;&#1094;&#1077;&#1085;&#1085;&#1086;&#1075;&#1086; &#1084;&#1072;&#1089;&#1089;&#1080;&#1074;&#1072;</text><text fill="#334155" font-family="Arial" font-size="24.375" lengthAdjust="spacing" textLength="354.375" x="905.625" y="443.0192">HumanMessage / AIMessage.</text></g><g id="elem_GMN20"><path d="M1354.6875,240.7746 L1354.6875,458.1428 L1829.0625,458.1428 L1829.0625,259.5246 L1810.3125,240.7746 L1354.6875,240.7746 " fill="#F8FAFC" style="stroke:#BEC8D5;stroke-width:0.9375;"/><path d="M1810.3125,240.7746 L1810.3125,259.5246 L1829.0625,259.5246 L1810.3125,240.7746 " fill="#F8FAFC" style="stroke:#BEC8D5;stroke-width:1.875;"/><text fill="#334155" font-family="Arial" font-size="24.375" lengthAdjust="spacing" textLength="423.75" x="1365.9375" y="272.775">LLM_MODEL &#1079;&#1072;&#1076;&#1072;&#1105;&#1090;&#1089;&#1103; &#1075;&#1083;&#1086;&#1073;&#1072;&#1083;&#1100;&#1085;&#1086;.</text><text fill="#334155" font-family="Arial" font-size="24.375" lengthAdjust="spacing" textLength="7.5" x="1365.9375" y="301.1491">&#160;</text><text fill="#334155" font-family="Arial" font-size="24.375" lengthAdjust="spacing" textLength="433.125" x="1365.9375" y="329.5231">&#1044;&#1083;&#1103; &#1088;&#1086;&#1083;&#1077;&#1081; &#1089;&#1086;&#1079;&#1076;&#1072;&#1102;&#1090;&#1089;&#1103; &#1086;&#1090;&#1076;&#1077;&#1083;&#1100;&#1085;&#1099;&#1077;</text><text fill="#334155" font-family="Arial" font-size="24.375" lengthAdjust="spacing" textLength="399.375" x="1365.9375" y="357.8971">ChatOllama instances &#1089; &#1088;&#1072;&#1079;&#1085;&#1099;&#1084;&#1080;</text><text fill="#334155" font-family="Arial" font-size="24.375" lengthAdjust="spacing" textLength="435" x="1365.9375" y="386.2711">temperature, &#1085;&#1086; model name &#1086;&#1076;&#1080;&#1085;.</text><text fill="#334155" font-family="Arial" font-size="24.375" lengthAdjust="spacing" textLength="7.5" x="1365.9375" y="414.6452">&#160;</text><text fill="#334155" font-family="Arial" font-size="24.375" lengthAdjust="spacing" textLength="406.875" x="1365.9375" y="443.0192">Per-request &#1074;&#1099;&#1073;&#1086;&#1088; &#1086;&#1090;&#1089;&#1091;&#1090;&#1089;&#1090;&#1074;&#1091;&#1077;&#1090;.</text></g><g id="elem_GMN23"><path d="M1894.6875,268.8996 L1894.6875,429.5197 L2376.5625,429.5197 L2376.5625,287.6496 L2357.8125,268.8996 L1894.6875,268.8996 " fill="#F8FAFC" style="stroke:#BEC8D5;stroke-width:0.9375;"/><path d="M2357.8125,268.8996 L2357.8125,287.6496 L2376.5625,287.6496 L2357.8125,268.8996 " fill="#F8FAFC" style="stroke:#BEC8D5;stroke-width:1.875;"/><text fill="#334155" font-family="Arial" font-size="24.375" lengthAdjust="spacing" textLength="442.5" x="1905.9375" y="300.9">MCP Server &#1087;&#1088;&#1077;&#1076;&#1086;&#1089;&#1090;&#1072;&#1074;&#1083;&#1103;&#1077;&#1090; 5 tools.</text><text fill="#334155" font-family="Arial" font-size="24.375" lengthAdjust="spacing" textLength="7.5" x="1905.9375" y="329.2741">&#160;</text><text fill="#334155" font-family="Arial" font-size="24.375" lengthAdjust="spacing" textLength="431.25" x="1905.9375" y="357.6481">&#1054;&#1076;&#1085;&#1072;&#1082;&#1086; LLM-&#1072;&#1075;&#1077;&#1085;&#1090;&#1099; &#1085;&#1077; &#1074;&#1099;&#1073;&#1080;&#1088;&#1072;&#1102;&#1090;</text><text fill="#334155" font-family="Arial" font-size="24.375" lengthAdjust="spacing" textLength="341.25" x="1905.9375" y="386.0221">&#1080;&#1093; &#1072;&#1074;&#1090;&#1086;&#1085;&#1086;&#1084;&#1085;&#1086;: &#1085;&#1091;&#1078;&#1085;&#1099;&#1081; tool</text><text fill="#334155" font-family="Arial" font-size="24.375" lengthAdjust="spacing" textLength="343.125" x="1905.9375" y="414.3961">&#1086;&#1087;&#1088;&#1077;&#1076;&#1077;&#1083;&#1103;&#1077;&#1090;&#1089;&#1103; &#1082;&#1086;&#1076;&#1086;&#1084; &#1091;&#1079;&#1083;&#1072;.</text></g><g id="elem_GMN26"><path d="M3845.625,268.8996 L3845.625,342.0246 L3779.7938,349.5246 L3845.625,357.0246 L3845.625,429.5197 A0,0 0 0 0 3845.625,429.5197 L4366.875,429.5197 A0,0 0 0 0 4366.875,429.5197 L4366.875,287.6496 L4348.125,268.8996 L3845.625,268.8996 A0,0 0 0 0 3845.625,268.8996 " fill="#F8FAFC" style="stroke:#BEC8D5;stroke-width:0.9375;"/><path d="M4348.125,268.8996 L4348.125,287.6496 L4366.875,287.6496 L4348.125,268.8996 " fill="#F8FAFC" style="stroke:#BEC8D5;stroke-width:0.9375;"/><text fill="#334155" font-family="Arial" font-size="24.375" lengthAdjust="spacing" textLength="481.875" x="3856.875" y="300.9">MCP outage &#1085;&#1077; &#1086;&#1073;&#1103;&#1079;&#1072;&#1085; &#1086;&#1089;&#1090;&#1072;&#1085;&#1072;&#1074;&#1083;&#1080;&#1074;&#1072;&#1090;&#1100;</text><text fill="#334155" font-family="Arial" font-size="24.375" lengthAdjust="spacing" textLength="251.25" x="3856.875" y="329.2741">Writer / Critic / Editor.</text><text fill="#334155" font-family="Arial" font-size="24.375" lengthAdjust="spacing" textLength="7.5" x="3856.875" y="357.6481">&#160;</text><text fill="#334155" font-family="Arial" font-size="24.375" lengthAdjust="spacing" textLength="395.625" x="3856.875" y="386.0221">&#1053;&#1086; PostgreSQL &#1086;&#1073;&#1103;&#1079;&#1072;&#1090;&#1077;&#1083;&#1077;&#1085; &#1076;&#1083;&#1103;</text><text fill="#334155" font-family="Arial" font-size="24.375" lengthAdjust="spacing" textLength="450" x="3856.875" y="414.3961">AsyncPostgresSaver &#1087;&#1088;&#1080; &#1089;&#1090;&#1072;&#1088;&#1090;&#1077; API.</text></g><g id="elem_GMN29"><path d="M5274.375,297.9621 L5274.375,342.0246 L5208.3188,349.5246 L5274.375,357.0246 L5274.375,401.8342 A0,0 0 0 0 5274.375,401.8342 L5761.875,401.8342 A0,0 0 0 0 5761.875,401.8342 L5761.875,316.7121 L5743.125,297.9621 L5274.375,297.9621 A0,0 0 0 0 5274.375,297.9621 " fill="#F8FAFC" style="stroke:#BEC8D5;stroke-width:0.9375;"/><path d="M5743.125,297.9621 L5743.125,316.7121 L5761.875,316.7121 L5743.125,297.9621 " fill="#F8FAFC" style="stroke:#BEC8D5;stroke-width:0.9375;"/><text fill="#334155" font-family="Arial" font-size="24.375" lengthAdjust="spacing" textLength="448.125" x="5285.625" y="329.9625">&#1048;&#1089;&#1087;&#1086;&#1083;&#1100;&#1079;&#1091;&#1077;&#1090;&#1089;&#1103; MultiServerMCPClient,</text><text fill="#334155" font-family="Arial" font-size="24.375" lengthAdjust="spacing" textLength="405" x="5285.625" y="358.3366">&#1085;&#1086; &#1085;&#1072;&#1089;&#1090;&#1088;&#1086;&#1077;&#1085; &#1090;&#1086;&#1083;&#1100;&#1082;&#1086; &#1086;&#1076;&#1080;&#1085; entry:</text><text fill="#334155" font-family="Arial" font-size="24.375" lengthAdjust="spacing" textLength="129.375" x="5285.625" y="386.7106">"synopsis".</text></g><!--link Model to GMN20--><g id="link_Model_GMN20"><path d="M466.9875,293.1809 C498.2062,247.2246 549.1687,185.5934 612.1875,158.2746 C749.8125,98.5934 1143.0375,116.7809 1287.1875,158.2746 C1346.3062,175.2996 1405.0313,207.5309 1454.925,240.7559 " fill="none" id="Model-GMN20" style="stroke:#181818;stroke-width:1.875;stroke-dasharray:7.0,7.0;"/></g><!--link Tools to GMN23--><g id="link_Tools_GMN23"><path d="M180,293.2559 C209.55,247.3371 258.1875,185.7246 319.6875,158.2746 C472.8375,89.9121 1667.8313,112.1121 1829.0625,158.2746 C1905.0562,180.0246 1980.5063,226.7121 2037.5438,268.4871 " fill="none" id="Tools-GMN23" style="stroke:#181818;stroke-width:1.875;stroke-dasharray:7.0,7.0;"/></g><rect fill="none" height="148.4766" id="_legend" rx="14.0625" ry="14.0625" style="stroke:#000000;stroke-width:1.875;" width="348.75" x="5377.5" y="747.0246"/><text fill="#000000" font-family="Arial" font-size="26.25" font-weight="bold" lengthAdjust="spacing" textLength="75" x="5396.25" y="784.5155">&#1062;&#1074;&#1077;&#1090;</text><text fill="#000000" font-family="Arial" font-size="26.25" font-weight="bold" lengthAdjust="spacing" textLength="101.25" x="5490" y="784.5155">&#1057;&#1090;&#1072;&#1090;&#1091;&#1089;</text><rect fill="#BFE0D1" height="30.5566" style="stroke:none;stroke-width:1.875;" width="93.75" x="5386.875" y="790.7063"/><text fill="#000000" font-family="Arial" font-size="26.25" lengthAdjust="spacing" textLength="7.5" x="5386.875" y="815.0721">&#160;</text><text fill="#000000" font-family="Arial" font-size="26.25" lengthAdjust="spacing" textLength="178.125" x="5488.125" y="815.0721">&#1056;&#1077;&#1072;&#1083;&#1080;&#1079;&#1086;&#1074;&#1072;&#1085;&#1086;</text><rect fill="#E5D7A7" height="30.5566" style="stroke:none;stroke-width:1.875;" width="93.75" x="5386.875" y="821.2629"/><text fill="#000000" font-family="Arial" font-size="26.25" lengthAdjust="spacing" textLength="7.5" x="5386.875" y="845.6287">&#160;</text><text fill="#000000" font-family="Arial" font-size="26.25" lengthAdjust="spacing" textLength="129.375" x="5488.125" y="845.6287">&#1063;&#1072;&#1089;&#1090;&#1080;&#1095;&#1085;&#1086;</text><rect fill="#E6C1C1" height="30.5566" style="stroke:none;stroke-width:1.875;" width="93.75" x="5386.875" y="851.8195"/><text fill="#000000" font-family="Arial" font-size="26.25" lengthAdjust="spacing" textLength="7.5" x="5386.875" y="876.1854">&#160;</text><text fill="#000000" font-family="Arial" font-size="26.25" lengthAdjust="spacing" textLength="221.25" x="5488.125" y="876.1854">&#1053;&#1077; &#1088;&#1077;&#1072;&#1083;&#1080;&#1079;&#1086;&#1074;&#1072;&#1085;&#1086;</text><line style="stroke:#000000;stroke-width:1.875;" x1="5386.875" x2="5716.875" y1="760.1496" y2="760.1496"/><line style="stroke:#000000;stroke-width:1.875;" x1="5386.875" x2="5716.875" y1="790.7063" y2="790.7063"/><line style="stroke:#000000;stroke-width:1.875;" x1="5386.875" x2="5716.875" y1="821.2629" y2="821.2629"/><line style="stroke:#000000;stroke-width:1.875;" x1="5386.875" x2="5716.875" y1="851.8195" y2="851.8195"/><line style="stroke:#000000;stroke-width:1.875;" x1="5386.875" x2="5716.875" y1="882.3762" y2="882.3762"/><line style="stroke:#000000;stroke-width:1.875;" x1="5386.875" x2="5386.875" y1="760.1496" y2="882.3762"/><line style="stroke:#000000;stroke-width:1.875;" x1="5480.625" x2="5480.625" y1="760.1496" y2="882.3762"/><line style="stroke:#000000;stroke-width:1.875;" x1="5716.875" x2="5716.875" y1="760.1496" y2="882.3762"/><!--SRC=[ZLRTRXj55BxtKnp5jtMJD7RiL81axzfj9OS64i6DfMXhJvnLrpDcTrqK25AJYYBKYWWK96v0S0EtBeqRjwdTLvXz1Pw4xypifgwT8c9bCzdpVxxld77inu4WVQgd-Wr-B_H4ZvDZFT8NoLCzIPxe4Uc_8JZNh_5y0V4qEOB2cBOFfEf7VaItX1IX5wimbulk-xBlXLwFxddj-zrG3MJ7KO4AATzmy75dDA9zhwE-z6MNzhmW4ZEIJj-drShAp1jNx7c386ue6N_izGHLGzyBhfPl-ry9MbsR4UvmYMz5bQj4QP8tDjOgHNUsZhRgzPKKCgQlSuIVcWex8apLrzVBbOfZtiywAQxTA1PptyowaIeMcOU5pbGQrOQpwBrMTofkQTxxsbfnjLHYxtquyhg2blJlm6i8xCQ0QGguXWpJ4kNhvSQDkfl6VLl9KbF9RY4MOOzwegV2WvO4kYEWUvOy8lWOwZV9GmOQfzTwl4HUH9j64rarwYlkwhp7suEU9mk-BCJxej1KgcziRj_PQS9YtNMSwhp5vw6F3EYVnwVauEYtMp8K3_p8LvA2p86LKBxgkXLdRTw5_acFaeV8SeogcRSFBwiVwr5BRiUSiKtSkFjCXEm_WiEIMwmvymwh_NxWjxqOEYtPLDqks6aCqpFbDufEhLgVjxiLUcsnDmXQSjFPeexeXbx7U376cPJobPfJhfRVnUulFRG3bNoNejOeDbRgfKNKz2z6SOeonyb9IwBmAJxFak-17PVyqZRTZqpT-Nh9vMWBJSDGFsClAB6vIMQkptZWCw1LHo1NrtNg6mkLwb_HyYFzYbS55WJ-sffZfOB8cE_m2UPbfx9HVBTKs1AIlvghZHB2RInMxQASqBytY4Md9NVGoWoJz8mwrvrLPu6HdueOJUWh0ChyFaE-9pDfMd7URTJAjVB_hJ8IuGDGoBO9-yRdbtctKgs34oZLJ7deT_TZKdiP472kVsRaagStSLQG-z8BTWVmjXkABmOYYgz147WnJlPrJqGHUiQls_kYVR-lV1b7XAtRjSkMMNmznwuvrMEwNDxJvB5X0qxwkPuolCmldX7q6WPcKZUjVrgcwftqV3qdPCVigVaw325W2RRiRjvrwqsx8ixW-4TKTOI-8jG5Kv6HvNj3JsrofwRhPYulaDPBCfmzDxO_PBPJaFfiziQ1fRFlnNU3mEjvvCiezcHRH31cLqFOineM4nHZqUjpGmQXk4OSc7g6lvAl2SFiiPwOPBP4M4ZRZIij6m8J7dayCizZ21vnGz_V3SDlk6FejmqVo6pB4KBPgt68JgDiWql9KivsupUeJ206dxYP1HoVCrW8_OHp7sLvyIOp3MAhSV8jiKyUVGFhQtxUX05IVM5QyT94OUNfPIwZB0VRv5Uc5p0cM9q3ZU7xIymMLbgb6iJC5PiWxviJW_-4BkkTs9ejnvZei4pt-tAsmvUftl4n3nbhfxIbehWRYkrFcZDkxNSFxWhPcOLsDJgGxLGxslOkMpuc6nzt0AoekdNdFqYSZYi7nnwrymB2dLkyJPECZiKKcaxWOndm21fQSP5cYfdCd9x18rqFbqmZc8G7FETBKVhzQ6asgK1q-H-JLkxmGz9_ecLC53x_OOev1XUFw31t-45wrtvqI5VVy5R9hdbMchjAKh7PZYn-__g59hAokUN-1G00]--></g></svg>