<?xml version="1.0" encoding="us-ascii" standalone="no"?><svg xmlns="http://www.w3.org/2000/svg" xmlns:xlink="http://www.w3.org/1999/xlink" contentStyleType="text/css" height="2623.125px" preserveAspectRatio="none" style="width:2051px;height:2623px;background:#FCFCFD;" version="1.1" viewBox="0 0 2051 2623" width="2051.25px" zoomAndPan="magnify"><defs/><g><rect fill="#FCFCFD" height="2623.125" style="stroke:none;stroke-width:1.875;" width="2051.25" x="0" y="0"/><text fill="#293B52" font-family="Arial" font-size="33.75" font-weight="bold" lengthAdjust="spacing" textLength="840" x="598.5938" y="59.4525">LangGraph checkpoint &#1080; Human-in-the-Loop</text><rect fill="none" height="228.3691" style="stroke:#000000;stroke-width:2.8125;" width="1641.5625" x="18.75" y="1859.2529"/><line style="stroke:#75889B;stroke-width:0.9375;stroke-dasharray:5.0,5.0;" x1="133.125" x2="133.125" y1="231.0352" y2="1111.3916"/><line style="stroke:#75889B;stroke-width:1.875;stroke-dasharray:1.0,4.0;" x1="133.125" x2="133.125" y1="1111.3916" y2="1192.2656"/><line style="stroke:#75889B;stroke-width:0.9375;stroke-dasharray:5.0,5.0;" x1="133.125" x2="133.125" y1="1192.2656" y2="2242.1191"/><line style="stroke:#75889B;stroke-width:0.9375;stroke-dasharray:5.0,5.0;" x1="538.125" x2="538.125" y1="231.0352" y2="1111.3916"/><line style="stroke:#75889B;stroke-width:1.875;stroke-dasharray:1.0,4.0;" x1="538.125" x2="538.125" y1="1111.3916" y2="1192.2656"/><line style="stroke:#75889B;stroke-width:0.9375;stroke-dasharray:5.0,5.0;" x1="538.125" x2="538.125" y1="1192.2656" y2="2242.1191"/><line style="stroke:#75889B;stroke-width:0.9375;stroke-dasharray:5.0,5.0;" x1="1060.3125" x2="1060.3125" y1="231.0352" y2="1111.3916"/><line style="stroke:#75889B;stroke-width:1.875;stroke-dasharray:1.0,4.0;" x1="1060.3125" x2="1060.3125" y1="1111.3916" y2="1192.2656"/><line style="stroke:#75889B;stroke-width:0.9375;stroke-dasharray:5.0,5.0;" x1="1060.3125" x2="1060.3125" y1="1192.2656" y2="2242.1191"/><line style="stroke:#75889B;stroke-width:0.9375;stroke-dasharray:5.0,5.0;" x1="1508.4375" x2="1508.4375" y1="231.0352" y2="1111.3916"/><line style="stroke:#75889B;stroke-width:1.875;stroke-dasharray:1.0,4.0;" x1="1508.4375" x2="1508.4375" y1="1111.3916" y2="1192.2656"/><line style="stroke:#75889B;stroke-width:0.9375;stroke-dasharray:5.0,5.0;" x1="1508.4375" x2="1508.4375" y1="1192.2656" y2="2242.1191"/><line style="stroke:#75889B;stroke-width:0.9375;stroke-dasharray:5.0,5.0;" x1="1844.0625" x2="1844.0625" y1="231.0352" y2="1111.3916"/><line style="stroke:#75889B;stroke-width:1.875;stroke-dasharray:1.0,4.0;" x1="1844.0625" x2="1844.0625" y1="1111.3916" y2="1192.2656"/><line style="stroke:#75889B;stroke-width:0.9375;stroke-dasharray:5.0,5.0;" x1="1844.0625" x2="1844.0625" y1="1192.2656" y2="2242.1191"/><text fill="#000000" font-family="Arial" font-size="24.375" lengthAdjust="spacing" textLength="181.875" x="37.5" y="225.2866">&#1055;&#1086;&#1083;&#1100;&#1079;&#1086;&#1074;&#1072;&#1090;&#1077;&#1083;&#1100;</text><ellipse cx="134.0625" cy="106.0986" fill="#E9EDF4" rx="15" ry="15" style="stroke:#181818;stroke-width:0.9375;"/><path d="M134.0625,121.0986 L134.0625,171.7236 M109.6875,136.0986 L158.4375,136.0986 M134.0625,171.7236 L109.6875,199.8486 M134.0625,171.7236 L158.4375,199.8486 " fill="none" style="stroke:#181818;stroke-width:0.9375;"/><text fill="#000000" font-family="Arial" font-size="24.375" lengthAdjust="spacing" textLength="181.875" x="37.5" y="2262.8696">&#1055;&#1086;&#1083;&#1100;&#1079;&#1086;&#1074;&#1072;&#1090;&#1077;&#1083;&#1100;</text><ellipse cx="134.0625" cy="2284.5557" fill="#E9EDF4" rx="15" ry="15" style="stroke:#181818;stroke-width:0.9375;"/><path d="M134.0625,2299.5557 L134.0625,2350.1807 M109.6875,2314.5557 L158.4375,2314.5557 M134.0625,2350.1807 L109.6875,2378.3057 M134.0625,2350.1807 L158.4375,2378.3057 " fill="none" style="stroke:#181818;stroke-width:0.9375;"/><rect fill="#DEE8F2" height="54.624" rx="4.6875" ry="4.6875" style="stroke:#687D91;stroke-width:0.9375;" width="114.375" x="481.875" y="174.5361"/><text fill="#253747" font-family="Arial" font-size="24.375" lengthAdjust="spacing" textLength="88.125" x="495" y="210.2866">FastAPI</text><rect fill="#DEE8F2" height="54.624" rx="4.6875" ry="4.6875" style="stroke:#687D91;stroke-width:0.9375;" width="114.375" x="481.875" y="2240.2441"/><text fill="#253747" font-family="Arial" font-size="24.375" lengthAdjust="spacing" textLength="88.125" x="495" y="2275.9946">FastAPI</text><rect fill="#D3E3EF" height="54.624" rx="4.6875" ry="4.6875" style="stroke:#687D91;stroke-width:0.9375;" width="157.5" x="981.5625" y="174.5361"/><text fill="#253747" font-family="Arial" font-size="24.375" lengthAdjust="spacing" textLength="131.25" x="994.6875" y="210.2866">LangGraph</text><rect fill="#D3E3EF" height="54.624" rx="4.6875" ry="4.6875" style="stroke:#687D91;stroke-width:0.9375;" width="157.5" x="981.5625" y="2240.2441"/><text fill="#253747" font-family="Arial" font-size="24.375" lengthAdjust="spacing" textLength="131.25" x="994.6875" y="2275.9946">LangGraph</text><rect fill="#CCDDEB" height="54.624" rx="4.6875" ry="4.6875" style="stroke:#687D91;stroke-width:0.9375;" width="266.25" x="1375.3125" y="174.5361"/><text fill="#253747" font-family="Arial" font-size="24.375" lengthAdjust="spacing" textLength="240" x="1388.4375" y="210.2866">wait_for_clarification</text><rect fill="#CCDDEB" height="54.624" rx="4.6875" ry="4.6875" style="stroke:#687D91;stroke-width:0.9375;" width="266.25" x="1375.3125" y="2240.2441"/><text fill="#253747" font-family="Arial" font-size="24.375" lengthAdjust="spacing" textLength="240" x="1388.4375" y="2275.9946">wait_for_clarification</text><text fill="#000000" font-family="Arial" font-size="24.375" lengthAdjust="spacing" textLength="245.625" x="1716.5625" y="196.9125">AsyncPostgresSaver</text><text fill="#000000" font-family="Arial" font-size="24.375" lengthAdjust="spacing" textLength="358.125" x="1660.3125" y="225.2866">PostgreSQL checkpoint tables</text><path d="M1811.25,106.7871 C1811.25,88.0371 1845,88.0371 1845,88.0371 C1845,88.0371 1878.75,88.0371 1878.75,106.7871 L1878.75,155.5371 C1878.75,174.2871 1845,174.2871 1845,174.2871 C1845,174.2871 1811.25,174.2871 1811.25,155.5371 L1811.25,106.7871 " fill="#C8E3DC" style="stroke:#557B73;stroke-width:2.8125;"/><path d="M1811.25,106.7871 C1811.25,125.5371 1845,125.5371 1845,125.5371 C1845,125.5371 1878.75,125.5371 1878.75,106.7871 " fill="none" style="stroke:#557B73;stroke-width:2.8125;"/><text fill="#000000" font-family="Arial" font-size="24.375" lengthAdjust="spacing" textLength="245.625" x="1716.5625" y="2262.8696">AsyncPostgresSaver</text><text fill="#000000" font-family="Arial" font-size="24.375" lengthAdjust="spacing" textLength="358.125" x="1660.3125" y="2291.2436">PostgreSQL checkpoint tables</text><path d="M1811.25,2315.7422 C1811.25,2296.9922 1845,2296.9922 1845,2296.9922 C1845,2296.9922 1878.75,2296.9922 1878.75,2315.7422 L1878.75,2364.4922 C1878.75,2383.2422 1845,2383.2422 1845,2383.2422 C1845,2383.2422 1811.25,2383.2422 1811.25,2364.4922 L1811.25,2315.7422 " fill="#C8E3DC" style="stroke:#557B73;stroke-width:2.8125;"/><path d="M1811.25,2315.7422 C1811.25,2334.4922 1845,2334.4922 1845,2334.4922 C1845,2334.4922 1878.75,2334.4922 1878.75,2315.7422 " fill="none" style="stroke:#557B73;stroke-width:2.8125;"/><polygon fill="#62778F" points="516.5625,281.9092,535.3125,289.4092,516.5625,296.9092,524.0625,289.4092" style="stroke:#62778F;stroke-width:1.875;"/><line style="stroke:#62778F;stroke-width:1.875;" x1="134.0625" x2="527.8125" y1="289.4092" y2="289.4092"/><text fill="#000000" font-family="Arial" font-size="24.375" lengthAdjust="spacing" textLength="260.625" x="147.1875" y="279.9106">POST /api/v1/synopsis</text><line style="stroke:#62778F;stroke-width:1.875;" x1="539.0625" x2="617.8125" y1="344.0332" y2="344.0332"/><line style="stroke:#62778F;stroke-width:1.875;" x1="617.8125" x2="617.8125" y1="344.0332" y2="368.4082"/><line style="stroke:#62778F;stroke-width:1.875;" x1="540.9375" x2="617.8125" y1="368.4082" y2="368.4082"/><polygon fill="#62778F" points="559.6875,360.9082,540.9375,368.4082,559.6875,375.9082,552.1875,368.4082" style="stroke:#62778F;stroke-width:1.875;"/><text fill="#000000" font-family="Arial" font-size="24.375" lengthAdjust="spacing" textLength="232.5" x="552.1875" y="334.5346">thread_id = uuid4()</text><polygon fill="#62778F" points="1037.8125,443.9063,1056.5625,451.4063,1037.8125,458.9063,1045.3125,451.4063" style="stroke:#62778F;stroke-width:1.875;"/><line style="stroke:#62778F;stroke-width:1.875;" x1="539.0625" x2="1049.0625" y1="451.4063" y2="451.4063"/><text fill="#000000" font-family="Arial" font-size="24.375" lengthAdjust="spacing" textLength="245.625" x="552.1875" y="413.5336">ainvoke(initial_state,</text><text fill="#000000" font-family="Arial" font-size="24.375" lengthAdjust="spacing" textLength="200.625" x="552.1875" y="441.9077">config.thread_id)</text><polygon fill="#62778F" points="1822.5,526.9043,1841.25,534.4043,1822.5,541.9043,1830,534.4043" style="stroke:#62778F;stroke-width:1.875;"/><line style="stroke:#62778F;stroke-width:1.875;" x1="1060.3125" x2="1833.75" y1="534.4043" y2="534.4043"/><text fill="#000000" font-family="Arial" font-size="24.375" lengthAdjust="spacing" textLength="206.25" x="1073.4375" y="496.5317">checkpoint writes</text><text fill="#000000" font-family="Arial" font-size="24.375" lengthAdjust="spacing" textLength="168.75" x="1073.4375" y="524.9057">&#1076;&#1083;&#1103; thread_id</text><polygon fill="#62778F" points="1485.9375,609.9023,1504.6875,617.4023,1485.9375,624.9023,1493.4375,617.4023" style="stroke:#62778F;stroke-width:1.875;"/><line style="stroke:#62778F;stroke-width:1.875;" x1="1060.3125" x2="1497.1875" y1="617.4023" y2="617.4023"/><text fill="#000000" font-family="Arial" font-size="24.375" lengthAdjust="spacing" textLength="144.375" x="1073.4375" y="579.5297">route &#1087;&#1086;&#1089;&#1083;&#1077;</text><text fill="#000000" font-family="Arial" font-size="24.375" lengthAdjust="spacing" textLength="240" x="1073.4375" y="607.9037">request_clarification</text><line style="stroke:#62778F;stroke-width:1.875;" x1="1508.4375" x2="1587.1875" y1="672.0264" y2="672.0264"/><line style="stroke:#62778F;stroke-width:1.875;" x1="1587.1875" x2="1587.1875" y1="672.0264" y2="696.4014"/><line style="stroke:#62778F;stroke-width:1.875;" x1="1510.3125" x2="1587.1875" y1="696.4014" y2="696.4014"/><polygon fill="#62778F" points="1529.0625,688.9014,1510.3125,696.4014,1529.0625,703.9014,1521.5625,696.4014" style="stroke:#62778F;stroke-width:1.875;"/><text fill="#000000" font-family="Arial" font-size="24.375" lengthAdjust="spacing" textLength="215.625" x="1521.5625" y="662.5278">interrupt(payload)</text><path d="M931.875,720.7764 L931.875,852.0264 L1970.625,852.0264 L1970.625,739.5264 L1951.875,720.7764 L931.875,720.7764 " fill="#F9FAFC" style="stroke:#BDC7D3;stroke-width:0.9375;"/><path d="M1951.875,720.7764 L1951.875,739.5264 L1970.625,739.5264 L1951.875,720.7764 " fill="#F9FAFC" style="stroke:#BDC7D3;stroke-width:0.9375;"/><text fill="#334155" font-family="Arial" font-size="24.375" lengthAdjust="spacing" textLength="367.5" x="1230.9375" y="752.7768">Checkpointer &#1080;&#1085;&#1090;&#1077;&#1075;&#1088;&#1080;&#1088;&#1086;&#1074;&#1072;&#1085; &#1074;</text><text fill="#334155" font-family="Arial" font-size="24.375" lengthAdjust="spacing" textLength="322.5" x="1230.9375" y="781.1508">&#1089;&#1082;&#1086;&#1084;&#1087;&#1080;&#1083;&#1080;&#1088;&#1086;&#1074;&#1072;&#1085;&#1085;&#1099;&#1081; &#1075;&#1088;&#1072;&#1092;.</text><text fill="#334155" font-family="Arial" font-size="24.375" lengthAdjust="spacing" textLength="423.75" x="1230.9375" y="809.5248">&#1055;&#1088;&#1080;&#1083;&#1086;&#1078;&#1077;&#1085;&#1080;&#1077; &#1085;&#1077; &#1074;&#1099;&#1079;&#1099;&#1074;&#1072;&#1077;&#1090; INSERT</text><text fill="#334155" font-family="Arial" font-size="24.375" lengthAdjust="spacing" textLength="354.375" x="1230.9375" y="837.8989">checkpoint-&#1090;&#1072;&#1073;&#1083;&#1080;&#1094; &#1074;&#1088;&#1091;&#1095;&#1085;&#1091;&#1102;.</text><polygon fill="#62778F" points="1822.5,922.8955,1841.25,930.3955,1822.5,937.8955,1830,930.3955" style="stroke:#62778F;stroke-width:1.875;"/><line style="stroke:#62778F;stroke-width:1.875;" x1="1060.3125" x2="1833.75" y1="930.3955" y2="930.3955"/><text fill="#000000" font-family="Arial" font-size="24.375" lengthAdjust="spacing" textLength="273.75" x="1073.4375" y="892.5229">&#1089;&#1086;&#1093;&#1088;&#1072;&#1085;&#1080;&#1090;&#1100; &#1089;&#1086;&#1089;&#1090;&#1086;&#1103;&#1085;&#1080;&#1077;</text><text fill="#000000" font-family="Arial" font-size="24.375" lengthAdjust="spacing" textLength="187.5" x="1073.4375" y="920.8969">&#1087;&#1088;&#1080; &#1086;&#1089;&#1090;&#1072;&#1085;&#1086;&#1074;&#1082;&#1077;</text><polygon fill="#62778F" points="559.6875,977.5195,540.9375,985.0195,559.6875,992.5195,552.1875,985.0195" style="stroke:#62778F;stroke-width:1.875;"/><line style="stroke:#62778F;stroke-width:1.875;stroke-dasharray:2.0,2.0;" x1="548.4375" x2="1058.4375" y1="985.0195" y2="985.0195"/><text fill="#000000" font-family="Arial" font-size="24.375" lengthAdjust="spacing" textLength="206.25" x="570.9375" y="975.5209">result &#1089;&#1086;&#1076;&#1077;&#1088;&#1078;&#1080;&#1090;</text><text fill="#000000" font-family="Arial" font-size="24.375" lengthAdjust="spacing" text-decoration="underline" textLength="103.125" x="784.6875" y="975.5209">interrupt</text><polygon fill="#62778F" points="154.6875,1088.8916,135.9375,1096.3916,154.6875,1103.8916,147.1875,1096.3916" style="stroke:#62778F;stroke-width:1.875;"/><line style="stroke:#62778F;stroke-width:1.875;stroke-dasharray:2.0,2.0;" x1="143.4375" x2="537.1875" y1="1096.3916" y2="1096.3916"/><text fill="#000000" font-family="Arial" font-size="24.375" lengthAdjust="spacing" textLength="202.5" x="165.9375" y="1030.145">interrupted=true</text><text fill="#000000" font-family="Arial" font-size="24.375" lengthAdjust="spacing" textLength="316.875" x="165.9375" y="1058.519">status=needs_clarification</text><text fill="#000000" font-family="Arial" font-size="24.375" lengthAdjust="spacing" textLength="258.75" x="165.9375" y="1086.893">thread_id + message</text><text fill="#000000" font-family="Arial" font-size="24.375" lengthAdjust="spacing" textLength="266.25" x="856.4063" y="1160.267">&#1086;&#1090;&#1074;&#1077;&#1090; &#1087;&#1086;&#1083;&#1100;&#1079;&#1086;&#1074;&#1072;&#1090;&#1077;&#1083;&#1103;</text><polygon fill="#62778F" points="516.5625,1252.7637,535.3125,1260.2637,516.5625,1267.7637,524.0625,1260.2637" style="stroke:#62778F;stroke-width:1.875;"/><line style="stroke:#62778F;stroke-width:1.875;" x1="134.0625" x2="527.8125" y1="1260.2637" y2="1260.2637"/><text fill="#000000" font-family="Arial" font-size="24.375" lengthAdjust="spacing" textLength="360" x="147.1875" y="1222.3911">POST /api/v1/synopsis/resume</text><text fill="#000000" font-family="Arial" font-size="24.375" lengthAdjust="spacing" textLength="258.75" x="147.1875" y="1250.7651">thread_id + message</text><polygon fill="#62778F" points="1037.8125,1335.7617,1056.5625,1343.2617,1037.8125,1350.7617,1045.3125,1343.2617" style="stroke:#62778F;stroke-width:1.875;"/><line style="stroke:#62778F;stroke-width:1.875;" x1="539.0625" x2="1049.0625" y1="1343.2617" y2="1343.2617"/><text fill="#000000" font-family="Arial" font-size="24.375" lengthAdjust="spacing" textLength="476.25" x="552.1875" y="1305.3891">ainvoke(Command(resume=message),</text><text fill="#000000" font-family="Arial" font-size="24.375" lengthAdjust="spacing" textLength="301.875" x="552.1875" y="1333.7631">&#1090;&#1086;&#1090; &#1078;&#1077; config.thread_id)</text><polygon fill="#62778F" points="1822.5,1390.3857,1841.25,1397.8857,1822.5,1405.3857,1830,1397.8857" style="stroke:#62778F;stroke-width:1.875;"/><line style="stroke:#62778F;stroke-width:1.875;" x1="1060.3125" x2="1833.75" y1="1397.8857" y2="1397.8857"/><text fill="#000000" font-family="Arial" font-size="24.375" lengthAdjust="spacing" textLength="316.875" x="1073.4375" y="1388.3871">&#1074;&#1086;&#1089;&#1089;&#1090;&#1072;&#1085;&#1086;&#1074;&#1080;&#1090;&#1100; checkpoint</text><polygon fill="#62778F" points="1080.9375,1445.0098,1062.1875,1452.5098,1080.9375,1460.0098,1073.4375,1452.5098" style="stroke:#62778F;stroke-width:1.875;"/><line style="stroke:#62778F;stroke-width:1.875;stroke-dasharray:2.0,2.0;" x1="1069.6875" x2="1843.125" y1="1452.5098" y2="1452.5098"/><text fill="#000000" font-family="Arial" font-size="24.375" lengthAdjust="spacing" textLength="219.375" x="1092.1875" y="1443.0112">&#1089;&#1086;&#1089;&#1090;&#1086;&#1103;&#1085;&#1080;&#1077; thread</text><polygon fill="#62778F" points="1485.9375,1499.6338,1504.6875,1507.1338,1485.9375,1514.6338,1493.4375,1507.1338" style="stroke:#62778F;stroke-width:1.875;"/><line style="stroke:#62778F;stroke-width:1.875;" x1="1060.3125" x2="1497.1875" y1="1507.1338" y2="1507.1338"/><text fill="#000000" font-family="Arial" font-size="24.375" lengthAdjust="spacing" textLength="318.75" x="1073.4375" y="1497.6352">&#1091;&#1079;&#1077;&#1083; &#1079;&#1072;&#1087;&#1091;&#1089;&#1082;&#1072;&#1077;&#1090;&#1089;&#1103; &#1079;&#1072;&#1085;&#1086;&#1074;&#1086;</text><line style="stroke:#62778F;stroke-width:1.875;" x1="1508.4375" x2="1587.1875" y1="1590.1318" y2="1590.1318"/><line style="stroke:#62778F;stroke-width:1.875;" x1="1587.1875" x2="1587.1875" y1="1590.1318" y2="1614.5068"/><line style="stroke:#62778F;stroke-width:1.875;" x1="1510.3125" x2="1587.1875" y1="1614.5068" y2="1614.5068"/><polygon fill="#62778F" points="1529.0625,1607.0068,1510.3125,1614.5068,1529.0625,1622.0068,1521.5625,1614.5068" style="stroke:#62778F;stroke-width:1.875;"/><text fill="#000000" font-family="Arial" font-size="24.375" lengthAdjust="spacing" textLength="309.375" x="1521.5625" y="1552.2592">interrupt(...) &#1074;&#1086;&#1079;&#1074;&#1088;&#1072;&#1097;&#1072;&#1077;&#1090;</text><text fill="#000000" font-family="Arial" font-size="24.375" lengthAdjust="spacing" textLength="163.125" x="1521.5625" y="1580.6332">resume value</text><polygon fill="#62778F" points="1080.9375,1690.0049,1062.1875,1697.5049,1080.9375,1705.0049,1073.4375,1697.5049" style="stroke:#62778F;stroke-width:1.875;"/><line style="stroke:#62778F;stroke-width:1.875;stroke-dasharray:2.0,2.0;" x1="1069.6875" x2="1506.5625" y1="1697.5049" y2="1697.5049"/><text fill="#000000" font-family="Arial" font-size="24.375" lengthAdjust="spacing" textLength="403.125" x="1092.1875" y="1659.6323">latest_user_message = message</text><text fill="#000000" font-family="Arial" font-size="24.375" lengthAdjust="spacing" textLength="286.875" x="1092.1875" y="1688.0063">clarification_count += 1</text><line style="stroke:#62778F;stroke-width:1.875;" x1="1060.3125" x2="1139.0625" y1="1752.1289" y2="1752.1289"/><line style="stroke:#62778F;stroke-width:1.875;" x1="1139.0625" x2="1139.0625" y1="1752.1289" y2="1776.5039"/><line style="stroke:#62778F;stroke-width:1.875;" x1="1062.1875" x2="1139.0625" y1="1776.5039" y2="1776.5039"/><polygon fill="#62778F" points="1080.9375,1769.0039,1062.1875,1776.5039,1080.9375,1784.0039,1073.4375,1776.5039" style="stroke:#62778F;stroke-width:1.875;"/><text fill="#000000" font-family="Arial" font-size="24.375" lengthAdjust="spacing" textLength="356.25" x="1073.4375" y="1742.6303">edge -&gt; collect_requirements</text><polygon fill="#62778F" points="1822.5,1823.6279,1841.25,1831.1279,1822.5,1838.6279,1830,1831.1279" style="stroke:#62778F;stroke-width:1.875;"/><line style="stroke:#62778F;stroke-width:1.875;" x1="1060.3125" x2="1833.75" y1="1831.1279" y2="1831.1279"/><text fill="#000000" font-family="Arial" font-size="24.375" lengthAdjust="spacing" textLength="292.5" x="1073.4375" y="1821.6293">&#1085;&#1086;&#1074;&#1099;&#1077; checkpoint writes</text><path d="M18.75,1859.2529 L138.75,1859.2529 L138.75,1872.627 L120,1891.377 L18.75,1891.377 L18.75,1859.2529 " fill="#EEEEEE" style="stroke:#000000;stroke-width:2.8125;"/><rect fill="none" height="228.3691" style="stroke:#000000;stroke-width:2.8125;" width="1641.5625" x="18.75" y="1859.2529"/><text fill="#000000" font-family="Arial" font-size="24.375" font-weight="bold" lengthAdjust="spacing" textLength="35.625" x="46.875" y="1883.7534">alt</text><text fill="#000000" font-family="Arial" font-size="24.375" font-weight="bold" lengthAdjust="spacing" textLength="489.375" x="166.875" y="1885.6284">[&#1090;&#1088;&#1077;&#1073;&#1086;&#1074;&#1072;&#1085;&#1080;&#1081; &#1089;&#1085;&#1086;&#1074;&#1072; &#1085;&#1077;&#1076;&#1086;&#1089;&#1090;&#1072;&#1090;&#1086;&#1095;&#1085;&#1086;]</text><polygon fill="#62778F" points="1485.9375,1923.75,1504.6875,1931.25,1485.9375,1938.75,1493.4375,1931.25" style="stroke:#62778F;stroke-width:1.875;"/><line style="stroke:#62778F;stroke-width:1.875;" x1="1060.3125" x2="1497.1875" y1="1931.25" y2="1931.25"/><text fill="#000000" font-family="Arial" font-size="24.375" lengthAdjust="spacing" textLength="206.25" x="1073.4375" y="1921.7514">&#1085;&#1086;&#1074;&#1099;&#1081; &#1094;&#1080;&#1082;&#1083; HITL</text><line style="stroke:#000000;stroke-width:1.875;stroke-dasharray:2.0,2.0;" x1="18.75" x2="1660.3125" y1="1948.125" y2="1948.125"/><text fill="#000000" font-family="Arial" font-size="24.375" font-weight="bold" lengthAdjust="spacing" textLength="300" x="28.125" y="1970.7504">[workflow &#1079;&#1072;&#1074;&#1077;&#1088;&#1096;&#1105;&#1085;]</text><polygon fill="#62778F" points="559.6875,2010.498,540.9375,2017.998,559.6875,2025.498,552.1875,2017.998" style="stroke:#62778F;stroke-width:1.875;"/><line style="stroke:#62778F;stroke-width:1.875;stroke-dasharray:2.0,2.0;" x1="548.4375" x2="1058.4375" y1="2017.998" y2="2017.998"/><text fill="#000000" font-family="Arial" font-size="24.375" lengthAdjust="spacing" textLength="281.25" x="570.9375" y="2008.4995">&#1092;&#1080;&#1085;&#1072;&#1083;&#1100;&#1085;&#1086;&#1077; &#1089;&#1086;&#1089;&#1090;&#1086;&#1103;&#1085;&#1080;&#1077;</text><polygon fill="#62778F" points="154.6875,2065.1221,135.9375,2072.6221,154.6875,2080.1221,147.1875,2072.6221" style="stroke:#62778F;stroke-width:1.875;"/><line style="stroke:#62778F;stroke-width:1.875;stroke-dasharray:2.0,2.0;" x1="143.4375" x2="537.1875" y1="2072.6221" y2="2072.6221"/><text fill="#000000" font-family="Arial" font-size="24.375" lengthAdjust="spacing" textLength="223.125" x="165.9375" y="2063.1235">SynopsisResponse</text><path d="M958.125,2110.1221 L958.125,2213.2471 L1608.75,2213.2471 L1608.75,2128.8721 L1590,2110.1221 L958.125,2110.1221 " fill="#F9FAFC" style="stroke:#BDC7D3;stroke-width:0.9375;"/><path d="M1590,2110.1221 L1590,2128.8721 L1608.75,2128.8721 L1590,2110.1221 " fill="#F9FAFC" style="stroke:#BDC7D3;stroke-width:0.9375;"/><text fill="#334155" font-family="Arial" font-size="24.375" lengthAdjust="spacing" textLength="361.875" x="1080" y="2142.1225">&#1042;&#1072;&#1078;&#1085;&#1072;&#1103; &#1089;&#1077;&#1084;&#1072;&#1085;&#1090;&#1080;&#1082;&#1072; interrupt:</text><text fill="#334155" font-family="Arial" font-size="24.375" lengthAdjust="spacing" textLength="369.375" x="1080" y="2170.4965">&#1087;&#1088;&#1080; resume &#1087;&#1088;&#1077;&#1088;&#1074;&#1072;&#1085;&#1085;&#1099;&#1081; &#1091;&#1079;&#1077;&#1083;</text><text fill="#334155" font-family="Arial" font-size="24.375" lengthAdjust="spacing" textLength="390" x="1080" y="2198.8705">&#1074;&#1099;&#1087;&#1086;&#1083;&#1085;&#1103;&#1077;&#1090;&#1089;&#1103; &#1079;&#1072;&#1085;&#1086;&#1074;&#1086; &#1089; &#1085;&#1072;&#1095;&#1072;&#1083;&#1072;.</text><rect fill="none" height="179.0332" id="_legend" rx="14.0625" ry="14.0625" style="stroke:#000000;stroke-width:1.875;" width="461.25" x="1553.4375" y="2407.6172"/><text fill="#000000" font-family="Arial" font-size="26.25" font-weight="bold" lengthAdjust="spacing" textLength="75" x="1572.1875" y="2445.108">&#1062;&#1074;&#1077;&#1090;</text><text fill="#000000" font-family="Arial" font-size="26.25" font-weight="bold" lengthAdjust="spacing" textLength="76.875" x="1665.9375" y="2445.108">&#1057;&#1083;&#1086;&#1081;</text><rect fill="#DEE8F2" height="30.5566" style="stroke:none;stroke-width:1.875;" width="93.75" x="1562.8125" y="2451.2988"/><text fill="#000000" font-family="Arial" font-size="26.25" lengthAdjust="spacing" textLength="7.5" x="1562.8125" y="2475.6647">&#160;</text><text fill="#000000" font-family="Arial" font-size="26.25" lengthAdjust="spacing" textLength="93.75" x="1664.0625" y="2475.6647">FastAPI</text><rect fill="#D3E3EF" height="30.5566" style="stroke:none;stroke-width:1.875;" width="93.75" x="1562.8125" y="2481.8555"/><text fill="#000000" font-family="Arial" font-size="26.25" lengthAdjust="spacing" textLength="7.5" x="1562.8125" y="2506.2213">&#160;</text><text fill="#000000" font-family="Arial" font-size="26.25" lengthAdjust="spacing" textLength="140.625" x="1664.0625" y="2506.2213">LangGraph</text><rect fill="#CCDDEB" height="30.5566" style="stroke:none;stroke-width:1.875;" width="93.75" x="1562.8125" y="2512.4121"/><text fill="#000000" font-family="Arial" font-size="26.25" lengthAdjust="spacing" textLength="7.5" x="1562.8125" y="2536.778">&#160;</text><text fill="#000000" font-family="Arial" font-size="26.25" lengthAdjust="spacing" textLength="185.625" x="1664.0625" y="2536.778">Interrupt node</text><rect fill="#C8E3DC" height="30.5566" style="stroke:none;stroke-width:1.875;" width="93.75" x="1562.8125" y="2542.9688"/><text fill="#000000" font-family="Arial" font-size="26.25" lengthAdjust="spacing" textLength="7.5" x="1562.8125" y="2567.3346">&#160;</text><text fill="#000000" font-family="Arial" font-size="26.25" lengthAdjust="spacing" textLength="333.75" x="1664.0625" y="2567.3346">PostgreSQL Checkpointer</text><line style="stroke:#000000;stroke-width:1.875;" x1="1562.8125" x2="2005.3125" y1="2420.7422" y2="2420.7422"/><line style="stroke:#000000;stroke-width:1.875;" x1="1562.8125" x2="2005.3125" y1="2451.2988" y2="2451.2988"/><line style="stroke:#000000;stroke-width:1.875;" x1="1562.8125" x2="2005.3125" y1="2481.8555" y2="2481.8555"/><line style="stroke:#000000;stroke-width:1.875;" x1="1562.8125" x2="2005.3125" y1="2512.4121" y2="2512.4121"/><line style="stroke:#000000;stroke-width:1.875;" x1="1562.8125" x2="2005.3125" y1="2542.9688" y2="2542.9688"/><line style="stroke:#000000;stroke-width:1.875;" x1="1562.8125" x2="2005.3125" y1="2573.5254" y2="2573.5254"/><line style="stroke:#000000;stroke-width:1.875;" x1="1562.8125" x2="1562.8125" y1="2420.7422" y2="2573.5254"/><line style="stroke:#000000;stroke-width:1.875;" x1="1656.5625" x2="1656.5625" y1="2420.7422" y2="2573.5254"/><line style="stroke:#000000;stroke-width:1.875;" x1="2005.3125" x2="2005.3125" y1="2420.7422" y2="2573.5254"/><!--SRC=[ZLRTRXf75BxVfnZPDxOIS34cW5KY0GkD9PIwmLLlaD1aTu2Hbvdjpc2KbagEdSQj6jLgNo3gJQ-fMnp7gSahpBvHpymki1WYrPQzx9o_xvppdJD8AZs26fXrlmYmtqDEZpZ7FgTC8dM3dWpwcAKeIyaUIJKuzorB75Fcum3tqNFi77S3Fc1kbNiyG9lrAlpQ2GtHmouVKjP57Um9af2uFaMPmcU94vjqyC2JTSxaKzmdg1nGxAsND-bt16Mo2U6Hpc8XAgmJnI1tYzbARZUPXo3V3WXp2FhUGl1J3W8-Z9KVxURpXRevRj0EQL16AZnmIH3Byxb2eLXPbgzK9LylrYETGnn8wb0VCxdavb4XRnSpzrMIe7FP_5xU-Y49syKIFyTY1dl9OIwNh-IpqVbzF7QXLgxbbdqnBkT-Ll0Nw-LwTJL6nQxcxIX60caskvV96U_OaN2meTwggVeGlb7lu7cbnk6PckZt3OG5-beGiAaLQtPzp_8NgQEDEXQoV7XWjE09i6krGdrtMMbEMwCM4NZJpjQojVgouX1JsUxmeEruEA0Twc19EJDMtu08RLQhjbshMFEQRfJ52-OSSY6x0H5DV4A25ejVcryracC25XuHnfTT0K-5MjQkMfP9BVNOWDz7XrysZz0EzkdEIMO7N7DVK65fsLn5zWA2tJPrKGaD1jJTszgUAKIPxIDCsGa_9bkKKGdJqHOII_AmnHpEEhIRddlOjgp816m1qtuIxZ2WaeWMK_z05ouNKHSMfYBx23W0f50VrJHygJweIOi5Ub24N2wYPTGNPX231C70bri-Vk5nhC4OUd6eOPJ9GrkFGtME2SxLZReppFWxF5Kty6UuekwGkW9L070B9_y2c1k0af23rI_gFJ9cu_1L6fJLM-q2rARg6XpUmUS9WWVykmBbT_2dJIVX6JfusgmzEmARHNrIW6Ai_Z9HNckBq_0yl80mv-6lQOimrypA_Ve2m6dueyQWuuLduPlew2LucuQN4GYe-KSD3SK2hQlJk5MJcRiv6O1qiEoC4sZK1CokjL_KRi_hssv7z00RmxL4wObRai60j9Wco42K626kM6vRYotuzW3rYH2u2scbqsaDxmnWwGBfxgyPtai4Ul-BuZiwaJvP7-qJxAxoFjmwxbPaMegrju7dffg02lgALZc_t1A0gykSB7JKc4MlBL1C9G2ijYmU3sjbEC9pA0cK0i5Z36qzDnGrh08Fbz5n57NwwGc1AcuReA1-PHZyS-H3pvfE7frWRq1Y1mca7imz3E806j2EwmDR8_u4-o3PwRO3oroY1oMKIUGnyqHSC8LtXtiUSMHRppWDI9ymAUvNrEG3upDPtIUmxZLTpo292KpFR3flO3QXCb4XncOAWSun_KsXBxJGN2BtIpmF1ovUWwTRgFQJWwE6HU2h11houBZZyM5KQStMq_2dy3Trb_GrvsRuIYyOKDHSrdudQveTtVxB8zMCUVoC29yp-0e36s1rdsd4UlFy3X6kTHnW0FYVmCOQcxscqOyNZT_Noj4kYFjitlIO9xVQZ6HQMnV232F8BjVI328Y4_j2vwd6oMtbaQv-2MYt9wrH2Qa_um7Nd_ymk_8z6bcZp-Dhzl48nHTmV6hkL3XTV54qvz6r2US7izGWe4jYeRa9GPYuDvUM_aWZZA1P_m40]--></g></svg>