<?xml version="1.0" encoding="us-ascii" standalone="no"?><svg xmlns="http://www.w3.org/2000/svg" xmlns:xlink="http://www.w3.org/1999/xlink" contentStyleType="text/css" height="3176.25px" preserveAspectRatio="none" style="width:2381px;height:3176px;background:#FCFCFD;" version="1.1" viewBox="0 0 2381 3176" width="2381.25px" zoomAndPan="magnify"><defs/><g><rect fill="#FCFCFD" height="3176.25" style="stroke:none;stroke-width:1.875;" width="2381.25" x="0" y="0"/><text fill="#263B45" font-family="Arial" font-size="33.75" font-weight="bold" lengthAdjust="spacing" textLength="1194.375" x="590.7422" y="68.8275">&#1060;&#1080;&#1085;&#1072;&#1083;&#1100;&#1085;&#1072;&#1103; &#1086;&#1073;&#1088;&#1072;&#1073;&#1086;&#1090;&#1082;&#1072;, &#1076;&#1086;&#1083;&#1075;&#1086;&#1074;&#1088;&#1077;&#1084;&#1077;&#1085;&#1085;&#1072;&#1103; &#1087;&#1072;&#1084;&#1103;&#1090;&#1100; &#1080; persistence</text><ellipse cx="1035" cy="116.1621" fill="#738DA3" rx="18.75" ry="18.75" style="stroke:#222222;stroke-width:1.875;"/><path d="M1187.8125,153.6621 L1187.8125,297.4072 L1150.3125,304.9072 L1187.8125,312.4072 L1187.8125,456.1523 A0,0 0 0 0 1187.8125,456.1523 L1650.9375,456.1523 A0,0 0 0 0 1650.9375,456.1523 L1650.9375,172.4121 L1632.1875,153.6621 L1187.8125,153.6621 A0,0 0 0 0 1187.8125,153.6621 " fill="#F7FAF9" style="stroke:#B9CBC6;stroke-width:0.9375;"/><path d="M1632.1875,153.6621 L1632.1875,172.4121 L1650.9375,172.4121 L1632.1875,153.6621 " fill="#F7FAF9" style="stroke:#B9CBC6;stroke-width:0.9375;"/><text fill="#334A46" font-family="Arial" font-size="24.375" lengthAdjust="spacing" textLength="161.25" x="1199.0625" y="185.6625">&#1048;&#1089;&#1087;&#1088;&#1072;&#1074;&#1083;&#1103;&#1077;&#1090;:</text><text fill="#334A46" font-family="Arial" font-size="24.375" lengthAdjust="spacing" textLength="168.75" x="1199.0625" y="214.0366">- &#1075;&#1088;&#1072;&#1084;&#1084;&#1072;&#1090;&#1080;&#1082;&#1091;</text><text fill="#334A46" font-family="Arial" font-size="24.375" lengthAdjust="spacing" textLength="181.875" x="1199.0625" y="242.4106">- &#1086;&#1088;&#1092;&#1086;&#1075;&#1088;&#1072;&#1092;&#1080;&#1102;</text><text fill="#334A46" font-family="Arial" font-size="24.375" lengthAdjust="spacing" textLength="172.5" x="1199.0625" y="270.7846">- &#1087;&#1091;&#1085;&#1082;&#1090;&#1091;&#1072;&#1094;&#1080;&#1102;</text><text fill="#334A46" font-family="Arial" font-size="24.375" lengthAdjust="spacing" textLength="296.25" x="1199.0625" y="299.1586">- &#1083;&#1077;&#1082;&#1089;&#1080;&#1095;&#1077;&#1089;&#1082;&#1080;&#1077; &#1087;&#1086;&#1074;&#1090;&#1086;&#1088;&#1099;</text><text fill="#334A46" font-family="Arial" font-size="24.375" lengthAdjust="spacing" textLength="423.75" x="1199.0625" y="327.5327">- &#1085;&#1077;&#1077;&#1089;&#1090;&#1077;&#1089;&#1090;&#1074;&#1077;&#1085;&#1085;&#1099;&#1077; &#1092;&#1086;&#1088;&#1084;&#1091;&#1083;&#1080;&#1088;&#1086;&#1074;&#1082;&#1080;</text><text fill="#334A46" font-family="Arial" font-size="24.375" lengthAdjust="spacing" textLength="397.5" x="1199.0625" y="355.9067">- &#1087;&#1083;&#1086;&#1093;&#1086; &#1095;&#1080;&#1090;&#1072;&#1077;&#1084;&#1099;&#1077; &#1082;&#1086;&#1085;&#1089;&#1090;&#1088;&#1091;&#1082;&#1094;&#1080;&#1080;</text><text fill="#334A46" font-family="Arial" font-size="24.375" lengthAdjust="spacing" textLength="7.5" x="1199.0625" y="384.2807">&#160;</text><text fill="#334A46" font-family="Arial" font-size="24.375" lengthAdjust="spacing" textLength="346.875" x="1199.0625" y="412.6547">&#1053;&#1077; &#1076;&#1086;&#1083;&#1078;&#1077;&#1085; &#1084;&#1077;&#1085;&#1103;&#1090;&#1100; &#1089;&#1102;&#1078;&#1077;&#1090;,</text><text fill="#334A46" font-family="Arial" font-size="24.375" lengthAdjust="spacing" textLength="393.75" x="1199.0625" y="441.0287">&#1087;&#1077;&#1088;&#1089;&#1086;&#1085;&#1072;&#1078;&#1077;&#1081;, &#1089;&#1086;&#1073;&#1099;&#1090;&#1080;&#1103; &#1080; &#1089;&#1084;&#1099;&#1089;&#1083;.</text><rect fill="#DCE5EE" height="65.874" rx="23.4375" ry="23.4375" style="stroke:#627A82;stroke-width:0.9375;" width="230.625" x="919.6875" y="271.9702"/><text fill="#1F2937" font-family="Arial" font-size="24.375" lengthAdjust="spacing" textLength="193.125" x="938.4375" y="313.3456">language_editor</text><rect fill="#D5E7E9" height="65.874" rx="23.4375" ry="23.4375" style="stroke:#627A82;stroke-width:0.9375;" width="146.25" x="961.875" y="493.6523"/><text fill="#1F2937" font-family="Arial" font-size="24.375" lengthAdjust="spacing" textLength="108.75" x="980.625" y="535.0278">final_text</text><rect fill="#CDE9E3" height="65.874" rx="23.4375" ry="23.4375" style="stroke:#627A82;stroke-width:0.9375;" width="260.625" x="904.6875" y="597.0264"/><text fill="#1F2937" font-family="Arial" font-size="24.375" lengthAdjust="spacing" textLength="223.125" x="923.4375" y="638.4018">memory_manager</text><polygon fill="#EEF5F4" points="911.25,700.4004,1158.75,700.4004,1181.25,722.9004,1158.75,745.4004,911.25,745.4004,888.75,722.9004,911.25,700.4004" style="stroke:#718C8A;stroke-width:0.9375;"/><text fill="#294A48" font-family="Arial" font-size="24.375" lengthAdjust="spacing" textLength="247.5" x="911.25" y="731.3388">final_text &#1085;&#1077;&#1087;&#1091;&#1089;&#1090;&#1086;&#1081;?</text><text fill="#000000" font-family="Arial" font-size="24.375" lengthAdjust="spacing" textLength="33.75" x="855" y="717.1518">&#1076;&#1072;</text><text fill="#000000" font-family="Arial" font-size="24.375" lengthAdjust="spacing" textLength="46.875" x="1181.25" y="717.1518">&#1085;&#1077;&#1090;</text><rect fill="#C4E6DA" height="65.874" rx="23.4375" ry="23.4375" style="stroke:#627A82;stroke-width:0.9375;" width="463.125" x="271.875" y="764.1504"/><text fill="#1F2937" font-family="Arial" font-size="24.375" lengthAdjust="spacing" textLength="425.625" x="290.625" y="805.5258">previous_memory = story_memory</text><rect fill="#BBE2D2" height="65.874" rx="23.4375" ry="23.4375" style="stroke:#627A82;stroke-width:0.9375;" width="416.25" x="295.3125" y="895.6494"/><text fill="#1F2937" font-family="Arial" font-size="24.375" lengthAdjust="spacing" textLength="378.75" x="314.0625" y="937.0248">StoryMemory structured output</text><polygon fill="#EEF5F4" points="284.0625,999.0234,722.8125,999.0234,745.3125,1021.5234,722.8125,1044.0234,284.0625,1044.0234,261.5625,1021.5234,284.0625,999.0234" style="stroke:#718C8A;stroke-width:0.9375;"/><text fill="#294A48" font-family="Arial" font-size="24.375" lengthAdjust="spacing" textLength="438.75" x="284.0625" y="1029.9619">LLM &#1091;&#1089;&#1087;&#1077;&#1096;&#1085;&#1086; &#1074;&#1077;&#1088;&#1085;&#1091;&#1083; StoryMemory?</text><text fill="#000000" font-family="Arial" font-size="24.375" lengthAdjust="spacing" textLength="33.75" x="227.8125" y="1015.7748">&#1076;&#1072;</text><text fill="#000000" font-family="Arial" font-size="24.375" lengthAdjust="spacing" textLength="46.875" x="745.3125" y="1015.7748">&#1085;&#1077;&#1090;</text><rect fill="#B2DECA" height="94.248" rx="23.4375" ry="23.4375" style="stroke:#627A82;stroke-width:0.9375;" width="444.375" x="20.625" y="1062.7734"/><text fill="#1F2937" font-family="Arial" font-size="24.375" lengthAdjust="spacing" textLength="406.875" x="39.375" y="1104.1489">story_memory = &#1085;&#1086;&#1074;&#1099;&#1081; snapshot</text><text fill="#1F2937" font-family="Arial" font-size="24.375" lengthAdjust="spacing" textLength="339.375" x="39.375" y="1132.5229">story_memory_ready = true</text><path d="M993.75,1062.7734 L993.75,1093.0225 L956.25,1100.5225 L993.75,1108.0225 L993.75,1138.2715 A0,0 0 0 0 993.75,1138.2715 L1318.125,1138.2715 A0,0 0 0 0 1318.125,1138.2715 L1318.125,1081.5234 L1299.375,1062.7734 L993.75,1062.7734 A0,0 0 0 0 993.75,1062.7734 " fill="#F7FAF9" style="stroke:#B9CBC6;stroke-width:0.9375;"/><path d="M1299.375,1062.7734 L1299.375,1081.5234 L1318.125,1081.5234 L1299.375,1062.7734 " fill="#F7FAF9" style="stroke:#B9CBC6;stroke-width:0.9375;"/><text fill="#334A46" font-family="Arial" font-size="24.375" lengthAdjust="spacing" textLength="279.375" x="1005" y="1094.7739">&#1057;&#1090;&#1072;&#1088;&#1099;&#1081; story_memory</text><text fill="#334A46" font-family="Arial" font-size="24.375" lengthAdjust="spacing" textLength="285" x="1005" y="1123.1479">&#1085;&#1077; &#1087;&#1077;&#1088;&#1077;&#1079;&#1072;&#1087;&#1080;&#1089;&#1099;&#1074;&#1072;&#1077;&#1090;&#1089;&#1103;.</text><rect fill="#F1DDCF" height="65.874" rx="23.4375" ry="23.4375" style="stroke:#627A82;stroke-width:0.9375;" width="384.375" x="571.875" y="1067.5854"/><text fill="#1F2937" font-family="Arial" font-size="24.375" lengthAdjust="spacing" textLength="346.875" x="590.625" y="1108.9609">story_memory_ready = false</text><polygon fill="#EEF5F4" points="503.4375,1168.2715,525.9375,1190.7715,503.4375,1213.2715,480.9375,1190.7715,503.4375,1168.2715" style="stroke:#718C8A;stroke-width:0.9375;"/><rect fill="#EEDFD5" height="94.248" rx="23.4375" ry="23.4375" style="stroke:#627A82;stroke-width:0.9375;" width="384.375" x="1374.375" y="764.1504"/><text fill="#1F2937" font-family="Arial" font-size="24.375" lengthAdjust="spacing" textLength="316.875" x="1393.125" y="805.5258">status = memory_skipped</text><text fill="#1F2937" font-family="Arial" font-size="24.375" lengthAdjust="spacing" textLength="346.875" x="1393.125" y="833.8998">story_memory_ready = false</text><polygon fill="#EEF5F4" points="1035,1224.5215,1057.5,1247.0215,1035,1269.5215,1012.5,1247.0215,1035,1224.5215" style="stroke:#718C8A;stroke-width:0.9375;"/><rect fill="#A9D9C3" height="65.874" rx="23.4375" ry="23.4375" style="stroke:#627A82;stroke-width:0.9375;" width="191.25" x="939.375" y="1307.0215"/><text fill="#1F2937" font-family="Arial" font-size="24.375" lengthAdjust="spacing" textLength="153.75" x="958.125" y="1348.3969">persist_story</text><rect fill="#A1D4BC" height="65.874" rx="23.4375" ry="23.4375" style="stroke:#627A82;stroke-width:0.9375;" width="315" x="877.5" y="1410.3955"/><text fill="#1F2937" font-family="Arial" font-size="24.375" lengthAdjust="spacing" textLength="277.5" x="896.25" y="1451.7709">get_mcp_tools_safely()</text><polygon fill="#EEF5F4" points="966.5625,1513.7695,1103.4375,1513.7695,1125.9375,1536.2695,1103.4375,1558.7695,966.5625,1558.7695,944.0625,1536.2695,966.5625,1513.7695" style="stroke:#718C8A;stroke-width:0.9375;"/><text fill="#294A48" font-family="Arial" font-size="24.375" lengthAdjust="spacing" textLength="136.875" x="966.5625" y="1544.7079">tools &#1087;&#1091;&#1089;&#1090;?</text><text fill="#000000" font-family="Arial" font-size="24.375" lengthAdjust="spacing" textLength="33.75" x="910.3125" y="1530.5209">&#1076;&#1072;</text><text fill="#000000" font-family="Arial" font-size="24.375" lengthAdjust="spacing" textLength="46.875" x="1125.9375" y="1530.5209">&#1085;&#1077;&#1090;</text><rect fill="#E8DDD2" height="65.874" rx="23.4375" ry="23.4375" style="stroke:#627A82;stroke-width:0.9375;" width="388.125" x="206.0156" y="1577.5195"/><text fill="#1F2937" font-family="Arial" font-size="24.375" lengthAdjust="spacing" textLength="350.625" x="224.7656" y="1618.895">story_memory_saved = false</text><polygon fill="#EEF5F4" points="1526.4844,1577.5195,1813.3594,1577.5195,1835.8594,1600.0195,1813.3594,1622.5195,1526.4844,1622.5195,1503.9844,1600.0195,1526.4844,1577.5195" style="stroke:#718C8A;stroke-width:0.9375;"/><text fill="#294A48" font-family="Arial" font-size="24.375" lengthAdjust="spacing" textLength="286.875" x="1526.4844" y="1608.4579">save_synopsis &#1085;&#1072;&#1081;&#1076;&#1077;&#1085;?</text><text fill="#000000" font-family="Arial" font-size="24.375" lengthAdjust="spacing" textLength="33.75" x="1470.2344" y="1594.2709">&#1076;&#1072;</text><text fill="#000000" font-family="Arial" font-size="24.375" lengthAdjust="spacing" textLength="46.875" x="1835.8594" y="1594.2709">&#1085;&#1077;&#1090;</text><rect fill="#99CFB5" height="65.874" rx="23.4375" ry="23.4375" style="stroke:#627A82;stroke-width:0.9375;" width="330" x="1274.7656" y="1641.2695"/><text fill="#1F2937" font-family="Arial" font-size="24.375" lengthAdjust="spacing" textLength="292.5" x="1293.5156" y="1682.645">&#1055;&#1086;&#1087;&#1099;&#1090;&#1082;&#1072; save_synopsis</text><polygon fill="#EEF5F4" points="1362.8906,1744.6436,1516.6406,1744.6436,1539.1406,1767.1436,1516.6406,1789.6436,1362.8906,1789.6436,1340.3906,1767.1436,1362.8906,1744.6436" style="stroke:#718C8A;stroke-width:0.9375;"/><text fill="#294A48" font-family="Arial" font-size="24.375" lengthAdjust="spacing" textLength="153.75" x="1362.8906" y="1775.582">saved=true?</text><text fill="#000000" font-family="Arial" font-size="24.375" lengthAdjust="spacing" textLength="33.75" x="1306.6406" y="1761.395">&#1076;&#1072;</text><text fill="#000000" font-family="Arial" font-size="24.375" lengthAdjust="spacing" textLength="46.875" x="1539.1406" y="1761.395">&#1085;&#1077;&#1090;</text><rect fill="#91C9AE" height="65.874" rx="23.4375" ry="23.4375" style="stroke:#627A82;stroke-width:0.9375;" width="285" x="1144.4531" y="1808.3936"/><text fill="#1F2937" font-family="Arial" font-size="24.375" lengthAdjust="spacing" textLength="247.5" x="1163.2031" y="1849.769">synopsis_id &#1087;&#1086;&#1083;&#1091;&#1095;&#1077;&#1085;</text><rect fill="#E8DDD2" height="65.874" rx="23.4375" ry="23.4375" style="stroke:#627A82;stroke-width:0.9375;" width="251.25" x="1466.9531" y="1808.3936"/><text fill="#1F2937" font-family="Arial" font-size="24.375" lengthAdjust="spacing" textLength="213.75" x="1485.7031" y="1849.769">synopsis_id = null</text><polygon fill="#EEF5F4" points="1439.7656,1885.5176,1462.2656,1908.0176,1439.7656,1930.5176,1417.2656,1908.0176,1439.7656,1885.5176" style="stroke:#718C8A;stroke-width:0.9375;"/><rect fill="#E8DDD2" height="65.874" rx="23.4375" ry="23.4375" style="stroke:#627A82;stroke-width:0.9375;" width="251.25" x="1774.4531" y="1641.2695"/><text fill="#1F2937" font-family="Arial" font-size="24.375" lengthAdjust="spacing" textLength="213.75" x="1793.2031" y="1682.645">synopsis_id = null</text><polygon fill="#EEF5F4" points="1669.9219,1941.7676,1692.4219,1964.2676,1669.9219,1986.7676,1647.4219,1964.2676,1669.9219,1941.7676" style="stroke:#718C8A;stroke-width:0.9375;"/><polygon fill="#EEF5F4" points="1459.9219,2024.2676,1879.9219,2024.2676,1902.4219,2052.6416,1879.9219,2081.0156,1459.9219,2081.0156,1437.4219,2052.6416,1459.9219,2024.2676" style="stroke:#718C8A;stroke-width:0.9375;"/><text fill="#294A48" font-family="Arial" font-size="24.375" lengthAdjust="spacing" textLength="418.125" x="1459.9219" y="2046.893">story_id AND story_memory_ready</text><text fill="#294A48" font-family="Arial" font-size="24.375" lengthAdjust="spacing" textLength="420" x="1459.9219" y="2075.267">AND save_story_memory &#1085;&#1072;&#1081;&#1076;&#1077;&#1085;?</text><text fill="#000000" font-family="Arial" font-size="24.375" lengthAdjust="spacing" textLength="33.75" x="1403.6719" y="2046.893">&#1076;&#1072;</text><text fill="#000000" font-family="Arial" font-size="24.375" lengthAdjust="spacing" textLength="46.875" x="1902.4219" y="2046.893">&#1085;&#1077;&#1090;</text><path d="M1436.4844,2099.7656 L1436.4844,2144.2017 L1398.9844,2151.7017 L1436.4844,2159.2017 L1436.4844,2203.6377 A0,0 0 0 0 1436.4844,2203.6377 L1935.2344,2203.6377 A0,0 0 0 0 1935.2344,2203.6377 L1935.2344,2118.5156 L1916.4844,2099.7656 L1436.4844,2099.7656 A0,0 0 0 0 1436.4844,2099.7656 " fill="#F7FAF9" style="stroke:#B9CBC6;stroke-width:0.9375;"/><path d="M1916.4844,2099.7656 L1916.4844,2118.5156 L1935.2344,2118.5156 L1916.4844,2099.7656 " fill="#F7FAF9" style="stroke:#B9CBC6;stroke-width:0.9375;"/><text fill="#334A46" font-family="Arial" font-size="24.375" lengthAdjust="spacing" textLength="360" x="1447.7344" y="2131.7661">synopsis_id &#1084;&#1086;&#1078;&#1077;&#1090; &#1073;&#1099;&#1090;&#1100; null.</text><text fill="#334A46" font-family="Arial" font-size="24.375" lengthAdjust="spacing" textLength="435" x="1447.7344" y="2160.1401">&#1057;&#1086;&#1093;&#1088;&#1072;&#1085;&#1077;&#1085;&#1080;&#1077; &#1085;&#1086;&#1074;&#1086;&#1081; memory version</text><text fill="#334A46" font-family="Arial" font-size="24.375" lengthAdjust="spacing" textLength="459.375" x="1447.7344" y="2188.5141">&#1085;&#1077; &#1079;&#1072;&#1074;&#1080;&#1089;&#1080;&#1090; &#1086;&#1090; &#1091;&#1089;&#1087;&#1077;&#1093;&#1072; save_synopsis.</text><rect fill="#89C4A7" height="94.248" rx="23.4375" ry="23.4375" style="stroke:#627A82;stroke-width:0.9375;" width="451.875" x="947.1094" y="2104.5776"/><text fill="#1F2937" font-family="Arial" font-size="24.375" lengthAdjust="spacing" textLength="243.75" x="965.8594" y="2145.9531">save_story_memory</text><text fill="#1F2937" font-family="Arial" font-size="24.375" lengthAdjust="spacing" textLength="414.375" x="965.8594" y="2174.3271">source_generation_id=synopsis_id</text><polygon fill="#EEF5F4" points="1096.1719,2241.1377,1249.9219,2241.1377,1272.4219,2263.6377,1249.9219,2286.1377,1096.1719,2286.1377,1073.6719,2263.6377,1096.1719,2241.1377" style="stroke:#718C8A;stroke-width:0.9375;"/><text fill="#294A48" font-family="Arial" font-size="24.375" lengthAdjust="spacing" textLength="153.75" x="1096.1719" y="2272.0761">saved=true?</text><text fill="#000000" font-family="Arial" font-size="24.375" lengthAdjust="spacing" textLength="33.75" x="1039.9219" y="2257.8891">&#1076;&#1072;</text><text fill="#000000" font-family="Arial" font-size="24.375" lengthAdjust="spacing" textLength="46.875" x="1272.4219" y="2257.8891">&#1085;&#1077;&#1090;</text><rect fill="#82BEA0" height="94.248" rx="23.4375" ry="23.4375" style="stroke:#627A82;stroke-width:0.9375;" width="517.5" x="669.1406" y="2304.8877"/><text fill="#1F2937" font-family="Arial" font-size="24.375" lengthAdjust="spacing" textLength="343.125" x="687.8906" y="2346.2631">story_memory_saved = true</text><text fill="#1F2937" font-family="Arial" font-size="24.375" lengthAdjust="spacing" textLength="480" x="687.8906" y="2374.6371">story_memory_version = &#1085;&#1086;&#1074;&#1072;&#1103; &#1074;&#1077;&#1088;&#1089;&#1080;&#1103;</text><rect fill="#DFDDD6" height="65.874" rx="23.4375" ry="23.4375" style="stroke:#627A82;stroke-width:0.9375;" width="388.125" x="1224.1406" y="2304.8877"/><text fill="#1F2937" font-family="Arial" font-size="24.375" lengthAdjust="spacing" textLength="350.625" x="1242.8906" y="2346.2631">story_memory_saved = false</text><polygon fill="#EEF5F4" points="1173.0469,2410.3857,1195.5469,2432.8857,1173.0469,2455.3857,1150.5469,2432.8857,1173.0469,2410.3857" style="stroke:#718C8A;stroke-width:0.9375;"/><rect fill="#DFDDD6" height="65.874" rx="23.4375" ry="23.4375" style="stroke:#627A82;stroke-width:0.9375;" width="388.125" x="1972.7344" y="2099.7656"/><text fill="#1F2937" font-family="Arial" font-size="24.375" lengthAdjust="spacing" textLength="350.625" x="1991.4844" y="2141.1411">story_memory_saved = false</text><polygon fill="#EEF5F4" points="1669.9219,2466.6357,1692.4219,2489.1357,1669.9219,2511.6357,1647.4219,2489.1357,1669.9219,2466.6357" style="stroke:#718C8A;stroke-width:0.9375;"/><polygon fill="#EEF5F4" points="1035,2522.8857,1057.5,2545.3857,1035,2567.8857,1012.5,2545.3857,1035,2522.8857" style="stroke:#718C8A;stroke-width:0.9375;"/><polygon fill="#EEF5F4" points="934.6875,2605.3857,1135.3125,2605.3857,1157.8125,2627.8857,1135.3125,2650.3857,934.6875,2650.3857,912.1875,2627.8857,934.6875,2605.3857" style="stroke:#718C8A;stroke-width:0.9375;"/><text fill="#294A48" font-family="Arial" font-size="24.375" lengthAdjust="spacing" textLength="200.625" x="934.6875" y="2636.3242">critique_passed?</text><text fill="#000000" font-family="Arial" font-size="24.375" lengthAdjust="spacing" textLength="33.75" x="878.4375" y="2622.1371">&#1076;&#1072;</text><text fill="#000000" font-family="Arial" font-size="24.375" lengthAdjust="spacing" textLength="46.875" x="1157.8125" y="2622.1371">&#1085;&#1077;&#1090;</text><rect fill="#79B899" height="65.874" rx="23.4375" ry="23.4375" style="stroke:#627A82;stroke-width:0.9375;" width="275.625" x="696.0938" y="2669.1357"/><text fill="#1F2937" font-family="Arial" font-size="24.375" lengthAdjust="spacing" textLength="238.125" x="714.8438" y="2710.5112">status = completed</text><rect fill="#DDBF92" height="65.874" rx="23.4375" ry="23.4375" style="stroke:#627A82;stroke-width:0.9375;" width="453.75" x="1009.2188" y="2669.1357"/><text fill="#1F2937" font-family="Arial" font-size="24.375" lengthAdjust="spacing" textLength="416.25" x="1027.9688" y="2710.5112">status = completed_with_warnings</text><polygon fill="#EEF5F4" points="1035,2746.2598,1057.5,2768.7598,1035,2791.2598,1012.5,2768.7598,1035,2746.2598" style="stroke:#718C8A;stroke-width:0.9375;"/><ellipse cx="1035" cy="2849.3848" fill="none" rx="20.625" ry="20.625" style="stroke:#222222;stroke-width:1.875;"/><ellipse cx="1035" cy="2849.3848" fill="#222222" rx="11.25" ry="11.25" style="stroke:#222222;stroke-width:1.875;"/><line style="stroke:#607B82;stroke-width:1.875;" x1="1035" x2="1035" y1="134.9121" y2="271.9702"/><polygon fill="#607B82" points="1027.5,253.2202,1035,271.9702,1042.5,253.2202,1035,260.7202" style="stroke:#607B82;stroke-width:1.875;"/><line style="stroke:#607B82;stroke-width:1.875;" x1="1035" x2="1035" y1="337.8442" y2="493.6523"/><polygon fill="#607B82" points="1027.5,474.9023,1035,493.6523,1042.5,474.9023,1035,482.4023" style="stroke:#607B82;stroke-width:1.875;"/><line style="stroke:#607B82;stroke-width:1.875;" x1="1035" x2="1035" y1="559.5264" y2="597.0264"/><polygon fill="#607B82" points="1027.5,578.2764,1035,597.0264,1042.5,578.2764,1035,585.7764" style="stroke:#607B82;stroke-width:1.875;"/><line style="stroke:#607B82;stroke-width:1.875;" x1="503.4375" x2="503.4375" y1="830.0244" y2="895.6494"/><polygon fill="#607B82" points="495.9375,876.8994,503.4375,895.6494,510.9375,876.8994,503.4375,884.3994" style="stroke:#607B82;stroke-width:1.875;"/><line style="stroke:#607B82;stroke-width:1.875;" x1="261.5625" x2="242.8125" y1="1021.5234" y2="1021.5234"/><line style="stroke:#607B82;stroke-width:1.875;" x1="242.8125" x2="242.8125" y1="1021.5234" y2="1062.7734"/><polygon fill="#607B82" points="235.3125,1044.0234,242.8125,1062.7734,250.3125,1044.0234,242.8125,1051.5234" style="stroke:#607B82;stroke-width:1.875;"/><line style="stroke:#607B82;stroke-width:1.875;" x1="745.3125" x2="764.0625" y1="1021.5234" y2="1021.5234"/><line style="stroke:#607B82;stroke-width:1.875;" x1="764.0625" x2="764.0625" y1="1021.5234" y2="1067.5854"/><polygon fill="#607B82" points="756.5625,1048.8354,764.0625,1067.5854,771.5625,1048.8354,764.0625,1056.3354" style="stroke:#607B82;stroke-width:1.875;"/><line style="stroke:#607B82;stroke-width:1.875;" x1="242.8125" x2="242.8125" y1="1157.0215" y2="1190.7715"/><line style="stroke:#607B82;stroke-width:1.875;" x1="242.8125" x2="480.9375" y1="1190.7715" y2="1190.7715"/><polygon fill="#607B82" points="462.1875,1183.2715,480.9375,1190.7715,462.1875,1198.2715,469.6875,1190.7715" style="stroke:#607B82;stroke-width:1.875;"/><line style="stroke:#607B82;stroke-width:1.875;" x1="764.0625" x2="764.0625" y1="1133.4595" y2="1190.7715"/><line style="stroke:#607B82;stroke-width:1.875;" x1="764.0625" x2="525.9375" y1="1190.7715" y2="1190.7715"/><polygon fill="#607B82" points="544.6875,1183.2715,525.9375,1190.7715,544.6875,1198.2715,537.1875,1190.7715" style="stroke:#607B82;stroke-width:1.875;"/><line style="stroke:#607B82;stroke-width:1.875;" x1="503.4375" x2="503.4375" y1="961.5234" y2="999.0234"/><polygon fill="#607B82" points="495.9375,980.2734,503.4375,999.0234,510.9375,980.2734,503.4375,987.7734" style="stroke:#607B82;stroke-width:1.875;"/><line style="stroke:#607B82;stroke-width:1.875;" x1="888.75" x2="503.4375" y1="722.9004" y2="722.9004"/><line style="stroke:#607B82;stroke-width:1.875;" x1="503.4375" x2="503.4375" y1="722.9004" y2="764.1504"/><polygon fill="#607B82" points="495.9375,745.4004,503.4375,764.1504,510.9375,745.4004,503.4375,752.9004" style="stroke:#607B82;stroke-width:1.875;"/><line style="stroke:#607B82;stroke-width:1.875;" x1="1181.25" x2="1566.5625" y1="722.9004" y2="722.9004"/><line style="stroke:#607B82;stroke-width:1.875;" x1="1566.5625" x2="1566.5625" y1="722.9004" y2="764.1504"/><polygon fill="#607B82" points="1559.0625,745.4004,1566.5625,764.1504,1574.0625,745.4004,1566.5625,752.9004" style="stroke:#607B82;stroke-width:1.875;"/><line style="stroke:#607B82;stroke-width:1.875;" x1="503.4375" x2="503.4375" y1="1213.2715" y2="1247.0215"/><line style="stroke:#607B82;stroke-width:1.875;" x1="503.4375" x2="1012.5" y1="1247.0215" y2="1247.0215"/><polygon fill="#607B82" points="993.75,1239.5215,1012.5,1247.0215,993.75,1254.5215,1001.25,1247.0215" style="stroke:#607B82;stroke-width:1.875;"/><line style="stroke:#607B82;stroke-width:1.875;" x1="1566.5625" x2="1566.5625" y1="858.3984" y2="1247.0215"/><line style="stroke:#607B82;stroke-width:1.875;" x1="1566.5625" x2="1057.5" y1="1247.0215" y2="1247.0215"/><polygon fill="#607B82" points="1076.25,1239.5215,1057.5,1247.0215,1076.25,1254.5215,1068.75,1247.0215" style="stroke:#607B82;stroke-width:1.875;"/><line style="stroke:#607B82;stroke-width:1.875;" x1="1035" x2="1035" y1="662.9004" y2="700.4004"/><polygon fill="#607B82" points="1027.5,681.6504,1035,700.4004,1042.5,681.6504,1035,689.1504" style="stroke:#607B82;stroke-width:1.875;"/><line style="stroke:#607B82;stroke-width:1.875;" x1="1035" x2="1035" y1="1269.5215" y2="1307.0215"/><polygon fill="#607B82" points="1027.5,1288.2715,1035,1307.0215,1042.5,1288.2715,1035,1295.7715" style="stroke:#607B82;stroke-width:1.875;"/><line style="stroke:#607B82;stroke-width:1.875;" x1="1035" x2="1035" y1="1372.8955" y2="1410.3955"/><polygon fill="#607B82" points="1027.5,1391.6455,1035,1410.3955,1042.5,1391.6455,1035,1399.1455" style="stroke:#607B82;stroke-width:1.875;"/><line style="stroke:#607B82;stroke-width:1.875;" x1="1340.3906" x2="1286.9531" y1="1767.1436" y2="1767.1436"/><line style="stroke:#607B82;stroke-width:1.875;" x1="1286.9531" x2="1286.9531" y1="1767.1436" y2="1808.3936"/><polygon fill="#607B82" points="1279.4531,1789.6436,1286.9531,1808.3936,1294.4531,1789.6436,1286.9531,1797.1436" style="stroke:#607B82;stroke-width:1.875;"/><line style="stroke:#607B82;stroke-width:1.875;" x1="1539.1406" x2="1592.5781" y1="1767.1436" y2="1767.1436"/><line style="stroke:#607B82;stroke-width:1.875;" x1="1592.5781" x2="1592.5781" y1="1767.1436" y2="1808.3936"/><polygon fill="#607B82" points="1585.0781,1789.6436,1592.5781,1808.3936,1600.0781,1789.6436,1592.5781,1797.1436" style="stroke:#607B82;stroke-width:1.875;"/><line style="stroke:#607B82;stroke-width:1.875;" x1="1286.9531" x2="1286.9531" y1="1874.2676" y2="1908.0176"/><line style="stroke:#607B82;stroke-width:1.875;" x1="1286.9531" x2="1417.2656" y1="1908.0176" y2="1908.0176"/><polygon fill="#607B82" points="1398.5156,1900.5176,1417.2656,1908.0176,1398.5156,1915.5176,1406.0156,1908.0176" style="stroke:#607B82;stroke-width:1.875;"/><line style="stroke:#607B82;stroke-width:1.875;" x1="1592.5781" x2="1592.5781" y1="1874.2676" y2="1908.0176"/><line style="stroke:#607B82;stroke-width:1.875;" x1="1592.5781" x2="1462.2656" y1="1908.0176" y2="1908.0176"/><polygon fill="#607B82" points="1481.0156,1900.5176,1462.2656,1908.0176,1481.0156,1915.5176,1473.5156,1908.0176" style="stroke:#607B82;stroke-width:1.875;"/><line style="stroke:#607B82;stroke-width:1.875;" x1="1439.7656" x2="1439.7656" y1="1707.1436" y2="1744.6436"/><polygon fill="#607B82" points="1432.2656,1725.8936,1439.7656,1744.6436,1447.2656,1725.8936,1439.7656,1733.3936" style="stroke:#607B82;stroke-width:1.875;"/><line style="stroke:#607B82;stroke-width:1.875;" x1="1503.9844" x2="1439.7656" y1="1600.0195" y2="1600.0195"/><line style="stroke:#607B82;stroke-width:1.875;" x1="1439.7656" x2="1439.7656" y1="1600.0195" y2="1641.2695"/><polygon fill="#607B82" points="1432.2656,1622.5195,1439.7656,1641.2695,1447.2656,1622.5195,1439.7656,1630.0195" style="stroke:#607B82;stroke-width:1.875;"/><line style="stroke:#607B82;stroke-width:1.875;" x1="1835.8594" x2="1900.0781" y1="1600.0195" y2="1600.0195"/><line style="stroke:#607B82;stroke-width:1.875;" x1="1900.0781" x2="1900.0781" y1="1600.0195" y2="1641.2695"/><polygon fill="#607B82" points="1892.5781,1622.5195,1900.0781,1641.2695,1907.5781,1622.5195,1900.0781,1630.0195" style="stroke:#607B82;stroke-width:1.875;"/><line style="stroke:#607B82;stroke-width:1.875;" x1="1439.7656" x2="1439.7656" y1="1930.5176" y2="1964.2676"/><line style="stroke:#607B82;stroke-width:1.875;" x1="1439.7656" x2="1647.4219" y1="1964.2676" y2="1964.2676"/><polygon fill="#607B82" points="1628.6719,1956.7676,1647.4219,1964.2676,1628.6719,1971.7676,1636.1719,1964.2676" style="stroke:#607B82;stroke-width:1.875;"/><line style="stroke:#607B82;stroke-width:1.875;" x1="1900.0781" x2="1900.0781" y1="1707.1436" y2="1964.2676"/><line style="stroke:#607B82;stroke-width:1.875;" x1="1900.0781" x2="1692.4219" y1="1964.2676" y2="1964.2676"/><polygon fill="#607B82" points="1711.1719,1956.7676,1692.4219,1964.2676,1711.1719,1971.7676,1703.6719,1964.2676" style="stroke:#607B82;stroke-width:1.875;"/><line style="stroke:#607B82;stroke-width:1.875;" x1="1073.6719" x2="927.8906" y1="2263.6377" y2="2263.6377"/><line style="stroke:#607B82;stroke-width:1.875;" x1="927.8906" x2="927.8906" y1="2263.6377" y2="2304.8877"/><polygon fill="#607B82" points="920.3906,2286.1377,927.8906,2304.8877,935.3906,2286.1377,927.8906,2293.6377" style="stroke:#607B82;stroke-width:1.875;"/><line style="stroke:#607B82;stroke-width:1.875;" x1="1272.4219" x2="1418.2031" y1="2263.6377" y2="2263.6377"/><line style="stroke:#607B82;stroke-width:1.875;" x1="1418.2031" x2="1418.2031" y1="2263.6377" y2="2304.8877"/><polygon fill="#607B82" points="1410.7031,2286.1377,1418.2031,2304.8877,1425.7031,2286.1377,1418.2031,2293.6377" style="stroke:#607B82;stroke-width:1.875;"/><line style="stroke:#607B82;stroke-width:1.875;" x1="927.8906" x2="927.8906" y1="2399.1357" y2="2432.8857"/><line style="stroke:#607B82;stroke-width:1.875;" x1="927.8906" x2="1150.5469" y1="2432.8857" y2="2432.8857"/><polygon fill="#607B82" points="1131.7969,2425.3857,1150.5469,2432.8857,1131.7969,2440.3857,1139.2969,2432.8857" style="stroke:#607B82;stroke-width:1.875;"/><line style="stroke:#607B82;stroke-width:1.875;" x1="1418.2031" x2="1418.2031" y1="2370.7617" y2="2432.8857"/><line style="stroke:#607B82;stroke-width:1.875;" x1="1418.2031" x2="1195.5469" y1="2432.8857" y2="2432.8857"/><polygon fill="#607B82" points="1214.2969,2425.3857,1195.5469,2432.8857,1214.2969,2440.3857,1206.7969,2432.8857" style="stroke:#607B82;stroke-width:1.875;"/><line style="stroke:#607B82;stroke-width:1.875;" x1="1173.0469" x2="1173.0469" y1="2198.8257" y2="2241.1377"/><polygon fill="#607B82" points="1165.5469,2222.3877,1173.0469,2241.1377,1180.5469,2222.3877,1173.0469,2229.8877" style="stroke:#607B82;stroke-width:1.875;"/><line style="stroke:#607B82;stroke-width:1.875;" x1="1437.4219" x2="1173.0469" y1="2052.6416" y2="2052.6416"/><line style="stroke:#607B82;stroke-width:1.875;" x1="1173.0469" x2="1173.0469" y1="2052.6416" y2="2104.5776"/><polygon fill="#607B82" points="1165.5469,2085.8276,1173.0469,2104.5776,1180.5469,2085.8276,1173.0469,2093.3276" style="stroke:#607B82;stroke-width:1.875;"/><line style="stroke:#607B82;stroke-width:1.875;" x1="1902.4219" x2="2166.7969" y1="2052.6416" y2="2052.6416"/><line style="stroke:#607B82;stroke-width:1.875;" x1="2166.7969" x2="2166.7969" y1="2052.6416" y2="2099.7656"/><polygon fill="#607B82" points="2159.2969,2081.0156,2166.7969,2099.7656,2174.2969,2081.0156,2166.7969,2088.5156" style="stroke:#607B82;stroke-width:1.875;"/><line style="stroke:#607B82;stroke-width:1.875;" x1="1173.0469" x2="1173.0469" y1="2455.3857" y2="2489.1357"/><line style="stroke:#607B82;stroke-width:1.875;" x1="1173.0469" x2="1647.4219" y1="2489.1357" y2="2489.1357"/><polygon fill="#607B82" points="1628.6719,2481.6357,1647.4219,2489.1357,1628.6719,2496.6357,1636.1719,2489.1357" style="stroke:#607B82;stroke-width:1.875;"/><line style="stroke:#607B82;stroke-width:1.875;" x1="2166.7969" x2="2166.7969" y1="2165.6396" y2="2489.1357"/><line style="stroke:#607B82;stroke-width:1.875;" x1="2166.7969" x2="1692.4219" y1="2489.1357" y2="2489.1357"/><polygon fill="#607B82" points="1711.1719,2481.6357,1692.4219,2489.1357,1711.1719,2496.6357,1703.6719,2489.1357" style="stroke:#607B82;stroke-width:1.875;"/><line style="stroke:#607B82;stroke-width:1.875;" x1="1669.9219" x2="1669.9219" y1="1986.7676" y2="2024.2676"/><polygon fill="#607B82" points="1662.4219,2005.5176,1669.9219,2024.2676,1677.4219,2005.5176,1669.9219,2013.0176" style="stroke:#607B82;stroke-width:1.875;"/><line style="stroke:#607B82;stroke-width:1.875;" x1="944.0625" x2="400.0781" y1="1536.2695" y2="1536.2695"/><line style="stroke:#607B82;stroke-width:1.875;" x1="400.0781" x2="400.0781" y1="1536.2695" y2="1577.5195"/><polygon fill="#607B82" points="392.5781,1558.7695,400.0781,1577.5195,407.5781,1558.7695,400.0781,1566.2695" style="stroke:#607B82;stroke-width:1.875;"/><line style="stroke:#607B82;stroke-width:1.875;" x1="1125.9375" x2="1669.9219" y1="1536.2695" y2="1536.2695"/><line style="stroke:#607B82;stroke-width:1.875;" x1="1669.9219" x2="1669.9219" y1="1536.2695" y2="1577.5195"/><polygon fill="#607B82" points="1662.4219,1558.7695,1669.9219,1577.5195,1677.4219,1558.7695,1669.9219,1566.2695" style="stroke:#607B82;stroke-width:1.875;"/><line style="stroke:#607B82;stroke-width:1.875;" x1="400.0781" x2="400.0781" y1="1643.3936" y2="2545.3857"/><line style="stroke:#607B82;stroke-width:1.875;" x1="400.0781" x2="1012.5" y1="2545.3857" y2="2545.3857"/><polygon fill="#607B82" points="993.75,2537.8857,1012.5,2545.3857,993.75,2552.8857,1001.25,2545.3857" style="stroke:#607B82;stroke-width:1.875;"/><line style="stroke:#607B82;stroke-width:1.875;" x1="1669.9219" x2="1669.9219" y1="2511.6357" y2="2545.3857"/><line style="stroke:#607B82;stroke-width:1.875;" x1="1669.9219" x2="1057.5" y1="2545.3857" y2="2545.3857"/><polygon fill="#607B82" points="1076.25,2537.8857,1057.5,2545.3857,1076.25,2552.8857,1068.75,2545.3857" style="stroke:#607B82;stroke-width:1.875;"/><line style="stroke:#607B82;stroke-width:1.875;" x1="1035" x2="1035" y1="1476.2695" y2="1513.7695"/><polygon fill="#607B82" points="1027.5,1495.0195,1035,1513.7695,1042.5,1495.0195,1035,1502.5195" style="stroke:#607B82;stroke-width:1.875;"/><line style="stroke:#607B82;stroke-width:1.875;" x1="912.1875" x2="833.9063" y1="2627.8857" y2="2627.8857"/><line style="stroke:#607B82;stroke-width:1.875;" x1="833.9063" x2="833.9063" y1="2627.8857" y2="2669.1357"/><polygon fill="#607B82" points="826.4063,2650.3857,833.9063,2669.1357,841.4063,2650.3857,833.9063,2657.8857" style="stroke:#607B82;stroke-width:1.875;"/><line style="stroke:#607B82;stroke-width:1.875;" x1="1157.8125" x2="1236.0938" y1="2627.8857" y2="2627.8857"/><line style="stroke:#607B82;stroke-width:1.875;" x1="1236.0938" x2="1236.0938" y1="2627.8857" y2="2669.1357"/><polygon fill="#607B82" points="1228.5938,2650.3857,1236.0938,2669.1357,1243.5938,2650.3857,1236.0938,2657.8857" style="stroke:#607B82;stroke-width:1.875;"/><line style="stroke:#607B82;stroke-width:1.875;" x1="833.9063" x2="833.9063" y1="2735.0098" y2="2768.7598"/><line style="stroke:#607B82;stroke-width:1.875;" x1="833.9063" x2="1012.5" y1="2768.7598" y2="2768.7598"/><polygon fill="#607B82" points="993.75,2761.2598,1012.5,2768.7598,993.75,2776.2598,1001.25,2768.7598" style="stroke:#607B82;stroke-width:1.875;"/><line style="stroke:#607B82;stroke-width:1.875;" x1="1236.0938" x2="1236.0938" y1="2735.0098" y2="2768.7598"/><line style="stroke:#607B82;stroke-width:1.875;" x1="1236.0938" x2="1057.5" y1="2768.7598" y2="2768.7598"/><polygon fill="#607B82" points="1076.25,2761.2598,1057.5,2768.7598,1076.25,2776.2598,1068.75,2768.7598" style="stroke:#607B82;stroke-width:1.875;"/><line style="stroke:#607B82;stroke-width:1.875;" x1="1035" x2="1035" y1="2567.8857" y2="2605.3857"/><polygon fill="#607B82" points="1027.5,2586.6357,1035,2605.3857,1042.5,2586.6357,1035,2594.1357" style="stroke:#607B82;stroke-width:1.875;"/><line style="stroke:#607B82;stroke-width:1.875;" x1="1035" x2="1035" y1="2791.2598" y2="2828.7598"/><polygon fill="#607B82" points="1027.5,2810.0098,1035,2828.7598,1042.5,2810.0098,1035,2817.5098" style="stroke:#607B82;stroke-width:1.875;"/><rect fill="none" height="240.1465" id="_legend" rx="14.0625" ry="14.0625" style="stroke:#000000;stroke-width:1.875;" width="506.25" x="1828.3594" y="2890.6348"/><text fill="#000000" font-family="Arial" font-size="26.25" font-weight="bold" lengthAdjust="spacing" textLength="127.5" x="1847.1094" y="2928.1256">&#1054;&#1090;&#1090;&#1077;&#1085;&#1086;&#1082;</text><text fill="#000000" font-family="Arial" font-size="26.25" font-weight="bold" lengthAdjust="spacing" textLength="69.375" x="1993.3594" y="2928.1256">&#1069;&#1090;&#1072;&#1087;</text><rect fill="#DCE5EE" height="30.5566" style="stroke:none;stroke-width:1.875;" width="146.25" x="1837.7344" y="2934.3164"/><text fill="#000000" font-family="Arial" font-size="26.25" lengthAdjust="spacing" textLength="7.5" x="1837.7344" y="2958.6823">&#160;</text><text fill="#000000" font-family="Arial" font-size="26.25" lengthAdjust="spacing" textLength="281.25" x="1991.4844" y="2958.6823">&#1071;&#1079;&#1099;&#1082;&#1086;&#1074;&#1072;&#1103; &#1088;&#1077;&#1076;&#1072;&#1082;&#1090;&#1091;&#1088;&#1072;</text><rect fill="#CDE9E3" height="30.5566" style="stroke:none;stroke-width:1.875;" width="146.25" x="1837.7344" y="2964.873"/><text fill="#000000" font-family="Arial" font-size="26.25" lengthAdjust="spacing" textLength="7.5" x="1837.7344" y="2989.2389">&#160;</text><text fill="#000000" font-family="Arial" font-size="26.25" lengthAdjust="spacing" textLength="315" x="1991.4844" y="2989.2389">&#1060;&#1086;&#1088;&#1084;&#1080;&#1088;&#1086;&#1074;&#1072;&#1085;&#1080;&#1077; &#1087;&#1072;&#1084;&#1103;&#1090;&#1080;</text><rect fill="#A9D9C3" height="30.5566" style="stroke:none;stroke-width:1.875;" width="146.25" x="1837.7344" y="2995.4297"/><text fill="#000000" font-family="Arial" font-size="26.25" lengthAdjust="spacing" textLength="7.5" x="1837.7344" y="3019.7955">&#160;</text><text fill="#000000" font-family="Arial" font-size="26.25" lengthAdjust="spacing" textLength="219.375" x="1991.4844" y="3019.7955">MCP persistence</text><rect fill="#F1DDCF" height="30.5566" style="stroke:none;stroke-width:1.875;" width="146.25" x="1837.7344" y="3025.9863"/><text fill="#000000" font-family="Arial" font-size="26.25" lengthAdjust="spacing" textLength="7.5" x="1837.7344" y="3050.3522">&#160;</text><text fill="#000000" font-family="Arial" font-size="26.25" lengthAdjust="spacing" textLength="206.25" x="1991.4844" y="3050.3522">Memory fallback</text><rect fill="#79B899" height="30.5566" style="stroke:none;stroke-width:1.875;" width="146.25" x="1837.7344" y="3056.543"/><text fill="#000000" font-family="Arial" font-size="26.25" lengthAdjust="spacing" textLength="7.5" x="1837.7344" y="3080.9088">&#160;</text><text fill="#000000" font-family="Arial" font-size="26.25" lengthAdjust="spacing" textLength="142.5" x="1991.4844" y="3080.9088">Completed</text><rect fill="#DDBF92" height="30.5566" style="stroke:none;stroke-width:1.875;" width="146.25" x="1837.7344" y="3087.0996"/><text fill="#000000" font-family="Arial" font-size="26.25" lengthAdjust="spacing" textLength="7.5" x="1837.7344" y="3111.4655">&#160;</text><text fill="#000000" font-family="Arial" font-size="26.25" lengthAdjust="spacing" textLength="326.25" x="1991.4844" y="3111.4655">Completed with warnings</text><line style="stroke:#000000;stroke-width:1.875;" x1="1837.7344" x2="2325.2344" y1="2903.7598" y2="2903.7598"/><line style="stroke:#000000;stroke-width:1.875;" x1="1837.7344" x2="2325.2344" y1="2934.3164" y2="2934.3164"/><line style="stroke:#000000;stroke-width:1.875;" x1="1837.7344" x2="2325.2344" y1="2964.873" y2="2964.873"/><line style="stroke:#000000;stroke-width:1.875;" x1="1837.7344" x2="2325.2344" y1="2995.4297" y2="2995.4297"/><line style="stroke:#000000;stroke-width:1.875;" x1="1837.7344" x2="2325.2344" y1="3025.9863" y2="3025.9863"/><line style="stroke:#000000;stroke-width:1.875;" x1="1837.7344" x2="2325.2344" y1="3056.543" y2="3056.543"/><line style="stroke:#000000;stroke-width:1.875;" x1="1837.7344" x2="2325.2344" y1="3087.0996" y2="3087.0996"/><line style="stroke:#000000;stroke-width:1.875;" x1="1837.7344" x2="2325.2344" y1="3117.6563" y2="3117.6563"/><line style="stroke:#000000;stroke-width:1.875;" x1="1837.7344" x2="1837.7344" y1="2903.7598" y2="3117.6563"/><line style="stroke:#000000;stroke-width:1.875;" x1="1983.9844" x2="1983.9844" y1="2903.7598" y2="3117.6563"/><line style="stroke:#000000;stroke-width:1.875;" x1="2325.2344" x2="2325.2344" y1="2903.7598" y2="3117.6563"/><!--SRC=[dLP9Rzj65BxpLmoWImAaWRLP8bstuAPJ4XH8Zm48LXpBH2XI9KTstRg0BJTD0GVnjPUsA91hKTkf6tcHz1U6_wZlpP3oI5QQj194IMzVllTcMCWYIlWRFkOJViglyrVudPyGFkLd-G6GplWq7_4hVlg0yB-0UitVmlCSU1Vy1ZwJKc46mZVvIJxANn4-9WEQPc76QDobcfOz3-E1d_fzyfNVVTvBas4Ss4cKfAJIiU7jA1BPjXyaks7S8rj-b5654mn2KcslAHI7Rld3Y7MIc3tn-vIOQUX7g_bFmsyfgTOLvfUO-oshlOfL15bRhrkDfY9WfccoMp3NrrfMkwOcwNTPk1EoFVATHk1b9Mb0qrAwrZ916kcAWsgdfjTRWkg4VZ-90skvKAxRQNOQ2oAgtLQrRRTDbQt6hpVCHbimdp8_BScjUjinwuBiplqq6sQjlQvzhoOK9uoMoTnfOAjZTlIxYLgwRTdhoudMwn29j8w1Q5h5iTscwngH7_U6VezwD0XPacvecd2QXhrj9epmd_D3FXEOF0UWdl2BV6G8pYU4lnNq6tYV0bh7_2e_AbdJ_23_0I0hHE3NE7zTicRv4Q3t2Y1x1AmVLTOrGFiA78xpb-3e40PWp2yGv8ZzaJ1wNCfEG1PaW2oVvt8iycFGGDVW-0OyN8En0zH7O_CGW3pDN_0f0KTZK3x5kHAg83O5As0Hd1r1D10WACfY_882SXx_HdT43cCnVw3q6kdvw84Kdy7l0qXZAiOSDIuV4F7_B3_6Yk44Zv42lk5v_L2ZSI3wZYrgkYrNDxR2s8yyHhzXq9sAxRYwMpVwj9-aUrxVZw5vsBPmYzoxbPJLWKABoapvvUVt2TkcCRa7qP_UbzbKx8QxxfZ68AKxOJBCF6cKR9AC2UFYxqOXR5bkpQaPJv7rM0fcB1rssJ2b0Kc6R31aXIp6ykZHOuBkHGr-Wd2c13i4hPXWKuXYPrLiqcNDSMtJKAE1uD0MeE6ONv8izWVPTiAUnQgCbr8_G4a8ZnOXKTXfu622pL5TTAgEOtUCbUfY4MxS2YzDHldYloD-49aOaM9eKMeYWNmXLlWxWCCCsdy8IkS8Fi3FONxoSAuoXq7n9zpIj1Kvm7foEauJulVPC8EOYnHWXmm6D7XFNSh42hiLKtTqksuKPuSdT11hPjLfMBRHeyphTmSUIv8eyp9_YqPxz-uNc1D4Ka9j9SpSjkC0SXP2oVmTG8qIojtSq3gAUTbUd0mWCYAcw19CmyYz5pIwRdUifi5_0vJCn9J1AKeM32azBPq4cmYM9QDg_ofwrTPDroXjU64Wzz8rPFuI8zguRTv2CWjMobeeLZP9F8oY3RNrs9Nt6_gG4SM0I4_K7MJC9mwvYuTdiQ2B-gY3zb75RkjsmsmPTxG1UCamxLAlHsEQ-YnCOeXWKudumtErKEaRgBJOh4IkJjYscF33fKd4fIxEf8au3CJX8TO5xi1YECWEuZo9LupdEt7AZSK1DC8pR7IxmruiesZ5iFuFMBLhbckkhHuEr5qQuIBs-HgKby3pufo1y-IZK0Wxmt7M_tKYFuX6xRzOMrXZyWjBr4r35duzfDx0pp8QhAXJfQLRRLs_NN3Tf3-8AAC0eBi9LXp7wkYr5TBURiYslLq_ZU6A2mkW209Y7cXQH7lOGWd1VIZjhm2maK3Gb5yHfFmXxWWpig_jVrhSdJxR9_nF_Wus-DMy4sAvG_3oTeD8b1hor4QDD_9YCh-Kd9OmdL_auK8WTEHM1ft7zXVglLvovS65N0bgA7I4jtp9bLK3hbqMe8XSr6U1ZeKXPM502YeXww7z0m00]--></g></svg>