<?xml version="1.0" encoding="us-ascii" standalone="no"?><svg xmlns="http://www.w3.org/2000/svg" xmlns:xlink="http://www.w3.org/1999/xlink" contentStyleType="text/css" height="1916.25px" preserveAspectRatio="none" style="width:2214px;height:1916px;background:#FCFCFD;" version="1.1" viewBox="0 0 2214 1916" width="2214.375px" zoomAndPan="magnify"><defs/><g><rect fill="#FCFCFD" height="1916.25" style="stroke:none;stroke-width:1.875;" width="2214.375" x="0" y="0"/><text fill="#29384A" font-family="Arial" font-size="33.75" font-weight="bold" lengthAdjust="spacing" textLength="1164.375" x="511.875" y="50.0775">Synopsis Generator &#8212; &#1086;&#1075;&#1088;&#1072;&#1085;&#1080;&#1095;&#1077;&#1085;&#1080;&#1103; &#1080; &#1085;&#1072;&#1087;&#1088;&#1072;&#1074;&#1083;&#1077;&#1085;&#1080;&#1103; &#1088;&#1072;&#1079;&#1074;&#1080;&#1090;&#1080;&#1103;</text><!--cluster ??????? MVP--><g id="cluster_&#1058;&#1077;&#1082;&#1091;&#1097;&#1080;&#1081; MVP"><path d="M15.9375,441.4746 L212.8125,441.4746 A7.0313,7.0313 0 0 1 217.5,446.1621 L230.625,481.0986 L375.9375,481.0986 A4.6875,4.6875 0 0 1 380.625,485.7861 L380.625,1274.9121 A4.6875,4.6875 0 0 1 375.9375,1279.5996 L15.9375,1279.5996 A4.6875,4.6875 0 0 1 11.25,1274.9121 L11.25,446.1621 A4.6875,4.6875 0 0 1 15.9375,441.4746 " fill="#E8F1ED" style="stroke:#000000;stroke-width:2.8125;"/><line style="stroke:#000000;stroke-width:2.8125;" x1="11.25" x2="230.625" y1="481.0986" y2="481.0986"/><text fill="#000000" font-family="Arial" font-size="24.375" font-weight="bold" lengthAdjust="spacing" textLength="195" x="18.75" y="467.85">&#1058;&#1077;&#1082;&#1091;&#1097;&#1080;&#1081; MVP</text></g><!--cluster ??????? ???????????--><g id="cluster_&#1058;&#1077;&#1082;&#1091;&#1097;&#1080;&#1077; &#1086;&#1075;&#1088;&#1072;&#1085;&#1080;&#1095;&#1077;&#1085;&#1080;&#1103;"><path d="M942.1875,223.9746 L1259.0625,223.9746 A7.0313,7.0313 0 0 1 1263.75,228.6621 L1276.875,263.5986 L1311.5625,263.5986 A4.6875,4.6875 0 0 1 1316.25,268.2861 L1316.25,1316.1621 A4.6875,4.6875 0 0 1 1311.5625,1320.8496 L942.1875,1320.8496 A4.6875,4.6875 0 0 1 937.5,1316.1621 L937.5,228.6621 A4.6875,4.6875 0 0 1 942.1875,223.9746 " fill="#F5EFE4" style="stroke:#000000;stroke-width:2.8125;"/><line style="stroke:#000000;stroke-width:2.8125;" x1="937.5" x2="1276.875" y1="263.5986" y2="263.5986"/><text fill="#000000" font-family="Arial" font-size="24.375" font-weight="bold" lengthAdjust="spacing" textLength="315" x="945" y="250.35">&#1058;&#1077;&#1082;&#1091;&#1097;&#1080;&#1077; &#1086;&#1075;&#1088;&#1072;&#1085;&#1080;&#1095;&#1077;&#1085;&#1080;&#1103;</text></g><!--cluster ????????? ????????--><g id="cluster_&#1042;&#1086;&#1079;&#1084;&#1086;&#1078;&#1085;&#1086;&#1077; &#1088;&#1072;&#1079;&#1074;&#1080;&#1090;&#1080;&#1077;"><path d="M1804.6875,223.9746 L2110.3125,223.9746 A7.0313,7.0313 0 0 1 2115,228.6621 L2128.125,263.5986 L2196.5625,263.5986 A4.6875,4.6875 0 0 1 2201.25,268.2861 L2201.25,1494.2871 A4.6875,4.6875 0 0 1 2196.5625,1498.9746 L1804.6875,1498.9746 A4.6875,4.6875 0 0 1 1800,1494.2871 L1800,228.6621 A4.6875,4.6875 0 0 1 1804.6875,223.9746 " fill="#EEEAF5" style="stroke:#000000;stroke-width:2.8125;"/><line style="stroke:#000000;stroke-width:2.8125;" x1="1800" x2="2128.125" y1="263.5986" y2="263.5986"/><text fill="#000000" font-family="Arial" font-size="24.375" font-weight="bold" lengthAdjust="spacing" textLength="303.75" x="1807.5" y="250.35">&#1042;&#1086;&#1079;&#1084;&#1086;&#1078;&#1085;&#1086;&#1077; &#1088;&#1072;&#1079;&#1074;&#1080;&#1090;&#1080;&#1077;</text></g><!--entity Memory--><g id="elem_Memory"><rect fill="#BBDDCF" height="112.998" rx="4.6875" ry="4.6875" style="stroke:#68798A;stroke-width:0.9375;" width="243.75" x="74.0625" y="505.2246"/><rect fill="#BBDDCF" height="18.75" style="stroke:#68798A;stroke-width:0.9375;" width="28.125" x="280.3125" y="514.5996"/><rect fill="#BBDDCF" height="3.75" style="stroke:#68798A;stroke-width:0.9375;" width="7.5" x="276.5625" y="518.3496"/><rect fill="#BBDDCF" height="3.75" style="stroke:#68798A;stroke-width:0.9375;" width="7.5" x="276.5625" y="525.8496"/><text fill="#243342" font-family="Arial" font-size="24.375" lengthAdjust="spacing" textLength="125.625" x="102.1875" y="565.35">Long-term</text><text fill="#243342" font-family="Arial" font-size="24.375" lengthAdjust="spacing" textLength="168.75" x="102.1875" y="593.7241">Story Memory</text></g><!--entity HITL--><g id="elem_HITL"><rect fill="#B1D8C8" height="84.624" rx="4.6875" ry="4.6875" style="stroke:#68798A;stroke-width:0.9375;" width="309.375" x="41.25" y="684.2871"/><rect fill="#B1D8C8" height="18.75" style="stroke:#68798A;stroke-width:0.9375;" width="28.125" x="313.125" y="693.6621"/><rect fill="#B1D8C8" height="3.75" style="stroke:#68798A;stroke-width:0.9375;" width="7.5" x="309.375" y="697.4121"/><rect fill="#B1D8C8" height="3.75" style="stroke:#68798A;stroke-width:0.9375;" width="7.5" x="309.375" y="704.9121"/><text fill="#243342" font-family="Arial" font-size="24.375" lengthAdjust="spacing" textLength="234.375" x="69.375" y="744.4125">Human-in-the-Loop</text></g><!--entity Loop--><g id="elem_Loop"><rect fill="#A8D4C1" height="112.998" rx="4.6875" ry="4.6875" style="stroke:#68798A;stroke-width:0.9375;" width="240" x="75.9375" y="835.2246"/><rect fill="#A8D4C1" height="18.75" style="stroke:#68798A;stroke-width:0.9375;" width="28.125" x="278.4375" y="844.5996"/><rect fill="#A8D4C1" height="3.75" style="stroke:#68798A;stroke-width:0.9375;" width="7.5" x="274.6875" y="848.3496"/><rect fill="#A8D4C1" height="3.75" style="stroke:#68798A;stroke-width:0.9375;" width="7.5" x="274.6875" y="855.8496"/><text fill="#243342" font-family="Arial" font-size="24.375" lengthAdjust="spacing" textLength="165" x="104.0625" y="895.35">Writer &#8594; Critic</text><text fill="#243342" font-family="Arial" font-size="24.375" lengthAdjust="spacing" textLength="163.125" x="104.0625" y="923.7241">Revision Loop</text></g><!--entity MCP--><g id="elem_MCP"><rect fill="#9FCFBA" height="84.624" rx="4.6875" ry="4.6875" style="stroke:#68798A;stroke-width:0.9375;" width="273.75" x="59.0625" y="1014.2871"/><rect fill="#9FCFBA" height="18.75" style="stroke:#68798A;stroke-width:0.9375;" width="28.125" x="295.3125" y="1023.6621"/><rect fill="#9FCFBA" height="3.75" style="stroke:#68798A;stroke-width:0.9375;" width="7.5" x="291.5625" y="1027.4121"/><rect fill="#9FCFBA" height="3.75" style="stroke:#68798A;stroke-width:0.9375;" width="7.5" x="291.5625" y="1034.9121"/><text fill="#243342" font-family="Arial" font-size="24.375" lengthAdjust="spacing" textLength="198.75" x="87.1875" y="1074.4125">MCP Persistence</text></g><!--entity Logs--><g id="elem_Logs"><rect fill="#96CBB3" height="84.624" rx="4.6875" ry="4.6875" style="stroke:#68798A;stroke-width:0.9375;" width="307.5" x="42.1875" y="1164.2871"/><rect fill="#96CBB3" height="18.75" style="stroke:#68798A;stroke-width:0.9375;" width="28.125" x="312.1875" y="1173.6621"/><rect fill="#96CBB3" height="3.75" style="stroke:#68798A;stroke-width:0.9375;" width="7.5" x="308.4375" y="1177.4121"/><rect fill="#96CBB3" height="3.75" style="stroke:#68798A;stroke-width:0.9375;" width="7.5" x="308.4375" y="1184.9121"/><text fill="#243342" font-family="Arial" font-size="24.375" lengthAdjust="spacing" textLength="232.5" x="70.3125" y="1224.4125">Application Logging</text></g><!--entity Genre--><g id="elem_Genre"><rect fill="#E7D4A8" height="112.998" rx="4.6875" ry="4.6875" style="stroke:#68798A;stroke-width:0.9375;" width="256.875" x="998.4375" y="822.0996"/><rect fill="#E7D4A8" height="18.75" style="stroke:#68798A;stroke-width:0.9375;" width="28.125" x="1217.8125" y="831.4746"/><rect fill="#E7D4A8" height="3.75" style="stroke:#68798A;stroke-width:0.9375;" width="7.5" x="1214.0625" y="835.2246"/><rect fill="#E7D4A8" height="3.75" style="stroke:#68798A;stroke-width:0.9375;" width="7.5" x="1214.0625" y="842.7246"/><text fill="#243342" font-family="Arial" font-size="24.375" lengthAdjust="spacing" textLength="181.875" x="1026.5625" y="882.225">Keyword-based</text><text fill="#243342" font-family="Arial" font-size="24.375" lengthAdjust="spacing" textLength="170.625" x="1026.5625" y="910.5991">Genre Routing</text></g><!--entity OneModel--><g id="elem_OneModel"><rect fill="#E1CDA0" height="112.998" rx="4.6875" ry="4.6875" style="stroke:#68798A;stroke-width:0.9375;" width="296.25" x="978.75" y="287.7246"/><rect fill="#E1CDA0" height="18.75" style="stroke:#68798A;stroke-width:0.9375;" width="28.125" x="1237.5" y="297.0996"/><rect fill="#E1CDA0" height="3.75" style="stroke:#68798A;stroke-width:0.9375;" width="7.5" x="1233.75" y="300.8496"/><rect fill="#E1CDA0" height="3.75" style="stroke:#68798A;stroke-width:0.9375;" width="7.5" x="1233.75" y="308.3496"/><text fill="#243342" font-family="Arial" font-size="24.375" lengthAdjust="spacing" textLength="221.25" x="1006.875" y="347.85">&#1054;&#1076;&#1080;&#1085; LLM_MODEL</text><text fill="#243342" font-family="Arial" font-size="24.375" lengthAdjust="spacing" textLength="195" x="1006.875" y="376.2241">&#1076;&#1083;&#1103; &#1074;&#1089;&#1077;&#1093; &#1088;&#1086;&#1083;&#1077;&#1081;</text></g><!--entity NoHistory--><g id="elem_NoHistory"><rect fill="#DAC798" height="112.998" rx="4.6875" ry="4.6875" style="stroke:#68798A;stroke-width:0.9375;" width="236.25" x="1008.75" y="643.9746"/><rect fill="#DAC798" height="18.75" style="stroke:#68798A;stroke-width:0.9375;" width="28.125" x="1207.5" y="653.3496"/><rect fill="#DAC798" height="3.75" style="stroke:#68798A;stroke-width:0.9375;" width="7.5" x="1203.75" y="657.0996"/><rect fill="#DAC798" height="3.75" style="stroke:#68798A;stroke-width:0.9375;" width="7.5" x="1203.75" y="664.5996"/><text fill="#243342" font-family="Arial" font-size="24.375" lengthAdjust="spacing" textLength="161.25" x="1036.875" y="704.1">&#1053;&#1077;&#1090; &#1087;&#1086;&#1083;&#1085;&#1086;&#1075;&#1086;</text><text fill="#243342" font-family="Arial" font-size="24.375" lengthAdjust="spacing" textLength="148.125" x="1036.875" y="732.4741">Chat History</text></g><!--entity NoRetry--><g id="elem_NoRetry"><rect fill="#D5C090" height="112.998" rx="4.6875" ry="4.6875" style="stroke:#68798A;stroke-width:0.9375;" width="195" x="1029.375" y="1178.3496"/><rect fill="#D5C090" height="18.75" style="stroke:#68798A;stroke-width:0.9375;" width="28.125" x="1186.875" y="1187.7246"/><rect fill="#D5C090" height="3.75" style="stroke:#68798A;stroke-width:0.9375;" width="7.5" x="1183.125" y="1191.4746"/><rect fill="#D5C090" height="3.75" style="stroke:#68798A;stroke-width:0.9375;" width="7.5" x="1183.125" y="1198.9746"/><text fill="#243342" font-family="Arial" font-size="24.375" lengthAdjust="spacing" textLength="120" x="1057.5" y="1238.475">&#1053;&#1077;&#1090; Retry</text><text fill="#243342" font-family="Arial" font-size="24.375" lengthAdjust="spacing" textLength="67.5" x="1057.5" y="1266.8491">Policy</text></g><!--entity OneMCP--><g id="elem_OneMCP"><rect fill="#CEB988" height="112.998" rx="4.6875" ry="4.6875" style="stroke:#68798A;stroke-width:0.9375;" width="318.75" x="967.5" y="1000.2246"/><rect fill="#CEB988" height="18.75" style="stroke:#68798A;stroke-width:0.9375;" width="28.125" x="1248.75" y="1009.5996"/><rect fill="#CEB988" height="3.75" style="stroke:#68798A;stroke-width:0.9375;" width="7.5" x="1245" y="1013.3496"/><rect fill="#CEB988" height="3.75" style="stroke:#68798A;stroke-width:0.9375;" width="7.5" x="1245" y="1020.8496"/><text fill="#243342" font-family="Arial" font-size="24.375" lengthAdjust="spacing" textLength="243.75" x="995.625" y="1060.35">&#1054;&#1076;&#1080;&#1085; &#1085;&#1072;&#1089;&#1090;&#1088;&#1086;&#1077;&#1085;&#1085;&#1099;&#1081;</text><text fill="#243342" font-family="Arial" font-size="24.375" lengthAdjust="spacing" textLength="138.75" x="995.625" y="1088.7241">MCP Server</text></g><!--entity NoVector--><g id="elem_NoVector"><rect fill="#C8B380" height="112.998" rx="4.6875" ry="4.6875" style="stroke:#68798A;stroke-width:0.9375;" width="247.5" x="1003.125" y="465.8496"/><rect fill="#C8B380" height="18.75" style="stroke:#68798A;stroke-width:0.9375;" width="28.125" x="1213.125" y="475.2246"/><rect fill="#C8B380" height="3.75" style="stroke:#68798A;stroke-width:0.9375;" width="7.5" x="1209.375" y="478.9746"/><rect fill="#C8B380" height="3.75" style="stroke:#68798A;stroke-width:0.9375;" width="7.5" x="1209.375" y="486.4746"/><text fill="#243342" font-family="Arial" font-size="24.375" lengthAdjust="spacing" textLength="172.5" x="1031.25" y="525.975">&#1053;&#1077;&#1090; Semantic</text><text fill="#243342" font-family="Arial" font-size="24.375" lengthAdjust="spacing" textLength="103.125" x="1031.25" y="554.3491">Retrieval</text></g><!--entity MultiWriter--><g id="elem_MultiWriter"><rect fill="#D8CBE9" height="112.998" rx="4.6875" ry="4.6875" style="stroke:#68798A;stroke-width:0.9375;" width="341.25" x="1830" y="822.0996"/><rect fill="#D8CBE9" height="18.75" style="stroke:#68798A;stroke-width:0.9375;" width="28.125" x="2133.75" y="831.4746"/><rect fill="#D8CBE9" height="3.75" style="stroke:#68798A;stroke-width:0.9375;" width="7.5" x="2130" y="835.2246"/><rect fill="#D8CBE9" height="3.75" style="stroke:#68798A;stroke-width:0.9375;" width="7.5" x="2130" y="842.7246"/><text fill="#243342" font-family="Arial" font-size="24.375" lengthAdjust="spacing" textLength="150" x="1858.125" y="882.225">Multi-agent /</text><text fill="#243342" font-family="Arial" font-size="24.375" lengthAdjust="spacing" textLength="266.25" x="1858.125" y="910.5991">Multi-specialist Writers</text></g><!--entity Models--><g id="elem_Models"><rect fill="#D0C3E5" height="112.998" rx="4.6875" ry="4.6875" style="stroke:#68798A;stroke-width:0.9375;" width="264.375" x="1868.4375" y="287.7246"/><rect fill="#D0C3E5" height="18.75" style="stroke:#68798A;stroke-width:0.9375;" width="28.125" x="2095.3125" y="297.0996"/><rect fill="#D0C3E5" height="3.75" style="stroke:#68798A;stroke-width:0.9375;" width="7.5" x="2091.5625" y="300.8496"/><rect fill="#D0C3E5" height="3.75" style="stroke:#68798A;stroke-width:0.9375;" width="7.5" x="2091.5625" y="308.3496"/><text fill="#243342" font-family="Arial" font-size="24.375" lengthAdjust="spacing" textLength="93.75" x="1896.5625" y="347.85">Per-role</text><text fill="#243342" font-family="Arial" font-size="24.375" lengthAdjust="spacing" textLength="189.375" x="1896.5625" y="376.2241">Model Selection</text></g><!--entity History--><g id="elem_History"><rect fill="#C7BBE1" height="112.998" rx="4.6875" ry="4.6875" style="stroke:#68798A;stroke-width:0.9375;" width="181.875" x="1909.6875" y="643.9746"/><rect fill="#C7BBE1" height="18.75" style="stroke:#68798A;stroke-width:0.9375;" width="28.125" x="2054.0625" y="653.3496"/><rect fill="#C7BBE1" height="3.75" style="stroke:#68798A;stroke-width:0.9375;" width="7.5" x="2050.3125" y="657.0996"/><rect fill="#C7BBE1" height="3.75" style="stroke:#68798A;stroke-width:0.9375;" width="7.5" x="2050.3125" y="664.5996"/><text fill="#243342" font-family="Arial" font-size="24.375" lengthAdjust="spacing" textLength="106.875" x="1937.8125" y="704.1">Message</text><text fill="#243342" font-family="Arial" font-size="24.375" lengthAdjust="spacing" textLength="84.375" x="1937.8125" y="732.4741">History</text></g><!--entity Retry--><g id="elem_Retry"><rect fill="#BFB3DC" height="112.998" rx="4.6875" ry="4.6875" style="stroke:#68798A;stroke-width:0.9375;" width="165" x="1918.125" y="1178.3496"/><rect fill="#BFB3DC" height="18.75" style="stroke:#68798A;stroke-width:0.9375;" width="28.125" x="2045.625" y="1187.7246"/><rect fill="#BFB3DC" height="3.75" style="stroke:#68798A;stroke-width:0.9375;" width="7.5" x="2041.875" y="1191.4746"/><rect fill="#BFB3DC" height="3.75" style="stroke:#68798A;stroke-width:0.9375;" width="7.5" x="2041.875" y="1198.9746"/><text fill="#243342" font-family="Arial" font-size="24.375" lengthAdjust="spacing" textLength="90" x="1946.25" y="1238.475">Retry +</text><text fill="#243342" font-family="Arial" font-size="24.375" lengthAdjust="spacing" textLength="88.125" x="1946.25" y="1266.8491">Backoff</text></g><!--entity MultiMCP--><g id="elem_MultiMCP"><rect fill="#B7ABD8" height="112.998" rx="4.6875" ry="4.6875" style="stroke:#68798A;stroke-width:0.9375;" width="226.875" x="1887.1875" y="1000.2246"/><rect fill="#B7ABD8" height="18.75" style="stroke:#68798A;stroke-width:0.9375;" width="28.125" x="2076.5625" y="1009.5996"/><rect fill="#B7ABD8" height="3.75" style="stroke:#68798A;stroke-width:0.9375;" width="7.5" x="2072.8125" y="1013.3496"/><rect fill="#B7ABD8" height="3.75" style="stroke:#68798A;stroke-width:0.9375;" width="7.5" x="2072.8125" y="1020.8496"/><text fill="#243342" font-family="Arial" font-size="24.375" lengthAdjust="spacing" textLength="91.875" x="1915.3125" y="1060.35">Multiple</text><text fill="#243342" font-family="Arial" font-size="24.375" lengthAdjust="spacing" textLength="151.875" x="1915.3125" y="1088.7241">MCP Servers</text></g><!--entity Vector--><g id="elem_Vector"><rect fill="#AFA3D4" height="112.998" rx="4.6875" ry="4.6875" style="stroke:#68798A;stroke-width:0.9375;" width="258.75" x="1871.25" y="465.8496"/><rect fill="#AFA3D4" height="18.75" style="stroke:#68798A;stroke-width:0.9375;" width="28.125" x="2092.5" y="475.2246"/><rect fill="#AFA3D4" height="3.75" style="stroke:#68798A;stroke-width:0.9375;" width="7.5" x="2088.75" y="478.9746"/><rect fill="#AFA3D4" height="3.75" style="stroke:#68798A;stroke-width:0.9375;" width="7.5" x="2088.75" y="486.4746"/><text fill="#243342" font-family="Arial" font-size="24.375" lengthAdjust="spacing" textLength="183.75" x="1899.375" y="525.975">Vector Memory</text><text fill="#243342" font-family="Arial" font-size="24.375" lengthAdjust="spacing" textLength="131.25" x="1899.375" y="554.3491">+ Retrieval</text></g><!--entity Tracing--><g id="elem_Tracing"><rect fill="#A69BCD" height="112.998" rx="4.6875" ry="4.6875" style="stroke:#68798A;stroke-width:0.9375;" width="228.75" x="1886.25" y="1356.4746"/><rect fill="#A69BCD" height="18.75" style="stroke:#68798A;stroke-width:0.9375;" width="28.125" x="2077.5" y="1365.8496"/><rect fill="#A69BCD" height="3.75" style="stroke:#68798A;stroke-width:0.9375;" width="7.5" x="2073.75" y="1369.5996"/><rect fill="#A69BCD" height="3.75" style="stroke:#68798A;stroke-width:0.9375;" width="7.5" x="2073.75" y="1377.0996"/><text fill="#243342" font-family="Arial" font-size="24.375" lengthAdjust="spacing" textLength="114.375" x="1914.375" y="1416.6">Tracing &amp;</text><text fill="#243342" font-family="Arial" font-size="24.375" lengthAdjust="spacing" textLength="153.75" x="1914.375" y="1444.9741">Observability</text></g><g id="elem_GMN36"><path d="M843.75,89.9121 L843.75,193.7842 A0,0 0 0 0 843.75,193.7842 L1119.375,193.7842 L1126.875,287.0309 L1134.375,193.7842 L1410,193.7842 A0,0 0 0 0 1410,193.7842 L1410,108.6621 L1391.25,89.9121 L843.75,89.9121 A0,0 0 0 0 843.75,89.9121 " fill="#F8FAFC" style="stroke:#BEC8D3;stroke-width:0.9375;"/><path d="M1391.25,89.9121 L1391.25,108.6621 L1410,108.6621 L1391.25,89.9121 " fill="#F8FAFC" style="stroke:#BEC8D3;stroke-width:0.9375;"/><text fill="#334155" font-family="Arial" font-size="24.375" lengthAdjust="spacing" textLength="388.125" x="855" y="121.9125">&#1057;&#1077;&#1081;&#1095;&#1072;&#1089; &#1088;&#1086;&#1083;&#1080; &#1080;&#1089;&#1087;&#1086;&#1083;&#1100;&#1079;&#1091;&#1102;&#1090; &#1086;&#1076;&#1080;&#1085;</text><text fill="#334155" font-family="Arial" font-size="24.375" lengthAdjust="spacing" textLength="423.75" x="855" y="150.2866">settings.llm_model, &#1085;&#1086; &#1086;&#1090;&#1076;&#1077;&#1083;&#1100;&#1085;&#1099;&#1077;</text><text fill="#334155" font-family="Arial" font-size="24.375" lengthAdjust="spacing" textLength="526.875" x="855" y="178.6606">LLM instances &#1080;&#1084;&#1077;&#1102;&#1090; &#1088;&#1072;&#1079;&#1085;&#1099;&#1077; temperature.</text></g><!--link Memory to NoVector--><g id="link_Memory_NoVector"><path d="M318.075,556.3746 C495.2063,548.8559 813.2351,535.346 991.4914,527.771 " fill="none" id="Memory-to-NoVector" style="stroke:#687B8D;stroke-width:1.875;"/><polygon fill="#687B8D" points="1002.7312,527.2934,985.553,520.5166,993.3647,527.6914,986.1899,535.5031,1002.7312,527.2934" style="stroke:#687B8D;stroke-width:1.875;"/><text fill="#000000" font-family="Arial" font-size="24.375" lengthAdjust="spacing" textLength="161.25" x="518.4375" y="503.475">snapshot &#1073;&#1077;&#1079;</text><text fill="#000000" font-family="Arial" font-size="24.375" lengthAdjust="spacing" textLength="215.625" x="491.25" y="531.8491">semantic retrieval</text></g><!--link HITL to NoHistory--><g id="link_HITL_NoHistory"><path d="M350.925,722.1434 C535.575,716.9121 830.6108,708.5686 997.167,703.8436 " fill="none" id="HITL-to-NoHistory" style="stroke:#687B8D;stroke-width:1.875;"/><polygon fill="#687B8D" points="1008.4125,703.5246,991.3316,696.5062,999.0413,703.7905,991.757,711.5001,1008.4125,703.5246" style="stroke:#687B8D;stroke-width:1.875;"/><text fill="#000000" font-family="Arial" font-size="24.375" lengthAdjust="spacing" textLength="238.125" x="480" y="675.975">&#1089;&#1086;&#1093;&#1088;&#1072;&#1085;&#1103;&#1077;&#1090;&#1089;&#1103; state,</text><text fill="#000000" font-family="Arial" font-size="24.375" lengthAdjust="spacing" textLength="223.125" x="487.5" y="704.3491">&#1085;&#1086; &#1085;&#1077; &#1087;&#1086;&#1083;&#1085;&#1099;&#1081; &#1095;&#1072;&#1090;</text></g><!--link Loop to Genre--><g id="link_Loop_Genre"><path d="M316.1813,889.8059 C491.1938,887.3309 806.4199,882.859 986.4386,880.309 " fill="none" id="Loop-to-Genre" style="stroke:#687B8D;stroke-width:1.875;"/><polygon fill="#687B8D" points="997.6875,880.1496,980.708,872.8894,988.3134,880.2824,980.9204,887.8879,997.6875,880.1496" style="stroke:#687B8D;stroke-width:1.875;"/><text fill="#000000" font-family="Arial" font-size="24.375" lengthAdjust="spacing" textLength="251.25" x="473.4375" y="876.6">&#1086;&#1076;&#1080;&#1085; selected_writer</text></g><!--link MCP to NoRetry--><g id="link_MCP_NoRetry"><path d="M333.3188,1087.0746 C358.9688,1092.6434 385.5938,1098.3059 410.625,1103.3496 C631.2563,1147.8996 880.4416,1192.2082 1017.8041,1216.1144 " fill="none" id="MCP-to-NoRetry" style="stroke:#687B8D;stroke-width:1.875;"/><polygon fill="#687B8D" points="1028.8875,1218.0434,1013.5484,1207.761,1019.6513,1216.4359,1010.9764,1222.5389,1028.8875,1218.0434" style="stroke:#687B8D;stroke-width:1.875;"/><text fill="#000000" font-family="Arial" font-size="24.375" lengthAdjust="spacing" textLength="373.125" x="412.5" y="1095.975">&#1085;&#1077;&#1090; &#1094;&#1077;&#1085;&#1090;&#1088;&#1072;&#1083;&#1080;&#1079;&#1086;&#1074;&#1072;&#1085;&#1085;&#1086;&#1075;&#1086; retry</text></g><!--link MCP to OneMCP--><g id="link_MCP_OneMCP"><path d="M333.1312,1056.4746 C501.5063,1056.4746 777.3,1056.4746 955.65,1056.4746 " fill="none" id="MCP-to-OneMCP" style="stroke:#687B8D;stroke-width:1.875;"/><polygon fill="#687B8D" points="966.9,1056.4746,950.025,1048.9746,957.525,1056.4746,950.025,1063.9746,966.9,1056.4746" style="stroke:#687B8D;stroke-width:1.875;"/><text fill="#000000" font-family="Arial" font-size="24.375" lengthAdjust="spacing" textLength="215.625" x="491.25" y="1049.1">&#1086;&#1076;&#1080;&#1085; server entry</text></g><!--link Logs to Tracing--><g id="link_Logs_Tracing"><path d="M223.5188,1248.6809 C258.6,1302.2121 326.7938,1392.8309 410.625,1437.0996 C905.3063,1698.3246 1602.5414,1533.4177 1875.0914,1452.3989 " fill="none" id="Logs-to-Tracing" style="stroke:#687B8D;stroke-width:1.875;"/><polygon fill="#687B8D" points="1885.875,1449.1934,1867.5625,1446.8126,1876.8886,1451.8647,1871.8366,1461.1908,1885.875,1449.1934" style="stroke:#687B8D;stroke-width:1.875;"/><text fill="#000000" font-family="Arial" font-size="24.375" lengthAdjust="spacing" textLength="271.875" x="990.9375" y="1547.85">&#1085;&#1077;&#1090; distributed tracing</text></g><!--link Logs to Tracing--><g id="link_Logs_Tracing"><path d="M349.8187,1248.6246 C479.8688,1282.8246 672.6188,1329.0809 843.75,1352.7246 C1223.1563,1405.1496 1667.1563,1412.7367 1874.5875,1413.2054 " fill="none" id="Logs-to-Tracing-1" style="stroke:#687B8D;stroke-width:1.875;"/><polygon fill="#687B8D" points="1885.8375,1413.2309,1868.9795,1405.6927,1876.4625,1413.2097,1868.9456,1420.6927,1885.8375,1413.2309" style="stroke:#687B8D;stroke-width:1.875;"/><text fill="#000000" font-family="Arial" font-size="24.375" lengthAdjust="spacing" textLength="208.125" x="1022.8125" y="1345.35">&#1076;&#1086;&#1073;&#1072;&#1074;&#1080;&#1090;&#1100; traces</text></g><!--link Genre to MultiWriter--><g id="link_Genre_MultiWriter"><path d="M1256.1938,878.3496 C1407.9188,878.3496 1650.6375,878.3496 1818.6187,878.3496 " fill="none" id="Genre-to-MultiWriter" style="stroke:#687B8D;stroke-width:1.875;"/><polygon fill="#687B8D" points="1829.8687,878.3496,1812.9937,870.8496,1820.4937,878.3496,1812.9937,885.8496,1829.8687,878.3496" style="stroke:#687B8D;stroke-width:1.875;"/><text fill="#000000" font-family="Arial" font-size="24.375" lengthAdjust="spacing" textLength="232.5" x="1501.875" y="870.975">&#1088;&#1072;&#1089;&#1096;&#1080;&#1088;&#1080;&#1090;&#1100; routing</text></g><!--link OneModel to Models--><g id="link_OneModel_Models"><path d="M1275.3563,343.9746 C1441.2188,343.9746 1697.625,343.9746 1856.6813,343.9746 " fill="none" id="OneModel-to-Models" style="stroke:#687B8D;stroke-width:1.875;"/><polygon fill="#687B8D" points="1867.9313,343.9746,1851.0563,336.4746,1858.5563,343.9746,1851.0563,351.4746,1867.9313,343.9746" style="stroke:#687B8D;stroke-width:1.875;"/><text fill="#000000" font-family="Arial" font-size="24.375" lengthAdjust="spacing" textLength="300" x="1468.125" y="336.6">&#1088;&#1072;&#1079;&#1076;&#1077;&#1083;&#1080;&#1090;&#1100; model config</text></g><!--link NoHistory to History--><g id="link_NoHistory_History"><path d="M1245.1875,700.2246 C1421.1187,700.2246 1739.7563,700.2246 1898.1562,700.2246 " fill="none" id="NoHistory-to-History" style="stroke:#687B8D;stroke-width:1.875;"/><polygon fill="#687B8D" points="1909.4062,700.2246,1892.5312,692.7246,1900.0312,700.2246,1892.5312,707.7246,1909.4062,700.2246" style="stroke:#687B8D;stroke-width:1.875;"/><text fill="#000000" font-family="Arial" font-size="24.375" lengthAdjust="spacing" textLength="273.75" x="1481.25" y="692.85">&#1076;&#1086;&#1073;&#1072;&#1074;&#1080;&#1090;&#1100; &#1089;&#1086;&#1086;&#1073;&#1097;&#1077;&#1085;&#1080;&#1103;</text></g><!--link NoRetry to Retry--><g id="link_NoRetry_Retry"><path d="M1225.1812,1234.5996 C1397.9438,1234.5996 1745.9063,1234.5996 1906.6688,1234.5996 " fill="none" id="NoRetry-to-Retry" style="stroke:#687B8D;stroke-width:1.875;"/><polygon fill="#687B8D" points="1917.9188,1234.5996,1901.0438,1227.0996,1908.5438,1234.5996,1901.0438,1242.0996,1917.9188,1234.5996" style="stroke:#687B8D;stroke-width:1.875;"/><text fill="#000000" font-family="Arial" font-size="24.375" lengthAdjust="spacing" textLength="300" x="1468.125" y="1227.225">&#1086;&#1075;&#1088;&#1072;&#1085;&#1080;&#1095;&#1077;&#1085;&#1085;&#1099;&#1077; &#1087;&#1086;&#1074;&#1090;&#1086;&#1088;&#1099;</text></g><!--link OneMCP to MultiMCP--><g id="link_OneMCP_MultiMCP"><path d="M1286.3062,1056.4746 C1459.65,1056.4746 1722.6188,1056.4746 1875.3563,1056.4746 " fill="none" id="OneMCP-to-MultiMCP" style="stroke:#687B8D;stroke-width:1.875;"/><polygon fill="#687B8D" points="1886.6063,1056.4746,1869.7313,1048.9746,1877.2313,1056.4746,1869.7313,1063.9746,1886.6063,1056.4746" style="stroke:#687B8D;stroke-width:1.875;"/><text fill="#000000" font-family="Arial" font-size="24.375" lengthAdjust="spacing" textLength="298.125" x="1469.0625" y="1049.1">&#1076;&#1086;&#1073;&#1072;&#1074;&#1080;&#1090;&#1100; server entries</text></g><!--link NoVector to Vector--><g id="link_NoVector_Vector"><path d="M1250.6438,522.0996 C1414.3125,522.0996 1692.5625,522.0996 1859.3625,522.0996 " fill="none" id="NoVector-to-Vector" style="stroke:#687B8D;stroke-width:1.875;"/><polygon fill="#687B8D" points="1870.6125,522.0996,1853.7375,514.5996,1861.2375,522.0996,1853.7375,529.5996,1870.6125,522.0996" style="stroke:#687B8D;stroke-width:1.875;"/><text fill="#000000" font-family="Arial" font-size="24.375" lengthAdjust="spacing" textLength="230.625" x="1502.8125" y="514.725">&#1076;&#1086;&#1073;&#1072;&#1074;&#1080;&#1090;&#1100; retrieval</text></g><rect fill="none" height="148.4766" id="_legend" rx="14.0625" ry="14.0625" style="stroke:#000000;stroke-width:1.875;" width="526.875" x="1638.75" y="1732.0746"/><text fill="#000000" font-family="Arial" font-size="26.25" font-weight="bold" lengthAdjust="spacing" textLength="75" x="1657.5" y="1769.5655">&#1062;&#1074;&#1077;&#1090;</text><text fill="#000000" font-family="Arial" font-size="26.25" font-weight="bold" lengthAdjust="spacing" textLength="148.125" x="1751.25" y="1769.5655">&#1047;&#1085;&#1072;&#1095;&#1077;&#1085;&#1080;&#1077;</text><rect fill="#BBDDCF" height="30.5566" style="stroke:none;stroke-width:1.875;" width="93.75" x="1648.125" y="1775.7563"/><text fill="#000000" font-family="Arial" font-size="26.25" lengthAdjust="spacing" textLength="7.5" x="1648.125" y="1800.1221">&#160;</text><text fill="#000000" font-family="Arial" font-size="26.25" lengthAdjust="spacing" textLength="399.375" x="1749.375" y="1800.1221">&#1042;&#1086;&#1079;&#1084;&#1086;&#1078;&#1085;&#1086;&#1089;&#1090;&#1080; &#1090;&#1077;&#1082;&#1091;&#1097;&#1077;&#1075;&#1086; MVP</text><rect fill="#E7D4A8" height="30.5566" style="stroke:none;stroke-width:1.875;" width="93.75" x="1648.125" y="1806.3129"/><text fill="#000000" font-family="Arial" font-size="26.25" lengthAdjust="spacing" textLength="7.5" x="1648.125" y="1830.6787">&#160;</text><text fill="#000000" font-family="Arial" font-size="26.25" lengthAdjust="spacing" textLength="180" x="1749.375" y="1830.6787">&#1054;&#1075;&#1088;&#1072;&#1085;&#1080;&#1095;&#1077;&#1085;&#1080;&#1103;</text><rect fill="#D8CBE9" height="30.5566" style="stroke:none;stroke-width:1.875;" width="93.75" x="1648.125" y="1836.8695"/><text fill="#000000" font-family="Arial" font-size="26.25" lengthAdjust="spacing" textLength="7.5" x="1648.125" y="1861.2354">&#160;</text><text fill="#000000" font-family="Arial" font-size="26.25" lengthAdjust="spacing" textLength="315" x="1749.375" y="1861.2354">&#1053;&#1072;&#1087;&#1088;&#1072;&#1074;&#1083;&#1077;&#1085;&#1080;&#1103; &#1088;&#1072;&#1079;&#1074;&#1080;&#1090;&#1080;&#1103;</text><line style="stroke:#000000;stroke-width:1.875;" x1="1648.125" x2="2156.25" y1="1745.1996" y2="1745.1996"/><line style="stroke:#000000;stroke-width:1.875;" x1="1648.125" x2="2156.25" y1="1775.7563" y2="1775.7563"/><line style="stroke:#000000;stroke-width:1.875;" x1="1648.125" x2="2156.25" y1="1806.3129" y2="1806.3129"/><line style="stroke:#000000;stroke-width:1.875;" x1="1648.125" x2="2156.25" y1="1836.8695" y2="1836.8695"/><line style="stroke:#000000;stroke-width:1.875;" x1="1648.125" x2="2156.25" y1="1867.4262" y2="1867.4262"/><line style="stroke:#000000;stroke-width:1.875;" x1="1648.125" x2="1648.125" y1="1745.1996" y2="1867.4262"/><line style="stroke:#000000;stroke-width:1.875;" x1="1741.875" x2="1741.875" y1="1745.1996" y2="1867.4262"/><line style="stroke:#000000;stroke-width:1.875;" x1="2156.25" x2="2156.25" y1="1745.1996" y2="1867.4262"/><!--SRC=[ZLPTRzis57tNho1YO2-jkxYs4zdO2kZBop2x2UAWUp4Go3Rj29L9WQ8JPCk094Ex3IqMe1YmfnRO7lQSPVNYB8lx5wI_q5-oIrAI5Ji1bW2sJF9UyfvpxX6vntsCseU41g4NeYymmSpbbA6Fnx-WQ1Rz5Hz7vz5DD8r_Y2Ro-mn5KmHFvz47ENSHNMSpSk0IXgRngHZGD1yFEE8KCM-unr7VOxZ7FKeqBNpkaS1bxWXrtTxp8QDZqhUe3piN6XRysxaLuPxRfmSU6QA1wuSuDzCFF5JILtCZDXwuOvytAE5FtH561lDS_-xvjlSDHgLoRd97e36Vqk-QIWxvk5RMAqPkWS4OFKWcr_HrKxVpHVReAA044uw-rH3ycPJrCPilh-c67C_lK2cNAu-rx_9f2EKupR04czum6jPoTjEnTBkyc1robwfLaJs0HEuGevNeTo3od_Zx-ATe6bsXrhEj5LHmz4R9iPCzvrMiD2aP5ZbcemvfWruEKGkFu6i5kM7o23kRjcqr5YCtnYEN53rIv7kusAGqa34RN-uq8Q9awvQ-6F4rys0dzF7b6sJ1ezVha6syxuKW99Gb40-eOEXsnIej9cXPMsWBCr0unwI7rI5Xh503fPd6ud8Z27olvtALVpW4vILR34E8MRDCitm_SfDx-WR0R5ITXbDP1lChV7W0b1MxReZx7G9To33QfcEUxgn62iwwNJ6Mu8dUHUzXtnlKRBPsMvksq-mG6BaMhNeHdqIJ-8Nep9bir2kPRvFW5krZ7rAMBDjONKhv5g9EKVH1Hjs8Wg9PXrXxBaSRW6BAz5EQ_485sx10nVSasiQS7NR85WLSqqWv1d5LQxMsUczDmcdYa_XK5Y2Gl8bVHLST8kXhOxQFMLQG8DHop9f-todQ69INo8Sp3- -xVdAMPs1BeYiitIo3dTpYzWriV1dz2vz_IoGc2pONJKIRE8xHg2upsmAlyOgG27vy2gUMFyC0zy2L03caf1qgHOh9HEi5w0FJgIsc0n4N6VKnP9BqjR6l35Kb46EWK7lLAZlLfQFWC8I3T4YUm8m-QzqqdQN6KHmzw13XDdGma349SMR3BDlMdGK7yeGPGxdo94dckc7QIoGb72Zpw907w3P9AKL6moZRbSNW7URsn0lYamxPx8QmgzlrV8-h8jF9Wh5MCorRq9jOLB7uPCv-7ON43S8zob7q9sZjiaF2H368fMVHf56fk1IyEe8kcyKlLC_7Pq9ieDap57ANuuVGZQ0ReUH9rb52n0YyuJm-rQHpYOogo-l2FvJuGqalxkyUI5Le0ZsrjUAWBfE2ikENeZTabvn3-YceSmRw50wKDA-iu33BaFJBhRq4LGZGX6NIwSIw5BfifpxKpBpk64w5k9hKD7LmiJwluRfi503YHsYKOz4iyMl4bAjfcGF9A2NSUjfPxw6QwoHW95VrA1buGssEkGYRumyHC-3iNFKaH0b2n10uScA_MWgQYCpWMtPgGKt2qmMqzom-Zbzf2LnPXGbsYxlcCFHmg6NA4d6Po9QYvjgw2_R5rG9qoAt9gq2NSav7Y0uoHuV6Y7uJFY_5TP8QFrpPfe29L5_yEhg4TzNFmk0JzY4gn5mG4pxo_T6k1FqXKhgT0GoI4GYKwC1gUDKWZu2-uNKQGcxmnudCc32eKEHu58Zxv9ZXHnecVNb_4PV2eVWXxuJQqUSe-WEg4-8IpxzAnq_Ucf3ZI3lwBBb9F3b2YsuiNWrG77oaB-29L3jSNbIaUcMAo7TtNcRb8cMsOj7R_tMlXIWeG9MX_GS0]--></g></svg>