<?xml version="1.0" encoding="us-ascii" standalone="no"?><svg xmlns="http://www.w3.org/2000/svg" xmlns:xlink="http://www.w3.org/1999/xlink" contentStyleType="text/css" height="2090.625px" preserveAspectRatio="none" style="width:2330px;height:2090px;background:#FCFCFD;" version="1.1" viewBox="0 0 2330 2090" width="2330.625px" zoomAndPan="magnify"><defs/><g><rect fill="#FCFCFD" height="2090.625" style="stroke:none;stroke-width:1.875;" width="2330.625" x="0" y="0"/><text fill="#26364A" font-family="Arial" font-size="33.75" font-weight="bold" lengthAdjust="spacing" textLength="873.75" x="715.3125" y="50.0775">MCP &#8212; &#1072;&#1088;&#1093;&#1080;&#1090;&#1077;&#1082;&#1090;&#1091;&#1088;&#1072; &#1080;&#1085;&#1089;&#1090;&#1088;&#1091;&#1084;&#1077;&#1085;&#1090;&#1072;&#1083;&#1100;&#1085;&#1086;&#1075;&#1086; &#1089;&#1083;&#1086;&#1103;</text><!--cluster FastAPI / LangGraph--><g id="cluster_FastAPI / LangGraph"><path d="M782.8125,89.9121 L1069.6875,89.9121 A7.0313,7.0313 0 0 1 1074.375,94.5996 L1087.5,129.5361 L1180.3125,129.5361 A4.6875,4.6875 0 0 1 1185,134.2236 L1185,600.8496 A4.6875,4.6875 0 0 1 1180.3125,605.5371 L782.8125,605.5371 A4.6875,4.6875 0 0 1 778.125,600.8496 L778.125,94.5996 A4.6875,4.6875 0 0 1 782.8125,89.9121 " fill="#E7EFF7" style="stroke:#000000;stroke-width:2.8125;"/><line style="stroke:#000000;stroke-width:2.8125;" x1="778.125" x2="1087.5" y1="129.5361" y2="129.5361"/><text fill="#000000" font-family="Arial" font-size="24.375" font-weight="bold" lengthAdjust="spacing" textLength="285" x="785.625" y="116.2875">FastAPI / LangGraph</text></g><!--cluster Synopsis MCP Server--><g id="cluster_Synopsis MCP Server"><path d="M15.9375,774.2871 L308.4375,774.2871 A7.0313,7.0313 0 0 1 313.125,778.9746 L326.25,813.9111 L1746.5625,813.9111 A4.6875,4.6875 0 0 1 1751.25,818.5986 L1751.25,1532.7246 A4.6875,4.6875 0 0 1 1746.5625,1537.4121 L15.9375,1537.4121 A4.6875,4.6875 0 0 1 11.25,1532.7246 L11.25,778.9746 A4.6875,4.6875 0 0 1 15.9375,774.2871 " fill="#EEF1F6" style="stroke:#000000;stroke-width:2.8125;"/><line style="stroke:#000000;stroke-width:2.8125;" x1="11.25" x2="326.25" y1="813.9111" y2="813.9111"/><text fill="#000000" font-family="Arial" font-size="24.375" font-weight="bold" lengthAdjust="spacing" textLength="290.625" x="18.75" y="800.6625">Synopsis MCP Server</text></g><!--cluster Tools--><g id="cluster_Tools"><path d="M60.9375,1038.6621 L134.0625,1038.6621 A7.0313,7.0313 0 0 1 138.75,1043.3496 L151.875,1078.2861 L1701.5625,1078.2861 A4.6875,4.6875 0 0 1 1706.25,1082.9736 L1706.25,1212.0996 A4.6875,4.6875 0 0 1 1701.5625,1216.7871 L60.9375,1216.7871 A4.6875,4.6875 0 0 1 56.25,1212.0996 L56.25,1043.3496 A4.6875,4.6875 0 0 1 60.9375,1038.6621 " fill="#F1EFF7" style="stroke:#000000;stroke-width:2.8125;"/><line style="stroke:#000000;stroke-width:2.8125;" x1="56.25" x2="151.875" y1="1078.2861" y2="1078.2861"/><text fill="#000000" font-family="Arial" font-size="24.375" font-weight="bold" lengthAdjust="spacing" textLength="71.25" x="63.75" y="1065.0375">Tools</text></g><!--cluster Services--><g id="cluster_Services"><path d="M360.9375,1314.2871 L477.1875,1314.2871 A7.0313,7.0313 0 0 1 481.875,1318.9746 L495,1353.9111 L1283.4375,1353.9111 A4.6875,4.6875 0 0 1 1288.125,1358.5986 L1288.125,1487.7246 A4.6875,4.6875 0 0 1 1283.4375,1492.4121 L360.9375,1492.4121 A4.6875,4.6875 0 0 1 356.25,1487.7246 L356.25,1318.9746 A4.6875,4.6875 0 0 1 360.9375,1314.2871 " fill="#EDF5F3" style="stroke:#000000;stroke-width:2.8125;"/><line style="stroke:#000000;stroke-width:2.8125;" x1="356.25" x2="495" y1="1353.9111" y2="1353.9111"/><text fill="#000000" font-family="Arial" font-size="24.375" font-weight="bold" lengthAdjust="spacing" textLength="114.375" x="363.75" y="1340.6625">Services</text></g><!--entity graph--><g id="elem_graph"><rect fill="#D9E7F4" height="84.624" rx="4.6875" ry="4.6875" style="stroke:#61758A;stroke-width:0.9375;" width="290.625" x="835.3125" y="153.6621"/><rect fill="#D9E7F4" height="18.75" style="stroke:#61758A;stroke-width:0.9375;" width="28.125" x="1088.4375" y="163.0371"/><rect fill="#D9E7F4" height="3.75" style="stroke:#61758A;stroke-width:0.9375;" width="7.5" x="1084.6875" y="166.7871"/><rect fill="#D9E7F4" height="3.75" style="stroke:#61758A;stroke-width:0.9375;" width="7.5" x="1084.6875" y="174.2871"/><text fill="#1F2937" font-family="Arial" font-size="24.375" lengthAdjust="spacing" textLength="215.625" x="863.4375" y="213.7875">LangGraph Nodes</text></g><!--entity client--><g id="elem_client"><rect fill="#D1E3F1" height="112.998" rx="4.6875" ry="4.6875" style="stroke:#61758A;stroke-width:0.9375;" width="330" x="813.75" y="463.0371"/><rect fill="#D1E3F1" height="18.75" style="stroke:#61758A;stroke-width:0.9375;" width="28.125" x="1106.25" y="472.4121"/><rect fill="#D1E3F1" height="3.75" style="stroke:#61758A;stroke-width:0.9375;" width="7.5" x="1102.5" y="476.1621"/><rect fill="#D1E3F1" height="3.75" style="stroke:#61758A;stroke-width:0.9375;" width="7.5" x="1102.5" y="483.6621"/><text fill="#1F2937" font-family="Arial" font-size="24.375" lengthAdjust="spacing" textLength="127.5" x="841.875" y="523.1625">MCP Client</text><text fill="#1F2937" font-family="Arial" font-size="24.375" lengthAdjust="spacing" textLength="255" x="841.875" y="551.5366">MultiServerMCPClient</text></g><!--entity mcp--><g id="elem_mcp"><rect fill="#D7DFED" height="112.998" rx="4.6875" ry="4.6875" style="stroke:#61758A;stroke-width:0.9375;" width="292.5" x="832.5" y="838.0371"/><rect fill="#D7DFED" height="18.75" style="stroke:#61758A;stroke-width:0.9375;" width="28.125" x="1087.5" y="847.4121"/><rect fill="#D7DFED" height="3.75" style="stroke:#61758A;stroke-width:0.9375;" width="7.5" x="1083.75" y="851.1621"/><rect fill="#D7DFED" height="3.75" style="stroke:#61758A;stroke-width:0.9375;" width="7.5" x="1083.75" y="858.6621"/><text fill="#1F2937" font-family="Arial" font-size="24.375" lengthAdjust="spacing" textLength="189.375" x="860.625" y="898.1625">FastMCP Server</text><text fill="#1F2937" font-family="Arial" font-size="24.375" lengthAdjust="spacing" textLength="217.5" x="860.625" y="926.5366">HTTP 0.0.0.0:8001</text></g><!--entity healthTool--><g id="elem_healthTool"><rect fill="#E0DDF0" height="84.624" rx="4.6875" ry="4.6875" style="stroke:#61758A;stroke-width:0.9375;" width="241.875" x="1433.4375" y="1102.4121"/><rect fill="#E0DDF0" height="18.75" style="stroke:#61758A;stroke-width:0.9375;" width="28.125" x="1637.8125" y="1111.7871"/><rect fill="#E0DDF0" height="3.75" style="stroke:#61758A;stroke-width:0.9375;" width="7.5" x="1634.0625" y="1115.5371"/><rect fill="#E0DDF0" height="3.75" style="stroke:#61758A;stroke-width:0.9375;" width="7.5" x="1634.0625" y="1123.0371"/><text fill="#1F2937" font-family="Arial" font-size="24.375" lengthAdjust="spacing" textLength="166.875" x="1461.5625" y="1162.5375">check_service</text></g><!--entity synopsisTool--><g id="elem_synopsisTool"><rect fill="#DDD9EE" height="84.624" rx="4.6875" ry="4.6875" style="stroke:#61758A;stroke-width:0.9375;" width="247.5" x="86.25" y="1102.4121"/><rect fill="#DDD9EE" height="18.75" style="stroke:#61758A;stroke-width:0.9375;" width="28.125" x="296.25" y="1111.7871"/><rect fill="#DDD9EE" height="3.75" style="stroke:#61758A;stroke-width:0.9375;" width="7.5" x="292.5" y="1115.5371"/><rect fill="#DDD9EE" height="3.75" style="stroke:#61758A;stroke-width:0.9375;" width="7.5" x="292.5" y="1123.0371"/><text fill="#1F2937" font-family="Arial" font-size="24.375" lengthAdjust="spacing" textLength="172.5" x="114.375" y="1162.5375">save_synopsis</text></g><!--entity createStory--><g id="elem_createStory"><rect fill="#D9D5EC" height="84.624" rx="4.6875" ry="4.6875" style="stroke:#61758A;stroke-width:0.9375;" width="225" x="399.375" y="1102.4121"/><rect fill="#D9D5EC" height="18.75" style="stroke:#61758A;stroke-width:0.9375;" width="28.125" x="586.875" y="1111.7871"/><rect fill="#D9D5EC" height="3.75" style="stroke:#61758A;stroke-width:0.9375;" width="7.5" x="583.125" y="1115.5371"/><rect fill="#D9D5EC" height="3.75" style="stroke:#61758A;stroke-width:0.9375;" width="7.5" x="583.125" y="1123.0371"/><text fill="#1F2937" font-family="Arial" font-size="24.375" lengthAdjust="spacing" textLength="150" x="427.5" y="1162.5375">create_story</text></g><!--entity getStory--><g id="elem_getStory"><rect fill="#D5D1E9" height="84.624" rx="4.6875" ry="4.6875" style="stroke:#61758A;stroke-width:0.9375;" width="290.625" x="690.9375" y="1102.4121"/><rect fill="#D5D1E9" height="18.75" style="stroke:#61758A;stroke-width:0.9375;" width="28.125" x="944.0625" y="1111.7871"/><rect fill="#D5D1E9" height="3.75" style="stroke:#61758A;stroke-width:0.9375;" width="7.5" x="940.3125" y="1115.5371"/><rect fill="#D5D1E9" height="3.75" style="stroke:#61758A;stroke-width:0.9375;" width="7.5" x="940.3125" y="1123.0371"/><text fill="#1F2937" font-family="Arial" font-size="24.375" lengthAdjust="spacing" textLength="215.625" x="719.0625" y="1162.5375">get_story_context</text></g><!--entity saveMemory--><g id="elem_saveMemory"><rect fill="#D1CDE6" height="84.624" rx="4.6875" ry="4.6875" style="stroke:#61758A;stroke-width:0.9375;" width="318.75" x="1048.125" y="1102.4121"/><rect fill="#D1CDE6" height="18.75" style="stroke:#61758A;stroke-width:0.9375;" width="28.125" x="1329.375" y="1111.7871"/><rect fill="#D1CDE6" height="3.75" style="stroke:#61758A;stroke-width:0.9375;" width="7.5" x="1325.625" y="1115.5371"/><rect fill="#D1CDE6" height="3.75" style="stroke:#61758A;stroke-width:0.9375;" width="7.5" x="1325.625" y="1123.0371"/><text fill="#1F2937" font-family="Arial" font-size="24.375" lengthAdjust="spacing" textLength="243.75" x="1076.25" y="1162.5375">save_story_memory</text></g><!--entity healthService--><g id="elem_healthService"><rect fill="#D8EBE6" height="84.624" rx="4.6875" ry="4.6875" style="stroke:#61758A;stroke-width:0.9375;" width="241.875" x="1015.3125" y="1378.0371"/><rect fill="#D8EBE6" height="18.75" style="stroke:#61758A;stroke-width:0.9375;" width="28.125" x="1219.6875" y="1387.4121"/><rect fill="#D8EBE6" height="3.75" style="stroke:#61758A;stroke-width:0.9375;" width="7.5" x="1215.9375" y="1391.1621"/><rect fill="#D8EBE6" height="3.75" style="stroke:#61758A;stroke-width:0.9375;" width="7.5" x="1215.9375" y="1398.6621"/><text fill="#1F2937" font-family="Arial" font-size="24.375" lengthAdjust="spacing" textLength="166.875" x="1043.4375" y="1438.1625">HealthService</text></g><!--entity synopsisService--><g id="elem_synopsisService"><rect fill="#CEE6DF" height="84.624" rx="4.6875" ry="4.6875" style="stroke:#61758A;stroke-width:0.9375;" width="270" x="386.25" y="1378.0371"/><rect fill="#CEE6DF" height="18.75" style="stroke:#61758A;stroke-width:0.9375;" width="28.125" x="618.75" y="1387.4121"/><rect fill="#CEE6DF" height="3.75" style="stroke:#61758A;stroke-width:0.9375;" width="7.5" x="615" y="1391.1621"/><rect fill="#CEE6DF" height="3.75" style="stroke:#61758A;stroke-width:0.9375;" width="7.5" x="615" y="1398.6621"/><text fill="#1F2937" font-family="Arial" font-size="24.375" lengthAdjust="spacing" textLength="195" x="414.375" y="1438.1625">SynopsisService</text></g><!--entity storyService--><g id="elem_storyService"><rect fill="#C4E1D8" height="84.624" rx="4.6875" ry="4.6875" style="stroke:#61758A;stroke-width:0.9375;" width="226.875" x="722.8125" y="1378.0371"/><rect fill="#C4E1D8" height="18.75" style="stroke:#61758A;stroke-width:0.9375;" width="28.125" x="912.1875" y="1387.4121"/><rect fill="#C4E1D8" height="3.75" style="stroke:#61758A;stroke-width:0.9375;" width="7.5" x="908.4375" y="1391.1621"/><rect fill="#C4E1D8" height="3.75" style="stroke:#61758A;stroke-width:0.9375;" width="7.5" x="908.4375" y="1398.6621"/><text fill="#1F2937" font-family="Arial" font-size="24.375" lengthAdjust="spacing" textLength="151.875" x="750.9375" y="1438.1625">StoryService</text></g><!--entity postgres--><g id="elem_postgres"><path d="M681.5625,1717.4121 C681.5625,1698.6621 770.625,1698.6621 770.625,1698.6621 C770.625,1698.6621 859.6875,1698.6621 859.6875,1717.4121 L859.6875,1762.6611 C859.6875,1781.4111 770.625,1781.4111 770.625,1781.4111 C770.625,1781.4111 681.5625,1781.4111 681.5625,1762.6611 L681.5625,1717.4121 " fill="#B9D8CF" style="stroke:#547A73;stroke-width:0.9375;"/><path d="M681.5625,1717.4121 C681.5625,1736.1621 770.625,1736.1621 770.625,1736.1621 C770.625,1736.1621 859.6875,1736.1621 859.6875,1717.4121 " fill="none" style="stroke:#547A73;stroke-width:0.9375;"/><text fill="#1F3A35" font-family="Arial" font-size="24.375" lengthAdjust="spacing" textLength="140.625" x="700.3125" y="1766.2875">PostgreSQL</text></g><!--entity api--><g id="elem_api"><path d="M1642.2663,1700.0925 C1649.1217,1687.7692 1659.1864,1685.671 1669.3658,1696.1405 C1677.6756,1682.1965 1686.8902,1682.667 1697.5919,1693.4051 C1709.4501,1681.7319 1719.3065,1680.537 1726.8519,1697.7705 C1736.0201,1685.7795 1749.119,1683.013 1756.3558,1699.7537 C1767.9582,1704.2135 1768.4115,1710.7596 1761.8621,1720.1255 C1774.5872,1726.8598 1775.9214,1735.0517 1764.3343,1744.2749 C1773.3923,1751.0632 1770.5908,1758.4293 1761.5986,1762.5096 C1768.6551,1771.9961 1767.4597,1779.6542 1755.8855,1784.2432 C1751.4292,1798.4672 1738.4823,1805.7995 1726.3516,1792.4688 C1720.4481,1804.3393 1710.226,1807.642 1700.4145,1796.9642 C1687.2203,1810.7522 1675.7916,1804.6007 1669.4984,1789.5628 C1658.9407,1800.6311 1645.4467,1796.9993 1641.957,1782.0739 C1630.5972,1778.4446 1627.2364,1771.7631 1634.1484,1761.2743 C1620.191,1761.5236 1617.1115,1750.7737 1623.1387,1740.4548 C1617.6163,1729.7053 1620.8996,1723.2919 1632.1817,1719.9556 C1625.4769,1709.9374 1628.836,1699.8881 1642.2663,1700.0925 " fill="#DFEAF5" style="stroke:#181818;stroke-width:0.9375;"/><text fill="#000000" font-family="Arial" font-size="24.375" lengthAdjust="spacing" textLength="88.125" x="1652.8125" y="1734.4125">FastAPI</text><text fill="#000000" font-family="Arial" font-size="24.375" lengthAdjust="spacing" textLength="82.5" x="1652.8125" y="1762.7866">/health</text></g><!--entity ollama--><g id="elem_ollama"><path d="M1350.4073,1699.2512 C1357.4208,1687.5967 1367.7672,1683.9839 1376.4624,1697.5112 C1384.55,1684.1358 1395.2678,1682.6564 1403.6676,1697.207 C1409.3741,1680.9411 1421.6694,1678.2123 1432.4897,1692.3609 C1439.8856,1680.2591 1450.6579,1681.46 1456.5494,1693.8394 C1466.9825,1682.3922 1478.9017,1683.1857 1483.4144,1699.5569 C1491.0686,1686.483 1505.0766,1685.9483 1511.4692,1700.8232 C1522.4458,1703.035 1523.8734,1712.4194 1516.9478,1719.7996 C1526.683,1724.138 1530.7854,1732.6667 1520.4907,1740.4427 C1529.8301,1749.6603 1527.7527,1757.3904 1516.1629,1762.5019 C1526.1078,1771.4139 1525.0962,1778.7613 1512.4457,1783.7137 C1509.3167,1795.7284 1501.9308,1798.0447 1492.6618,1789.6719 C1488.3657,1801.2027 1480.0873,1802.5142 1472.6798,1792.5664 C1469.5536,1804.2982 1459.9841,1807.0918 1451.9467,1797.2964 C1446.385,1809.6803 1437.2302,1811.3231 1428.9771,1799.8922 C1422.4108,1809.4485 1413.8452,1808.6175 1408.4981,1798.6157 C1400.2112,1806.2531 1389.9451,1804.7137 1388.262,1792.0372 C1379.3002,1799.9299 1373.9251,1796.5832 1369.6378,1787.0432 C1362.0414,1797.3226 1354.3082,1797.195 1348.3115,1785.4912 C1339.4569,1779.1056 1337.1181,1770.7506 1347.8404,1763.9371 C1337.6533,1760.8727 1333.4699,1750.5672 1342.0885,1742.4652 C1333.0087,1734.7992 1334.7393,1727.9037 1344.789,1722.8747 C1335.8912,1712.7597 1338.6193,1704.4466 1350.4073,1699.2512 " fill="#E4E5F2" style="stroke:#181818;stroke-width:0.9375;"/><text fill="#000000" font-family="Arial" font-size="24.375" lengthAdjust="spacing" textLength="84.375" x="1360.3125" y="1734.4125">Ollama</text><text fill="#000000" font-family="Arial" font-size="24.375" lengthAdjust="spacing" textLength="136.875" x="1360.3125" y="1762.7866">/api/version</text></g><g id="elem_GMN37"><path d="M1215,382.4121 L1215,511.7871 L1144.2937,519.2871 L1215,526.7871 L1215,656.5283 A0,0 0 0 0 1215,656.5283 L1616.25,656.5283 A0,0 0 0 0 1616.25,656.5283 L1616.25,401.1621 L1597.5,382.4121 L1215,382.4121 A0,0 0 0 0 1215,382.4121 " fill="#F8FAFC" style="stroke:#BAC6D4;stroke-width:0.9375;"/><path d="M1597.5,382.4121 L1597.5,401.1621 L1616.25,401.1621 L1597.5,382.4121 " fill="#F8FAFC" style="stroke:#BAC6D4;stroke-width:0.9375;"/><text fill="#334155" font-family="Arial" font-size="24.375" lengthAdjust="spacing" textLength="326.25" x="1226.25" y="414.4125">&#1050;&#1083;&#1080;&#1077;&#1085;&#1090; &#1089;&#1082;&#1086;&#1085;&#1092;&#1080;&#1075;&#1091;&#1088;&#1080;&#1088;&#1086;&#1074;&#1072;&#1085;</text><text fill="#334155" font-family="Arial" font-size="24.375" lengthAdjust="spacing" textLength="315" x="1226.25" y="442.7866">&#1082;&#1072;&#1082; MultiServerMCPClient,</text><text fill="#334155" font-family="Arial" font-size="24.375" lengthAdjust="spacing" textLength="361.875" x="1226.25" y="471.1606">&#1085;&#1086; &#1089;&#1077;&#1081;&#1095;&#1072;&#1089; &#1089;&#1086;&#1076;&#1077;&#1088;&#1078;&#1080;&#1090; &#1090;&#1086;&#1083;&#1100;&#1082;&#1086;</text><text fill="#334155" font-family="Arial" font-size="24.375" lengthAdjust="spacing" textLength="360" x="1226.25" y="499.5346">&#1086;&#1076;&#1080;&#1085; server entry: "synopsis".</text><text fill="#334155" font-family="Arial" font-size="24.375" lengthAdjust="spacing" textLength="7.5" x="1226.25" y="527.9086">&#160;</text><text fill="#334155" font-family="Arial" font-size="24.375" lengthAdjust="spacing" textLength="292.5" x="1226.25" y="556.2827">get_tools() &#1074;&#1099;&#1079;&#1099;&#1074;&#1072;&#1077;&#1090;&#1089;&#1103;</text><text fill="#334155" font-family="Arial" font-size="24.375" lengthAdjust="spacing" textLength="228.75" x="1226.25" y="584.6567">&#1074;&#1086; &#1074;&#1088;&#1077;&#1084;&#1103; workflow.</text><text fill="#334155" font-family="Arial" font-size="24.375" lengthAdjust="spacing" textLength="7.5" x="1226.25" y="613.0307">&#160;</text><text fill="#334155" font-family="Arial" font-size="24.375" lengthAdjust="spacing" textLength="271.875" x="1226.25" y="641.4047">Timeout/&#1086;&#1096;&#1080;&#1073;&#1082;&#1072; -&gt; [].</text></g><g id="elem_GMN40"><path d="M1681.875,410.5371 L1681.875,627.9053 L2188.125,627.9053 L2188.125,429.2871 L2169.375,410.5371 L1681.875,410.5371 " fill="#F8FAFC" style="stroke:#BAC6D4;stroke-width:0.9375;"/><path d="M2169.375,410.5371 L2169.375,429.2871 L2188.125,429.2871 L2169.375,410.5371 " fill="#F8FAFC" style="stroke:#BAC6D4;stroke-width:1.875;"/><text fill="#334155" font-family="Arial" font-size="24.375" lengthAdjust="spacing" textLength="408.75" x="1693.125" y="442.5375">&#1053;&#1077;&#1076;&#1086;&#1089;&#1090;&#1091;&#1087;&#1085;&#1086;&#1089;&#1090;&#1100; MCP &#1085;&#1077; &#1086;&#1073;&#1103;&#1079;&#1072;&#1085;&#1072;</text><text fill="#334155" font-family="Arial" font-size="24.375" lengthAdjust="spacing" textLength="463.125" x="1693.125" y="470.9116">&#1086;&#1089;&#1090;&#1072;&#1085;&#1072;&#1074;&#1083;&#1080;&#1074;&#1072;&#1090;&#1100; &#1075;&#1077;&#1085;&#1077;&#1088;&#1072;&#1090;&#1080;&#1074;&#1085;&#1099;&#1077; &#1091;&#1079;&#1083;&#1099;,</text><text fill="#334155" font-family="Arial" font-size="24.375" lengthAdjust="spacing" textLength="346.875" x="1693.125" y="499.2856">&#1085;&#1086; &#1095;&#1090;&#1077;&#1085;&#1080;&#1077;/&#1089;&#1086;&#1079;&#1076;&#1072;&#1085;&#1080;&#1077; story &#1080;</text><text fill="#334155" font-family="Arial" font-size="24.375" lengthAdjust="spacing" textLength="466.875" x="1693.125" y="527.6596">persistence &#1089;&#1090;&#1072;&#1085;&#1086;&#1074;&#1103;&#1090;&#1089;&#1103; &#1085;&#1077;&#1076;&#1086;&#1089;&#1090;&#1091;&#1087;&#1085;&#1099;.</text><text fill="#334155" font-family="Arial" font-size="24.375" lengthAdjust="spacing" textLength="7.5" x="1693.125" y="556.0336">&#160;</text><text fill="#334155" font-family="Arial" font-size="24.375" lengthAdjust="spacing" textLength="431.25" x="1693.125" y="584.4077">PostgreSQL &#1074;&#1089;&#1105; &#1088;&#1072;&#1074;&#1085;&#1086; &#1086;&#1073;&#1103;&#1079;&#1072;&#1090;&#1077;&#1083;&#1077;&#1085;</text><text fill="#334155" font-family="Arial" font-size="24.375" lengthAdjust="spacing" textLength="369.375" x="1693.125" y="612.7817">&#1076;&#1083;&#1103; &#1079;&#1072;&#1087;&#1091;&#1089;&#1082;&#1072; API checkpointer.</text></g><g id="elem_GMN43"><path d="M1781.25,1093.0371 L1781.25,1196.9092 L2317.5,1196.9092 L2317.5,1111.7871 L2298.75,1093.0371 L1781.25,1093.0371 " fill="#F8FAFC" style="stroke:#BAC6D4;stroke-width:0.9375;"/><path d="M2298.75,1093.0371 L2298.75,1111.7871 L2317.5,1111.7871 L2298.75,1093.0371 " fill="#F8FAFC" style="stroke:#BAC6D4;stroke-width:1.875;"/><text fill="#334155" font-family="Arial" font-size="24.375" lengthAdjust="spacing" textLength="416.25" x="1792.5" y="1125.0375">Tool &#8212; &#1074;&#1085;&#1077;&#1096;&#1085;&#1080;&#1081; MCP-&#1080;&#1085;&#1090;&#1077;&#1088;&#1092;&#1077;&#1081;&#1089;.</text><text fill="#334155" font-family="Arial" font-size="24.375" lengthAdjust="spacing" textLength="406.875" x="1792.5" y="1153.4116">Service &#8212; &#1088;&#1077;&#1072;&#1083;&#1080;&#1079;&#1072;&#1094;&#1080;&#1103; &#1086;&#1087;&#1077;&#1088;&#1072;&#1094;&#1080;&#1081;</text><text fill="#334155" font-family="Arial" font-size="24.375" lengthAdjust="spacing" textLength="496.875" x="1792.5" y="1181.7856">&#1089; HTTP-&#1080;&#1085;&#1092;&#1088;&#1072;&#1089;&#1090;&#1088;&#1091;&#1082;&#1090;&#1091;&#1088;&#1086;&#1081; &#1080; PostgreSQL.</text></g><!--link graph to client--><g id="link_graph_client"><path d="M980.3813,238.2059 C980.0625,295.1684 979.5099,387.8498 979.1349,451.5811 " fill="none" id="graph-to-client" style="stroke:#60758A;stroke-width:1.875;"/><polygon fill="#60758A" points="979.0687,462.8309,986.6679,446.0003,979.1239,453.456,971.6682,445.912,979.0687,462.8309" style="stroke:#60758A;stroke-width:1.875;"/><text fill="#000000" font-family="Arial" font-size="24.375" lengthAdjust="spacing" textLength="277.5" x="980.625" y="318.7875">get_mcp_tools_safely()</text></g><!--link client to mcp--><g id="link_client_mcp"><path d="M978.75,575.9496 C978.75,646.3371 978.75,756.5496 978.75,826.7684 " fill="none" id="client-to-mcp" style="stroke:#60758A;stroke-width:1.875;"/><polygon fill="#60758A" points="978.75,838.0184,986.25,821.1434,978.75,828.6434,971.25,821.1434,978.75,838.0184" style="stroke:#60758A;stroke-width:1.875;"/><text fill="#000000" font-family="Arial" font-size="24.375" lengthAdjust="spacing" textLength="180" x="980.625" y="736.9125">MCP over HTTP</text></g><!--link mcp to healthTool--><g id="link_mcp_healthTool"><path d="M1125.3938,926.4809 C1208.9438,947.1434 1313.925,978.9434 1400.625,1023.6621 C1441.125,1044.5496 1473.207,1069.119 1502.4758,1094.6753 " fill="none" id="mcp-to-healthTool" style="stroke:#60758A;stroke-width:1.875;"/><polygon fill="#60758A" points="1510.95,1102.0746,1503.1716,1085.3261,1503.8882,1095.9085,1493.3058,1096.6251,1510.95,1102.0746" style="stroke:#60758A;stroke-width:1.875;"/></g><!--link mcp to synopsisTool--><g id="link_mcp_synopsisTool"><path d="M832.35,908.4434 C704.8688,923.3309 517.5188,955.5059 367.5,1023.6621 C324.75,1043.0871 291.0928,1068.4037 261.2053,1094.6349 " fill="none" id="mcp-to-synopsisTool" style="stroke:#60758A;stroke-width:1.875;"/><polygon fill="#60758A" points="252.75,1102.0559,270.3803,1096.5613,259.7961,1095.8717,260.4857,1085.2876,252.75,1102.0559" style="stroke:#60758A;stroke-width:1.875;"/></g><!--link mcp to createStory--><g id="link_mcp_createStory"><path d="M832.3125,943.6746 C776.0437,964.6371 712.3688,991.8246 658.125,1023.6621 C620.5688,1045.7121 590.94,1069.4784 563.0962,1094.4347 " fill="none" id="mcp-to-createStory" style="stroke:#60758A;stroke-width:1.875;"/><polygon fill="#60758A" points="554.7188,1101.9434,572.2908,1096.2653,561.7,1095.6861,562.2792,1085.0953,554.7188,1101.9434" style="stroke:#60758A;stroke-width:1.875;"/></g><!--link mcp to getStory--><g id="link_mcp_getStory"><path d="M947.1188,950.8746 C920.7188,996.5684 889.2979,1050.9342 865.4479,1092.203 " fill="none" id="mcp-to-getStory" style="stroke:#60758A;stroke-width:1.875;"/><polygon fill="#60758A" points="859.8188,1101.9434,874.7561,1091.0856,864.5097,1093.8264,861.7689,1083.58,859.8188,1101.9434" style="stroke:#60758A;stroke-width:1.875;"/></g><!--link mcp to saveMemory--><g id="link_mcp_saveMemory"><path d="M1029.525,950.8746 C1071.9,996.5684 1123.7235,1052.4273 1162.011,1093.6961 " fill="none" id="mcp-to-saveMemory" style="stroke:#60758A;stroke-width:1.875;"/><polygon fill="#60758A" points="1169.6625,1101.9434,1163.6835,1084.4715,1163.2863,1095.0706,1152.6871,1094.6735,1169.6625,1101.9434" style="stroke:#60758A;stroke-width:1.875;"/></g><!--link healthTool to healthService--><g id="link_healthTool_healthService"><path d="M1491.7688,1187.1809 C1412.7188,1238.5746 1286.9632,1320.3615 1208.0257,1371.6802 " fill="none" id="healthTool-to-healthService" style="stroke:#60758A;stroke-width:1.875;"/><polygon fill="#60758A" points="1198.5938,1377.8121,1216.8297,1374.9022,1206.4537,1372.7022,1208.6538,1362.3263,1198.5938,1377.8121" style="stroke:#60758A;stroke-width:1.875;"/><text fill="#000000" font-family="Arial" font-size="24.375" lengthAdjust="spacing" textLength="148.125" x="1383.75" y="1276.9125">Depends(...)</text></g><!--link synopsisTool to synopsisService--><g id="link_synopsisTool_synopsisService"><path d="M240.1313,1186.8996 C262.6688,1215.7184 295.1438,1254.5121 328.125,1284.2871 C366.9,1319.2934 405.7138,1346.7413 444.3013,1371.5101 " fill="none" id="synopsisTool-to-synopsisService" style="stroke:#60758A;stroke-width:1.875;"/><polygon fill="#60758A" points="453.7687,1377.5871,443.6189,1362.16,445.8792,1372.5229,435.5162,1374.7832,453.7687,1377.5871" style="stroke:#60758A;stroke-width:1.875;"/><text fill="#000000" font-family="Arial" font-size="24.375" lengthAdjust="spacing" textLength="148.125" x="330" y="1276.9125">Depends(...)</text></g><!--link createStory to storyService--><g id="link_createStory_storyService"><path d="M556.4437,1187.3871 C587.4938,1215.3996 630.1875,1252.9934 669.375,1284.2871 C678.225,1291.3559 681.0188,1292.3684 690,1299.2871 C723.2063,1324.8434 751.1013,1347.4463 779.3576,1370.8276 " fill="none" id="createStory-to-storyService" style="stroke:#60758A;stroke-width:1.875;"/><polygon fill="#60758A" points="788.025,1377.9996,779.8052,1361.4633,780.8021,1372.0229,770.2425,1373.0198,788.025,1377.9996" style="stroke:#60758A;stroke-width:1.875;"/><text fill="#000000" font-family="Arial" font-size="24.375" lengthAdjust="spacing" textLength="148.125" x="671.25" y="1276.9125">Depends(...)</text></g><!--link getStory to storyService--><g id="link_getStory_storyService"><path d="M836.25,1187.1809 C836.25,1238.4246 836.25,1314.7371 836.25,1366.1121 " fill="none" id="getStory-to-storyService" style="stroke:#60758A;stroke-width:1.875;"/><polygon fill="#60758A" points="836.25,1377.3621,843.75,1360.4871,836.25,1367.9871,828.75,1360.4871,836.25,1377.3621" style="stroke:#60758A;stroke-width:1.875;"/><text fill="#000000" font-family="Arial" font-size="24.375" lengthAdjust="spacing" textLength="148.125" x="838.125" y="1276.9125">Depends(...)</text></g><!--link saveMemory to storyService--><g id="link_saveMemory_storyService"><path d="M1146.45,1187.0684 C1090.6125,1224.3621 1012.3313,1277.0871 982.5,1299.2871 C948.8813,1324.3184 920.9546,1346.8646 892.7921,1370.3771 " fill="none" id="saveMemory-to-storyService" style="stroke:#60758A;stroke-width:1.875;"/><polygon fill="#60758A" points="884.1563,1377.5871,901.9167,1372.5294,891.3528,1371.5788,892.3034,1361.0149,884.1563,1377.5871" style="stroke:#60758A;stroke-width:1.875;"/><text fill="#000000" font-family="Arial" font-size="24.375" lengthAdjust="spacing" textLength="148.125" x="1048.125" y="1276.9125">Depends(...)</text></g><!--link healthService to api--><g id="link_healthService_api"><path d="M1257.4125,1435.7684 C1357.6688,1452.3996 1499.1187,1488.7746 1597.5,1567.4121 C1634.9813,1597.3746 1656.7709,1635.2555 1672.8209,1672.793 " fill="none" id="healthService-to-api" style="stroke:#60758A;stroke-width:1.875;"/><polygon fill="#60758A" points="1677.2437,1683.1371,1677.5055,1664.6724,1673.558,1674.517,1663.7134,1670.5695,1677.2437,1683.1371" style="stroke:#60758A;stroke-width:1.875;"/><text fill="#000000" font-family="Arial" font-size="24.375" lengthAdjust="spacing" textLength="144.375" x="1648.125" y="1605.975">target = api</text></g><!--link healthService to ollama--><g id="link_healthService_ollama"><path d="M1220.5125,1462.5621 C1265.4563,1487.6121 1318.8938,1523.3871 1355.625,1567.4121 C1383.7125,1601.0684 1399.1424,1636.4108 1410.6737,1672.1858 " fill="none" id="healthService-to-ollama" style="stroke:#60758A;stroke-width:1.875;"/><polygon fill="#60758A" points="1414.125,1682.8934,1416.0864,1664.5312,1411.2489,1673.9704,1401.8097,1669.133,1414.125,1682.8934" style="stroke:#60758A;stroke-width:1.875;"/><text fill="#000000" font-family="Arial" font-size="24.375" lengthAdjust="spacing" textLength="189.375" x="1391.25" y="1605.975">target = ollama</text></g><!--link healthService to postgres--><g id="link_healthService_postgres"><path d="M1131.9188,1462.9371 C1125,1508.6684 1107.375,1582.2996 1063.125,1627.4121 C1008.9563,1682.6496 935.4426,1708.2692 871.1863,1722.2567 " fill="none" id="healthService-to-postgres" style="stroke:#60758A;stroke-width:1.875;"/><polygon fill="#60758A" points="860.1937,1724.6496,878.2779,1728.3886,869.3542,1722.6555,875.0873,1713.7319,860.1937,1724.6496" style="stroke:#60758A;stroke-width:1.875;"/><text fill="#000000" font-family="Arial" font-size="24.375" lengthAdjust="spacing" textLength="213.75" x="1102.5" y="1605.975">target = postgres</text></g><!--link synopsisService to postgres--><g id="link_synopsisService_postgres"><path d="M496.4063,1462.7684 C472.9313,1506.9996 445.95,1578.0246 480,1627.4121 C524.8875,1692.5309 602.4714,1717.5343 670.1402,1728.5593 " fill="none" id="synopsisService-to-postgres" style="stroke:#60758A;stroke-width:1.875;"/><polygon fill="#60758A" points="681.2438,1730.3684,665.7944,1720.2524,671.9908,1728.8608,663.3823,1735.0572,681.2438,1730.3684" style="stroke:#60758A;stroke-width:1.875;"/><text fill="#000000" font-family="Arial" font-size="24.375" lengthAdjust="spacing" textLength="84.375" x="569.0625" y="1591.9125">INSERT</text><text fill="#000000" font-family="Arial" font-size="24.375" lengthAdjust="spacing" textLength="258.75" x="481.875" y="1620.2866">synopsis_generations</text></g><!--link storyService to postgres--><g id="link_storyService_postgres"><path d="M810.0188,1462.8059 C793.5,1490.9309 773.7,1529.9121 765,1567.4121 C754.8188,1611.3059 757.1763,1652.0808 762.0138,1687.0308 " fill="none" id="storyService-to-postgres" style="stroke:#60758A;stroke-width:1.875;"/><polygon fill="#60758A" points="763.5563,1698.1746,768.6718,1680.4307,762.2709,1688.8881,753.8134,1682.4873,763.5563,1698.1746" style="stroke:#60758A;stroke-width:1.875;"/><text fill="#000000" font-family="Arial" font-size="24.375" lengthAdjust="spacing" textLength="168.75" x="825.9375" y="1591.9125">story_projects</text><text fill="#000000" font-family="Arial" font-size="24.375" lengthAdjust="spacing" textLength="286.875" x="766.875" y="1620.2866">story_memory_versions</text></g><!--link graph to GMN40--><g id="link_graph_GMN40"><path d="M1126.5563,230.2559 C1263.7125,262.6559 1473.7125,316.8996 1650,382.4121 C1672.575,390.8121 1695.825,400.2996 1718.8125,410.2746 " fill="none" id="graph-GMN40" style="stroke:#60758A;stroke-width:1.875;stroke-dasharray:7.0,7.0;"/></g><!--link mcp to GMN43--><g id="link_mcp_GMN43"><path d="M1125.15,914.7809 C1273.125,935.2371 1507.65,972.1559 1706.25,1023.6621 C1778.5688,1042.4121 1857.4688,1069.3184 1921.35,1092.8121 " fill="none" id="mcp-GMN43" style="stroke:#60758A;stroke-width:1.875;stroke-dasharray:7.0,7.0;"/></g><rect fill="none" height="209.5898" id="_legend" rx="14.0625" ry="14.0625" style="stroke:#000000;stroke-width:1.875;" width="613.125" x="1668.75" y="1845.0731"/><text fill="#000000" font-family="Arial" font-size="26.25" font-weight="bold" lengthAdjust="spacing" textLength="256.875" x="1687.5" y="1882.5639">&#1062;&#1074;&#1077;&#1090;&#1086;&#1074;&#1072;&#1103; &#1075;&#1088;&#1091;&#1087;&#1087;&#1072;</text><text fill="#000000" font-family="Arial" font-size="26.25" font-weight="bold" lengthAdjust="spacing" textLength="76.875" x="1963.125" y="1882.5639">&#1057;&#1083;&#1086;&#1081;</text><rect fill="#D9E7F4" height="30.5566" style="stroke:none;stroke-width:1.875;" width="275.625" x="1678.125" y="1888.7547"/><text fill="#000000" font-family="Arial" font-size="26.25" lengthAdjust="spacing" textLength="7.5" x="1678.125" y="1913.1206">&#160;</text><text fill="#000000" font-family="Arial" font-size="26.25" lengthAdjust="spacing" textLength="303.75" x="1961.25" y="1913.1206">LangGraph / MCP Client</text><rect fill="#D7DFED" height="30.5566" style="stroke:none;stroke-width:1.875;" width="275.625" x="1678.125" y="1919.3114"/><text fill="#000000" font-family="Arial" font-size="26.25" lengthAdjust="spacing" textLength="7.5" x="1678.125" y="1943.6772">&#160;</text><text fill="#000000" font-family="Arial" font-size="26.25" lengthAdjust="spacing" textLength="112.5" x="1961.25" y="1943.6772">FastMCP</text><rect fill="#D9D5EC" height="30.5566" style="stroke:none;stroke-width:1.875;" width="275.625" x="1678.125" y="1949.868"/><text fill="#000000" font-family="Arial" font-size="26.25" lengthAdjust="spacing" textLength="7.5" x="1678.125" y="1974.2338">&#160;</text><text fill="#000000" font-family="Arial" font-size="26.25" lengthAdjust="spacing" textLength="136.875" x="1961.25" y="1974.2338">MCP Tools</text><rect fill="#C4E1D8" height="30.5566" style="stroke:none;stroke-width:1.875;" width="275.625" x="1678.125" y="1980.4246"/><text fill="#000000" font-family="Arial" font-size="26.25" lengthAdjust="spacing" textLength="7.5" x="1678.125" y="2004.7905">&#160;</text><text fill="#000000" font-family="Arial" font-size="26.25" lengthAdjust="spacing" textLength="108.75" x="1961.25" y="2004.7905">Services</text><rect fill="#B9D8CF" height="30.5566" style="stroke:none;stroke-width:1.875;" width="275.625" x="1678.125" y="2010.9813"/><text fill="#000000" font-family="Arial" font-size="26.25" lengthAdjust="spacing" textLength="7.5" x="1678.125" y="2035.3471">&#160;</text><text fill="#000000" font-family="Arial" font-size="26.25" lengthAdjust="spacing" textLength="151.875" x="1961.25" y="2035.3471">PostgreSQL</text><line style="stroke:#000000;stroke-width:1.875;" x1="1678.125" x2="2272.5" y1="1858.1981" y2="1858.1981"/><line style="stroke:#000000;stroke-width:1.875;" x1="1678.125" x2="2272.5" y1="1888.7547" y2="1888.7547"/><line style="stroke:#000000;stroke-width:1.875;" x1="1678.125" x2="2272.5" y1="1919.3114" y2="1919.3114"/><line style="stroke:#000000;stroke-width:1.875;" x1="1678.125" x2="2272.5" y1="1949.868" y2="1949.868"/><line style="stroke:#000000;stroke-width:1.875;" x1="1678.125" x2="2272.5" y1="1980.4246" y2="1980.4246"/><line style="stroke:#000000;stroke-width:1.875;" x1="1678.125" x2="2272.5" y1="2010.9813" y2="2010.9813"/><line style="stroke:#000000;stroke-width:1.875;" x1="1678.125" x2="2272.5" y1="2041.5379" y2="2041.5379"/><line style="stroke:#000000;stroke-width:1.875;" x1="1678.125" x2="1678.125" y1="1858.1981" y2="2041.5379"/><line style="stroke:#000000;stroke-width:1.875;" x1="1953.75" x2="1953.75" y1="1858.1981" y2="2041.5379"/><line style="stroke:#000000;stroke-width:1.875;" x1="2272.5" x2="2272.5" y1="1858.1981" y2="2041.5379"/><!--SRC=[XLRDRjj64BxpAHRs9G5gMOf-RJG1595i0YIfM_bM5y96MikiAQv0qd7SEe1bfqc0130Az5IWXrvwLfoeTfn8VeNbA_H9EZDBKfIiD1OCS6VdzzkPtIzqGbUmXuqDzk_HxqmDewFeLtKH7QkHkeoEevFeI0sPkb3ZQ03Be-X4VOAjCIWCrSVeZHghYNgd9YmQg8zg4fqQHh3hU7tkynvxpDkxNL_kUPs6TANFbkq6_CoCHh33EtBVyRficxk1oEnq-WuhrF8PYIcs-PuRsj8B7_6UO7NVuUxY_QRpis25OcPp4ykSRjKMRSL9tgeKAwLwHg7k-t8_tgpag-LQFLjaM_RwqXDUo7un6FpTbNv7-8bwWTHHdebGi6-j5QjQUnuYoxIBTirubWtHuI5_p0EnA4AvLArNYzSZ5El5yk88fccPrbm4JuQfzsk7LhFhTkDwvBlrHiKipKSk5ak5SXczzy4HxmgsPFCWh6_SPwli0VUwt_YylxC4XLOjswx6GQSWBgKwx97iY629yO1rQRrihbbLkpHlWBtRS1tutl8UGWCuJU4_4Jw8jPGyjEaJN1IiebsOIQzvuCb-u0Gq1DeMqxFiWbs1zER3OJLJpItltkRc1ildwBTUo-SB5A_NxaEmgcbRflQGXjkKqeMgbkr2flwv6EqTqTvj1H31QGlojoEu6-wWBQIMDqqxlyWku4z4AuZh8RjaeIrD4o2q5aRq1G_1DfJ-WGQC14rS8_1csMeiikkAK1krsj03ugb66wI9PHaGN_jyhcJQ4xqaB4eVqXBFgc5Q5R9zDWTYKqE3ECB0bEtYOXpl4MhDQpZ64WXHi-x68UPCawx86WUpChRSiAoAQIyqny9cR3C2C2nP1RCMbmR5fHE-j263iEkBvdSFoAolbm6CsvfPQzX6svLxdNIcjhnLNH4fSxWpbw7bwdOvqVlMTNcFWnhihKA_1exqI5VI1i1NiihsBSFG8xQoSYSPbNKynHRqSIl4Zcq5V5ku1pTk6l4-gcANhzFSIF3DS1GC0uMuEMtPL9JjnbIOwRHKbZJGr3Bj2yF8pC8qJWBjEhm3VU5rWXkvNEwcCTF_sHG-evzjUrBF7jkSRjhbNrBCDFMNL8tPQb0TJtMTXTo7UEmsBXSenSUPqTEI1QffIsMK4vbXpECpPt7_KTFwVdFBIzHQNU49duVGLe4nKzYSePxqlYz_4kqm00UPoM_5ZGdXwI7odUvEoEHst8em9keFO1SNcdWWrRW4rZ6EdeFe7L6K2_YVg3FW96FKleIFIxReCVWAjyUQhupKX-WbC9u1BYRglHg1bt-G_32WDnEYDn08BN0NE10Bo1i3H_x1EjnXoLMRm_i9vuLcvSPDfiwYr-eS_Z6d4J2d0L0ZS7G6eM7l289_YaxPllHtjrsvJ_QRJa_8lN0LQDGhYFOMos20uWy_vWpe47gaOuGUop2KFOI8vXOz_maktuCfqhGJTOL5qlSRcazOZh2Cjz6fEaUOr93gGXMzXDGGOiYNZ83KZT08-H-euCOOoXanS7uEqBoU8lcIsE8OpsULa3o7H8PQeCyT22Hez_6KWr1uq1rfN3Yrw5JZGqdErX2z9cIcboA2DuX-OvWMfeHmfbLH7Xyn5ypjFMG9Fh7QAsYI0S69F8HUrxvquBto_mTPk7hmKF3Y86fyHd2yehe-8AWhH8kF4IDeHUocGGuiaW508phe8G6B-Rs0vZh5XAzYO5-WBx217iJBKtjyJbi9tKvO-0I2geiC5DdKNT751GsESNYRgRyXtH5rCHuen7n7pgxWDsIey1VITN1vQ1n-7HEhEuTJWWPaRSghOYLYCw2KCA3O5Aa1I552t4RBzGi7ykIfrcBzYe4uSwI7M8YkmFWF]--></g></svg>