<?xml version="1.0" encoding="us-ascii" standalone="no"?><svg xmlns="http://www.w3.org/2000/svg" xmlns:xlink="http://www.w3.org/1999/xlink" contentStyleType="text/css" height="2998.125px" preserveAspectRatio="none" style="width:2600px;height:2998px;background:#FCFCFD;" version="1.1" viewBox="0 0 2600 2998" width="2600.625px" zoomAndPan="magnify"><defs/><g><rect fill="#FCFCFD" height="2998.125" style="stroke:none;stroke-width:1.875;" width="2600.625" x="0" y="0"/><text fill="#263B45" font-family="Arial" font-size="33.75" font-weight="bold" lengthAdjust="spacing" textLength="1102.5" x="742.0313" y="59.4525">MCP &#8212; &#1089;&#1086;&#1093;&#1088;&#1072;&#1085;&#1077;&#1085;&#1080;&#1077; &#1075;&#1077;&#1085;&#1077;&#1088;&#1072;&#1094;&#1080;&#1080; &#1080; &#1076;&#1086;&#1083;&#1075;&#1086;&#1074;&#1088;&#1077;&#1084;&#1077;&#1085;&#1085;&#1086;&#1081; &#1087;&#1072;&#1084;&#1103;&#1090;&#1080;</text><rect fill="none" height="2088.0762" style="stroke:#000000;stroke-width:2.8125;" width="2550.9375" x="18.75" y="343.7842"/><rect fill="none" height="588.4863" style="stroke:#000000;stroke-width:2.8125;" width="2412.1875" x="138.75" y="708.1494"/><rect fill="none" height="282.9932" style="stroke:#000000;stroke-width:2.8125;" width="1248.75" x="157.5" y="1000.5176"/><rect fill="none" height="973.2275" style="stroke:#000000;stroke-width:2.8125;" width="2412.1875" x="138.75" y="1445.5078"/><rect fill="none" height="311.3672" style="stroke:#000000;stroke-width:2.8125;" width="1892.8125" x="157.5" y="2094.2432"/><line style="stroke:#71848F;stroke-width:0.9375;stroke-dasharray:5.0,5.0;" x1="288.75" x2="288.75" y1="202.6611" y2="2614.7314"/><line style="stroke:#71848F;stroke-width:0.9375;stroke-dasharray:5.0,5.0;" x1="744.375" x2="744.375" y1="202.6611" y2="2614.7314"/><line style="stroke:#71848F;stroke-width:0.9375;stroke-dasharray:5.0,5.0;" x1="939.375" x2="939.375" y1="202.6611" y2="2614.7314"/><line style="stroke:#71848F;stroke-width:0.9375;stroke-dasharray:5.0,5.0;" x1="1276.875" x2="1276.875" y1="202.6611" y2="2614.7314"/><line style="stroke:#71848F;stroke-width:0.9375;stroke-dasharray:5.0,5.0;" x1="1541.25" x2="1541.25" y1="202.6611" y2="2614.7314"/><line style="stroke:#71848F;stroke-width:0.9375;stroke-dasharray:5.0,5.0;" x1="1941.5625" x2="1941.5625" y1="202.6611" y2="2614.7314"/><line style="stroke:#71848F;stroke-width:0.9375;stroke-dasharray:5.0,5.0;" x1="2455.3125" x2="2455.3125" y1="202.6611" y2="2614.7314"/><rect fill="#DCE7EF" height="82.998" rx="4.6875" ry="4.6875" style="stroke:#667B88;stroke-width:0.9375;" width="225" x="176.25" y="117.7881"/><text fill="#24343C" font-family="Arial" font-size="24.375" lengthAdjust="spacing" textLength="153.75" x="211.875" y="153.5385">persist_story</text><text fill="#24343C" font-family="Arial" font-size="24.375" lengthAdjust="spacing" textLength="198.75" x="189.375" y="181.9125">LangGraph node</text><rect fill="#DCE7EF" height="82.998" rx="4.6875" ry="4.6875" style="stroke:#667B88;stroke-width:0.9375;" width="225" x="176.25" y="2612.8564"/><text fill="#24343C" font-family="Arial" font-size="24.375" lengthAdjust="spacing" textLength="153.75" x="211.875" y="2648.6069">persist_story</text><text fill="#24343C" font-family="Arial" font-size="24.375" lengthAdjust="spacing" textLength="198.75" x="189.375" y="2676.9809">LangGraph node</text><rect fill="#D4E4EB" height="54.624" rx="4.6875" ry="4.6875" style="stroke:#667B88;stroke-width:0.9375;" width="153.75" x="667.5" y="146.1621"/><text fill="#24343C" font-family="Arial" font-size="24.375" lengthAdjust="spacing" textLength="127.5" x="680.625" y="181.9125">MCP Client</text><rect fill="#D4E4EB" height="54.624" rx="4.6875" ry="4.6875" style="stroke:#667B88;stroke-width:0.9375;" width="153.75" x="667.5" y="2612.8564"/><text fill="#24343C" font-family="Arial" font-size="24.375" lengthAdjust="spacing" textLength="127.5" x="680.625" y="2648.6069">MCP Client</text><rect fill="#D8DCEF" height="54.624" rx="4.6875" ry="4.6875" style="stroke:#667B88;stroke-width:0.9375;" width="198.75" x="840" y="146.1621"/><text fill="#24343C" font-family="Arial" font-size="24.375" lengthAdjust="spacing" textLength="172.5" x="853.125" y="181.9125">save_synopsis</text><rect fill="#D8DCEF" height="54.624" rx="4.6875" ry="4.6875" style="stroke:#667B88;stroke-width:0.9375;" width="198.75" x="840" y="2612.8564"/><text fill="#24343C" font-family="Arial" font-size="24.375" lengthAdjust="spacing" textLength="172.5" x="853.125" y="2648.6069">save_synopsis</text><rect fill="#CFDBE5" height="54.624" rx="4.6875" ry="4.6875" style="stroke:#667B88;stroke-width:0.9375;" width="221.25" x="1166.25" y="146.1621"/><text fill="#24343C" font-family="Arial" font-size="24.375" lengthAdjust="spacing" textLength="195" x="1179.375" y="181.9125">SynopsisService</text><rect fill="#CFDBE5" height="54.624" rx="4.6875" ry="4.6875" style="stroke:#667B88;stroke-width:0.9375;" width="221.25" x="1166.25" y="2612.8564"/><text fill="#24343C" font-family="Arial" font-size="24.375" lengthAdjust="spacing" textLength="195" x="1179.375" y="2648.6069">SynopsisService</text><rect fill="#C7E1DB" height="54.624" rx="4.6875" ry="4.6875" style="stroke:#667B88;stroke-width:0.9375;" width="270" x="1406.25" y="146.1621"/><text fill="#24343C" font-family="Arial" font-size="24.375" lengthAdjust="spacing" textLength="243.75" x="1419.375" y="181.9125">save_story_memory</text><rect fill="#C7E1DB" height="54.624" rx="4.6875" ry="4.6875" style="stroke:#667B88;stroke-width:0.9375;" width="270" x="1406.25" y="2612.8564"/><text fill="#24343C" font-family="Arial" font-size="24.375" lengthAdjust="spacing" textLength="243.75" x="1419.375" y="2648.6069">save_story_memory</text><rect fill="#BBDAD2" height="54.624" rx="4.6875" ry="4.6875" style="stroke:#667B88;stroke-width:0.9375;" width="178.125" x="1853.4375" y="146.1621"/><text fill="#24343C" font-family="Arial" font-size="24.375" lengthAdjust="spacing" textLength="151.875" x="1866.5625" y="181.9125">StoryService</text><rect fill="#BBDAD2" height="54.624" rx="4.6875" ry="4.6875" style="stroke:#667B88;stroke-width:0.9375;" width="178.125" x="1853.4375" y="2612.8564"/><text fill="#24343C" font-family="Arial" font-size="24.375" lengthAdjust="spacing" textLength="151.875" x="1866.5625" y="2648.6069">StoryService</text><text fill="#000000" font-family="Arial" font-size="24.375" lengthAdjust="spacing" textLength="140.625" x="2380.3125" y="196.9125">PostgreSQL</text><path d="M2422.5,106.7871 C2422.5,88.0371 2456.25,88.0371 2456.25,88.0371 C2456.25,88.0371 2490,88.0371 2490,106.7871 L2490,155.5371 C2490,174.2871 2456.25,174.2871 2456.25,174.2871 C2456.25,174.2871 2422.5,174.2871 2422.5,155.5371 L2422.5,106.7871 " fill="#C4DFD7" style="stroke:#181818;stroke-width:2.8125;"/><path d="M2422.5,106.7871 C2422.5,125.5371 2456.25,125.5371 2456.25,125.5371 C2456.25,125.5371 2490,125.5371 2490,106.7871 " fill="none" style="stroke:#181818;stroke-width:2.8125;"/><text fill="#000000" font-family="Arial" font-size="24.375" lengthAdjust="spacing" textLength="140.625" x="2380.3125" y="2635.4819">PostgreSQL</text><path d="M2422.5,2659.9805 C2422.5,2641.2305 2456.25,2641.2305 2456.25,2641.2305 C2456.25,2641.2305 2490,2641.2305 2490,2659.9805 L2490,2708.7305 C2490,2727.4805 2456.25,2727.4805 2456.25,2727.4805 C2456.25,2727.4805 2422.5,2727.4805 2422.5,2708.7305 L2422.5,2659.9805 " fill="#C4DFD7" style="stroke:#181818;stroke-width:2.8125;"/><path d="M2422.5,2659.9805 C2422.5,2678.7305 2456.25,2678.7305 2456.25,2678.7305 C2456.25,2678.7305 2490,2678.7305 2490,2659.9805 " fill="none" style="stroke:#181818;stroke-width:2.8125;"/><polygon fill="#647987" points="721.875,253.5352,740.625,261.0352,721.875,268.5352,729.375,261.0352" style="stroke:#647987;stroke-width:1.875;"/><line style="stroke:#647987;stroke-width:1.875;" x1="288.75" x2="733.125" y1="261.0352" y2="261.0352"/><text fill="#000000" font-family="Arial" font-size="24.375" lengthAdjust="spacing" textLength="277.5" x="301.875" y="251.5366">get_mcp_tools_safely()</text><polygon fill="#647987" points="309.375,308.1592,290.625,315.6592,309.375,323.1592,301.875,315.6592" style="stroke:#647987;stroke-width:1.875;"/><line style="stroke:#647987;stroke-width:1.875;stroke-dasharray:2.0,2.0;" x1="298.125" x2="742.5" y1="315.6592" y2="315.6592"/><text fill="#000000" font-family="Arial" font-size="24.375" lengthAdjust="spacing" textLength="230.625" x="320.625" y="306.1606">&#1089;&#1087;&#1080;&#1089;&#1086;&#1082; tools &#1080;&#1083;&#1080; []</text><path d="M18.75,343.7842 L138.75,343.7842 L138.75,357.1582 L120,375.9082 L18.75,375.9082 L18.75,343.7842 " fill="#EEEEEE" style="stroke:#000000;stroke-width:2.8125;"/><rect fill="none" height="2088.0762" style="stroke:#000000;stroke-width:2.8125;" width="2550.9375" x="18.75" y="343.7842"/><text fill="#000000" font-family="Arial" font-size="24.375" font-weight="bold" lengthAdjust="spacing" textLength="35.625" x="46.875" y="368.2846">alt</text><text fill="#000000" font-family="Arial" font-size="24.375" font-weight="bold" lengthAdjust="spacing" textLength="268.125" x="166.875" y="370.1596">[&#1089;&#1087;&#1080;&#1089;&#1086;&#1082; tools &#1087;&#1091;&#1089;&#1090;]</text><path d="M37.5,385.5322 L37.5,544.9072 L540,544.9072 L540,404.2822 L521.25,385.5322 L37.5,385.5322 " fill="#F8FAF9" style="stroke:#B8C9C5;stroke-width:0.9375;"/><path d="M521.25,385.5322 L521.25,404.2822 L540,404.2822 L521.25,385.5322 " fill="#F8FAF9" style="stroke:#B8C9C5;stroke-width:0.9375;"/><text fill="#334A46" font-family="Arial" font-size="24.375" lengthAdjust="spacing" textLength="326.25" x="48.75" y="417.5327">persist_story &#1074;&#1086;&#1079;&#1074;&#1088;&#1072;&#1097;&#1072;&#1077;&#1090;:</text><text fill="#334A46" font-family="Arial" font-size="24.375" lengthAdjust="spacing" textLength="350.625" x="48.75" y="445.9067">story_memory_saved = false</text><text fill="#334A46" font-family="Arial" font-size="24.375" lengthAdjust="spacing" textLength="7.5" x="48.75" y="474.2807">&#160;</text><text fill="#334A46" font-family="Arial" font-size="24.375" lengthAdjust="spacing" textLength="367.5" x="48.75" y="502.6547">&#1060;&#1080;&#1085;&#1072;&#1083;&#1100;&#1085;&#1099;&#1081; &#1089;&#1090;&#1072;&#1090;&#1091;&#1089; &#1086;&#1089;&#1090;&#1072;&#1105;&#1090;&#1089;&#1103;</text><text fill="#334A46" font-family="Arial" font-size="24.375" lengthAdjust="spacing" textLength="463.125" x="48.75" y="531.0287">completed / completed_with_warnings.</text><line style="stroke:#000000;stroke-width:1.875;stroke-dasharray:2.0,2.0;" x1="18.75" x2="2569.6875" y1="557.4023" y2="557.4023"/><text fill="#000000" font-family="Arial" font-size="24.375" font-weight="bold" lengthAdjust="spacing" textLength="311.25" x="28.125" y="580.0278">[MCP tools &#1087;&#1086;&#1083;&#1091;&#1095;&#1077;&#1085;&#1099;]</text><line style="stroke:#647987;stroke-width:1.875;" x1="288.75" x2="367.5" y1="655.6494" y2="655.6494"/><line style="stroke:#647987;stroke-width:1.875;" x1="367.5" x2="367.5" y1="655.6494" y2="680.0244"/><line style="stroke:#647987;stroke-width:1.875;" x1="290.625" x2="367.5" y1="680.0244" y2="680.0244"/><polygon fill="#647987" points="309.375,672.5244,290.625,680.0244,309.375,687.5244,301.875,680.0244" style="stroke:#647987;stroke-width:1.875;"/><text fill="#000000" font-family="Arial" font-size="24.375" lengthAdjust="spacing" textLength="358.125" x="301.875" y="617.7768">find_mcp_tool(save_synopsis)</text><text fill="#000000" font-family="Arial" font-size="24.375" lengthAdjust="spacing" textLength="429.375" x="301.875" y="646.1508">find_mcp_tool(save_story_memory)</text><path d="M138.75,708.1494 L270,708.1494 L270,721.5234 L251.25,740.2734 L138.75,740.2734 L138.75,708.1494 " fill="#EEEEEE" style="stroke:#000000;stroke-width:2.8125;"/><rect fill="none" height="588.4863" style="stroke:#000000;stroke-width:2.8125;" width="2412.1875" x="138.75" y="708.1494"/><text fill="#000000" font-family="Arial" font-size="24.375" font-weight="bold" lengthAdjust="spacing" textLength="46.875" x="166.875" y="732.6498">opt</text><text fill="#000000" font-family="Arial" font-size="24.375" font-weight="bold" lengthAdjust="spacing" textLength="333.75" x="298.125" y="734.5248">[save_synopsis &#1085;&#1072;&#1081;&#1076;&#1077;&#1085;]</text><polygon fill="#647987" points="916.875,801.0205,935.625,808.5205,916.875,816.0205,924.375,808.5205" style="stroke:#647987;stroke-width:1.875;"/><line style="stroke:#647987;stroke-width:1.875;" x1="288.75" x2="928.125" y1="808.5205" y2="808.5205"/><text fill="#000000" font-family="Arial" font-size="24.375" lengthAdjust="spacing" textLength="262.5" x="301.875" y="770.6479">metadata + final_text</text><text fill="#000000" font-family="Arial" font-size="24.375" lengthAdjust="spacing" textLength="241.875" x="301.875" y="799.0219">story_id + thread_id</text><polygon fill="#647987" points="1254.375,855.6445,1273.125,863.1445,1254.375,870.6445,1261.875,863.1445" style="stroke:#647987;stroke-width:1.875;"/><line style="stroke:#647987;stroke-width:1.875;" x1="939.375" x2="1265.625" y1="863.1445" y2="863.1445"/><text fill="#000000" font-family="Arial" font-size="24.375" lengthAdjust="spacing" textLength="213.75" x="952.5" y="853.6459">save_synopsis(...)</text><polygon fill="#647987" points="2433.75,910.2686,2452.5,917.7686,2433.75,925.2686,2441.25,917.7686" style="stroke:#647987;stroke-width:1.875;"/><line style="stroke:#647987;stroke-width:1.875;" x1="1276.875" x2="2445" y1="917.7686" y2="917.7686"/><text fill="#000000" font-family="Arial" font-size="24.375" lengthAdjust="spacing" textLength="350.625" x="1290" y="908.27">INSERT synopsis_generations</text><polygon fill="#647987" points="1297.5,964.8926,1278.75,972.3926,1297.5,979.8926,1290,972.3926" style="stroke:#647987;stroke-width:1.875;"/><line style="stroke:#647987;stroke-width:1.875;stroke-dasharray:2.0,2.0;" x1="1286.25" x2="2454.375" y1="972.3926" y2="972.3926"/><text fill="#000000" font-family="Arial" font-size="24.375" lengthAdjust="spacing" textLength="185.625" x="1308.75" y="962.894">id + created_at</text><path d="M157.5,1000.5176 L277.5,1000.5176 L277.5,1013.8916 L258.75,1032.6416 L157.5,1032.6416 L157.5,1000.5176 " fill="#EEEEEE" style="stroke:#000000;stroke-width:2.8125;"/><rect fill="none" height="282.9932" style="stroke:#000000;stroke-width:2.8125;" width="1248.75" x="157.5" y="1000.5176"/><text fill="#000000" font-family="Arial" font-size="24.375" font-weight="bold" lengthAdjust="spacing" textLength="35.625" x="185.625" y="1025.018">alt</text><text fill="#000000" font-family="Arial" font-size="24.375" font-weight="bold" lengthAdjust="spacing" textLength="251.25" x="305.625" y="1026.893">[INSERT &#1091;&#1089;&#1087;&#1077;&#1096;&#1077;&#1085;]</text><polygon fill="#647987" points="960,1065.0146,941.25,1072.5146,960,1080.0146,952.5,1072.5146" style="stroke:#647987;stroke-width:1.875;"/><line style="stroke:#647987;stroke-width:1.875;stroke-dasharray:2.0,2.0;" x1="948.75" x2="1275" y1="1072.5146" y2="1072.5146"/><text fill="#000000" font-family="Arial" font-size="24.375" lengthAdjust="spacing" textLength="292.5" x="971.25" y="1063.0161">saved=true, synopsis_id</text><polygon fill="#647987" points="309.375,1119.6387,290.625,1127.1387,309.375,1134.6387,301.875,1127.1387" style="stroke:#647987;stroke-width:1.875;"/><line style="stroke:#647987;stroke-width:1.875;stroke-dasharray:2.0,2.0;" x1="298.125" x2="937.5" y1="1127.1387" y2="1127.1387"/><text fill="#000000" font-family="Arial" font-size="24.375" lengthAdjust="spacing" textLength="136.875" x="320.625" y="1117.6401">synopsis_id</text><line style="stroke:#000000;stroke-width:1.875;stroke-dasharray:2.0,2.0;" x1="157.5" x2="1406.25" y1="1144.0137" y2="1144.0137"/><text fill="#000000" font-family="Arial" font-size="24.375" font-weight="bold" lengthAdjust="spacing" textLength="133.125" x="166.875" y="1166.6391">[&#1086;&#1096;&#1080;&#1073;&#1082;&#1072;]</text><polygon fill="#647987" points="960,1206.3867,941.25,1213.8867,960,1221.3867,952.5,1213.8867" style="stroke:#647987;stroke-width:1.875;"/><line style="stroke:#647987;stroke-width:1.875;stroke-dasharray:2.0,2.0;" x1="948.75" x2="1275" y1="1213.8867" y2="1213.8867"/><text fill="#000000" font-family="Arial" font-size="24.375" lengthAdjust="spacing" textLength="221.25" x="971.25" y="1204.3881">saved=false, error</text><polygon fill="#647987" points="309.375,1261.0107,290.625,1268.5107,309.375,1276.0107,301.875,1268.5107" style="stroke:#647987;stroke-width:1.875;"/><line style="stroke:#647987;stroke-width:1.875;stroke-dasharray:2.0,2.0;" x1="298.125" x2="937.5" y1="1268.5107" y2="1268.5107"/><text fill="#000000" font-family="Arial" font-size="24.375" lengthAdjust="spacing" textLength="213.75" x="320.625" y="1259.0121">synopsis_id = null</text><path d="M298.125,1319.1357 L298.125,1422.2607 L748.125,1422.2607 L748.125,1337.8857 L729.375,1319.1357 L298.125,1319.1357 " fill="#F8FAF9" style="stroke:#B8C9C5;stroke-width:0.9375;"/><path d="M729.375,1319.1357 L729.375,1337.8857 L748.125,1337.8857 L729.375,1319.1357 " fill="#F8FAF9" style="stroke:#B8C9C5;stroke-width:0.9375;"/><text fill="#334A46" font-family="Arial" font-size="24.375" lengthAdjust="spacing" textLength="410.625" x="309.375" y="1351.1362">&#1045;&#1089;&#1083;&#1080; save_synopsis &#1086;&#1090;&#1089;&#1091;&#1090;&#1089;&#1090;&#1074;&#1091;&#1077;&#1090;</text><text fill="#334A46" font-family="Arial" font-size="24.375" lengthAdjust="spacing" textLength="356.25" x="309.375" y="1379.5102">&#1080;&#1083;&#1080; &#1079;&#1072;&#1074;&#1077;&#1088;&#1096;&#1080;&#1083;&#1089;&#1103; &#1085;&#1077;&#1091;&#1089;&#1087;&#1077;&#1096;&#1085;&#1086;,</text><text fill="#334A46" font-family="Arial" font-size="24.375" lengthAdjust="spacing" textLength="320.625" x="309.375" y="1407.8842">synopsis_id &#1086;&#1089;&#1090;&#1072;&#1105;&#1090;&#1089;&#1103; null.</text><path d="M138.75,1445.5078 L270,1445.5078 L270,1458.8818 L251.25,1477.6318 L138.75,1477.6318 L138.75,1445.5078 " fill="#EEEEEE" style="stroke:#000000;stroke-width:2.8125;"/><rect fill="none" height="973.2275" style="stroke:#000000;stroke-width:2.8125;" width="2412.1875" x="138.75" y="1445.5078"/><text fill="#000000" font-family="Arial" font-size="24.375" font-weight="bold" lengthAdjust="spacing" textLength="46.875" x="166.875" y="1470.0082">opt</text><text fill="#000000" font-family="Arial" font-size="24.375" font-weight="bold" lengthAdjust="spacing" textLength="961.875" x="298.125" y="1471.8832">[story_id AND story_memory_ready AND save_story_memory &#1085;&#1072;&#1081;&#1076;&#1077;&#1085;]</text><polygon fill="#647987" points="1518.75,1538.3789,1537.5,1545.8789,1518.75,1553.3789,1526.25,1545.8789" style="stroke:#647987;stroke-width:1.875;"/><line style="stroke:#647987;stroke-width:1.875;" x1="288.75" x2="1530" y1="1545.8789" y2="1545.8789"/><text fill="#000000" font-family="Arial" font-size="24.375" lengthAdjust="spacing" textLength="230.625" x="301.875" y="1508.0063">story_id + memory</text><text fill="#000000" font-family="Arial" font-size="24.375" lengthAdjust="spacing" textLength="414.375" x="301.875" y="1536.3803">source_generation_id=synopsis_id</text><polygon fill="#647987" points="1920,1593.0029,1938.75,1600.5029,1920,1608.0029,1927.5,1600.5029" style="stroke:#647987;stroke-width:1.875;"/><line style="stroke:#647987;stroke-width:1.875;" x1="1541.25" x2="1931.25" y1="1600.5029" y2="1600.5029"/><text fill="#000000" font-family="Arial" font-size="24.375" lengthAdjust="spacing" textLength="285" x="1554.375" y="1591.0043">save_story_memory(...)</text><polygon fill="#647987" points="2433.75,1676.001,2452.5,1683.501,2433.75,1691.001,2441.25,1683.501" style="stroke:#647987;stroke-width:1.875;"/><line style="stroke:#647987;stroke-width:1.875;" x1="1942.5" x2="2445" y1="1683.501" y2="1683.501"/><text fill="#000000" font-family="Arial" font-size="24.375" lengthAdjust="spacing" textLength="298.125" x="1955.625" y="1645.6284">SELECT memory_version</text><text fill="#000000" font-family="Arial" font-size="24.375" lengthAdjust="spacing" textLength="151.875" x="1955.625" y="1674.0024">FOR UPDATE</text><polygon fill="#647987" points="1963.125,1730.625,1944.375,1738.125,1963.125,1745.625,1955.625,1738.125" style="stroke:#647987;stroke-width:1.875;"/><line style="stroke:#647987;stroke-width:1.875;stroke-dasharray:2.0,2.0;" x1="1951.875" x2="2454.375" y1="1738.125" y2="1738.125"/><text fill="#000000" font-family="Arial" font-size="24.375" lengthAdjust="spacing" textLength="185.625" x="1974.375" y="1728.6264">current_version</text><line style="stroke:#647987;stroke-width:1.875;" x1="1942.5" x2="2021.25" y1="1792.749" y2="1792.749"/><line style="stroke:#647987;stroke-width:1.875;" x1="2021.25" x2="2021.25" y1="1792.749" y2="1817.124"/><line style="stroke:#647987;stroke-width:1.875;" x1="1944.375" x2="2021.25" y1="1817.124" y2="1817.124"/><polygon fill="#647987" points="1963.125,1809.624,1944.375,1817.124,1963.125,1824.624,1955.625,1817.124" style="stroke:#647987;stroke-width:1.875;"/><text fill="#000000" font-family="Arial" font-size="24.375" lengthAdjust="spacing" textLength="418.125" x="1955.625" y="1783.2504">new_version = current_version + 1</text><polygon fill="#647987" points="2433.75,1892.6221,2452.5,1900.1221,2433.75,1907.6221,2441.25,1900.1221" style="stroke:#647987;stroke-width:1.875;"/><line style="stroke:#647987;stroke-width:1.875;" x1="1942.5" x2="2445" y1="1900.1221" y2="1900.1221"/><text fill="#000000" font-family="Arial" font-size="24.375" lengthAdjust="spacing" textLength="273.75" x="1955.625" y="1862.2495">UPDATE story_projects</text><text fill="#000000" font-family="Arial" font-size="24.375" lengthAdjust="spacing" textLength="468.75" x="1955.625" y="1890.6235">memory, memory_version, updated_at</text><polygon fill="#647987" points="2433.75,2003.9941,2452.5,2011.4941,2433.75,2018.9941,2441.25,2011.4941" style="stroke:#647987;stroke-width:1.875;"/><line style="stroke:#647987;stroke-width:1.875;" x1="1942.5" x2="2445" y1="2011.4941" y2="2011.4941"/><text fill="#000000" font-family="Arial" font-size="24.375" lengthAdjust="spacing" textLength="378.75" x="1955.625" y="1945.2475">INSERT story_memory_versions</text><text fill="#000000" font-family="Arial" font-size="24.375" lengthAdjust="spacing" textLength="318.75" x="1955.625" y="1973.6215">story_id, version, memory,</text><text fill="#000000" font-family="Arial" font-size="24.375" lengthAdjust="spacing" textLength="256.875" x="1955.625" y="2001.9955">source_generation_id</text><polygon fill="#647987" points="2433.75,2058.6182,2452.5,2066.1182,2433.75,2073.6182,2441.25,2066.1182" style="stroke:#647987;stroke-width:1.875;"/><line style="stroke:#647987;stroke-width:1.875;" x1="1942.5" x2="2445" y1="2066.1182" y2="2066.1182"/><text fill="#000000" font-family="Arial" font-size="24.375" lengthAdjust="spacing" textLength="95.625" x="1955.625" y="2056.6196">COMMIT</text><path d="M157.5,2094.2432 L277.5,2094.2432 L277.5,2107.6172 L258.75,2126.3672 L157.5,2126.3672 L157.5,2094.2432 " fill="#EEEEEE" style="stroke:#000000;stroke-width:2.8125;"/><rect fill="none" height="311.3672" style="stroke:#000000;stroke-width:2.8125;" width="1892.8125" x="157.5" y="2094.2432"/><text fill="#000000" font-family="Arial" font-size="24.375" font-weight="bold" lengthAdjust="spacing" textLength="35.625" x="185.625" y="2118.7436">alt</text><text fill="#000000" font-family="Arial" font-size="24.375" font-weight="bold" lengthAdjust="spacing" textLength="322.5" x="305.625" y="2120.6186">[&#1090;&#1088;&#1072;&#1085;&#1079;&#1072;&#1082;&#1094;&#1080;&#1103; &#1091;&#1089;&#1087;&#1077;&#1096;&#1085;&#1072;]</text><polygon fill="#647987" points="1561.875,2158.7402,1543.125,2166.2402,1561.875,2173.7402,1554.375,2166.2402" style="stroke:#647987;stroke-width:1.875;"/><line style="stroke:#647987;stroke-width:1.875;stroke-dasharray:2.0,2.0;" x1="1550.625" x2="1940.625" y1="2166.2402" y2="2166.2402"/><text fill="#000000" font-family="Arial" font-size="24.375" lengthAdjust="spacing" textLength="356.25" x="1573.125" y="2156.7416">saved=true, memory_version</text><polygon fill="#647987" points="309.375,2241.7383,290.625,2249.2383,309.375,2256.7383,301.875,2249.2383" style="stroke:#647987;stroke-width:1.875;"/><line style="stroke:#647987;stroke-width:1.875;stroke-dasharray:2.0,2.0;" x1="298.125" x2="1539.375" y1="2249.2383" y2="2249.2383"/><text fill="#000000" font-family="Arial" font-size="24.375" lengthAdjust="spacing" textLength="328.125" x="320.625" y="2211.3657">story_memory_saved=true</text><text fill="#000000" font-family="Arial" font-size="24.375" lengthAdjust="spacing" textLength="273.75" x="320.625" y="2239.7397">story_memory_version</text><line style="stroke:#000000;stroke-width:1.875;stroke-dasharray:2.0,2.0;" x1="157.5" x2="2050.3125" y1="2266.1133" y2="2266.1133"/><text fill="#000000" font-family="Arial" font-size="24.375" font-weight="bold" lengthAdjust="spacing" textLength="133.125" x="166.875" y="2288.7387">[&#1086;&#1096;&#1080;&#1073;&#1082;&#1072;]</text><polygon fill="#647987" points="1561.875,2328.4863,1543.125,2335.9863,1561.875,2343.4863,1554.375,2335.9863" style="stroke:#647987;stroke-width:1.875;"/><line style="stroke:#647987;stroke-width:1.875;stroke-dasharray:2.0,2.0;" x1="1550.625" x2="1940.625" y1="2335.9863" y2="2335.9863"/><text fill="#000000" font-family="Arial" font-size="24.375" lengthAdjust="spacing" textLength="221.25" x="1573.125" y="2326.4877">saved=false, error</text><polygon fill="#647987" points="309.375,2383.1104,290.625,2390.6104,309.375,2398.1104,301.875,2390.6104" style="stroke:#647987;stroke-width:1.875;"/><line style="stroke:#647987;stroke-width:1.875;stroke-dasharray:2.0,2.0;" x1="298.125" x2="1539.375" y1="2390.6104" y2="2390.6104"/><text fill="#000000" font-family="Arial" font-size="24.375" lengthAdjust="spacing" textLength="335.625" x="320.625" y="2381.1118">story_memory_saved=false</text><path d="M1440,2454.3604 L1440,2585.6104 L2555.625,2585.6104 L2555.625,2473.1104 L2536.875,2454.3604 L1440,2454.3604 " fill="#F8FAF9" style="stroke:#B8C9C5;stroke-width:0.9375;"/><path d="M2536.875,2454.3604 L2536.875,2473.1104 L2555.625,2473.1104 L2536.875,2454.3604 " fill="#F8FAF9" style="stroke:#B8C9C5;stroke-width:0.9375;"/><text fill="#334A46" font-family="Arial" font-size="24.375" lengthAdjust="spacing" textLength="457.5" x="1749.8438" y="2486.3608">source_generation_id &#1076;&#1086;&#1087;&#1091;&#1089;&#1082;&#1072;&#1077;&#1090; null.</text><text fill="#334A46" font-family="Arial" font-size="24.375" lengthAdjust="spacing" textLength="480" x="1749.8438" y="2514.7348">&#1055;&#1086;&#1101;&#1090;&#1086;&#1084;&#1091; &#1085;&#1086;&#1074;&#1072;&#1103; &#1074;&#1077;&#1088;&#1089;&#1080;&#1103; &#1087;&#1072;&#1084;&#1103;&#1090;&#1080; &#1084;&#1086;&#1078;&#1077;&#1090;</text><text fill="#334A46" font-family="Arial" font-size="24.375" lengthAdjust="spacing" textLength="453.75" x="1749.8438" y="2543.1088">&#1089;&#1086;&#1093;&#1088;&#1072;&#1085;&#1080;&#1090;&#1100;&#1089;&#1103; &#1076;&#1072;&#1078;&#1077; &#1087;&#1088;&#1080; &#1085;&#1077;&#1091;&#1089;&#1087;&#1077;&#1096;&#1085;&#1086;&#1084;</text><text fill="#334A46" font-family="Arial" font-size="24.375" lengthAdjust="spacing" textLength="180" x="1749.8438" y="2571.4828">save_synopsis.</text><rect fill="none" height="209.5898" id="_legend" rx="14.0625" ry="14.0625" style="stroke:#000000;stroke-width:1.875;" width="466.875" x="2097.1875" y="2751.8555"/><text fill="#000000" font-family="Arial" font-size="26.25" font-weight="bold" lengthAdjust="spacing" textLength="75" x="2115.9375" y="2789.3463">&#1062;&#1074;&#1077;&#1090;</text><text fill="#000000" font-family="Arial" font-size="26.25" font-weight="bold" lengthAdjust="spacing" textLength="181.875" x="2209.6875" y="2789.3463">&#1053;&#1072;&#1079;&#1085;&#1072;&#1095;&#1077;&#1085;&#1080;&#1077;</text><rect fill="#DCE7EF" height="30.5566" style="stroke:none;stroke-width:1.875;" width="93.75" x="2106.5625" y="2795.5371"/><text fill="#000000" font-family="Arial" font-size="26.25" lengthAdjust="spacing" textLength="7.5" x="2106.5625" y="2819.903">&#160;</text><text fill="#000000" font-family="Arial" font-size="26.25" lengthAdjust="spacing" textLength="140.625" x="2207.8125" y="2819.903">LangGraph</text><rect fill="#D4E4EB" height="30.5566" style="stroke:none;stroke-width:1.875;" width="93.75" x="2106.5625" y="2826.0938"/><text fill="#000000" font-family="Arial" font-size="26.25" lengthAdjust="spacing" textLength="7.5" x="2106.5625" y="2850.4596">&#160;</text><text fill="#000000" font-family="Arial" font-size="26.25" lengthAdjust="spacing" textLength="138.75" x="2207.8125" y="2850.4596">MCP Client</text><rect fill="#D8DCEF" height="30.5566" style="stroke:none;stroke-width:1.875;" width="93.75" x="2106.5625" y="2856.6504"/><text fill="#000000" font-family="Arial" font-size="26.25" lengthAdjust="spacing" textLength="7.5" x="2106.5625" y="2881.0162">&#160;</text><text fill="#000000" font-family="Arial" font-size="26.25" lengthAdjust="spacing" textLength="277.5" x="2207.8125" y="2881.0162">Synopsis persistence</text><rect fill="#C7E1DB" height="30.5566" style="stroke:none;stroke-width:1.875;" width="93.75" x="2106.5625" y="2887.207"/><text fill="#000000" font-family="Arial" font-size="26.25" lengthAdjust="spacing" textLength="7.5" x="2106.5625" y="2911.5729">&#160;</text><text fill="#000000" font-family="Arial" font-size="26.25" lengthAdjust="spacing" textLength="339.375" x="2207.8125" y="2911.5729">Story memory persistence</text><rect fill="#C4DFD7" height="30.5566" style="stroke:none;stroke-width:1.875;" width="93.75" x="2106.5625" y="2917.7637"/><text fill="#000000" font-family="Arial" font-size="26.25" lengthAdjust="spacing" textLength="7.5" x="2106.5625" y="2942.1295">&#160;</text><text fill="#000000" font-family="Arial" font-size="26.25" lengthAdjust="spacing" textLength="151.875" x="2207.8125" y="2942.1295">PostgreSQL</text><line style="stroke:#000000;stroke-width:1.875;" x1="2106.5625" x2="2554.6875" y1="2764.9805" y2="2764.9805"/><line style="stroke:#000000;stroke-width:1.875;" x1="2106.5625" x2="2554.6875" y1="2795.5371" y2="2795.5371"/><line style="stroke:#000000;stroke-width:1.875;" x1="2106.5625" x2="2554.6875" y1="2826.0938" y2="2826.0938"/><line style="stroke:#000000;stroke-width:1.875;" x1="2106.5625" x2="2554.6875" y1="2856.6504" y2="2856.6504"/><line style="stroke:#000000;stroke-width:1.875;" x1="2106.5625" x2="2554.6875" y1="2887.207" y2="2887.207"/><line style="stroke:#000000;stroke-width:1.875;" x1="2106.5625" x2="2554.6875" y1="2917.7637" y2="2917.7637"/><line style="stroke:#000000;stroke-width:1.875;" x1="2106.5625" x2="2554.6875" y1="2948.3203" y2="2948.3203"/><line style="stroke:#000000;stroke-width:1.875;" x1="2106.5625" x2="2106.5625" y1="2764.9805" y2="2948.3203"/><line style="stroke:#000000;stroke-width:1.875;" x1="2200.3125" x2="2200.3125" y1="2764.9805" y2="2948.3203"/><line style="stroke:#000000;stroke-width:1.875;" x1="2554.6875" x2="2554.6875" y1="2764.9805" y2="2948.3203"/><!--SRC=[dLVTRXj55BxVfnWbDubm0caSsx589V-YIaaQQdD5q6hg7JjBrxFkx3WX4AJ64L3KeWW9BX4tYEiGwjRDZ_CAkw_0at1cPjSxQs-QGjgqktD-vypvlZt3RUuGj5NPGVyy-mK5n_uu-2vuvf_vr_uGVaV-4Fb_oyUXM0w-XwKH4dzV-MF_4cHZ_nmaG_zAQbt3-rlatu27g-0q6FWZm_2UsBI76UwYnxZrfCFSFhKghkCoD5-lm9-gfk7jOSizi6a7jR7Z4KrYzMoqKlX8MwcIDkuxlEvIlesx19MOZPrqUSF-cg2LLKtO51kFHOKqKPZalTngERkcxyCZJ_k4jWZwna3mKsBCFGYLSzdyUY4lbpVjDjcqAIcxp28ibETN2jb2FIcVgKgklbulIPqTpBZTidkOyeIRN2vVBXIcLVIaiwlPrOhnhPusTNcKycpCGhrKNrSoFL2vK5clhCbrpVlgQhQKpGdllJWwckiHvjaUDptkiiDTkebfvnE6UtiGsI9p27j8lSvNAxLyhPuq5arOSMn2kTHKZw2QhMLhvQIgX_U9wHrIjmVXf7OZV6cwhWCs1GWmvJxIQ12sRxT8mYfSG_FGZENQMbemiIEpIxhmdpJTaeygN2LVMwbEfTWG1ebOsWAKjLmjLUyP5kRuCVO8cjjnFTvXfF7ffjIkbi5jjbglvWr3rMpfVbII8keGRdPRFPD3UC_qS9iuXmkBHYXV0bLbKnI8ll570jV-1PBg05x0xGXz_eLXO8UdQjm49y5nC92dBfl6tITC-PHh22LE6lddOFr64i5Py2DWVnWCYg6cNZbJrD926o6uGmt_3qZf6gmkWvV-TV0224H41rS3aGS2JbAlFyF2SN0QchNSRiyX7Fnz63-R1pRVCmymey0Xth9K9TIIkp0C0b4bsKNx51m6CNuGt1MyK0bDoXtLi6rJQrBkXKJlBUxIDAcsvKNbrErnbB14SiTlWKOXT5G9BNYYeOkeIpWMpO8-4EbWn-JaAxvBLIJRWcM-nmYsu7dYA-52SnarOJ6PqSBoylBYZ76a3FRGaqNqOBjHUzH4aP7P8PGmp6sNUXDRK5nAZISJRK6UugGmZxSj6Z7qB8uS3cOOF9ULGThFJ4wpTP8Dji5PdsJY7BMQpDP5E-Wq0zaoq87FeKV_yY_yi_-NaMpu32BmfM3_EHa03EqxJfmJjQB6DcACChkpnv7RJk3K_nMgAU0-rNnZ2QKJ-Uy0W7iY81lPA880G9y1iE6xBpT_AQ27v20Gdn1yxZCHphLyfn4hqvy6umGMKG-Njgj9jX0DVQYMfs5r5tmqUYuY3INA6e3ZzbcBQDqBuesqyzSSYRFLIRmucvR2K0mYNJr2KAEsMQiqmqpCVK6aBjsbzOUFq6SxrLApDeEZPD1Mdp6W-SZozcXJTfGSH3RGK5DUe3GhT-IjaWkBsMFkbwJ5lLsgzf6Psay6zNjM1FDtkeq8HJ_uq8aN4rm6JHo70TFFyDsnAW-tjXuqaxG37QhcNT7k5sB0XNvDjFWKv1EEPrfDuv_aPX9EzAxICJ_phPIkeZBSul0EYdgFV6zbf_VFKttHqnXAibGyHSGkCp0p0M-adAAwNSWfHEn7SDE4GlpVOQi_0RkCuOPnWkIDunoevXI5P7KiJr2_WY2ud8pzro759Iuv8pZ-buhPNi72Qt7VkG7PA8Nf_2kHhiwZoqPCPmxfY1V9miRH1lB_bFaCa7Z-3No_4QsaHWrvhpeoZZuE1-7xHoYUbTMwd7fXFPwAGu4SRK4GVJYYKKpUHwIA6aU5YXpEGiASLPFZ9QZ5eoS8O0zg9yQ_]--></g></svg>