<?xml version="1.0" encoding="us-ascii" standalone="no"?><svg xmlns="http://www.w3.org/2000/svg" xmlns:xlink="http://www.w3.org/1999/xlink" contentStyleType="text/css" height="2291.25px" preserveAspectRatio="none" style="width:2075px;height:2291px;background:#FCFCFE;" version="1.1" viewBox="0 0 2075 2291" width="2075.625px" zoomAndPan="magnify"><defs/><g><rect fill="#FCFCFE" height="2291.25" style="stroke:none;stroke-width:1.875;" width="2075.625" x="0" y="0"/><text fill="#23395B" font-family="Arial" font-size="33.75" font-weight="bold" lengthAdjust="spacing" textLength="787.5" x="641.8359" y="68.8275">&#1040;&#1085;&#1072;&#1083;&#1080;&#1079; &#1090;&#1088;&#1077;&#1073;&#1086;&#1074;&#1072;&#1085;&#1080;&#1081; &#1080; Human-in-the-Loop</text><ellipse cx="571.875" cy="116.1621" fill="#5EC27F" rx="18.75" ry="18.75" style="stroke:#222222;stroke-width:1.875;"/><rect fill="none" height="771.1084" style="stroke:#000000;stroke-width:2.8125;" width="2035.5469" x="20.625" y="153.6621"/><path d="M170.625,153.6621 L170.625,168.9111 L151.875,187.6611 L20.625,187.6611 " fill="none" style="stroke:#000000;stroke-width:2.8125;"/><text fill="#000000" font-family="Arial" font-size="24.375" lengthAdjust="spacing" textLength="131.25" x="26.25" y="178.1625">LangGraph</text><path d="M753.75,206.4111 L753.75,335.9692 L716.25,343.4692 L753.75,350.9692 L753.75,480.5273 A0,0 0 0 0 753.75,480.5273 L1156.875,480.5273 A0,0 0 0 0 1156.875,480.5273 L1156.875,225.1611 L1138.125,206.4111 L753.75,206.4111 A0,0 0 0 0 753.75,206.4111 " fill="#FFFBEA" style="stroke:#D6B656;stroke-width:0.9375;"/><path d="M1138.125,206.4111 L1138.125,225.1611 L1156.875,225.1611 L1138.125,206.4111 " fill="#FFFBEA" style="stroke:#D6B656;stroke-width:0.9375;"/><text fill="#5B4A00" font-family="Arial" font-size="24.375" lengthAdjust="spacing" textLength="363.75" x="765" y="238.4116">Structured output &#1080;&#1079;&#1074;&#1083;&#1077;&#1082;&#1072;&#1077;&#1090;:</text><text fill="#5B4A00" font-family="Arial" font-size="24.375" lengthAdjust="spacing" textLength="67.5" x="765" y="266.7856">- idea</text><text fill="#5B4A00" font-family="Arial" font-size="24.375" lengthAdjust="spacing" textLength="86.25" x="765" y="295.1596">- genre</text><text fill="#5B4A00" font-family="Arial" font-size="24.375" lengthAdjust="spacing" textLength="73.125" x="765" y="323.5336">- style</text><text fill="#5B4A00" font-family="Arial" font-size="24.375" lengthAdjust="spacing" textLength="127.5" x="765" y="351.9077">- language</text><text fill="#5B4A00" font-family="Arial" font-size="24.375" lengthAdjust="spacing" textLength="91.875" x="765" y="380.2817">- length</text><text fill="#5B4A00" font-family="Arial" font-size="24.375" lengthAdjust="spacing" textLength="7.5" x="765" y="408.6557">&#160;</text><text fill="#5B4A00" font-family="Arial" font-size="24.375" lengthAdjust="spacing" textLength="330" x="765" y="437.0297">&#1056;&#1077;&#1079;&#1091;&#1083;&#1100;&#1090;&#1072;&#1090; &#1086;&#1073;&#1098;&#1077;&#1076;&#1080;&#1085;&#1103;&#1077;&#1090;&#1089;&#1103;</text><text fill="#5B4A00" font-family="Arial" font-size="24.375" lengthAdjust="spacing" textLength="324.375" x="765" y="465.4037">&#1089; &#1091;&#1078;&#1077; &#1079;&#1072;&#1087;&#1086;&#1083;&#1085;&#1077;&#1085;&#1085;&#1099;&#1084; state.</text><rect fill="#E7EEF8" height="65.874" rx="23.4375" ry="23.4375" style="stroke:#5B6B8A;stroke-width:0.9375;" width="288.75" x="427.5" y="310.5322"/><text fill="#1F2937" font-family="Arial" font-size="24.375" lengthAdjust="spacing" textLength="251.25" x="446.25" y="351.9077">collect_requirements</text><polygon fill="#FFF4CC" points="421.875,518.0273,721.875,518.0273,744.375,540.5273,721.875,563.0273,421.875,563.0273,399.375,540.5273,421.875,518.0273" style="stroke:#D4A017;stroke-width:0.9375;"/><text fill="#5C4400" font-family="Arial" font-size="24.375" lengthAdjust="spacing" textLength="300" x="421.875" y="548.9658">requirements_complete?</text><text fill="#000000" font-family="Arial" font-size="24.375" lengthAdjust="spacing" textLength="33.75" x="365.625" y="534.7787">&#1076;&#1072;</text><text fill="#000000" font-family="Arial" font-size="24.375" lengthAdjust="spacing" textLength="46.875" x="744.375" y="534.7787">&#1085;&#1077;&#1090;</text><rect fill="#D5E8E1" height="65.874" rx="23.4375" ry="23.4375" style="stroke:#5B6B8A;stroke-width:0.9375;" width="288.75" x="43.125" y="581.7773"/><text fill="#1F2937" font-family="Arial" font-size="24.375" lengthAdjust="spacing" textLength="251.25" x="61.875" y="623.1528">ensure_story_project</text><ellipse cx="187.5" cy="733.9014" fill="none" rx="20.625" ry="20.625" style="stroke:#222222;stroke-width:1.875;"/><ellipse cx="187.5" cy="733.9014" fill="#222222" rx="11.25" ry="11.25" style="stroke:#222222;stroke-width:1.875;"/><polygon fill="#FFF4CC" points="830.3906,581.7773,1094.7656,581.7773,1117.2656,610.1514,1094.7656,638.5254,830.3906,638.5254,807.8906,610.1514,830.3906,581.7773" style="stroke:#D4A017;stroke-width:0.9375;"/><text fill="#5C4400" font-family="Arial" font-size="24.375" lengthAdjust="spacing" textLength="264.375" x="830.3906" y="604.4028">clarification_count &gt;=</text><text fill="#5C4400" font-family="Arial" font-size="24.375" lengthAdjust="spacing" textLength="226.875" x="830.3906" y="632.7768">max_clarifications?</text><text fill="#000000" font-family="Arial" font-size="24.375" lengthAdjust="spacing" textLength="33.75" x="774.1406" y="604.4028">&#1076;&#1072;</text><text fill="#000000" font-family="Arial" font-size="24.375" lengthAdjust="spacing" textLength="46.875" x="1117.2656" y="604.4028">&#1085;&#1077;&#1090;</text><path d="M766.1719,666.6504 L766.1719,682.7124 L728.6719,690.2124 L766.1719,697.7124 L766.1719,713.7744 A0,0 0 0 0 766.1719,713.7744 L1193.6719,713.7744 A0,0 0 0 0 1193.6719,713.7744 L1193.6719,685.4004 L1174.9219,666.6504 L766.1719,666.6504 A0,0 0 0 0 766.1719,666.6504 " fill="#FFFBEA" style="stroke:#D6B656;stroke-width:0.9375;"/><path d="M1174.9219,666.6504 L1174.9219,685.4004 L1193.6719,685.4004 L1174.9219,666.6504 " fill="#FFFBEA" style="stroke:#D6B656;stroke-width:0.9375;"/><text fill="#5B4A00" font-family="Arial" font-size="24.375" lengthAdjust="spacing" textLength="388.125" x="777.4219" y="698.6508">&#1043;&#1088;&#1072;&#1092; &#1079;&#1072;&#1074;&#1077;&#1088;&#1096;&#1072;&#1077;&#1090;&#1089;&#1103; &#1095;&#1077;&#1088;&#1077;&#1079; END.</text><rect fill="#F1D8D8" height="65.874" rx="23.4375" ry="23.4375" style="stroke:#5B6B8A;stroke-width:0.9375;" width="346.875" x="381.7969" y="657.2754"/><text fill="#1F2937" font-family="Arial" font-size="24.375" lengthAdjust="spacing" textLength="309.375" x="400.5469" y="698.6508">clarification_limit_reached</text><ellipse cx="555.2344" cy="809.3994" fill="none" rx="20.625" ry="20.625" style="stroke:#222222;stroke-width:1.875;"/><ellipse cx="555.2344" cy="809.3994" fill="#222222" rx="11.25" ry="11.25" style="stroke:#222222;stroke-width:1.875;"/><path d="M1546.1719,657.2754 L1546.1719,701.7114 L1508.6719,709.2114 L1546.1719,716.7114 L1546.1719,761.1475 A0,0 0 0 0 1546.1719,761.1475 L1917.4219,761.1475 A0,0 0 0 0 1917.4219,761.1475 L1917.4219,676.0254 L1898.6719,657.2754 L1546.1719,657.2754 A0,0 0 0 0 1546.1719,657.2754 " fill="#FFFBEA" style="stroke:#D6B656;stroke-width:0.9375;"/><path d="M1898.6719,657.2754 L1898.6719,676.0254 L1917.4219,676.0254 L1898.6719,657.2754 " fill="#FFFBEA" style="stroke:#D6B656;stroke-width:0.9375;"/><text fill="#5B4A00" font-family="Arial" font-size="24.375" lengthAdjust="spacing" textLength="300" x="1557.4219" y="689.2758">LLM &#1092;&#1086;&#1088;&#1084;&#1080;&#1088;&#1091;&#1077;&#1090; &#1074;&#1086;&#1087;&#1088;&#1086;&#1089;.</text><text fill="#5B4A00" font-family="Arial" font-size="24.375" lengthAdjust="spacing" textLength="331.875" x="1557.4219" y="717.6498">&#1055;&#1088;&#1080; &#1086;&#1096;&#1080;&#1073;&#1082;&#1077; &#1080;&#1089;&#1087;&#1086;&#1083;&#1100;&#1079;&#1091;&#1077;&#1090;&#1089;&#1103;</text><text fill="#5B4A00" font-family="Arial" font-size="24.375" lengthAdjust="spacing" textLength="260.625" x="1557.4219" y="746.0239">deterministic fallback.</text><rect fill="#E6E0F1" height="65.874" rx="23.4375" ry="23.4375" style="stroke:#5B6B8A;stroke-width:0.9375;" width="277.5" x="1231.1719" y="676.2744"/><text fill="#1F2937" font-family="Arial" font-size="24.375" lengthAdjust="spacing" textLength="240" x="1249.9219" y="717.6498">request_clarification</text><path d="M1546.1719,826.7725 L1546.1719,857.0215 L1508.6719,864.5215 L1546.1719,872.0215 L1546.1719,902.2705 A0,0 0 0 0 1546.1719,902.2705 L2033.6719,902.2705 A0,0 0 0 0 2033.6719,902.2705 L2033.6719,845.5225 L2014.9219,826.7725 L1546.1719,826.7725 A0,0 0 0 0 1546.1719,826.7725 " fill="#FFFBEA" style="stroke:#D6B656;stroke-width:0.9375;"/><path d="M2014.9219,826.7725 L2014.9219,845.5225 L2033.6719,845.5225 L2014.9219,826.7725 " fill="#FFFBEA" style="stroke:#D6B656;stroke-width:0.9375;"/><text fill="#5B4A00" font-family="Arial" font-size="24.375" lengthAdjust="spacing" textLength="448.125" x="1557.4219" y="858.7729">&#1042;&#1085;&#1091;&#1090;&#1088;&#1080; &#1091;&#1079;&#1083;&#1072; &#1074;&#1099;&#1079;&#1099;&#1074;&#1072;&#1077;&#1090;&#1089;&#1103; interrupt()</text><text fill="#5B4A00" font-family="Arial" font-size="24.375" lengthAdjust="spacing" textLength="264.375" x="1557.4219" y="887.1469">&#1089; clarification payload.</text><rect fill="#DDD8ED" height="65.874" rx="23.4375" ry="23.4375" style="stroke:#5B6B8A;stroke-width:0.9375;" width="277.5" x="1231.1719" y="831.5845"/><text fill="#1F2937" font-family="Arial" font-size="24.375" lengthAdjust="spacing" textLength="240" x="1249.9219" y="872.9599">wait_for_clarification</text><rect fill="none" height="577.8662" style="stroke:#000000;stroke-width:2.8125;" width="442.5" x="350.625" y="943.5205"/><path d="M530.625,943.5205 L530.625,958.7695 L511.875,977.5195 L350.625,977.5195 " fill="none" style="stroke:#000000;stroke-width:2.8125;"/><text fill="#000000" font-family="Arial" font-size="24.375" lengthAdjust="spacing" textLength="161.25" x="356.25" y="968.0209">FastAPI / HITL</text><rect fill="#D8E5F1" height="150.9961" rx="23.4375" ry="23.4375" style="stroke:#5B6B8A;stroke-width:0.9375;" width="354.375" x="394.6875" y="1009.3945"/><text fill="#1F2937" font-family="Arial" font-size="24.375" lengthAdjust="spacing" textLength="135" x="413.4375" y="1050.77">&#1054;&#1090;&#1074;&#1077;&#1090; API:</text><text fill="#1F2937" font-family="Arial" font-size="24.375" lengthAdjust="spacing" textLength="202.5" x="413.4375" y="1079.144">interrupted=true</text><text fill="#1F2937" font-family="Arial" font-size="24.375" lengthAdjust="spacing" textLength="316.875" x="413.4375" y="1107.518">status=needs_clarification</text><text fill="#1F2937" font-family="Arial" font-size="24.375" lengthAdjust="spacing" textLength="112.5" x="413.4375" y="1135.892">thread_id</text><rect fill="#F4EBD8" height="65.874" rx="23.4375" ry="23.4375" style="stroke:#5B6B8A;stroke-width:0.9375;" width="307.5" x="418.125" y="1197.8906"/><text fill="#1F2937" font-family="Arial" font-size="24.375" lengthAdjust="spacing" textLength="270" x="436.875" y="1239.2661">&#1054;&#1090;&#1074;&#1077;&#1090; &#1087;&#1086;&#1083;&#1100;&#1079;&#1086;&#1074;&#1072;&#1090;&#1077;&#1083;&#1103;</text><rect fill="#D5E1EF" height="65.874" rx="23.4375" ry="23.4375" style="stroke:#5B6B8A;stroke-width:0.9375;" width="397.5" x="373.125" y="1301.2646"/><text fill="#1F2937" font-family="Arial" font-size="24.375" lengthAdjust="spacing" textLength="360" x="391.875" y="1342.6401">POST /api/v1/synopsis/resume</text><rect fill="#CFDDEC" height="94.248" rx="23.4375" ry="23.4375" style="stroke:#5B6B8A;stroke-width:0.9375;" width="405" x="369.375" y="1404.6387"/><text fill="#1F2937" font-family="Arial" font-size="24.375" lengthAdjust="spacing" textLength="367.5" x="388.125" y="1446.0141">Command(resume=message)</text><text fill="#1F2937" font-family="Arial" font-size="24.375" lengthAdjust="spacing" textLength="241.875" x="388.125" y="1474.3881">+ &#1090;&#1086;&#1090; &#1078;&#1077; thread_id</text><rect fill="none" height="395.9912" style="stroke:#000000;stroke-width:2.8125;" width="836.25" x="406.875" y="1540.1367"/><path d="M556.875,1540.1367 L556.875,1555.3857 L538.125,1574.1357 L406.875,1574.1357 " fill="none" style="stroke:#000000;stroke-width:2.8125;"/><text fill="#000000" font-family="Arial" font-size="24.375" lengthAdjust="spacing" textLength="131.25" x="412.5" y="1564.6371">LangGraph</text><path d="M755.625,1592.8857 L755.625,1694.0698 L718.125,1701.5698 L755.625,1709.0698 L755.625,1810.2539 A0,0 0 0 0 755.625,1810.2539 L1224.375,1810.2539 A0,0 0 0 0 1224.375,1810.2539 L1224.375,1611.6357 L1205.625,1592.8857 L755.625,1592.8857 A0,0 0 0 0 755.625,1592.8857 " fill="#FFFBEA" style="stroke:#D6B656;stroke-width:0.9375;"/><path d="M1205.625,1592.8857 L1205.625,1611.6357 L1224.375,1611.6357 L1205.625,1592.8857 " fill="#FFFBEA" style="stroke:#D6B656;stroke-width:0.9375;"/><text fill="#5B4A00" font-family="Arial" font-size="24.375" lengthAdjust="spacing" textLength="429.375" x="766.875" y="1624.8862">&#1055;&#1088;&#1080; &#1087;&#1086;&#1074;&#1090;&#1086;&#1088;&#1085;&#1086;&#1084; &#1079;&#1072;&#1087;&#1091;&#1089;&#1082;&#1077; interrupt()</text><text fill="#5B4A00" font-family="Arial" font-size="24.375" lengthAdjust="spacing" textLength="390" x="766.875" y="1653.2602">&#1087;&#1086;&#1083;&#1091;&#1095;&#1072;&#1077;&#1090; resume value &#1074;&#1084;&#1077;&#1089;&#1090;&#1086;</text><text fill="#5B4A00" font-family="Arial" font-size="24.375" lengthAdjust="spacing" textLength="225" x="766.875" y="1681.6342">&#1085;&#1086;&#1074;&#1086;&#1081; &#1086;&#1089;&#1090;&#1072;&#1085;&#1086;&#1074;&#1082;&#1080;.</text><text fill="#5B4A00" font-family="Arial" font-size="24.375" lengthAdjust="spacing" textLength="7.5" x="766.875" y="1710.0082">&#160;</text><text fill="#5B4A00" font-family="Arial" font-size="24.375" lengthAdjust="spacing" textLength="88.125" x="766.875" y="1738.3823">&#1047;&#1072;&#1090;&#1077;&#1084;:</text><text fill="#5B4A00" font-family="Arial" font-size="24.375" lengthAdjust="spacing" textLength="371.25" x="766.875" y="1766.7563">latest_user_message = &#1086;&#1090;&#1074;&#1077;&#1090;</text><text fill="#5B4A00" font-family="Arial" font-size="24.375" lengthAdjust="spacing" textLength="286.875" x="766.875" y="1795.1303">clarification_count += 1</text><rect fill="#DDD8ED" height="94.248" rx="23.4375" ry="23.4375" style="stroke:#5B6B8A;stroke-width:0.9375;" width="292.5" x="425.625" y="1654.4458"/><text fill="#1F2937" font-family="Arial" font-size="24.375" lengthAdjust="spacing" textLength="240" x="444.375" y="1695.8212">wait_for_clarification</text><text fill="#1F2937" font-family="Arial" font-size="24.375" lengthAdjust="spacing" textLength="255" x="444.375" y="1724.1953">&#1079;&#1072;&#1087;&#1091;&#1089;&#1082;&#1072;&#1077;&#1090;&#1089;&#1103; &#1079;&#1072;&#1085;&#1086;&#1074;&#1086;</text><rect fill="#E7EEF8" height="65.874" rx="23.4375" ry="23.4375" style="stroke:#5B6B8A;stroke-width:0.9375;" width="288.75" x="427.5" y="1847.7539"/><text fill="#1F2937" font-family="Arial" font-size="24.375" lengthAdjust="spacing" textLength="251.25" x="446.25" y="1889.1293">collect_requirements</text><ellipse cx="571.875" cy="1994.2529" fill="none" rx="20.625" ry="20.625" style="stroke:#222222;stroke-width:1.875;"/><ellipse cx="571.875" cy="1994.2529" fill="#222222" rx="11.25" ry="11.25" style="stroke:#222222;stroke-width:1.875;"/><line style="stroke:#4C6A92;stroke-width:1.875;" x1="187.5" x2="187.5" y1="647.6514" y2="713.2764"/><polygon fill="#4C6A92" points="180,694.5264,187.5,713.2764,195,694.5264,187.5,702.0264" style="stroke:#4C6A92;stroke-width:1.875;"/><line style="stroke:#4C6A92;stroke-width:1.875;" x1="555.2344" x2="555.2344" y1="723.1494" y2="788.7744"/><polygon fill="#4C6A92" points="547.7344,770.0244,555.2344,788.7744,562.7344,770.0244,555.2344,777.5244" style="stroke:#4C6A92;stroke-width:1.875;"/><line style="stroke:#4C6A92;stroke-width:1.875;" x1="1369.9219" x2="1369.9219" y1="742.1484" y2="831.5845"/><polygon fill="#4C6A92" points="1362.4219,812.8345,1369.9219,831.5845,1377.4219,812.8345,1369.9219,820.3345" style="stroke:#4C6A92;stroke-width:1.875;"/><line style="stroke:#4C6A92;stroke-width:1.875;" x1="807.8906" x2="555.2344" y1="610.1514" y2="610.1514"/><line style="stroke:#4C6A92;stroke-width:1.875;" x1="555.2344" x2="555.2344" y1="610.1514" y2="657.2754"/><polygon fill="#4C6A92" points="547.7344,638.5254,555.2344,657.2754,562.7344,638.5254,555.2344,646.0254" style="stroke:#4C6A92;stroke-width:1.875;"/><line style="stroke:#4C6A92;stroke-width:1.875;" x1="1117.2656" x2="1369.9219" y1="610.1514" y2="610.1514"/><line style="stroke:#4C6A92;stroke-width:1.875;" x1="1369.9219" x2="1369.9219" y1="610.1514" y2="676.2744"/><polygon fill="#4C6A92" points="1362.4219,657.5244,1369.9219,676.2744,1377.4219,657.5244,1369.9219,665.0244" style="stroke:#4C6A92;stroke-width:1.875;"/><line style="stroke:#4C6A92;stroke-width:1.875;" x1="1369.9219" x2="1369.9219" y1="897.4585" y2="911.6455"/><line style="stroke:#4C6A92;stroke-width:1.875;" x1="1369.9219" x2="571.875" y1="911.6455" y2="911.6455"/><line style="stroke:#4C6A92;stroke-width:1.875;" x1="571.875" x2="571.875" y1="911.6455" y2="1009.3945"/><polygon fill="#4C6A92" points="564.375,990.6445,571.875,1009.3945,579.375,990.6445,571.875,998.1445" style="stroke:#4C6A92;stroke-width:1.875;"/><line style="stroke:#4C6A92;stroke-width:1.875;" x1="399.375" x2="187.5" y1="540.5273" y2="540.5273"/><line style="stroke:#4C6A92;stroke-width:1.875;" x1="187.5" x2="187.5" y1="540.5273" y2="581.7773"/><polygon fill="#4C6A92" points="180,563.0273,187.5,581.7773,195,563.0273,187.5,570.5273" style="stroke:#4C6A92;stroke-width:1.875;"/><line style="stroke:#4C6A92;stroke-width:1.875;" x1="744.375" x2="962.5781" y1="540.5273" y2="540.5273"/><line style="stroke:#4C6A92;stroke-width:1.875;" x1="962.5781" x2="962.5781" y1="540.5273" y2="581.7773"/><polygon fill="#4C6A92" points="955.0781,563.0273,962.5781,581.7773,970.0781,563.0273,962.5781,570.5273" style="stroke:#4C6A92;stroke-width:1.875;"/><line style="stroke:#4C6A92;stroke-width:1.875;" x1="571.875" x2="571.875" y1="376.4063" y2="518.0273"/><polygon fill="#4C6A92" points="564.375,499.2773,571.875,518.0273,579.375,499.2773,571.875,506.7773" style="stroke:#4C6A92;stroke-width:1.875;"/><line style="stroke:#4C6A92;stroke-width:1.875;" x1="571.875" x2="571.875" y1="134.9121" y2="310.5322"/><polygon fill="#4C6A92" points="564.375,291.7822,571.875,310.5322,579.375,291.7822,571.875,299.2822" style="stroke:#4C6A92;stroke-width:1.875;"/><line style="stroke:#4C6A92;stroke-width:1.875;" x1="571.875" x2="571.875" y1="1160.3906" y2="1197.8906"/><polygon fill="#4C6A92" points="564.375,1179.1406,571.875,1197.8906,579.375,1179.1406,571.875,1186.6406" style="stroke:#4C6A92;stroke-width:1.875;"/><line style="stroke:#4C6A92;stroke-width:1.875;" x1="571.875" x2="571.875" y1="1263.7646" y2="1301.2646"/><polygon fill="#4C6A92" points="564.375,1282.5146,571.875,1301.2646,579.375,1282.5146,571.875,1290.0146" style="stroke:#4C6A92;stroke-width:1.875;"/><line style="stroke:#4C6A92;stroke-width:1.875;" x1="571.875" x2="571.875" y1="1367.1387" y2="1404.6387"/><polygon fill="#4C6A92" points="564.375,1385.8887,571.875,1404.6387,579.375,1385.8887,571.875,1393.3887" style="stroke:#4C6A92;stroke-width:1.875;"/><line style="stroke:#4C6A92;stroke-width:1.875;" x1="571.875" x2="571.875" y1="1748.6938" y2="1847.7539"/><polygon fill="#4C6A92" points="564.375,1829.0039,571.875,1847.7539,579.375,1829.0039,571.875,1836.5039" style="stroke:#4C6A92;stroke-width:1.875;"/><line style="stroke:#4C6A92;stroke-width:1.875;" x1="571.875" x2="571.875" y1="1498.8867" y2="1654.4458"/><polygon fill="#4C6A92" points="564.375,1635.6958,571.875,1654.4458,579.375,1635.6958,571.875,1643.1958" style="stroke:#4C6A92;stroke-width:1.875;"/><line style="stroke:#4C6A92;stroke-width:1.875;" x1="571.875" x2="571.875" y1="1913.6279" y2="1973.6279"/><polygon fill="#4C6A92" points="564.375,1954.8779,571.875,1973.6279,579.375,1954.8779,571.875,1962.3779" style="stroke:#4C6A92;stroke-width:1.875;"/><rect fill="none" height="209.5898" id="_legend" rx="14.0625" ry="14.0625" style="stroke:#000000;stroke-width:1.875;" width="654.375" x="1375.5469" y="2035.5029"/><text fill="#000000" font-family="Arial" font-size="26.25" font-weight="bold" lengthAdjust="spacing" textLength="75" x="1394.2969" y="2072.9938">&#1062;&#1074;&#1077;&#1090;</text><text fill="#000000" font-family="Arial" font-size="26.25" font-weight="bold" lengthAdjust="spacing" textLength="148.125" x="1488.0469" y="2072.9938">&#1047;&#1085;&#1072;&#1095;&#1077;&#1085;&#1080;&#1077;</text><rect fill="#E7EEF8" height="30.5566" style="stroke:none;stroke-width:1.875;" width="93.75" x="1384.9219" y="2079.1846"/><text fill="#000000" font-family="Arial" font-size="26.25" lengthAdjust="spacing" textLength="7.5" x="1384.9219" y="2103.5504">&#160;</text><text fill="#000000" font-family="Arial" font-size="26.25" lengthAdjust="spacing" textLength="270" x="1486.1719" y="2103.5504">&#1040;&#1085;&#1072;&#1083;&#1080;&#1079; &#1090;&#1088;&#1077;&#1073;&#1086;&#1074;&#1072;&#1085;&#1080;&#1081;</text><rect fill="#FFF4CC" height="30.5566" style="stroke:none;stroke-width:1.875;" width="93.75" x="1384.9219" y="2109.7412"/><text fill="#000000" font-family="Arial" font-size="26.25" lengthAdjust="spacing" textLength="7.5" x="1384.9219" y="2134.1071">&#160;</text><text fill="#000000" font-family="Arial" font-size="26.25" lengthAdjust="spacing" textLength="352.5" x="1486.1719" y="2134.1071">&#1059;&#1089;&#1083;&#1086;&#1074;&#1085;&#1072;&#1103; &#1084;&#1072;&#1088;&#1096;&#1088;&#1091;&#1090;&#1080;&#1079;&#1072;&#1094;&#1080;&#1103;</text><rect fill="#E6E0F1" height="30.5566" style="stroke:none;stroke-width:1.875;" width="93.75" x="1384.9219" y="2140.2979"/><text fill="#000000" font-family="Arial" font-size="26.25" lengthAdjust="spacing" textLength="7.5" x="1384.9219" y="2164.6637">&#160;</text><text fill="#000000" font-family="Arial" font-size="26.25" lengthAdjust="spacing" textLength="526.875" x="1486.1719" y="2164.6637">&#1060;&#1086;&#1088;&#1084;&#1080;&#1088;&#1086;&#1074;&#1072;&#1085;&#1080;&#1077; / &#1086;&#1078;&#1080;&#1076;&#1072;&#1085;&#1080;&#1077; &#1091;&#1090;&#1086;&#1095;&#1085;&#1077;&#1085;&#1080;&#1103;</text><rect fill="#D8E5F1" height="30.5566" style="stroke:none;stroke-width:1.875;" width="93.75" x="1384.9219" y="2170.8545"/><text fill="#000000" font-family="Arial" font-size="26.25" lengthAdjust="spacing" textLength="7.5" x="1384.9219" y="2195.2203">&#160;</text><text fill="#000000" font-family="Arial" font-size="26.25" lengthAdjust="spacing" textLength="163.125" x="1486.1719" y="2195.2203">API / resume</text><rect fill="#F1D8D8" height="30.5566" style="stroke:none;stroke-width:1.875;" width="93.75" x="1384.9219" y="2201.4111"/><text fill="#000000" font-family="Arial" font-size="26.25" lengthAdjust="spacing" textLength="7.5" x="1384.9219" y="2225.777">&#160;</text><text fill="#000000" font-family="Arial" font-size="26.25" lengthAdjust="spacing" textLength="320.625" x="1486.1719" y="2225.777">&#1047;&#1072;&#1074;&#1077;&#1088;&#1096;&#1077;&#1085;&#1080;&#1077; &#1087;&#1086; &#1083;&#1080;&#1084;&#1080;&#1090;&#1091;</text><line style="stroke:#000000;stroke-width:1.875;" x1="1384.9219" x2="2020.5469" y1="2048.6279" y2="2048.6279"/><line style="stroke:#000000;stroke-width:1.875;" x1="1384.9219" x2="2020.5469" y1="2079.1846" y2="2079.1846"/><line style="stroke:#000000;stroke-width:1.875;" x1="1384.9219" x2="2020.5469" y1="2109.7412" y2="2109.7412"/><line style="stroke:#000000;stroke-width:1.875;" x1="1384.9219" x2="2020.5469" y1="2140.2979" y2="2140.2979"/><line style="stroke:#000000;stroke-width:1.875;" x1="1384.9219" x2="2020.5469" y1="2170.8545" y2="2170.8545"/><line style="stroke:#000000;stroke-width:1.875;" x1="1384.9219" x2="2020.5469" y1="2201.4111" y2="2201.4111"/><line style="stroke:#000000;stroke-width:1.875;" x1="1384.9219" x2="2020.5469" y1="2231.9678" y2="2231.9678"/><line style="stroke:#000000;stroke-width:1.875;" x1="1384.9219" x2="1384.9219" y1="2048.6279" y2="2231.9678"/><line style="stroke:#000000;stroke-width:1.875;" x1="1478.6719" x2="1478.6719" y1="2048.6279" y2="2231.9678"/><line style="stroke:#000000;stroke-width:1.875;" x1="2020.5469" x2="2020.5469" y1="2048.6279" y2="2231.9678"/><!--SRC=[ZLPVJnj747_tfrY55r04s82DCNKgstUNHA9f97YqP6rzQtkRkxthtXwK5YGCKLkraQZQ1zxQIgtwxA0uk60xNs7l6tLsxspEuA3OidmxEpipl_dpsnDKE0J9N-L8zkID7CWh59r69x8ltygnl0JX28J_8Jb0pq8NisNAbaM7BEzudf_91Ayeyp77BleADr-rkHSok-Ov7aSBLWs-PaeZw63REw2iZLhO2KXgn_OfoXMpAKc5S-yWCRHHArIsrbAR1cdXq16MnyGBx19GfjYPlxzBloCejvxQt5DuRxUAyxOInslhwrlvQXeaRWgwJyKX-Zw3KFKUuWrhqwgg7O_RX2VIVBLGBLP0chASizQsrZT1Pb3iUio-RygoDcgrb4BQeh5HoUPIfrE6yxMDZMmMjdO5vbEXMLlRj41eJksRcmKhdyiSfy4nJv2F0BEigbcv2ymeL0lvmYomV1LYosgxAe1C1amBAgZ7qACTpDfFEVOxZy0B78CWJDCgbfgUuv2cQ73oJKWvSGaJmRPIq05nsku8M2X8F6oAa1CRUQ7mGu5KjqABta2pNaEZzgFJajPSHjGcE7bi4yP9yXo8GsVox40u8MvFbuIrHIUZL_8li7WLdScRw4rqAdlHAO9PU1lz3E9tu7GKdIjdKJSwr_fH5u7oUzb744zFVW3b6nYRFln6qIzo27wn82kWIvYjOIa_j8KMqvWRJS_r7IB8vqi89eoXHN3MMuf3MZ3oPj7CbGWB80EDG7ZyiE5pxsl8tBRM096lT0dC5XmTgGYJmyfJqy6SjcWJgsA0gv09zAHSPox-jZ6p5ynp3m5OEQDeGBLcx3ZKfQfokDaXzlP4zqxXT4f_1qxfHQ_Z35r2S2VHJt7DL1fHzACIgRGZyuMnafnBfokDSIvArL45CslbIYgh912pk1wARcVd2nIzbcE8O2W74DgPieiWph7y0C9nr5svXV8dI0RG4G1W02nvhUe-YBfntQCtkdFIxQ4-DjILkvJHGD2c8a174UR7S2uOXb4qZT81XkosFFxfIEHlq79dci47gYcle1Dx00JQy0f-bwcKKmOXyT0NYqlJuz39CwwGZmyT3zlp0uKLRMKc_ySpqsxXG5HUFaUhwDdplPt9o0EgF1H8_W5ZTQbp33gbEfl6GkmoZ3cfCpKoOL1cXDZ1BFmw4nteEBj1uuu3tZMhq9afexUbYEymsEZ3-ZpMXr7AcLRfvPUxUsWL-tHrFxSQ73BF3sYmoaaGkYHMh5c6OTPADS-5YyzUZBVABWa2u8sbEdiCLoMq0VXJiv-AwlXXudkmkdKMamXKiJkXDLqlBHvfGEDv_3ZfIuNzKWTsejM7QCPW_rxXasoTmGngRoW6YlQn4n8r14EGTfN5M3s9GRqKZBLy4jQr7Ama37gH97qOCx83_0S36GQ4DvByeR8wdbHCAysZgCTbbBl3cm_V6_hgKIpXaBOw5UVd29pzcpI7UhvGhpkAS_JRJHyTPOu-I-m-EVg4jo6j7r_IIlzloEoDLb1ceLH3-0E2Kqm24DKrrOj-098uJpnfdb8d_xabdPI3FemDBD_3uxkfI9iQGz3npJ8r5iyK68l7BIbU7A7cRENd8iMw4z2gxaYZLFvFepCu12cB4vVv7m00]--></g></svg>