<?xml version="1.0" encoding="us-ascii" standalone="no"?><svg xmlns="http://www.w3.org/2000/svg" xmlns:xlink="http://www.w3.org/1999/xlink" contentStyleType="text/css" height="1903.125px" preserveAspectRatio="none" style="width:2521px;height:1903px;background:#FCFCFD;" version="1.1" viewBox="0 0 2521 1903" width="2521.875px" zoomAndPan="magnify"><defs/><g><rect fill="#FCFCFD" height="1903.125" style="stroke:none;stroke-width:1.875;" width="2521.875" x="0" y="0"/><text fill="#26364A" font-family="Arial" font-size="33.75" font-weight="bold" lengthAdjust="spacing" textLength="931.875" x="782.3438" y="50.0775">&#1052;&#1086;&#1076;&#1077;&#1083;&#1100; &#1089;&#1086;&#1089;&#1090;&#1086;&#1103;&#1085;&#1080;&#1103; &#1080; &#1087;&#1072;&#1084;&#1103;&#1090;&#1080; Synopsis Generator</text><!--cluster LangGraph workflow--><g id="cluster_LangGraph workflow"><path d="M15.9375,89.9121 L304.6875,89.9121 A7.0313,7.0313 0 0 1 309.375,94.5996 L322.5,129.5361 L657.1875,129.5361 A4.6875,4.6875 0 0 1 661.875,134.2236 L661.875,867.0996 A4.6875,4.6875 0 0 1 657.1875,871.7871 L15.9375,871.7871 A4.6875,4.6875 0 0 1 11.25,867.0996 L11.25,94.5996 A4.6875,4.6875 0 0 1 15.9375,89.9121 " fill="#E9F0F7" style="stroke:#000000;stroke-width:2.8125;"/><line style="stroke:#000000;stroke-width:2.8125;" x1="11.25" x2="322.5" y1="129.5361" y2="129.5361"/><text fill="#000000" font-family="Arial" font-size="24.375" font-weight="bold" lengthAdjust="spacing" textLength="286.875" x="18.75" y="116.2875">LangGraph workflow</text></g><!--cluster ???????????? ??????--><g id="cluster_&#1051;&#1080;&#1090;&#1077;&#1088;&#1072;&#1090;&#1091;&#1088;&#1085;&#1099;&#1081; &#1087;&#1088;&#1086;&#1077;&#1082;&#1090;"><path d="M711.5625,680.5371 L1034.0625,680.5371 A7.0313,7.0313 0 0 1 1038.75,685.2246 L1051.875,720.1611 L1178.4375,720.1611 A4.6875,4.6875 0 0 1 1183.125,724.8486 L1183.125,1430.5371 A4.6875,4.6875 0 0 1 1178.4375,1435.2246 L711.5625,1435.2246 A4.6875,4.6875 0 0 1 706.875,1430.5371 L706.875,685.2246 A4.6875,4.6875 0 0 1 711.5625,680.5371 " fill="#EDF5F2" style="stroke:#000000;stroke-width:2.8125;"/><line style="stroke:#000000;stroke-width:2.8125;" x1="706.875" x2="1051.875" y1="720.1611" y2="720.1611"/><text fill="#000000" font-family="Arial" font-size="24.375" font-weight="bold" lengthAdjust="spacing" textLength="320.625" x="714.375" y="706.9125">&#1051;&#1080;&#1090;&#1077;&#1088;&#1072;&#1090;&#1091;&#1088;&#1085;&#1099;&#1081; &#1087;&#1088;&#1086;&#1077;&#1082;&#1090;</text></g><!--cluster ??????? ?????????--><g id="cluster_&#1048;&#1089;&#1090;&#1086;&#1088;&#1080;&#1103; &#1075;&#1077;&#1085;&#1077;&#1088;&#1072;&#1094;&#1080;&#1081;"><path d="M1232.8125,680.5371 L1514.0625,680.5371 A7.0313,7.0313 0 0 1 1518.75,685.2246 L1531.875,720.1611 L1579.6875,720.1611 A4.6875,4.6875 0 0 1 1584.375,724.8486 L1584.375,1133.3496 A4.6875,4.6875 0 0 1 1579.6875,1138.0371 L1232.8125,1138.0371 A4.6875,4.6875 0 0 1 1228.125,1133.3496 L1228.125,685.2246 A4.6875,4.6875 0 0 1 1232.8125,680.5371 " fill="#F1EEF7" style="stroke:#000000;stroke-width:2.8125;"/><line style="stroke:#000000;stroke-width:2.8125;" x1="1228.125" x2="1531.875" y1="720.1611" y2="720.1611"/><text fill="#000000" font-family="Arial" font-size="24.375" font-weight="bold" lengthAdjust="spacing" textLength="279.375" x="1235.625" y="706.9125">&#1048;&#1089;&#1090;&#1086;&#1088;&#1080;&#1103; &#1075;&#1077;&#1085;&#1077;&#1088;&#1072;&#1094;&#1080;&#1081;</text></g><!--entity Thread--><g id="elem_Thread"><rect fill="#D8E6F3" height="84.624" rx="4.6875" ry="4.6875" style="stroke:#60758A;stroke-width:0.9375;" width="187.5" x="268.125" y="153.6621"/><rect fill="#D8E6F3" height="18.75" style="stroke:#60758A;stroke-width:0.9375;" width="28.125" x="418.125" y="163.0371"/><rect fill="#D8E6F3" height="3.75" style="stroke:#60758A;stroke-width:0.9375;" width="7.5" x="414.375" y="166.7871"/><rect fill="#D8E6F3" height="3.75" style="stroke:#60758A;stroke-width:0.9375;" width="7.5" x="414.375" y="174.2871"/><text fill="#1F2937" font-family="Arial" font-size="24.375" lengthAdjust="spacing" textLength="112.5" x="296.25" y="213.7875">thread_id</text></g><!--entity State--><g id="elem_State"><rect fill="#D0E1F0" height="84.624" rx="4.6875" ry="4.6875" style="stroke:#60758A;stroke-width:0.9375;" width="247.5" x="384.375" y="448.9746"/><rect fill="#D0E1F0" height="18.75" style="stroke:#60758A;stroke-width:0.9375;" width="28.125" x="594.375" y="458.3496"/><rect fill="#D0E1F0" height="3.75" style="stroke:#60758A;stroke-width:0.9375;" width="7.5" x="590.625" y="462.0996"/><rect fill="#D0E1F0" height="3.75" style="stroke:#60758A;stroke-width:0.9375;" width="7.5" x="590.625" y="469.5996"/><text fill="#1F2937" font-family="Arial" font-size="24.375" lengthAdjust="spacing" textLength="172.5" x="412.5" y="509.1">SynopsisState</text></g><!--entity Checkpoint--><g id="elem_Checkpoint"><path d="M150.9375,749.9121 C150.9375,731.1621 292.5,731.1621 292.5,731.1621 C292.5,731.1621 434.0625,731.1621 434.0625,749.9121 L434.0625,823.5352 C434.0625,842.2852 292.5,842.2852 292.5,842.2852 C292.5,842.2852 150.9375,842.2852 150.9375,823.5352 L150.9375,749.9121 " fill="#C7DCEB" style="stroke:#52786F;stroke-width:0.9375;"/><path d="M150.9375,749.9121 C150.9375,768.6621 292.5,768.6621 292.5,768.6621 C292.5,768.6621 434.0625,768.6621 434.0625,749.9121 " fill="none" style="stroke:#52786F;stroke-width:0.9375;"/><text fill="#243C37" font-family="Arial" font-size="24.375" lengthAdjust="spacing" textLength="245.625" x="169.6875" y="798.7875">AsyncPostgresSaver</text><text fill="#243C37" font-family="Arial" font-size="24.375" lengthAdjust="spacing" textLength="210" x="169.6875" y="827.1616">checkpoint tables</text></g><!--entity Story--><g id="elem_Story"><rect fill="#D7EAE4" height="84.624" rx="4.6875" ry="4.6875" style="stroke:#60758A;stroke-width:0.9375;" width="168.75" x="736.875" y="744.2871"/><rect fill="#D7EAE4" height="18.75" style="stroke:#60758A;stroke-width:0.9375;" width="28.125" x="868.125" y="753.6621"/><rect fill="#D7EAE4" height="3.75" style="stroke:#60758A;stroke-width:0.9375;" width="7.5" x="864.375" y="757.4121"/><rect fill="#D7EAE4" height="3.75" style="stroke:#60758A;stroke-width:0.9375;" width="7.5" x="864.375" y="764.9121"/><text fill="#1F2937" font-family="Arial" font-size="24.375" lengthAdjust="spacing" textLength="93.75" x="765" y="804.4125">story_id</text></g><!--entity StoryProjects--><g id="elem_StoryProjects"><path d="M750,1030.2246 C750,1011.4746 866.25,1011.4746 866.25,1011.4746 C866.25,1011.4746 982.5,1011.4746 982.5,1030.2246 L982.5,1103.8477 C982.5,1122.5977 866.25,1122.5977 866.25,1122.5977 C866.25,1122.5977 750,1122.5977 750,1103.8477 L750,1030.2246 " fill="#CBE5DD" style="stroke:#52786F;stroke-width:0.9375;"/><path d="M750,1030.2246 C750,1048.9746 866.25,1048.9746 866.25,1048.9746 C866.25,1048.9746 982.5,1048.9746 982.5,1030.2246 " fill="none" style="stroke:#52786F;stroke-width:0.9375;"/><text fill="#243C37" font-family="Arial" font-size="24.375" lengthAdjust="spacing" textLength="168.75" x="768.75" y="1079.1">story_projects</text><text fill="#243C37" font-family="Arial" font-size="24.375" lengthAdjust="spacing" textLength="195" x="768.75" y="1107.4741">current memory</text></g><!--entity MemoryVersions--><g id="elem_MemoryVersions"><path d="M782.8125,1313.3496 C782.8125,1294.5996 945,1294.5996 945,1294.5996 C945,1294.5996 1107.1875,1294.5996 1107.1875,1313.3496 L1107.1875,1386.9727 C1107.1875,1405.7227 945,1405.7227 945,1405.7227 C945,1405.7227 782.8125,1405.7227 782.8125,1386.9727 L782.8125,1313.3496 " fill="#BFE0D6" style="stroke:#52786F;stroke-width:0.9375;"/><path d="M782.8125,1313.3496 C782.8125,1332.0996 945,1332.0996 945,1332.0996 C945,1332.0996 1107.1875,1332.0996 1107.1875,1313.3496 " fill="none" style="stroke:#52786F;stroke-width:0.9375;"/><text fill="#243C37" font-family="Arial" font-size="24.375" lengthAdjust="spacing" textLength="286.875" x="801.5625" y="1362.225">story_memory_versions</text><text fill="#243C37" font-family="Arial" font-size="24.375" lengthAdjust="spacing" textLength="174.375" x="801.5625" y="1390.5991">version history</text></g><!--entity Synopsis--><g id="elem_Synopsis"><rect fill="#DED9EE" height="84.624" rx="4.6875" ry="4.6875" style="stroke:#60758A;stroke-width:0.9375;" width="211.875" x="1272.1875" y="744.2871"/><rect fill="#DED9EE" height="18.75" style="stroke:#60758A;stroke-width:0.9375;" width="28.125" x="1446.5625" y="753.6621"/><rect fill="#DED9EE" height="3.75" style="stroke:#60758A;stroke-width:0.9375;" width="7.5" x="1442.8125" y="757.4121"/><rect fill="#DED9EE" height="3.75" style="stroke:#60758A;stroke-width:0.9375;" width="7.5" x="1442.8125" y="764.9121"/><text fill="#1F2937" font-family="Arial" font-size="24.375" lengthAdjust="spacing" textLength="136.875" x="1300.3125" y="804.4125">synopsis_id</text></g><!--entity Generations--><g id="elem_Generations"><path d="M1258.125,1044.2871 C1258.125,1025.5371 1406.25,1025.5371 1406.25,1025.5371 C1406.25,1025.5371 1554.375,1025.5371 1554.375,1044.2871 L1554.375,1089.5361 C1554.375,1108.2861 1406.25,1108.2861 1406.25,1108.2861 C1406.25,1108.2861 1258.125,1108.2861 1258.125,1089.5361 L1258.125,1044.2871 " fill="#D4CFEB" style="stroke:#52786F;stroke-width:0.9375;"/><path d="M1258.125,1044.2871 C1258.125,1063.0371 1406.25,1063.0371 1406.25,1063.0371 C1406.25,1063.0371 1554.375,1063.0371 1554.375,1044.2871 " fill="none" style="stroke:#52786F;stroke-width:0.9375;"/><text fill="#243C37" font-family="Arial" font-size="24.375" lengthAdjust="spacing" textLength="258.75" x="1276.875" y="1093.1625">synopsis_generations</text></g><g id="elem_GMN23"><path d="M692.8125,115.2246 L692.8125,188.3496 L455.6625,195.8496 L692.8125,203.3496 L692.8125,275.8447 A0,0 0 0 0 692.8125,275.8447 L1122.1875,275.8447 A0,0 0 0 0 1122.1875,275.8447 L1122.1875,133.9746 L1103.4375,115.2246 L692.8125,115.2246 A0,0 0 0 0 692.8125,115.2246 " fill="#F8FAFC" style="stroke:#BCC8D4;stroke-width:0.9375;"/><path d="M1103.4375,115.2246 L1103.4375,133.9746 L1122.1875,133.9746 L1103.4375,115.2246 " fill="#F8FAFC" style="stroke:#BCC8D4;stroke-width:0.9375;"/><text fill="#334155" font-family="Arial" font-size="24.375" lengthAdjust="spacing" textLength="350.625" x="704.0625" y="147.225">&#1053;&#1086;&#1074;&#1099;&#1081; POST /api/v1/synopsis</text><text fill="#334155" font-family="Arial" font-size="24.375" lengthAdjust="spacing" textLength="390" x="704.0625" y="175.5991">&#1089;&#1086;&#1079;&#1076;&#1072;&#1105;&#1090; &#1085;&#1086;&#1074;&#1099;&#1081; UUID thread_id.</text><text fill="#334155" font-family="Arial" font-size="24.375" lengthAdjust="spacing" textLength="7.5" x="704.0625" y="203.9731">&#160;</text><text fill="#334155" font-family="Arial" font-size="24.375" lengthAdjust="spacing" textLength="382.5" x="704.0625" y="232.3471">/resume &#1087;&#1086;&#1074;&#1090;&#1086;&#1088;&#1085;&#1086; &#1080;&#1089;&#1087;&#1086;&#1083;&#1100;&#1079;&#1091;&#1077;&#1090;</text><text fill="#334155" font-family="Arial" font-size="24.375" lengthAdjust="spacing" textLength="221.25" x="704.0625" y="260.7211">&#1090;&#1086;&#1090; &#1078;&#1077; thread_id.</text></g><g id="elem_GMN26"><path d="M1615.3125,705.8496 L1615.3125,866.4697 L2010.9375,866.4697 L2010.9375,724.5996 L1992.1875,705.8496 L1615.3125,705.8496 " fill="#F8FAFC" style="stroke:#BCC8D4;stroke-width:0.9375;"/><path d="M1992.1875,705.8496 L1992.1875,724.5996 L2010.9375,724.5996 L1992.1875,705.8496 " fill="#F8FAFC" style="stroke:#BCC8D4;stroke-width:1.875;"/><text fill="#334155" font-family="Arial" font-size="24.375" lengthAdjust="spacing" textLength="260.625" x="1626.5625" y="737.85">story_id &#1087;&#1077;&#1088;&#1077;&#1078;&#1080;&#1074;&#1072;&#1077;&#1090;</text><text fill="#334155" font-family="Arial" font-size="24.375" lengthAdjust="spacing" textLength="356.25" x="1626.5625" y="766.2241">&#1085;&#1077;&#1079;&#1072;&#1074;&#1080;&#1089;&#1080;&#1084;&#1099;&#1077; HTTP-&#1079;&#1072;&#1087;&#1088;&#1086;&#1089;&#1099;.</text><text fill="#334155" font-family="Arial" font-size="24.375" lengthAdjust="spacing" textLength="7.5" x="1626.5625" y="794.5981">&#160;</text><text fill="#334155" font-family="Arial" font-size="24.375" lengthAdjust="spacing" textLength="339.375" x="1626.5625" y="822.9721">&#1053;&#1077;&#1089;&#1082;&#1086;&#1083;&#1100;&#1082;&#1086; thread_id &#1084;&#1086;&#1075;&#1091;&#1090;</text><text fill="#334155" font-family="Arial" font-size="24.375" lengthAdjust="spacing" textLength="333.75" x="1626.5625" y="851.3461">&#1086;&#1090;&#1085;&#1086;&#1089;&#1080;&#1090;&#1100;&#1089;&#1103; &#1082; &#1086;&#1076;&#1085;&#1086;&#1081; story.</text></g><g id="elem_GMN29"><path d="M2076.5625,705.8496 L2076.5625,866.4697 L2509.6875,866.4697 L2509.6875,724.5996 L2490.9375,705.8496 L2076.5625,705.8496 " fill="#F8FAFC" style="stroke:#BCC8D4;stroke-width:0.9375;"/><path d="M2490.9375,705.8496 L2490.9375,724.5996 L2509.6875,724.5996 L2490.9375,705.8496 " fill="#F8FAFC" style="stroke:#BCC8D4;stroke-width:1.875;"/><text fill="#334155" font-family="Arial" font-size="24.375" lengthAdjust="spacing" textLength="393.75" x="2087.8125" y="737.85">synopsis_id &#1087;&#1086;&#1103;&#1074;&#1083;&#1103;&#1077;&#1090;&#1089;&#1103; &#1090;&#1086;&#1083;&#1100;&#1082;&#1086;</text><text fill="#334155" font-family="Arial" font-size="24.375" lengthAdjust="spacing" textLength="363.75" x="2087.8125" y="766.2241">&#1087;&#1088;&#1080; &#1091;&#1089;&#1087;&#1077;&#1096;&#1085;&#1086;&#1084; save_synopsis.</text><text fill="#334155" font-family="Arial" font-size="24.375" lengthAdjust="spacing" textLength="7.5" x="2087.8125" y="794.5981">&#160;</text><text fill="#334155" font-family="Arial" font-size="24.375" lengthAdjust="spacing" textLength="296.25" x="2087.8125" y="822.9721">&#1055;&#1088;&#1080; &#1086;&#1096;&#1080;&#1073;&#1082;&#1077; persistence</text><text fill="#334155" font-family="Arial" font-size="24.375" lengthAdjust="spacing" textLength="307.5" x="2087.8125" y="851.3461">&#1086;&#1085; &#1084;&#1086;&#1078;&#1077;&#1090; &#1086;&#1089;&#1090;&#1072;&#1090;&#1100;&#1089;&#1103; null.</text></g><g id="elem_GMN32"><path d="M717.1875,1523.3496 L717.1875,1683.9697 A0,0 0 0 0 717.1875,1683.9697 L1172.8125,1683.9697 A0,0 0 0 0 1172.8125,1683.9697 L1172.8125,1542.0996 L1154.0625,1523.3496 L952.5,1523.3496 L945,1405.4871 L937.5,1523.3496 L717.1875,1523.3496 A0,0 0 0 0 717.1875,1523.3496 " fill="#F8FAFC" style="stroke:#BCC8D4;stroke-width:0.9375;"/><path d="M1154.0625,1523.3496 L1154.0625,1542.0996 L1172.8125,1542.0996 L1154.0625,1523.3496 " fill="#F8FAFC" style="stroke:#BCC8D4;stroke-width:0.9375;"/><text fill="#334155" font-family="Arial" font-size="24.375" lengthAdjust="spacing" textLength="333.75" x="728.4375" y="1555.35">source_generation_id &#1090;&#1086;&#1078;&#1077;</text><text fill="#334155" font-family="Arial" font-size="24.375" lengthAdjust="spacing" textLength="369.375" x="728.4375" y="1583.7241">&#1084;&#1086;&#1078;&#1077;&#1090; &#1073;&#1099;&#1090;&#1100; null, &#1087;&#1086;&#1090;&#1086;&#1084;&#1091; &#1095;&#1090;&#1086;</text><text fill="#334155" font-family="Arial" font-size="24.375" lengthAdjust="spacing" textLength="416.25" x="728.4375" y="1612.0981">save_story_memory &#1076;&#1086;&#1087;&#1091;&#1089;&#1082;&#1072;&#1077;&#1090;&#1089;&#1103;</text><text fill="#334155" font-family="Arial" font-size="24.375" lengthAdjust="spacing" textLength="324.375" x="728.4375" y="1640.4721">&#1076;&#1072;&#1078;&#1077; &#1087;&#1086;&#1089;&#1083;&#1077; &#1085;&#1077;&#1091;&#1089;&#1087;&#1077;&#1096;&#1085;&#1086;&#1075;&#1086;</text><text fill="#334155" font-family="Arial" font-size="24.375" lengthAdjust="spacing" textLength="180" x="728.4375" y="1668.8461">save_synopsis.</text></g><!--link Thread to State--><g id="link_Thread_State"><path d="M382.2188,238.2621 C410.0813,293.8184 454.7803,382.9503 482.6803,438.5628 " fill="none" id="Thread-to-State" style="stroke:#60758A;stroke-width:1.875;"/><polygon fill="#60758A" points="487.725,448.6184,486.8616,430.1719,483.5211,440.2388,473.4543,436.8982,487.725,448.6184" style="stroke:#60758A;stroke-width:1.875;"/><text fill="#000000" font-family="Arial" font-size="24.375" lengthAdjust="spacing" textLength="157.5" x="513.75" y="357.225">&#1087;&#1086;&#1083;&#1077; state +</text><text fill="#000000" font-family="Arial" font-size="24.375" lengthAdjust="spacing" textLength="266.25" x="459.375" y="385.5991">configurable.thread_id</text></g><!--link State to Checkpoint--><g id="link_State_Checkpoint"><path d="M383.9625,523.7121 C350.625,538.1309 318.2625,559.1496 298.125,589.5996 C270.8438,630.8496 271.0561,677.3623 277.8249,719.2686 " fill="none" id="State-to-Checkpoint" style="stroke:#60758A;stroke-width:1.875;"/><polygon fill="#60758A" points="279.6188,730.3746,284.332,712.5196,278.1239,721.1196,269.5239,714.9114,279.6188,730.3746" style="stroke:#60758A;stroke-width:1.875;"/><text fill="#000000" font-family="Arial" font-size="24.375" lengthAdjust="spacing" textLength="228.75" x="300" y="628.1625">checkpointed state</text></g><!--link Checkpoint to Thread--><g id="link_Checkpoint_Thread"><path d="M239.0063,730.8996 C180.5438,665.4059 100.05,550.8246 138.75,448.9746 C172.425,360.3621 244.5535,290.1287 299.0972,245.4475 " fill="none" id="Checkpoint-to-Thread" style="stroke:#60758A;stroke-width:1.875;"/><polygon fill="#60758A" points="307.8,238.3184,289.9931,243.2102,300.5477,244.2593,299.4986,254.8139,307.8,238.3184" style="stroke:#60758A;stroke-width:1.875;"/><text fill="#000000" font-family="Arial" font-size="24.375" lengthAdjust="spacing" textLength="208.125" x="140.625" y="485.6625">&#1074;&#1086;&#1089;&#1089;&#1090;&#1072;&#1085;&#1086;&#1074;&#1083;&#1077;&#1085;&#1080;&#1077;</text><text fill="#000000" font-family="Arial" font-size="24.375" lengthAdjust="spacing" textLength="150" x="169.6875" y="514.0366">&#1087;&#1086; thread_id</text></g><!--link State to Story--><g id="link_State_Story"><path d="M551.6625,533.5746 C611.325,589.1309 709.6096,680.6528 769.3471,736.2653 " fill="none" id="State-to-Story" style="stroke:#60758A;stroke-width:1.875;"/><polygon fill="#60758A" points="777.5813,743.9309,770.3404,726.9431,770.7194,737.5429,760.1196,737.9219,777.5813,743.9309" style="stroke:#60758A;stroke-width:1.875;"/><text fill="#000000" font-family="Arial" font-size="24.375" lengthAdjust="spacing" textLength="232.5" x="676.875" y="628.1625">&#1089;&#1086;&#1076;&#1077;&#1088;&#1078;&#1080;&#1090; story_id</text></g><!--link Story to StoryProjects--><g id="link_Story_StoryProjects"><path d="M827.8875,829.1496 C835.7438,877.3934 847.0261,946.7079 855.6886,999.9954 " fill="none" id="Story-to-StoryProjects" style="stroke:#60758A;stroke-width:1.875;"/><polygon fill="#60758A" points="857.4938,1011.0996,862.1889,993.2398,855.9895,1001.8461,847.3832,995.6467,857.4938,1011.0996" style="stroke:#60758A;stroke-width:1.875;"/><text fill="#000000" font-family="Arial" font-size="24.375" lengthAdjust="spacing" textLength="346.875" x="849.375" y="947.85">PK &#1083;&#1080;&#1090;&#1077;&#1088;&#1072;&#1090;&#1091;&#1088;&#1085;&#1086;&#1075;&#1086; &#1087;&#1088;&#1086;&#1077;&#1082;&#1090;&#1072;</text></g><!--link StoryProjects to MemoryVersions--><g id="link_StoryProjects_MemoryVersions"><path d="M881.4375,1122.5309 C895.3875,1171.9934 912.8854,1234.084 926.8167,1283.509 " fill="none" id="StoryProjects-to-MemoryVersions" style="stroke:#60758A;stroke-width:1.875;"/><polygon fill="#60758A" points="929.8688,1294.3371,932.5094,1276.0603,927.3254,1285.3137,918.0719,1280.1297,929.8688,1294.3371" style="stroke:#60758A;stroke-width:1.875;"/><text fill="#000000" font-family="Arial" font-size="24.375" lengthAdjust="spacing" textLength="283.125" x="913.125" y="1216.9125">story_id -&gt; &#1074;&#1077;&#1088;&#1089;&#1080;&#1080; 1..N</text></g><!--link State to Synopsis--><g id="link_State_Synopsis"><path d="M632.325,511.8996 C770.9625,535.8621 999.8812,584.1996 1183.125,665.5371 C1231.7063,687.0996 1273.5057,712.4567 1311.2307,737.6942 " fill="none" id="State-to-Synopsis" style="stroke:#60758A;stroke-width:1.875;"/><polygon fill="#60758A" points="1320.5813,743.9496,1310.7257,728.3328,1312.7891,738.7368,1302.3852,740.8002,1320.5813,743.9496" style="stroke:#60758A;stroke-width:1.875;"/><text fill="#000000" font-family="Arial" font-size="24.375" lengthAdjust="spacing" textLength="215.625" x="1132.5" y="614.1">&#1087;&#1086;&#1089;&#1083;&#1077; &#1091;&#1089;&#1087;&#1077;&#1096;&#1085;&#1086;&#1075;&#1086;</text><text fill="#000000" font-family="Arial" font-size="24.375" lengthAdjust="spacing" textLength="172.5" x="1154.0625" y="642.4741">save_synopsis</text></g><!--link Synopsis to Generations--><g id="link_Synopsis_Generations"><path d="M1382.2688,829.1496 C1387.6313,881.7434 1395.7154,961.4139 1401.0404,1013.6514 " fill="none" id="Synopsis-to-Generations" style="stroke:#60758A;stroke-width:1.875;"/><polygon fill="#60758A" points="1402.1813,1024.8434,1407.9312,1007.2948,1401.2305,1015.5167,1393.0086,1008.816,1402.1813,1024.8434" style="stroke:#60758A;stroke-width:1.875;"/><text fill="#000000" font-family="Arial" font-size="24.375" lengthAdjust="spacing" textLength="172.5" x="1395" y="947.85">PK &#1075;&#1077;&#1085;&#1077;&#1088;&#1072;&#1094;&#1080;&#1080;</text></g><!--link Generations to StoryProjects--><g id="link_Generations_StoryProjects"><path d="M1258.05,1066.7871 C1171.3125,1066.7871 1074.6188,1066.7871 994.0125,1066.7871 " fill="none" id="Generations-to-StoryProjects" style="stroke:#60758A;stroke-width:1.875;"/><polygon fill="#60758A" points="982.7625,1066.7871,999.6375,1074.2871,992.1375,1066.7871,999.6375,1059.2871,982.7625,1066.7871" style="stroke:#60758A;stroke-width:1.875;"/><text fill="#000000" font-family="Arial" font-size="24.375" lengthAdjust="spacing" textLength="93.75" x="1073.4375" y="1025.6625">story_id</text><text fill="#000000" font-family="Arial" font-size="24.375" lengthAdjust="spacing" textLength="127.5" x="1056.5625" y="1054.0366">nullable FK</text></g><!--link MemoryVersions to Generations--><g id="link_MemoryVersions_Generations"><path d="M1101.0375,1294.4121 C1138.9312,1278.6621 1178.4937,1259.7996 1213.125,1238.3496 C1272.6938,1201.4496 1323.9328,1153.9981 1360.7765,1116.6294 " fill="none" id="MemoryVersions-to-Generations" style="stroke:#60758A;stroke-width:1.875;"/><polygon fill="#60758A" points="1368.675,1108.6184,1351.4866,1115.3692,1362.0929,1115.2942,1362.168,1125.9006,1368.675,1108.6184" style="stroke:#60758A;stroke-width:1.875;"/><text fill="#000000" font-family="Arial" font-size="24.375" lengthAdjust="spacing" textLength="256.875" x="1293.75" y="1202.85">source_generation_id</text><text fill="#000000" font-family="Arial" font-size="24.375" lengthAdjust="spacing" textLength="127.5" x="1358.4375" y="1231.2241">nullable FK</text></g><!--link Story to GMN26--><g id="link_Story_GMN26"><path d="M888.4688,744.0434 C1018.0875,667.7684 1311.0375,522.2871 1551.5625,599.4434 C1617.4688,620.5934 1680.9,665.1246 1728.7875,705.4371 " fill="none" id="Story-GMN26" style="stroke:#60758A;stroke-width:1.875;stroke-dasharray:7.0,7.0;"/></g><!--link Synopsis to GMN29--><g id="link_Synopsis_GMN29"><path d="M1414.9688,743.9496 C1457.7563,698.1434 1533.075,627.9621 1615.3125,599.4434 C1781.4375,541.8246 1842.5813,548.7246 2010.9375,599.4434 C2081.0063,620.5559 2149.65,665.3684 2201.7,705.8309 " fill="none" id="Synopsis-GMN29" style="stroke:#60758A;stroke-width:1.875;stroke-dasharray:7.0,7.0;"/></g><rect fill="none" height="148.4766" id="_legend" rx="14.0625" ry="14.0625" style="stroke:#000000;stroke-width:1.875;" width="639.375" x="1834.6875" y="1717.7197"/><text fill="#000000" font-family="Arial" font-size="26.25" font-weight="bold" lengthAdjust="spacing" textLength="256.875" x="1853.4375" y="1755.2106">&#1062;&#1074;&#1077;&#1090;&#1086;&#1074;&#1072;&#1103; &#1075;&#1088;&#1091;&#1087;&#1087;&#1072;</text><text fill="#000000" font-family="Arial" font-size="26.25" font-weight="bold" lengthAdjust="spacing" textLength="181.875" x="2129.0625" y="1755.2106">&#1053;&#1072;&#1079;&#1085;&#1072;&#1095;&#1077;&#1085;&#1080;&#1077;</text><rect fill="#D8E6F3" height="30.5566" style="stroke:none;stroke-width:1.875;" width="275.625" x="1844.0625" y="1761.4014"/><text fill="#000000" font-family="Arial" font-size="26.25" lengthAdjust="spacing" textLength="7.5" x="1844.0625" y="1785.7672">&#160;</text><text fill="#000000" font-family="Arial" font-size="26.25" lengthAdjust="spacing" textLength="330" x="2127.1875" y="1785.7672">Thread / LangGraph state</text><rect fill="#D7EAE4" height="30.5566" style="stroke:none;stroke-width:1.875;" width="275.625" x="1844.0625" y="1791.958"/><text fill="#000000" font-family="Arial" font-size="26.25" lengthAdjust="spacing" textLength="7.5" x="1844.0625" y="1816.3239">&#160;</text><text fill="#000000" font-family="Arial" font-size="26.25" lengthAdjust="spacing" textLength="316.875" x="2127.1875" y="1816.3239">Long-term story memory</text><rect fill="#DED9EE" height="30.5566" style="stroke:none;stroke-width:1.875;" width="275.625" x="1844.0625" y="1822.5146"/><text fill="#000000" font-family="Arial" font-size="26.25" lengthAdjust="spacing" textLength="7.5" x="1844.0625" y="1846.8805">&#160;</text><text fill="#000000" font-family="Arial" font-size="26.25" lengthAdjust="spacing" textLength="238.125" x="2127.1875" y="1846.8805">Generation history</text><line style="stroke:#000000;stroke-width:1.875;" x1="1844.0625" x2="2464.6875" y1="1730.8447" y2="1730.8447"/><line style="stroke:#000000;stroke-width:1.875;" x1="1844.0625" x2="2464.6875" y1="1761.4014" y2="1761.4014"/><line style="stroke:#000000;stroke-width:1.875;" x1="1844.0625" x2="2464.6875" y1="1791.958" y2="1791.958"/><line style="stroke:#000000;stroke-width:1.875;" x1="1844.0625" x2="2464.6875" y1="1822.5146" y2="1822.5146"/><line style="stroke:#000000;stroke-width:1.875;" x1="1844.0625" x2="2464.6875" y1="1853.0713" y2="1853.0713"/><line style="stroke:#000000;stroke-width:1.875;" x1="1844.0625" x2="1844.0625" y1="1730.8447" y2="1853.0713"/><line style="stroke:#000000;stroke-width:1.875;" x1="2119.6875" x2="2119.6875" y1="1730.8447" y2="1853.0713"/><line style="stroke:#000000;stroke-width:1.875;" x1="2464.6875" x2="2464.6875" y1="1730.8447" y2="1853.0713"/><!--SRC=[VLPTJ-D657tthxY2nnP8o2UeNId4zhRQxHOfR9-Ga4c6n2NnHBQpY9PA4AJkIgo4-bQfNVMjpzxT1i9N-XV6_wZtplWhJbIG8FQSEVUUUy_SYM_xVGRYJp4J_uY9U0ZVGtWXPk55ECQ_r-99JCDh45CG_uf0F8RN-7uAhLE73ptRW-VCOQxbSrVJl6FR6LgkDO13gttSTVd8wJHvdxkmQZRnLyyWl9xLuIUsquKZg- -np4fdQ4EnNiYyqTcHDUhx9dVyLzQ0GSErhVxozPRz4uDYAREuH_BIfVgofIZ9pMgfMcva00tNvIVHOhLGgzGRMP5jFXXoXpa-_Am1_knmjyFSUJYzpqGecfjRfPhsIvQcO_dMeUMnPIoLpLgzQkPPDikbPfx5uNx2i53ykjamculiEyrcNI_dsKkbSh5I8VOX4bbT1YilBQVxtBM6FJZXxl5Hdv-imAgnPHRCMXGphSMAttEPrJcmEojWUR0dds1LhnjLivJ7nYvg-PRF95v-GdZ1A9e52K_gizBmJftsBlVyhikyblM6kVjEkyVQnqDk8nl2-ioJBCtqxMgpfZUDdJazuW_qz5XCmdCHXEFm4ly_XLVY3YsE7sTu2kx3CKdKpOgvkIZHGxkVnWfRz80Pruo6KSvbh813b__8shw7sOvSbnW6R80BwVRT287PxXWLNLzAepOTe6pFvWwoHP-WPqk0fFjEWdw8CDXZqoZerNdrlqTd-roTxC-ezoagngzYAkvGkLaqZ6NDzQA69UBZCR2g6_gMOUGJZ-5TDIKe9xdlUVgCMyjDKtKeSilQshF82DiqTMRYGKp0ao- -m29ovyZkZbngzthYDarjeAsPxcz3QX3MKHnQPftWKL0CzKcEFIfEW1MPuVE3hCrKJFOTIWJIS9buoW7RScpI3CLAtf318FQ9fX09DcdtDko-00oou4Oa-epXiduKWJQ_cUXoxTvEGW8kOlv8YbbDSM0NrzTVpIKTTqwL655KP8n-WO-Jy5sSmxxZuKaxY3kf9Vk89Dj6fILlfgccPK7BIX2dlEyuetwVkWhc2osdR36QnqTkcsMSjK2XoQ7esjsU3_mewZCwL7oWtie3l_jzQmyshA6zyQQuaMW4rSfRR6OG_eQDL6wGErw__bPFRR2k8NW3nz48xoLfrK_HqNgYzarbDMTqgOhRy1BhCYPoGY3f3HOymyISZXpZ-RnblN1RqbhPe7CiDBeCUnn4j5Htp3d0LrFPz4TCU0BVxEtjhidtqanexokPDLPXWh3xABtxhBj1F5BtqGsI6BCbFKIA1dsF53Wsxa6wdIfpftBx7mbfPJCJH1dlceuP_aKHafYg4sT4mIdhQTwOZp3dIYNeBub4odSe_YFkdy2G_EFvp6apAKGyAMat50wYRpb18ehSiw3YaFi-7v2CUK-Ic2KUL08m00NCnFeONb4S6UDB9Ps0Z-4bX6_f8_59KPbf3rZX6PRWKdOgY8j4rEXDwQ3CwPKdR-449xn9iLA1VTQb1zaexUnh47_BeJ6Mmo-GjmDEa4ian2z_G80F6FOMgOFmRJmRuKmx-ogwuP-TnVDq0zAl3MfsAvYy9n7saZlTDP-v0sMUw4wCGF8oGL1wvEDR3W6OiSfR-my0]--></g></svg>