<?xml version="1.0" encoding="us-ascii" standalone="no"?><svg xmlns="http://www.w3.org/2000/svg" xmlns:xlink="http://www.w3.org/1999/xlink" contentStyleType="text/css" height="3480px" preserveAspectRatio="none" style="width:1796px;height:3480px;background:#FCFCFD;" version="1.1" viewBox="0 0 1796 3480" width="1796.25px" zoomAndPan="magnify"><defs/><g><rect fill="#FCFCFD" height="3480" style="stroke:none;stroke-width:1.875;" width="1796.25" x="0" y="0"/><text fill="#29443F" font-family="Arial" font-size="33.75" font-weight="bold" lengthAdjust="spacing" textLength="991.875" x="399.375" y="68.8275">&#1046;&#1080;&#1079;&#1085;&#1077;&#1085;&#1085;&#1099;&#1081; &#1094;&#1080;&#1082;&#1083; &#1076;&#1086;&#1083;&#1075;&#1086;&#1074;&#1088;&#1077;&#1084;&#1077;&#1085;&#1085;&#1086;&#1081; &#1087;&#1072;&#1084;&#1103;&#1090;&#1080; &#1080;&#1089;&#1090;&#1086;&#1088;&#1080;&#1080;</text><ellipse cx="919.6875" cy="116.1621" fill="#638F83" rx="18.75" ry="18.75" style="stroke:#222222;stroke-width:1.875;"/><rect fill="#DCE9E5" height="65.874" rx="23.4375" ry="23.4375" style="stroke:#627F78;stroke-width:0.9375;" width="283.125" x="778.125" y="172.4121"/><text fill="#1F3732" font-family="Arial" font-size="24.375" lengthAdjust="spacing" textLength="245.625" x="796.875" y="213.7875">&#1053;&#1086;&#1074;&#1099;&#1081; HTTP-&#1079;&#1072;&#1087;&#1088;&#1086;&#1089;</text><polygon fill="#EEF5F2" points="808.125,275.7861,1031.25,275.7861,1053.75,298.2861,1031.25,320.7861,808.125,320.7861,785.625,298.2861,808.125,275.7861" style="stroke:#6F8D85;stroke-width:0.9375;"/><text fill="#29443F" font-family="Arial" font-size="24.375" lengthAdjust="spacing" textLength="223.125" x="808.125" y="306.7245">story_id &#1087;&#1077;&#1088;&#1077;&#1076;&#1072;&#1085;?</text><text fill="#000000" font-family="Arial" font-size="24.375" lengthAdjust="spacing" textLength="33.75" x="751.875" y="292.5375">&#1076;&#1072;</text><text fill="#000000" font-family="Arial" font-size="24.375" lengthAdjust="spacing" textLength="46.875" x="1053.75" y="292.5375">&#1085;&#1077;&#1090;</text><rect fill="#D3E6E0" height="94.248" rx="23.4375" ry="23.4375" style="stroke:#627F78;stroke-width:0.9375;" width="290.625" x="525.2344" y="339.5361"/><text fill="#1F3732" font-family="Arial" font-size="24.375" lengthAdjust="spacing" textLength="226.875" x="543.9844" y="380.9116">load_story_context</text><text fill="#1F3732" font-family="Arial" font-size="24.375" lengthAdjust="spacing" textLength="253.125" x="543.9844" y="409.2856">-&gt; get_story_context</text><polygon fill="#EEF5F2" points="538.3594,471.2842,802.7344,471.2842,825.2344,493.7842,802.7344,516.2842,538.3594,516.2842,515.8594,493.7842,538.3594,471.2842" style="stroke:#6F8D85;stroke-width:0.9375;"/><text fill="#29443F" font-family="Arial" font-size="24.375" lengthAdjust="spacing" textLength="264.375" x="538.3594" y="502.2226">&#1082;&#1086;&#1085;&#1090;&#1077;&#1082;&#1089;&#1090; &#1079;&#1072;&#1075;&#1088;&#1091;&#1078;&#1077;&#1085;?</text><text fill="#000000" font-family="Arial" font-size="24.375" lengthAdjust="spacing" textLength="33.75" x="482.1094" y="488.0356">&#1076;&#1072;</text><text fill="#000000" font-family="Arial" font-size="24.375" lengthAdjust="spacing" textLength="46.875" x="825.2344" y="488.0356">&#1085;&#1077;&#1090;</text><rect fill="#CAE3DB" height="65.874" rx="23.4375" ry="23.4375" style="stroke:#627F78;stroke-width:0.9375;" width="384.375" x="300.7031" y="535.0342"/><text fill="#1F3732" font-family="Arial" font-size="24.375" lengthAdjust="spacing" textLength="346.875" x="319.4531" y="576.4096">story_memory = snapshot N</text><rect fill="#EADFD5" height="94.248" rx="23.4375" ry="23.4375" style="stroke:#627F78;stroke-width:0.9375;" width="251.25" x="722.5781" y="535.0342"/><text fill="#1F3732" font-family="Arial" font-size="24.375" lengthAdjust="spacing" textLength="213.75" x="741.3281" y="576.4096">&#1055;&#1091;&#1089;&#1090;&#1072;&#1103; memory /</text><text fill="#1F3732" font-family="Arial" font-size="24.375" lengthAdjust="spacing" textLength="195" x="741.3281" y="604.7836">MCP unavailable</text><polygon fill="#EEF5F2" points="670.5469,640.5322,693.0469,663.0322,670.5469,685.5322,648.0469,663.0322,670.5469,640.5322" style="stroke:#6F8D85;stroke-width:0.9375;"/><rect fill="#D8EBE4" height="94.248" rx="23.4375" ry="23.4375" style="stroke:#627F78;stroke-width:0.9375;" width="277.5" x="1030.0781" y="339.5361"/><text fill="#1F3732" font-family="Arial" font-size="24.375" lengthAdjust="spacing" textLength="240" x="1048.8281" y="380.9116">story_memory = {}</text><text fill="#1F3732" font-family="Arial" font-size="24.375" lengthAdjust="spacing" textLength="136.875" x="1048.8281" y="409.2856">version = 0</text><polygon fill="#EEF5F2" points="919.6875,696.7822,942.1875,719.2822,919.6875,741.7822,897.1875,719.2822,919.6875,696.7822" style="stroke:#6F8D85;stroke-width:0.9375;"/><rect fill="#D1E7E0" height="94.248" rx="23.4375" ry="23.4375" style="stroke:#627F78;stroke-width:0.9375;" width="393.75" x="722.8125" y="779.2822"/><text fill="#1F3732" font-family="Arial" font-size="24.375" lengthAdjust="spacing" textLength="251.25" x="741.5625" y="820.6577">collect_requirements</text><text fill="#1F3732" font-family="Arial" font-size="24.375" lengthAdjust="spacing" textLength="356.25" x="741.5625" y="849.0317">(+ HITL &#1087;&#1088;&#1080; &#1085;&#1077;&#1086;&#1073;&#1093;&#1086;&#1076;&#1080;&#1084;&#1086;&#1089;&#1090;&#1080;)</text><path d="M1101.5625,892.2803 L1101.5625,993.4644 L1064.0625,1000.9644 L1101.5625,1008.4644 L1101.5625,1109.6484 A0,0 0 0 0 1101.5625,1109.6484 L1530.9375,1109.6484 A0,0 0 0 0 1530.9375,1109.6484 L1530.9375,911.0303 L1512.1875,892.2803 L1101.5625,892.2803 A0,0 0 0 0 1101.5625,892.2803 " fill="#F7FAF9" style="stroke:#B9CBC6;stroke-width:0.9375;"/><path d="M1512.1875,892.2803 L1512.1875,911.0303 L1530.9375,911.0303 L1512.1875,892.2803 " fill="#F7FAF9" style="stroke:#B9CBC6;stroke-width:0.9375;"/><text fill="#334A46" font-family="Arial" font-size="24.375" lengthAdjust="spacing" textLength="346.875" x="1112.8125" y="924.2807">&#1058;&#1086;&#1083;&#1100;&#1082;&#1086; &#1076;&#1083;&#1103; &#1085;&#1086;&#1074;&#1086;&#1081; &#1080;&#1089;&#1090;&#1086;&#1088;&#1080;&#1080;:</text><text fill="#334A46" font-family="Arial" font-size="24.375" lengthAdjust="spacing" textLength="283.125" x="1112.8125" y="952.6547">create_story &#1087;&#1099;&#1090;&#1072;&#1077;&#1090;&#1089;&#1103;</text><text fill="#334A46" font-family="Arial" font-size="24.375" lengthAdjust="spacing" textLength="390" x="1112.8125" y="981.0287">&#1087;&#1086;&#1083;&#1091;&#1095;&#1080;&#1090;&#1100; &#1087;&#1086;&#1089;&#1090;&#1086;&#1103;&#1085;&#1085;&#1099;&#1081; story_id.</text><text fill="#334A46" font-family="Arial" font-size="24.375" lengthAdjust="spacing" textLength="7.5" x="1112.8125" y="1009.4028">&#160;</text><text fill="#334A46" font-family="Arial" font-size="24.375" lengthAdjust="spacing" textLength="283.125" x="1112.8125" y="1037.7768">&#1055;&#1088;&#1080; &#1085;&#1077;&#1076;&#1086;&#1089;&#1090;&#1091;&#1087;&#1085;&#1086;&#1084; MCP</text><text fill="#334A46" font-family="Arial" font-size="24.375" lengthAdjust="spacing" textLength="361.875" x="1112.8125" y="1066.1508">&#1075;&#1077;&#1085;&#1077;&#1088;&#1072;&#1094;&#1080;&#1103; &#1074;&#1089;&#1105; &#1088;&#1072;&#1074;&#1085;&#1086; &#1084;&#1086;&#1078;&#1077;&#1090;</text><text fill="#334A46" font-family="Arial" font-size="24.375" lengthAdjust="spacing" textLength="350.625" x="1112.8125" y="1094.5248">&#1087;&#1088;&#1086;&#1076;&#1086;&#1083;&#1078;&#1080;&#1090;&#1100;&#1089;&#1103; &#1073;&#1077;&#1079; story_id.</text><rect fill="#C9E4DB" height="65.874" rx="23.4375" ry="23.4375" style="stroke:#627F78;stroke-width:0.9375;" width="288.75" x="775.3125" y="968.0273"/><text fill="#1F3732" font-family="Arial" font-size="24.375" lengthAdjust="spacing" textLength="251.25" x="794.0625" y="1009.4028">ensure_story_project</text><rect fill="#CFE6DE" height="65.874" rx="23.4375" ry="23.4375" style="stroke:#627F78;stroke-width:0.9375;" width="442.5" x="698.4375" y="1147.1484"/><text fill="#1F3732" font-family="Arial" font-size="24.375" lengthAdjust="spacing" textLength="405" x="717.1875" y="1188.5239">Writer &#1080;&#1089;&#1087;&#1086;&#1083;&#1100;&#1079;&#1091;&#1077;&#1090; story_memory</text><rect fill="#C6E2D8" height="94.248" rx="23.4375" ry="23.4375" style="stroke:#627F78;stroke-width:0.9375;" width="273.75" x="782.8125" y="1250.5225"/><text fill="#1F3732" font-family="Arial" font-size="24.375" lengthAdjust="spacing" textLength="236.25" x="801.5625" y="1291.8979">Critic &#1089;&#1074;&#1077;&#1088;&#1103;&#1077;&#1090; draft</text><text fill="#1F3732" font-family="Arial" font-size="24.375" lengthAdjust="spacing" textLength="195" x="801.5625" y="1320.2719">&#1089; story_memory</text><rect fill="#BDDFD2" height="65.874" rx="23.4375" ry="23.4375" style="stroke:#627F78;stroke-width:0.9375;" width="230.625" x="804.375" y="1382.2705"/><text fill="#1F3732" font-family="Arial" font-size="24.375" lengthAdjust="spacing" textLength="193.125" x="823.125" y="1423.6459">language_editor</text><rect fill="#B4DCCB" height="65.874" rx="23.4375" ry="23.4375" style="stroke:#627F78;stroke-width:0.9375;" width="260.625" x="789.375" y="1485.6445"/><text fill="#1F3732" font-family="Arial" font-size="24.375" lengthAdjust="spacing" textLength="223.125" x="808.125" y="1527.02">memory_manager</text><polygon fill="#EEF5F2" points="743.4375,1589.0186,1095.9375,1589.0186,1118.4375,1611.5186,1095.9375,1634.0186,743.4375,1634.0186,720.9375,1611.5186,743.4375,1589.0186" style="stroke:#6F8D85;stroke-width:0.9375;"/><text fill="#29443F" font-family="Arial" font-size="24.375" lengthAdjust="spacing" textLength="352.5" x="743.4375" y="1619.957">StoryMemory &#1089;&#1092;&#1086;&#1088;&#1084;&#1080;&#1088;&#1086;&#1074;&#1072;&#1085;?</text><text fill="#000000" font-family="Arial" font-size="24.375" lengthAdjust="spacing" textLength="33.75" x="687.1875" y="1605.77">&#1076;&#1072;</text><text fill="#000000" font-family="Arial" font-size="24.375" lengthAdjust="spacing" textLength="46.875" x="1118.4375" y="1605.77">&#1085;&#1077;&#1090;</text><rect fill="#ABD8C4" height="65.874" rx="23.4375" ry="23.4375" style="stroke:#627F78;stroke-width:0.9375;" width="376.875" x="513.75" y="1652.7686"/><text fill="#1F3732" font-family="Arial" font-size="24.375" lengthAdjust="spacing" textLength="339.375" x="532.5" y="1694.144">story_memory_ready = true</text><path d="M1366.875,1652.7686 L1366.875,1683.0176 L1329.375,1690.5176 L1366.875,1698.0176 L1366.875,1728.2666 A0,0 0 0 0 1366.875,1728.2666 L1773.75,1728.2666 A0,0 0 0 0 1773.75,1728.2666 L1773.75,1671.5186 L1755,1652.7686 L1366.875,1652.7686 A0,0 0 0 0 1366.875,1652.7686 " fill="#F7FAF9" style="stroke:#B9CBC6;stroke-width:0.9375;"/><path d="M1755,1652.7686 L1755,1671.5186 L1773.75,1671.5186 L1755,1652.7686 " fill="#F7FAF9" style="stroke:#B9CBC6;stroke-width:0.9375;"/><text fill="#334A46" font-family="Arial" font-size="24.375" lengthAdjust="spacing" textLength="330" x="1378.125" y="1684.769">&#1057;&#1090;&#1072;&#1088;&#1072;&#1103; memory &#1086;&#1089;&#1090;&#1072;&#1105;&#1090;&#1089;&#1103;</text><text fill="#334A46" font-family="Arial" font-size="24.375" lengthAdjust="spacing" textLength="367.5" x="1378.125" y="1713.143">&#1074; &#1089;&#1086;&#1089;&#1090;&#1086;&#1103;&#1085;&#1080;&#1080; &#1073;&#1077;&#1079; &#1087;&#1077;&#1088;&#1077;&#1079;&#1072;&#1087;&#1080;&#1089;&#1080;.</text><rect fill="#EADFD5" height="65.874" rx="23.4375" ry="23.4375" style="stroke:#627F78;stroke-width:0.9375;" width="384.375" x="945" y="1657.5806"/><text fill="#1F3732" font-family="Arial" font-size="24.375" lengthAdjust="spacing" textLength="346.875" x="963.75" y="1698.956">story_memory_ready = false</text><polygon fill="#EEF5F2" points="919.6875,1739.5166,942.1875,1762.0166,919.6875,1784.5166,897.1875,1762.0166,919.6875,1739.5166" style="stroke:#6F8D85;stroke-width:0.9375;"/><rect fill="#A9D9C3" height="65.874" rx="23.4375" ry="23.4375" style="stroke:#627F78;stroke-width:0.9375;" width="191.25" x="824.0625" y="1822.0166"/><text fill="#1F3732" font-family="Arial" font-size="24.375" lengthAdjust="spacing" textLength="153.75" x="842.8125" y="1863.392">persist_story</text><rect fill="#A2D5BD" height="65.874" rx="23.4375" ry="23.4375" style="stroke:#627F78;stroke-width:0.9375;" width="406.875" x="716.25" y="1925.3906"/><text fill="#1F3732" font-family="Arial" font-size="24.375" lengthAdjust="spacing" textLength="369.375" x="735" y="1966.7661">&#1055;&#1086;&#1083;&#1091;&#1095;&#1080;&#1090;&#1100; MCP tools &#1086;&#1076;&#1080;&#1085; &#1088;&#1072;&#1079;</text><polygon fill="#EEF5F2" points="762.1875,2028.7646,1077.1875,2028.7646,1099.6875,2051.2646,1077.1875,2073.7646,762.1875,2073.7646,739.6875,2051.2646,762.1875,2028.7646" style="stroke:#6F8D85;stroke-width:0.9375;"/><text fill="#29443F" font-family="Arial" font-size="24.375" lengthAdjust="spacing" textLength="315" x="762.1875" y="2059.7031">save_synopsis &#1076;&#1086;&#1089;&#1090;&#1091;&#1087;&#1077;&#1085;?</text><text fill="#000000" font-family="Arial" font-size="24.375" lengthAdjust="spacing" textLength="33.75" x="705.9375" y="2045.5161">&#1076;&#1072;</text><text fill="#000000" font-family="Arial" font-size="24.375" lengthAdjust="spacing" textLength="46.875" x="1099.6875" y="2045.5161">&#1085;&#1077;&#1090;</text><rect fill="#9CCFBA" height="65.874" rx="23.4375" ry="23.4375" style="stroke:#627F78;stroke-width:0.9375;" width="330" x="524.5313" y="2092.5146"/><text fill="#1F3732" font-family="Arial" font-size="24.375" lengthAdjust="spacing" textLength="292.5" x="543.2813" y="2133.8901">&#1055;&#1086;&#1087;&#1099;&#1090;&#1082;&#1072; save_synopsis</text><polygon fill="#EEF5F2" points="605.1563,2195.8887,773.9063,2195.8887,796.4063,2218.3887,773.9063,2240.8887,605.1563,2240.8887,582.6563,2218.3887,605.1563,2195.8887" style="stroke:#6F8D85;stroke-width:0.9375;"/><text fill="#29443F" font-family="Arial" font-size="24.375" lengthAdjust="spacing" textLength="168.75" x="605.1563" y="2226.8271">saved = true?</text><text fill="#000000" font-family="Arial" font-size="24.375" lengthAdjust="spacing" textLength="33.75" x="548.9063" y="2212.6401">&#1076;&#1072;</text><text fill="#000000" font-family="Arial" font-size="24.375" lengthAdjust="spacing" textLength="46.875" x="796.4063" y="2212.6401">&#1085;&#1077;&#1090;</text><rect fill="#94CBB3" height="65.874" rx="23.4375" ry="23.4375" style="stroke:#627F78;stroke-width:0.9375;" width="285" x="394.2188" y="2259.6387"/><text fill="#1F3732" font-family="Arial" font-size="24.375" lengthAdjust="spacing" textLength="247.5" x="412.9688" y="2301.0141">synopsis_id &#1087;&#1086;&#1083;&#1091;&#1095;&#1077;&#1085;</text><rect fill="#E5DDD2" height="65.874" rx="23.4375" ry="23.4375" style="stroke:#627F78;stroke-width:0.9375;" width="251.25" x="716.7188" y="2259.6387"/><text fill="#1F3732" font-family="Arial" font-size="24.375" lengthAdjust="spacing" textLength="213.75" x="735.4688" y="2301.0141">synopsis_id = null</text><polygon fill="#EEF5F2" points="689.5313,2336.7627,712.0313,2359.2627,689.5313,2381.7627,667.0313,2359.2627,689.5313,2336.7627" style="stroke:#6F8D85;stroke-width:0.9375;"/><rect fill="#E5DDD2" height="65.874" rx="23.4375" ry="23.4375" style="stroke:#627F78;stroke-width:0.9375;" width="251.25" x="1024.2188" y="2092.5146"/><text fill="#1F3732" font-family="Arial" font-size="24.375" lengthAdjust="spacing" textLength="213.75" x="1042.9688" y="2133.8901">synopsis_id = null</text><polygon fill="#EEF5F2" points="919.6875,2393.0127,942.1875,2415.5127,919.6875,2438.0127,897.1875,2415.5127,919.6875,2393.0127" style="stroke:#6F8D85;stroke-width:0.9375;"/><polygon fill="#EEF5F2" points="695.625,2475.5127,1143.75,2475.5127,1166.25,2503.8867,1143.75,2532.2607,695.625,2532.2607,673.125,2503.8867,695.625,2475.5127" style="stroke:#6F8D85;stroke-width:0.9375;"/><text fill="#29443F" font-family="Arial" font-size="24.375" lengthAdjust="spacing" textLength="418.125" x="695.625" y="2498.1381">story_id AND story_memory_ready</text><text fill="#29443F" font-family="Arial" font-size="24.375" lengthAdjust="spacing" textLength="448.125" x="695.625" y="2526.5121">AND save_story_memory &#1076;&#1086;&#1089;&#1090;&#1091;&#1087;&#1077;&#1085;?</text><text fill="#000000" font-family="Arial" font-size="24.375" lengthAdjust="spacing" textLength="33.75" x="639.375" y="2498.1381">&#1076;&#1072;</text><text fill="#000000" font-family="Arial" font-size="24.375" lengthAdjust="spacing" textLength="46.875" x="1166.25" y="2498.1381">&#1085;&#1077;&#1090;</text><path d="M740.625,2551.0107 L740.625,2595.4468 L703.125,2602.9468 L740.625,2610.4468 L740.625,2654.8828 A0,0 0 0 0 740.625,2654.8828 L1175.625,2654.8828 A0,0 0 0 0 1175.625,2654.8828 L1175.625,2569.7607 L1156.875,2551.0107 L740.625,2551.0107 A0,0 0 0 0 740.625,2551.0107 " fill="#F7FAF9" style="stroke:#B9CBC6;stroke-width:0.9375;"/><path d="M1156.875,2551.0107 L1156.875,2569.7607 L1175.625,2569.7607 L1156.875,2551.0107 " fill="#F7FAF9" style="stroke:#B9CBC6;stroke-width:0.9375;"/><text fill="#334A46" font-family="Arial" font-size="24.375" lengthAdjust="spacing" textLength="360" x="751.875" y="2583.0112">synopsis_id &#1084;&#1086;&#1078;&#1077;&#1090; &#1073;&#1099;&#1090;&#1100; null:</text><text fill="#334A46" font-family="Arial" font-size="24.375" lengthAdjust="spacing" textLength="395.625" x="751.875" y="2611.3852">&#1089;&#1086;&#1093;&#1088;&#1072;&#1085;&#1077;&#1085;&#1080;&#1077; &#1087;&#1072;&#1084;&#1103;&#1090;&#1080; &#1085;&#1077; &#1079;&#1072;&#1074;&#1080;&#1089;&#1080;&#1090;</text><text fill="#334A46" font-family="Arial" font-size="24.375" lengthAdjust="spacing" textLength="378.75" x="751.875" y="2639.7592">&#1086;&#1090; &#1091;&#1089;&#1087;&#1077;&#1096;&#1085;&#1086;&#1089;&#1090;&#1080; save_synopsis.</text><rect fill="#8BC7AC" height="94.248" rx="23.4375" ry="23.4375" style="stroke:#627F78;stroke-width:0.9375;" width="466.875" x="236.25" y="2555.8228"/><text fill="#1F3732" font-family="Arial" font-size="24.375" lengthAdjust="spacing" textLength="243.75" x="255" y="2597.1982">save_story_memory</text><text fill="#1F3732" font-family="Arial" font-size="24.375" lengthAdjust="spacing" textLength="429.375" x="255" y="2625.5722">source_generation_id = synopsis_id</text><polygon fill="#EEF5F2" points="385.3125,2692.3828,554.0625,2692.3828,576.5625,2714.8828,554.0625,2737.3828,385.3125,2737.3828,362.8125,2714.8828,385.3125,2692.3828" style="stroke:#6F8D85;stroke-width:0.9375;"/><text fill="#29443F" font-family="Arial" font-size="24.375" lengthAdjust="spacing" textLength="168.75" x="385.3125" y="2723.3212">saved = true?</text><text fill="#000000" font-family="Arial" font-size="24.375" lengthAdjust="spacing" textLength="33.75" x="329.0625" y="2709.1342">&#1076;&#1072;</text><text fill="#000000" font-family="Arial" font-size="24.375" lengthAdjust="spacing" textLength="46.875" x="576.5625" y="2709.1342">&#1085;&#1077;&#1090;</text><rect fill="#82C3A5" height="122.6221" rx="23.4375" ry="23.4375" style="stroke:#627F78;stroke-width:0.9375;" width="444.375" x="20.625" y="2756.1328"/><text fill="#1F3732" font-family="Arial" font-size="24.375" lengthAdjust="spacing" textLength="200.625" x="39.375" y="2797.5082">&#1058;&#1088;&#1072;&#1085;&#1079;&#1072;&#1082;&#1094;&#1080;&#1086;&#1085;&#1085;&#1086;:</text><text fill="#1F3732" font-family="Arial" font-size="24.375" lengthAdjust="spacing" textLength="273.75" x="39.375" y="2825.8823">UPDATE story_projects</text><text fill="#1F3732" font-family="Arial" font-size="24.375" lengthAdjust="spacing" textLength="406.875" x="39.375" y="2854.2563">+ INSERT story_memory_versions</text><rect fill="#79BF9E" height="65.874" rx="23.4375" ry="23.4375" style="stroke:#627F78;stroke-width:0.9375;" width="343.125" x="71.25" y="2916.2549"/><text fill="#1F3732" font-family="Arial" font-size="24.375" lengthAdjust="spacing" textLength="305.625" x="90" y="2957.6303">memory_version = N + 1</text><rect fill="#EADFD5" height="65.874" rx="23.4375" ry="23.4375" style="stroke:#627F78;stroke-width:0.9375;" width="388.125" x="502.5" y="2756.1328"/><text fill="#1F3732" font-family="Arial" font-size="24.375" lengthAdjust="spacing" textLength="350.625" x="521.25" y="2797.5082">&#1053;&#1086;&#1074;&#1072;&#1103; &#1074;&#1077;&#1088;&#1089;&#1080;&#1103; &#1085;&#1077; &#1089;&#1086;&#1093;&#1088;&#1072;&#1085;&#1077;&#1085;&#1072;</text><polygon fill="#EEF5F2" points="469.6875,2993.3789,492.1875,3015.8789,469.6875,3038.3789,447.1875,3015.8789,469.6875,2993.3789" style="stroke:#6F8D85;stroke-width:0.9375;"/><rect fill="#EADFD5" height="94.248" rx="23.4375" ry="23.4375" style="stroke:#627F78;stroke-width:0.9375;" width="313.125" x="1213.125" y="2551.0107"/><text fill="#1F3732" font-family="Arial" font-size="24.375" lengthAdjust="spacing" textLength="275.625" x="1231.875" y="2592.3862">&#1053;&#1086;&#1074;&#1072;&#1103; &#1074;&#1077;&#1088;&#1089;&#1080;&#1103; &#1087;&#1072;&#1084;&#1103;&#1090;&#1080;</text><text fill="#1F3732" font-family="Arial" font-size="24.375" lengthAdjust="spacing" textLength="198.75" x="1231.875" y="2620.7602">&#1085;&#1077; &#1089;&#1086;&#1093;&#1088;&#1072;&#1085;&#1103;&#1077;&#1090;&#1089;&#1103;</text><polygon fill="#EEF5F2" points="919.6875,3049.6289,942.1875,3072.1289,919.6875,3094.6289,897.1875,3072.1289,919.6875,3049.6289" style="stroke:#6F8D85;stroke-width:0.9375;"/><ellipse cx="919.6875" cy="3152.7539" fill="none" rx="20.625" ry="20.625" style="stroke:#222222;stroke-width:1.875;"/><ellipse cx="919.6875" cy="3152.7539" fill="#222222" rx="11.25" ry="11.25" style="stroke:#222222;stroke-width:1.875;"/><line style="stroke:#5D7C75;stroke-width:1.875;" x1="919.6875" x2="919.6875" y1="134.9121" y2="172.4121"/><polygon fill="#5D7C75" points="912.1875,153.6621,919.6875,172.4121,927.1875,153.6621,919.6875,161.1621" style="stroke:#5D7C75;stroke-width:1.875;"/><line style="stroke:#5D7C75;stroke-width:1.875;" x1="515.8594" x2="492.8906" y1="493.7842" y2="493.7842"/><line style="stroke:#5D7C75;stroke-width:1.875;" x1="492.8906" x2="492.8906" y1="493.7842" y2="535.0342"/><polygon fill="#5D7C75" points="485.3906,516.2842,492.8906,535.0342,500.3906,516.2842,492.8906,523.7842" style="stroke:#5D7C75;stroke-width:1.875;"/><line style="stroke:#5D7C75;stroke-width:1.875;" x1="825.2344" x2="848.2031" y1="493.7842" y2="493.7842"/><line style="stroke:#5D7C75;stroke-width:1.875;" x1="848.2031" x2="848.2031" y1="493.7842" y2="535.0342"/><polygon fill="#5D7C75" points="840.7031,516.2842,848.2031,535.0342,855.7031,516.2842,848.2031,523.7842" style="stroke:#5D7C75;stroke-width:1.875;"/><line style="stroke:#5D7C75;stroke-width:1.875;" x1="492.8906" x2="492.8906" y1="600.9082" y2="663.0322"/><line style="stroke:#5D7C75;stroke-width:1.875;" x1="492.8906" x2="648.0469" y1="663.0322" y2="663.0322"/><polygon fill="#5D7C75" points="629.2969,655.5322,648.0469,663.0322,629.2969,670.5322,636.7969,663.0322" style="stroke:#5D7C75;stroke-width:1.875;"/><line style="stroke:#5D7C75;stroke-width:1.875;" x1="848.2031" x2="848.2031" y1="629.2822" y2="663.0322"/><line style="stroke:#5D7C75;stroke-width:1.875;" x1="848.2031" x2="693.0469" y1="663.0322" y2="663.0322"/><polygon fill="#5D7C75" points="711.7969,655.5322,693.0469,663.0322,711.7969,670.5322,704.2969,663.0322" style="stroke:#5D7C75;stroke-width:1.875;"/><line style="stroke:#5D7C75;stroke-width:1.875;" x1="670.5469" x2="670.5469" y1="433.7842" y2="471.2842"/><polygon fill="#5D7C75" points="663.0469,452.5342,670.5469,471.2842,678.0469,452.5342,670.5469,460.0342" style="stroke:#5D7C75;stroke-width:1.875;"/><line style="stroke:#5D7C75;stroke-width:1.875;" x1="785.625" x2="670.5469" y1="298.2861" y2="298.2861"/><line style="stroke:#5D7C75;stroke-width:1.875;" x1="670.5469" x2="670.5469" y1="298.2861" y2="339.5361"/><polygon fill="#5D7C75" points="663.0469,320.7861,670.5469,339.5361,678.0469,320.7861,670.5469,328.2861" style="stroke:#5D7C75;stroke-width:1.875;"/><line style="stroke:#5D7C75;stroke-width:1.875;" x1="1053.75" x2="1168.8281" y1="298.2861" y2="298.2861"/><line style="stroke:#5D7C75;stroke-width:1.875;" x1="1168.8281" x2="1168.8281" y1="298.2861" y2="339.5361"/><polygon fill="#5D7C75" points="1161.3281,320.7861,1168.8281,339.5361,1176.3281,320.7861,1168.8281,328.2861" style="stroke:#5D7C75;stroke-width:1.875;"/><line style="stroke:#5D7C75;stroke-width:1.875;" x1="670.5469" x2="670.5469" y1="685.5322" y2="719.2822"/><line style="stroke:#5D7C75;stroke-width:1.875;" x1="670.5469" x2="897.1875" y1="719.2822" y2="719.2822"/><polygon fill="#5D7C75" points="878.4375,711.7822,897.1875,719.2822,878.4375,726.7822,885.9375,719.2822" style="stroke:#5D7C75;stroke-width:1.875;"/><line style="stroke:#5D7C75;stroke-width:1.875;" x1="1168.8281" x2="1168.8281" y1="433.7842" y2="719.2822"/><line style="stroke:#5D7C75;stroke-width:1.875;" x1="1168.8281" x2="942.1875" y1="719.2822" y2="719.2822"/><polygon fill="#5D7C75" points="960.9375,711.7822,942.1875,719.2822,960.9375,726.7822,953.4375,719.2822" style="stroke:#5D7C75;stroke-width:1.875;"/><line style="stroke:#5D7C75;stroke-width:1.875;" x1="919.6875" x2="919.6875" y1="238.2861" y2="275.7861"/><polygon fill="#5D7C75" points="912.1875,257.0361,919.6875,275.7861,927.1875,257.0361,919.6875,264.5361" style="stroke:#5D7C75;stroke-width:1.875;"/><line style="stroke:#5D7C75;stroke-width:1.875;" x1="919.6875" x2="919.6875" y1="741.7822" y2="779.2822"/><polygon fill="#5D7C75" points="912.1875,760.5322,919.6875,779.2822,927.1875,760.5322,919.6875,768.0322" style="stroke:#5D7C75;stroke-width:1.875;"/><line style="stroke:#5D7C75;stroke-width:1.875;" x1="919.6875" x2="919.6875" y1="873.5303" y2="968.0273"/><polygon fill="#5D7C75" points="912.1875,949.2773,919.6875,968.0273,927.1875,949.2773,919.6875,956.7773" style="stroke:#5D7C75;stroke-width:1.875;"/><line style="stroke:#5D7C75;stroke-width:1.875;" x1="919.6875" x2="919.6875" y1="1033.9014" y2="1147.1484"/><polygon fill="#5D7C75" points="912.1875,1128.3984,919.6875,1147.1484,927.1875,1128.3984,919.6875,1135.8984" style="stroke:#5D7C75;stroke-width:1.875;"/><line style="stroke:#5D7C75;stroke-width:1.875;" x1="919.6875" x2="919.6875" y1="1213.0225" y2="1250.5225"/><polygon fill="#5D7C75" points="912.1875,1231.7725,919.6875,1250.5225,927.1875,1231.7725,919.6875,1239.2725" style="stroke:#5D7C75;stroke-width:1.875;"/><line style="stroke:#5D7C75;stroke-width:1.875;" x1="919.6875" x2="919.6875" y1="1344.7705" y2="1382.2705"/><polygon fill="#5D7C75" points="912.1875,1363.5205,919.6875,1382.2705,927.1875,1363.5205,919.6875,1371.0205" style="stroke:#5D7C75;stroke-width:1.875;"/><line style="stroke:#5D7C75;stroke-width:1.875;" x1="919.6875" x2="919.6875" y1="1448.1445" y2="1485.6445"/><polygon fill="#5D7C75" points="912.1875,1466.8945,919.6875,1485.6445,927.1875,1466.8945,919.6875,1474.3945" style="stroke:#5D7C75;stroke-width:1.875;"/><line style="stroke:#5D7C75;stroke-width:1.875;" x1="720.9375" x2="702.1875" y1="1611.5186" y2="1611.5186"/><line style="stroke:#5D7C75;stroke-width:1.875;" x1="702.1875" x2="702.1875" y1="1611.5186" y2="1652.7686"/><polygon fill="#5D7C75" points="694.6875,1634.0186,702.1875,1652.7686,709.6875,1634.0186,702.1875,1641.5186" style="stroke:#5D7C75;stroke-width:1.875;"/><line style="stroke:#5D7C75;stroke-width:1.875;" x1="1118.4375" x2="1137.1875" y1="1611.5186" y2="1611.5186"/><line style="stroke:#5D7C75;stroke-width:1.875;" x1="1137.1875" x2="1137.1875" y1="1611.5186" y2="1657.5806"/><polygon fill="#5D7C75" points="1129.6875,1638.8306,1137.1875,1657.5806,1144.6875,1638.8306,1137.1875,1646.3306" style="stroke:#5D7C75;stroke-width:1.875;"/><line style="stroke:#5D7C75;stroke-width:1.875;" x1="702.1875" x2="702.1875" y1="1718.6426" y2="1762.0166"/><line style="stroke:#5D7C75;stroke-width:1.875;" x1="702.1875" x2="897.1875" y1="1762.0166" y2="1762.0166"/><polygon fill="#5D7C75" points="878.4375,1754.5166,897.1875,1762.0166,878.4375,1769.5166,885.9375,1762.0166" style="stroke:#5D7C75;stroke-width:1.875;"/><line style="stroke:#5D7C75;stroke-width:1.875;" x1="1137.1875" x2="1137.1875" y1="1723.4546" y2="1762.0166"/><line style="stroke:#5D7C75;stroke-width:1.875;" x1="1137.1875" x2="942.1875" y1="1762.0166" y2="1762.0166"/><polygon fill="#5D7C75" points="960.9375,1754.5166,942.1875,1762.0166,960.9375,1769.5166,953.4375,1762.0166" style="stroke:#5D7C75;stroke-width:1.875;"/><line style="stroke:#5D7C75;stroke-width:1.875;" x1="919.6875" x2="919.6875" y1="1551.5186" y2="1589.0186"/><polygon fill="#5D7C75" points="912.1875,1570.2686,919.6875,1589.0186,927.1875,1570.2686,919.6875,1577.7686" style="stroke:#5D7C75;stroke-width:1.875;"/><line style="stroke:#5D7C75;stroke-width:1.875;" x1="919.6875" x2="919.6875" y1="1784.5166" y2="1822.0166"/><polygon fill="#5D7C75" points="912.1875,1803.2666,919.6875,1822.0166,927.1875,1803.2666,919.6875,1810.7666" style="stroke:#5D7C75;stroke-width:1.875;"/><line style="stroke:#5D7C75;stroke-width:1.875;" x1="919.6875" x2="919.6875" y1="1887.8906" y2="1925.3906"/><polygon fill="#5D7C75" points="912.1875,1906.6406,919.6875,1925.3906,927.1875,1906.6406,919.6875,1914.1406" style="stroke:#5D7C75;stroke-width:1.875;"/><line style="stroke:#5D7C75;stroke-width:1.875;" x1="582.6563" x2="536.7188" y1="2218.3887" y2="2218.3887"/><line style="stroke:#5D7C75;stroke-width:1.875;" x1="536.7188" x2="536.7188" y1="2218.3887" y2="2259.6387"/><polygon fill="#5D7C75" points="529.2188,2240.8887,536.7188,2259.6387,544.2188,2240.8887,536.7188,2248.3887" style="stroke:#5D7C75;stroke-width:1.875;"/><line style="stroke:#5D7C75;stroke-width:1.875;" x1="796.4063" x2="842.3438" y1="2218.3887" y2="2218.3887"/><line style="stroke:#5D7C75;stroke-width:1.875;" x1="842.3438" x2="842.3438" y1="2218.3887" y2="2259.6387"/><polygon fill="#5D7C75" points="834.8438,2240.8887,842.3438,2259.6387,849.8438,2240.8887,842.3438,2248.3887" style="stroke:#5D7C75;stroke-width:1.875;"/><line style="stroke:#5D7C75;stroke-width:1.875;" x1="536.7188" x2="536.7188" y1="2325.5127" y2="2359.2627"/><line style="stroke:#5D7C75;stroke-width:1.875;" x1="536.7188" x2="667.0313" y1="2359.2627" y2="2359.2627"/><polygon fill="#5D7C75" points="648.2813,2351.7627,667.0313,2359.2627,648.2813,2366.7627,655.7813,2359.2627" style="stroke:#5D7C75;stroke-width:1.875;"/><line style="stroke:#5D7C75;stroke-width:1.875;" x1="842.3438" x2="842.3438" y1="2325.5127" y2="2359.2627"/><line style="stroke:#5D7C75;stroke-width:1.875;" x1="842.3438" x2="712.0313" y1="2359.2627" y2="2359.2627"/><polygon fill="#5D7C75" points="730.7813,2351.7627,712.0313,2359.2627,730.7813,2366.7627,723.2813,2359.2627" style="stroke:#5D7C75;stroke-width:1.875;"/><line style="stroke:#5D7C75;stroke-width:1.875;" x1="689.5313" x2="689.5313" y1="2158.3887" y2="2195.8887"/><polygon fill="#5D7C75" points="682.0313,2177.1387,689.5313,2195.8887,697.0313,2177.1387,689.5313,2184.6387" style="stroke:#5D7C75;stroke-width:1.875;"/><line style="stroke:#5D7C75;stroke-width:1.875;" x1="739.6875" x2="689.5313" y1="2051.2646" y2="2051.2646"/><line style="stroke:#5D7C75;stroke-width:1.875;" x1="689.5313" x2="689.5313" y1="2051.2646" y2="2092.5146"/><polygon fill="#5D7C75" points="682.0313,2073.7646,689.5313,2092.5146,697.0313,2073.7646,689.5313,2081.2646" style="stroke:#5D7C75;stroke-width:1.875;"/><line style="stroke:#5D7C75;stroke-width:1.875;" x1="1099.6875" x2="1149.8438" y1="2051.2646" y2="2051.2646"/><line style="stroke:#5D7C75;stroke-width:1.875;" x1="1149.8438" x2="1149.8438" y1="2051.2646" y2="2092.5146"/><polygon fill="#5D7C75" points="1142.3438,2073.7646,1149.8438,2092.5146,1157.3438,2073.7646,1149.8438,2081.2646" style="stroke:#5D7C75;stroke-width:1.875;"/><line style="stroke:#5D7C75;stroke-width:1.875;" x1="689.5313" x2="689.5313" y1="2381.7627" y2="2415.5127"/><line style="stroke:#5D7C75;stroke-width:1.875;" x1="689.5313" x2="897.1875" y1="2415.5127" y2="2415.5127"/><polygon fill="#5D7C75" points="878.4375,2408.0127,897.1875,2415.5127,878.4375,2423.0127,885.9375,2415.5127" style="stroke:#5D7C75;stroke-width:1.875;"/><line style="stroke:#5D7C75;stroke-width:1.875;" x1="1149.8438" x2="1149.8438" y1="2158.3887" y2="2415.5127"/><line style="stroke:#5D7C75;stroke-width:1.875;" x1="1149.8438" x2="942.1875" y1="2415.5127" y2="2415.5127"/><polygon fill="#5D7C75" points="960.9375,2408.0127,942.1875,2415.5127,960.9375,2423.0127,953.4375,2415.5127" style="stroke:#5D7C75;stroke-width:1.875;"/><line style="stroke:#5D7C75;stroke-width:1.875;" x1="919.6875" x2="919.6875" y1="1991.2646" y2="2028.7646"/><polygon fill="#5D7C75" points="912.1875,2010.0146,919.6875,2028.7646,927.1875,2010.0146,919.6875,2017.5146" style="stroke:#5D7C75;stroke-width:1.875;"/><line style="stroke:#5D7C75;stroke-width:1.875;" x1="242.8125" x2="242.8125" y1="2878.7549" y2="2916.2549"/><polygon fill="#5D7C75" points="235.3125,2897.5049,242.8125,2916.2549,250.3125,2897.5049,242.8125,2905.0049" style="stroke:#5D7C75;stroke-width:1.875;"/><line style="stroke:#5D7C75;stroke-width:1.875;" x1="362.8125" x2="242.8125" y1="2714.8828" y2="2714.8828"/><line style="stroke:#5D7C75;stroke-width:1.875;" x1="242.8125" x2="242.8125" y1="2714.8828" y2="2756.1328"/><polygon fill="#5D7C75" points="235.3125,2737.3828,242.8125,2756.1328,250.3125,2737.3828,242.8125,2744.8828" style="stroke:#5D7C75;stroke-width:1.875;"/><line style="stroke:#5D7C75;stroke-width:1.875;" x1="576.5625" x2="696.5625" y1="2714.8828" y2="2714.8828"/><line style="stroke:#5D7C75;stroke-width:1.875;" x1="696.5625" x2="696.5625" y1="2714.8828" y2="2756.1328"/><polygon fill="#5D7C75" points="689.0625,2737.3828,696.5625,2756.1328,704.0625,2737.3828,696.5625,2744.8828" style="stroke:#5D7C75;stroke-width:1.875;"/><line style="stroke:#5D7C75;stroke-width:1.875;" x1="242.8125" x2="242.8125" y1="2982.1289" y2="3015.8789"/><line style="stroke:#5D7C75;stroke-width:1.875;" x1="242.8125" x2="447.1875" y1="3015.8789" y2="3015.8789"/><polygon fill="#5D7C75" points="428.4375,3008.3789,447.1875,3015.8789,428.4375,3023.3789,435.9375,3015.8789" style="stroke:#5D7C75;stroke-width:1.875;"/><line style="stroke:#5D7C75;stroke-width:1.875;" x1="696.5625" x2="696.5625" y1="2822.0068" y2="3015.8789"/><line style="stroke:#5D7C75;stroke-width:1.875;" x1="696.5625" x2="492.1875" y1="3015.8789" y2="3015.8789"/><polygon fill="#5D7C75" points="510.9375,3008.3789,492.1875,3015.8789,510.9375,3023.3789,503.4375,3015.8789" style="stroke:#5D7C75;stroke-width:1.875;"/><line style="stroke:#5D7C75;stroke-width:1.875;" x1="469.6875" x2="469.6875" y1="2650.0708" y2="2692.3828"/><polygon fill="#5D7C75" points="462.1875,2673.6328,469.6875,2692.3828,477.1875,2673.6328,469.6875,2681.1328" style="stroke:#5D7C75;stroke-width:1.875;"/><line style="stroke:#5D7C75;stroke-width:1.875;" x1="673.125" x2="469.6875" y1="2503.8867" y2="2503.8867"/><line style="stroke:#5D7C75;stroke-width:1.875;" x1="469.6875" x2="469.6875" y1="2503.8867" y2="2555.8228"/><polygon fill="#5D7C75" points="462.1875,2537.0728,469.6875,2555.8228,477.1875,2537.0728,469.6875,2544.5728" style="stroke:#5D7C75;stroke-width:1.875;"/><line style="stroke:#5D7C75;stroke-width:1.875;" x1="1166.25" x2="1369.6875" y1="2503.8867" y2="2503.8867"/><line style="stroke:#5D7C75;stroke-width:1.875;" x1="1369.6875" x2="1369.6875" y1="2503.8867" y2="2551.0107"/><polygon fill="#5D7C75" points="1362.1875,2532.2607,1369.6875,2551.0107,1377.1875,2532.2607,1369.6875,2539.7607" style="stroke:#5D7C75;stroke-width:1.875;"/><line style="stroke:#5D7C75;stroke-width:1.875;" x1="469.6875" x2="469.6875" y1="3038.3789" y2="3072.1289"/><line style="stroke:#5D7C75;stroke-width:1.875;" x1="469.6875" x2="897.1875" y1="3072.1289" y2="3072.1289"/><polygon fill="#5D7C75" points="878.4375,3064.6289,897.1875,3072.1289,878.4375,3079.6289,885.9375,3072.1289" style="stroke:#5D7C75;stroke-width:1.875;"/><line style="stroke:#5D7C75;stroke-width:1.875;" x1="1369.6875" x2="1369.6875" y1="2645.2588" y2="3072.1289"/><line style="stroke:#5D7C75;stroke-width:1.875;" x1="1369.6875" x2="942.1875" y1="3072.1289" y2="3072.1289"/><polygon fill="#5D7C75" points="960.9375,3064.6289,942.1875,3072.1289,960.9375,3079.6289,953.4375,3072.1289" style="stroke:#5D7C75;stroke-width:1.875;"/><line style="stroke:#5D7C75;stroke-width:1.875;" x1="919.6875" x2="919.6875" y1="2438.0127" y2="2475.5127"/><polygon fill="#5D7C75" points="912.1875,2456.7627,919.6875,2475.5127,927.1875,2456.7627,919.6875,2464.2627" style="stroke:#5D7C75;stroke-width:1.875;"/><line style="stroke:#5D7C75;stroke-width:1.875;" x1="919.6875" x2="919.6875" y1="3094.6289" y2="3132.1289"/><polygon fill="#5D7C75" points="912.1875,3113.3789,919.6875,3132.1289,927.1875,3113.3789,919.6875,3120.8789" style="stroke:#5D7C75;stroke-width:1.875;"/><rect fill="none" height="240.1465" id="_legend" rx="14.0625" ry="14.0625" style="stroke:#000000;stroke-width:1.875;" width="543.75" x="1205.625" y="3194.0039"/><text fill="#000000" font-family="Arial" font-size="26.25" font-weight="bold" lengthAdjust="spacing" textLength="127.5" x="1224.375" y="3231.4948">&#1054;&#1090;&#1090;&#1077;&#1085;&#1086;&#1082;</text><text fill="#000000" font-family="Arial" font-size="26.25" font-weight="bold" lengthAdjust="spacing" textLength="69.375" x="1370.625" y="3231.4948">&#1069;&#1090;&#1072;&#1087;</text><rect fill="#D3E6E0" height="30.5566" style="stroke:none;stroke-width:1.875;" width="146.25" x="1215" y="3237.6855"/><text fill="#000000" font-family="Arial" font-size="26.25" lengthAdjust="spacing" textLength="7.5" x="1215" y="3262.0514">&#160;</text><text fill="#000000" font-family="Arial" font-size="26.25" lengthAdjust="spacing" textLength="226.875" x="1368.75" y="3262.0514">&#1047;&#1072;&#1075;&#1088;&#1091;&#1079;&#1082;&#1072; &#1087;&#1072;&#1084;&#1103;&#1090;&#1080;</text><rect fill="#CFE6DE" height="30.5566" style="stroke:none;stroke-width:1.875;" width="146.25" x="1215" y="3268.2422"/><text fill="#000000" font-family="Arial" font-size="26.25" lengthAdjust="spacing" textLength="7.5" x="1215" y="3292.608">&#160;</text><text fill="#000000" font-family="Arial" font-size="26.25" lengthAdjust="spacing" textLength="363.75" x="1368.75" y="3292.608">&#1048;&#1089;&#1087;&#1086;&#1083;&#1100;&#1079;&#1086;&#1074;&#1072;&#1085;&#1080;&#1077; &#1082;&#1086;&#1085;&#1090;&#1077;&#1082;&#1089;&#1090;&#1072;</text><rect fill="#B4DCCB" height="30.5566" style="stroke:none;stroke-width:1.875;" width="146.25" x="1215" y="3298.7988"/><text fill="#000000" font-family="Arial" font-size="26.25" lengthAdjust="spacing" textLength="7.5" x="1215" y="3323.1647">&#160;</text><text fill="#000000" font-family="Arial" font-size="26.25" lengthAdjust="spacing" textLength="223.125" x="1368.75" y="3323.1647">Memory Manager</text><rect fill="#A9D9C3" height="30.5566" style="stroke:none;stroke-width:1.875;" width="146.25" x="1215" y="3329.3555"/><text fill="#000000" font-family="Arial" font-size="26.25" lengthAdjust="spacing" textLength="7.5" x="1215" y="3353.7213">&#160;</text><text fill="#000000" font-family="Arial" font-size="26.25" lengthAdjust="spacing" textLength="153.75" x="1368.75" y="3353.7213">Persistence</text><rect fill="#79BF9E" height="30.5566" style="stroke:none;stroke-width:1.875;" width="146.25" x="1215" y="3359.9121"/><text fill="#000000" font-family="Arial" font-size="26.25" lengthAdjust="spacing" textLength="7.5" x="1215" y="3384.278">&#160;</text><text fill="#000000" font-family="Arial" font-size="26.25" lengthAdjust="spacing" textLength="290.625" x="1368.75" y="3384.278">&#1053;&#1086;&#1074;&#1072;&#1103; &#1074;&#1077;&#1088;&#1089;&#1080;&#1103; &#1087;&#1072;&#1084;&#1103;&#1090;&#1080;</text><rect fill="#EADFD5" height="30.5566" style="stroke:none;stroke-width:1.875;" width="146.25" x="1215" y="3390.4688"/><text fill="#000000" font-family="Arial" font-size="26.25" lengthAdjust="spacing" textLength="7.5" x="1215" y="3414.8346">&#160;</text><text fill="#000000" font-family="Arial" font-size="26.25" lengthAdjust="spacing" textLength="238.125" x="1368.75" y="3414.8346">Fallback / &#1087;&#1088;&#1086;&#1087;&#1091;&#1089;&#1082;</text><line style="stroke:#000000;stroke-width:1.875;" x1="1215" x2="1740" y1="3207.1289" y2="3207.1289"/><line style="stroke:#000000;stroke-width:1.875;" x1="1215" x2="1740" y1="3237.6855" y2="3237.6855"/><line style="stroke:#000000;stroke-width:1.875;" x1="1215" x2="1740" y1="3268.2422" y2="3268.2422"/><line style="stroke:#000000;stroke-width:1.875;" x1="1215" x2="1740" y1="3298.7988" y2="3298.7988"/><line style="stroke:#000000;stroke-width:1.875;" x1="1215" x2="1740" y1="3329.3555" y2="3329.3555"/><line style="stroke:#000000;stroke-width:1.875;" x1="1215" x2="1740" y1="3359.9121" y2="3359.9121"/><line style="stroke:#000000;stroke-width:1.875;" x1="1215" x2="1740" y1="3390.4688" y2="3390.4688"/><line style="stroke:#000000;stroke-width:1.875;" x1="1215" x2="1740" y1="3421.0254" y2="3421.0254"/><line style="stroke:#000000;stroke-width:1.875;" x1="1215" x2="1215" y1="3207.1289" y2="3421.0254"/><line style="stroke:#000000;stroke-width:1.875;" x1="1361.25" x2="1361.25" y1="3207.1289" y2="3421.0254"/><line style="stroke:#000000;stroke-width:1.875;" x1="1740" x2="1740" y1="3207.1289" y2="3421.0254"/><!--SRC=[ZLTRJnj757xVNp4IBqHHBdXzNKgglIgH6eGALLyieOqzc6tMi-vwJKf3921DMob8A2zjNzAgUQ_aS0aE0VCNPlzHpvaPExis18mm-CmvPyxbEzzP9q4IKiB_u0D-mi_vCVoUfw_vHvB-2g9J_edm8pxad_WXl1-asw1n9hNWyqV2BtYVdwNxwIuV43v8T-2V8MWD-43Jkay3rl5ZlqsU-8sdhJZgiQOTXL5CPZmRVfoCHdVTRqRF0jOYQtxOfPcJPYSWSzNx6Ob3r_nUc7WHInRzDYLc7FZXvUVBmS-KpEcPmnLC-FDHzR8Z5MIXLYpgNaR1ZEFecJeiEHMxKiecwJUIO2D8DibpZS3BYk8cZPLskL3nAbKXprmmv-aLlI2aJk2t8zRC6tbLfrhA7K_MqNMzafVpC1q_7YudVZmIb_MgLzM5s1qxAher2uGliWcnAA6ZPAOQMF5ChpQTg5MpBRiycQYk5yrYMNZ7G3Hjnh7Tcbio-5i1AmJSmvMLfJi0mZw_000DqvrvJGlMo6mtYUBDrQ29M3iM03m2dVElRv5adJ8oYnzlQUB66KTto-vz8upyvggqQq0GzAUapkuy82sQvANpqWnl0QWF0VcxuFuKKKn498VfTlgIVq30Jzn7r6l6DbtTiGpfjqtRy8Sia2xpEztrA26ByqAL0gR150OitSqOkwRZEL25VzANOdJwwJvHFkxLsMDxYVIOl-47eVyafCeJQmPhcfPtgBAlkfPRd0pb-Oiwsw1nDuWOVBeFEIiNCywSMu5gDQ8mf8raDQO_zeAOjYbBkdKsUviyVBJo3H7TWDb6RXZoz-ahU3-2-Jx35k7OtmAFCtRDBK8LAElsOggAt8cZ7y0l70iWnK5hFH61ydV8AEaUrXpfvHDaBVZaG79AZaOCOTA8gPyennZIQomMvWwg-zBfXN3wClqDx7VJFI5GZlR7h3O2qrrPCYZyEBaZgGxzlX31d16elzGw58o7uEiZBMAu1w3xXg04eZx7FA0WY9HqLuM385RS-K66XB4I_XwSdMG2WMw8ISCgUcxPSOtluo2XiQY3ocgFdq1Su9jacpiF5cMtu5GD6oo21W7z0mmJ4aRTPkol0VBJdKahom7O5OpGPwsUtwAhj1c00XuK7Tks3AcuslOPdCPg3fVHnsE9AiZa5z6WCmXoMtJkgf4qBQTgvq49IFER2Cqaxj7vox6i9kDICx4XrEnEG4kK_bynITlPQL9GwATlCf0HoWTOjInG1WW8sQGnumXM4lqOt1rDeMhQQ9ZCcbEpTQE3azPLF8EJOHQSakN0Y4_04uSxYQAmIzH0dKiqdOnepzy0l6-og0F-I0wTnrUKkcRRdcNAg-I8dF8-oJdAC1xAcwe9Lv5RhMXRbcwCh1KBZnA1EBxCRYN70PXbhHS8wuNX5vZiEaDbb5iCvg93fe5IPq8kiiyouerAMRNiYcaRKzPrrerwSOEkjYYZiPy0gSheCh5UZSnS7STy0MZ3PW4cC4LZh2rm-Kg0GZwO3VZnn0FNEKfE10S9S2ho4S0UWcTSAmB4loD7IRxE0s8IpZT0n-S6LmksRiBwUgU2n4XEnOFZK3uX6dNstP9ZhhWajn9WlTmcZnQNtMzNyerJUse4Kt59fMPvDTV8Qq1aY-GscLEArwpNjvAX16yBVjoH98xbcwfo_zezUvtRJ8lgREeIISv8GfzNCHIXesaXRM4Z96Qs5WZ_6_HsHL13VafGyf_OUnTaIzlwIZtjFDWY_C_niyg9cFaSIeIkN2se-rTsguoeMs9huXa870bRkHN0Lh7_OxaNvA7aFJXSain7MOFA4zaulF86XP8cih9WulbXY5yQoBtH9hqGM8OgOCrafRJ_0G00]--></g></svg>