<?xml version="1.0" encoding="us-ascii" standalone="no"?><svg xmlns="http://www.w3.org/2000/svg" xmlns:xlink="http://www.w3.org/1999/xlink" contentStyleType="text/css" height="2506.875px" preserveAspectRatio="none" style="width:3933px;height:2506px;background:#FCFCFD;" version="1.1" viewBox="0 0 3933 2506" width="3933.75px" zoomAndPan="magnify"><defs/><g><rect fill="#FCFCFD" height="2506.875" style="stroke:none;stroke-width:1.875;" width="3933.75" x="0" y="0"/><text fill="#24364B" font-family="Arial" font-size="33.75" font-weight="bold" lengthAdjust="spacing" textLength="1110" x="1409.7949" y="68.8275">&#1047;&#1072;&#1075;&#1088;&#1091;&#1079;&#1082;&#1072; &#1080; &#1087;&#1086;&#1076;&#1075;&#1086;&#1090;&#1086;&#1074;&#1082;&#1072; &#1082;&#1086;&#1085;&#1090;&#1077;&#1082;&#1089;&#1090;&#1072; &#1083;&#1080;&#1090;&#1077;&#1088;&#1072;&#1090;&#1091;&#1088;&#1085;&#1086;&#1075;&#1086; &#1087;&#1088;&#1086;&#1077;&#1082;&#1090;&#1072;</text><ellipse cx="2444.5898" cy="116.1621" fill="#6388B4" rx="18.75" ry="18.75" style="stroke:#222222;stroke-width:1.875;"/><rect fill="#DCE9F7" height="65.874" rx="23.4375" ry="23.4375" style="stroke:#60758A;stroke-width:0.9375;" width="264.375" x="2312.4023" y="172.4121"/><text fill="#1F2937" font-family="Arial" font-size="24.375" lengthAdjust="spacing" textLength="226.875" x="2331.1523" y="213.7875">load_story_context</text><polygon fill="#EEF4FA" points="2333.0273,275.7861,2556.1523,275.7861,2578.6523,298.2861,2556.1523,320.7861,2333.0273,320.7861,2310.5273,298.2861,2333.0273,275.7861" style="stroke:#71859B;stroke-width:0.9375;"/><text fill="#24364B" font-family="Arial" font-size="24.375" lengthAdjust="spacing" textLength="223.125" x="2333.0273" y="306.7245">story_id &#1087;&#1077;&#1088;&#1077;&#1076;&#1072;&#1085;?</text><text fill="#000000" font-family="Arial" font-size="24.375" lengthAdjust="spacing" textLength="33.75" x="2276.7773" y="292.5375">&#1076;&#1072;</text><text fill="#000000" font-family="Arial" font-size="24.375" lengthAdjust="spacing" textLength="46.875" x="2578.6523" y="292.5375">&#1085;&#1077;&#1090;</text><rect fill="#D4E5F3" height="65.874" rx="23.4375" ry="23.4375" style="stroke:#60758A;stroke-width:0.9375;" width="296.25" x="1461.6797" y="339.5361"/><text fill="#1F2937" font-family="Arial" font-size="24.375" lengthAdjust="spacing" textLength="258.75" x="1480.4297" y="380.9116">get_mcp_tools_safely</text><polygon fill="#EEF4FA" points="1430.7422,471.0352,1788.8672,471.0352,1811.3672,493.5352,1788.8672,516.0352,1430.7422,516.0352,1408.2422,493.5352,1430.7422,471.0352" style="stroke:#71859B;stroke-width:0.9375;"/><text fill="#24364B" font-family="Arial" font-size="24.375" lengthAdjust="spacing" textLength="358.125" x="1430.7422" y="501.9736">get_story_context &#1076;&#1086;&#1089;&#1090;&#1091;&#1087;&#1077;&#1085;?</text><text fill="#000000" font-family="Arial" font-size="24.375" lengthAdjust="spacing" textLength="33.75" x="1374.4922" y="487.7866">&#1076;&#1072;</text><text fill="#000000" font-family="Arial" font-size="24.375" lengthAdjust="spacing" textLength="46.875" x="1811.3672" y="487.7866">&#1085;&#1077;&#1090;</text><rect fill="#CBE2EE" height="65.874" rx="23.4375" ry="23.4375" style="stroke:#60758A;stroke-width:0.9375;" width="365.625" x="580.5469" y="534.7852"/><text fill="#1F2937" font-family="Arial" font-size="24.375" lengthAdjust="spacing" textLength="328.125" x="599.2969" y="576.1606">get_story_context(story_id)</text><polygon fill="#EEF4FA" points="680.8594,666.2842,845.8594,666.2842,868.3594,688.7842,845.8594,711.2842,680.8594,711.2842,658.3594,688.7842,680.8594,666.2842" style="stroke:#71859B;stroke-width:0.9375;"/><text fill="#24364B" font-family="Arial" font-size="24.375" lengthAdjust="spacing" textLength="165" x="680.8594" y="697.2226">found = true?</text><text fill="#000000" font-family="Arial" font-size="24.375" lengthAdjust="spacing" textLength="33.75" x="624.6094" y="683.0356">&#1076;&#1072;</text><text fill="#000000" font-family="Arial" font-size="24.375" lengthAdjust="spacing" textLength="46.875" x="868.3594" y="683.0356">&#1085;&#1077;&#1090;</text><path d="M358.125,730.0342 L358.125,873.7793 L320.625,881.2793 L358.125,888.7793 L358.125,1032.5244 A0,0 0 0 0 358.125,1032.5244 L738.75,1032.5244 A0,0 0 0 0 738.75,1032.5244 L738.75,748.7842 L720,730.0342 L358.125,730.0342 A0,0 0 0 0 358.125,730.0342 " fill="#F7FAFC" style="stroke:#BCC9D6;stroke-width:0.9375;"/><path d="M720,730.0342 L720,748.7842 L738.75,748.7842 L720,730.0342 " fill="#F7FAFC" style="stroke:#BCC9D6;stroke-width:0.9375;"/><text fill="#334155" font-family="Arial" font-size="24.375" lengthAdjust="spacing" textLength="307.5" x="369.375" y="762.0346">SynopsisState &#1087;&#1086;&#1083;&#1091;&#1095;&#1072;&#1077;&#1090;:</text><text fill="#334155" font-family="Arial" font-size="24.375" lengthAdjust="spacing" textLength="135" x="369.375" y="790.4086">- story_title</text><text fill="#334155" font-family="Arial" font-size="24.375" lengthAdjust="spacing" textLength="210" x="369.375" y="818.7827">- premise -&gt; idea</text><text fill="#334155" font-family="Arial" font-size="24.375" lengthAdjust="spacing" textLength="86.25" x="369.375" y="847.1567">- genre</text><text fill="#334155" font-family="Arial" font-size="24.375" lengthAdjust="spacing" textLength="73.125" x="369.375" y="875.5307">- style</text><text fill="#334155" font-family="Arial" font-size="24.375" lengthAdjust="spacing" textLength="127.5" x="369.375" y="903.9047">- language</text><text fill="#334155" font-family="Arial" font-size="24.375" lengthAdjust="spacing" textLength="191.25" x="369.375" y="932.2787">- story_memory</text><text fill="#334155" font-family="Arial" font-size="24.375" lengthAdjust="spacing" textLength="290.625" x="369.375" y="960.6528">- story_memory_version</text><text fill="#334155" font-family="Arial" font-size="24.375" lengthAdjust="spacing" textLength="7.5" x="369.375" y="989.0268">&#160;</text><text fill="#334155" font-family="Arial" font-size="24.375" lengthAdjust="spacing" textLength="341.25" x="369.375" y="1017.4008">story_context_loaded = true</text><rect fill="#C3DFE7" height="65.874" rx="23.4375" ry="23.4375" style="stroke:#60758A;stroke-width:0.9375;" width="300" x="20.625" y="848.3423"/><text fill="#1F2937" font-family="Arial" font-size="24.375" lengthAdjust="spacing" textLength="262.5" x="39.375" y="889.7177">&#1047;&#1072;&#1075;&#1088;&#1091;&#1079;&#1080;&#1090;&#1100; &#1082;&#1086;&#1085;&#1090;&#1077;&#1082;&#1089;&#1090;</text><polygon fill="#EEF4FA" points="1190.1563,730.0342,1522.0313,730.0342,1544.5313,752.5342,1522.0313,775.0342,1190.1563,775.0342,1167.6563,752.5342,1190.1563,730.0342" style="stroke:#71859B;stroke-width:0.9375;"/><text fill="#24364B" font-family="Arial" font-size="24.375" lengthAdjust="spacing" textLength="331.875" x="1190.1563" y="760.9726">result.error &#1087;&#1088;&#1080;&#1089;&#1091;&#1090;&#1089;&#1090;&#1074;&#1091;&#1077;&#1090;?</text><text fill="#000000" font-family="Arial" font-size="24.375" lengthAdjust="spacing" textLength="33.75" x="1133.9063" y="746.7856">&#1076;&#1072;</text><text fill="#000000" font-family="Arial" font-size="24.375" lengthAdjust="spacing" textLength="46.875" x="1544.5313" y="746.7856">&#1085;&#1077;&#1090;</text><path d="M1181.25,793.7842 L1181.25,838.2202 L1143.75,845.7202 L1181.25,853.2202 L1181.25,897.6563 A0,0 0 0 0 1181.25,897.6563 L1593.75,897.6563 A0,0 0 0 0 1593.75,897.6563 L1593.75,812.5342 L1575,793.7842 L1181.25,793.7842 A0,0 0 0 0 1181.25,793.7842 " fill="#F7FAFC" style="stroke:#BCC9D6;stroke-width:0.9375;"/><path d="M1575,793.7842 L1575,812.5342 L1593.75,812.5342 L1575,793.7842 " fill="#F7FAFC" style="stroke:#BCC9D6;stroke-width:0.9375;"/><text fill="#334155" font-family="Arial" font-size="24.375" lengthAdjust="spacing" textLength="373.125" x="1192.5" y="825.7846">&#1058;&#1077;&#1093;&#1085;&#1080;&#1095;&#1077;&#1089;&#1082;&#1072;&#1103; &#1086;&#1096;&#1080;&#1073;&#1082;&#1072; MCP/DB:</text><text fill="#334155" font-family="Arial" font-size="24.375" lengthAdjust="spacing" textLength="367.5" x="1192.5" y="854.1586">workflow &#1087;&#1088;&#1086;&#1076;&#1086;&#1083;&#1078;&#1072;&#1077;&#1090; &#1088;&#1072;&#1073;&#1086;&#1090;&#1091;</text><text fill="#334155" font-family="Arial" font-size="24.375" lengthAdjust="spacing" textLength="225" x="1192.5" y="882.5327">&#1089; &#1087;&#1091;&#1089;&#1090;&#1086;&#1081; memory.</text><rect fill="#F3E2D3" height="65.874" rx="23.4375" ry="23.4375" style="stroke:#60758A;stroke-width:0.9375;" width="348.75" x="795" y="812.7832"/><text fill="#1F2937" font-family="Arial" font-size="24.375" lengthAdjust="spacing" textLength="311.25" x="813.75" y="854.1586">story_context_unavailable</text><path d="M1891.875,803.1592 L1891.875,833.4082 L1854.375,840.9082 L1891.875,848.4082 L1891.875,878.6572 A0,0 0 0 0 1891.875,878.6572 L2206.875,878.6572 A0,0 0 0 0 2206.875,878.6572 L2206.875,821.9092 L2188.125,803.1592 L1891.875,803.1592 A0,0 0 0 0 1891.875,803.1592 " fill="#F7FAFC" style="stroke:#BCC9D6;stroke-width:0.9375;"/><path d="M2188.125,803.1592 L2188.125,821.9092 L2206.875,821.9092 L2188.125,803.1592 " fill="#F7FAFC" style="stroke:#BCC9D6;stroke-width:0.9375;"/><text fill="#334155" font-family="Arial" font-size="24.375" lengthAdjust="spacing" textLength="258.75" x="1903.125" y="835.1596">FastAPI &#1087;&#1088;&#1077;&#1086;&#1073;&#1088;&#1072;&#1079;&#1091;&#1077;&#1090;</text><text fill="#334155" font-family="Arial" font-size="24.375" lengthAdjust="spacing" textLength="275.625" x="1903.125" y="863.5336">ValueError &#1074; HTTP 404.</text><rect fill="#F4D9D9" height="94.248" rx="23.4375" ry="23.4375" style="stroke:#60758A;stroke-width:0.9375;" width="223.125" x="1631.25" y="793.7842"/><text fill="#1F2937" font-family="Arial" font-size="24.375" lengthAdjust="spacing" textLength="133.125" x="1650" y="835.1596">ValueError:</text><text fill="#1F2937" font-family="Arial" font-size="24.375" lengthAdjust="spacing" textLength="185.625" x="1650" y="863.5336">Story not found</text><ellipse cx="1742.8125" cy="974.2822" fill="none" rx="20.625" ry="20.625" style="stroke:#222222;stroke-width:1.875;"/><ellipse cx="1742.8125" cy="974.2822" fill="#222222" rx="11.25" ry="11.25" style="stroke:#222222;stroke-width:1.875;"/><polygon fill="#EEF4FA" points="763.3594,1043.7744,785.8594,1066.2744,763.3594,1088.7744,740.8594,1066.2744,763.3594,1043.7744" style="stroke:#71859B;stroke-width:0.9375;"/><path d="M2645.625,534.7852 L2645.625,579.2212 L2608.125,586.7212 L2645.625,594.2212 L2645.625,638.6572 A0,0 0 0 0 2645.625,638.6572 L3052.5,638.6572 A0,0 0 0 0 3052.5,638.6572 L3052.5,553.5352 L3033.75,534.7852 L2645.625,534.7852 A0,0 0 0 0 2645.625,534.7852 " fill="#F7FAFC" style="stroke:#BCC9D6;stroke-width:0.9375;"/><path d="M3033.75,534.7852 L3033.75,553.5352 L3052.5,553.5352 L3033.75,534.7852 " fill="#F7FAFC" style="stroke:#BCC9D6;stroke-width:0.9375;"/><text fill="#334155" font-family="Arial" font-size="24.375" lengthAdjust="spacing" textLength="215.625" x="2656.875" y="566.7856">Tool &#1085;&#1077;&#1076;&#1086;&#1089;&#1090;&#1091;&#1087;&#1077;&#1085;:</text><text fill="#334155" font-family="Arial" font-size="24.375" lengthAdjust="spacing" textLength="367.5" x="2656.875" y="595.1596">workflow &#1087;&#1088;&#1086;&#1076;&#1086;&#1083;&#1078;&#1072;&#1077;&#1090; &#1088;&#1072;&#1073;&#1086;&#1090;&#1091;</text><text fill="#334155" font-family="Arial" font-size="24.375" lengthAdjust="spacing" textLength="326.25" x="2656.875" y="623.5336">&#1073;&#1077;&#1079; &#1079;&#1072;&#1075;&#1088;&#1091;&#1078;&#1077;&#1085;&#1085;&#1086;&#1081; &#1087;&#1072;&#1084;&#1103;&#1090;&#1080;.</text><rect fill="#F3E2D3" height="65.874" rx="23.4375" ry="23.4375" style="stroke:#60758A;stroke-width:0.9375;" width="348.75" x="2259.375" y="553.7842"/><text fill="#1F2937" font-family="Arial" font-size="24.375" lengthAdjust="spacing" textLength="311.25" x="2278.125" y="595.1596">story_context_unavailable</text><polygon fill="#EEF4FA" points="1609.8047,1100.0244,1632.3047,1122.5244,1609.8047,1145.0244,1587.3047,1122.5244,1609.8047,1100.0244" style="stroke:#71859B;stroke-width:0.9375;"/><rect fill="#D9EDE7" height="122.6221" rx="23.4375" ry="23.4375" style="stroke:#60758A;stroke-width:0.9375;" width="386.25" x="3108.75" y="339.5361"/><text fill="#1F2937" font-family="Arial" font-size="24.375" lengthAdjust="spacing" textLength="240" x="3127.5" y="380.9116">story_memory = {}</text><text fill="#1F2937" font-family="Arial" font-size="24.375" lengthAdjust="spacing" textLength="324.375" x="3127.5" y="409.2856">story_memory_version = 0</text><text fill="#1F2937" font-family="Arial" font-size="24.375" lengthAdjust="spacing" textLength="348.75" x="3127.5" y="437.6596">story_context_loaded = false</text><polygon fill="#EEF4FA" points="2444.5898,1156.2744,2467.0898,1178.7744,2444.5898,1201.2744,2422.0898,1178.7744,2444.5898,1156.2744" style="stroke:#71859B;stroke-width:0.9375;"/><rect fill="#C7E7DD" height="94.248" rx="23.4375" ry="23.4375" style="stroke:#60758A;stroke-width:0.9375;" width="393.75" x="2247.7148" y="1238.7744"/><text fill="#1F2937" font-family="Arial" font-size="24.375" lengthAdjust="spacing" textLength="251.25" x="2266.4648" y="1280.1498">collect_requirements</text><text fill="#1F2937" font-family="Arial" font-size="24.375" lengthAdjust="spacing" textLength="356.25" x="2266.4648" y="1308.5239">(+ HITL &#1087;&#1088;&#1080; &#1085;&#1077;&#1086;&#1073;&#1093;&#1086;&#1076;&#1080;&#1084;&#1086;&#1089;&#1090;&#1080;)</text><rect fill="#BCE1D4" height="65.874" rx="23.4375" ry="23.4375" style="stroke:#60758A;stroke-width:0.9375;" width="288.75" x="2300.2148" y="1370.5225"/><text fill="#1F2937" font-family="Arial" font-size="24.375" lengthAdjust="spacing" textLength="251.25" x="2318.9648" y="1411.8979">ensure_story_project</text><polygon fill="#EEF4FA" points="2328.3398,1473.8965,2560.8398,1473.8965,2583.3398,1496.3965,2560.8398,1518.8965,2328.3398,1518.8965,2305.8398,1496.3965,2328.3398,1473.8965" style="stroke:#71859B;stroke-width:0.9375;"/><text fill="#24364B" font-family="Arial" font-size="24.375" lengthAdjust="spacing" textLength="232.5" x="2328.3398" y="1504.8349">story_id &#1091;&#1078;&#1077; &#1077;&#1089;&#1090;&#1100;?</text><text fill="#000000" font-family="Arial" font-size="24.375" lengthAdjust="spacing" textLength="33.75" x="2272.0898" y="1490.6479">&#1076;&#1072;</text><text fill="#000000" font-family="Arial" font-size="24.375" lengthAdjust="spacing" textLength="46.875" x="2583.3398" y="1490.6479">&#1085;&#1077;&#1090;</text><rect fill="#B5DCCF" height="65.874" rx="23.4375" ry="23.4375" style="stroke:#60758A;stroke-width:0.9375;" width="384.375" x="1844.5898" y="1537.6465"/><text fill="#1F2937" font-family="Arial" font-size="24.375" lengthAdjust="spacing" textLength="346.875" x="1863.3398" y="1579.0219">status = story_project_ready</text><rect fill="#ABD7C8" height="65.874" rx="23.4375" ry="23.4375" style="stroke:#60758A;stroke-width:0.9375;" width="275.625" x="2737.0898" y="1537.6465"/><text fill="#1F2937" font-family="Arial" font-size="24.375" lengthAdjust="spacing" textLength="238.125" x="2755.8398" y="1579.0219">&#1053;&#1072;&#1081;&#1090;&#1080; create_story</text><polygon fill="#EEF4FA" points="2735.2148,1641.0205,3014.5898,1641.0205,3037.0898,1669.3945,3014.5898,1697.7686,2735.2148,1697.7686,2712.7148,1669.3945,2735.2148,1641.0205" style="stroke:#71859B;stroke-width:0.9375;"/><text fill="#24364B" font-family="Arial" font-size="24.375" lengthAdjust="spacing" textLength="279.375" x="2735.2148" y="1663.6459">create_story &#1076;&#1086;&#1089;&#1090;&#1091;&#1087;&#1077;&#1085;</text><text fill="#24364B" font-family="Arial" font-size="24.375" lengthAdjust="spacing" textLength="196.875" x="2735.2148" y="1692.02">&#1080; created=true?</text><text fill="#000000" font-family="Arial" font-size="24.375" lengthAdjust="spacing" textLength="33.75" x="2678.9648" y="1663.6459">&#1076;&#1072;</text><text fill="#000000" font-family="Arial" font-size="24.375" lengthAdjust="spacing" textLength="46.875" x="3037.0898" y="1663.6459">&#1085;&#1077;&#1090;</text><path d="M2662.0898,1716.5186 L2662.0898,1789.3286 L2624.5898,1796.8286 L2662.0898,1804.3286 L2662.0898,1877.1387 A0,0 0 0 0 2662.0898,1877.1387 L3042.7148,1877.1387 A0,0 0 0 0 3042.7148,1877.1387 L3042.7148,1735.2686 L3023.9648,1716.5186 L2662.0898,1716.5186 A0,0 0 0 0 2662.0898,1716.5186 " fill="#F7FAFC" style="stroke:#BCC9D6;stroke-width:0.9375;"/><path d="M3023.9648,1716.5186 L3023.9648,1735.2686 L3042.7148,1735.2686 L3023.9648,1716.5186 " fill="#F7FAFC" style="stroke:#BCC9D6;stroke-width:0.9375;"/><text fill="#334155" font-family="Arial" font-size="24.375" lengthAdjust="spacing" textLength="324.375" x="2673.3398" y="1748.519">&#1058;&#1072;&#1082;&#1078;&#1077; &#1091;&#1089;&#1090;&#1072;&#1085;&#1072;&#1074;&#1083;&#1080;&#1074;&#1072;&#1102;&#1090;&#1089;&#1103;:</text><text fill="#334155" font-family="Arial" font-size="24.375" lengthAdjust="spacing" textLength="118.125" x="2673.3398" y="1776.893">story_title</text><text fill="#334155" font-family="Arial" font-size="24.375" lengthAdjust="spacing" textLength="240" x="2673.3398" y="1805.267">story_memory = {}</text><text fill="#334155" font-family="Arial" font-size="24.375" lengthAdjust="spacing" textLength="324.375" x="2673.3398" y="1833.6411">story_memory_version = 0</text><text fill="#334155" font-family="Arial" font-size="24.375" lengthAdjust="spacing" textLength="341.25" x="2673.3398" y="1862.0151">story_context_loaded = true</text><rect fill="#A4D2C1" height="65.874" rx="23.4375" ry="23.4375" style="stroke:#60758A;stroke-width:0.9375;" width="361.875" x="2262.7148" y="1763.8916"/><text fill="#1F2937" font-family="Arial" font-size="24.375" lengthAdjust="spacing" textLength="324.375" x="2281.4648" y="1805.267">&#1057;&#1086;&#1093;&#1088;&#1072;&#1085;&#1080;&#1090;&#1100; &#1085;&#1086;&#1074;&#1099;&#1081; story_id</text><path d="M3569.5898,1716.5186 L3569.5898,1803.5156 L3532.0898,1811.0156 L3569.5898,1818.5156 L3569.5898,1905.5127 A0,0 0 0 0 3569.5898,1905.5127 L3912.7148,1905.5127 A0,0 0 0 0 3912.7148,1905.5127 L3912.7148,1735.2686 L3893.9648,1716.5186 L3569.5898,1716.5186 A0,0 0 0 0 3569.5898,1716.5186 " fill="#F7FAFC" style="stroke:#BCC9D6;stroke-width:0.9375;"/><path d="M3893.9648,1716.5186 L3893.9648,1735.2686 L3912.7148,1735.2686 L3893.9648,1716.5186 " fill="#F7FAFC" style="stroke:#BCC9D6;stroke-width:0.9375;"/><text fill="#334155" font-family="Arial" font-size="24.375" lengthAdjust="spacing" textLength="303.75" x="3580.8398" y="1748.519">Builder &#1074;&#1089;&#1105; &#1088;&#1072;&#1074;&#1085;&#1086; &#1074;&#1077;&#1076;&#1105;&#1090;</text><text fill="#334155" font-family="Arial" font-size="24.375" lengthAdjust="spacing" textLength="292.5" x="3580.8398" y="1776.893">&#1076;&#1072;&#1083;&#1100;&#1096;&#1077; &#1074; genre_router.</text><text fill="#334155" font-family="Arial" font-size="24.375" lengthAdjust="spacing" textLength="7.5" x="3580.8398" y="1805.267">&#160;</text><text fill="#334155" font-family="Arial" font-size="24.375" lengthAdjust="spacing" textLength="277.5" x="3580.8398" y="1833.6411">&#1043;&#1077;&#1085;&#1077;&#1088;&#1072;&#1094;&#1080;&#1103; &#1074;&#1086;&#1079;&#1084;&#1086;&#1078;&#1085;&#1072;,</text><text fill="#334155" font-family="Arial" font-size="24.375" lengthAdjust="spacing" textLength="258.75" x="3580.8398" y="1862.0151">&#1085;&#1086; persistent story_id</text><text fill="#334155" font-family="Arial" font-size="24.375" lengthAdjust="spacing" textLength="135" x="3580.8398" y="1890.3891">&#1085;&#1077; &#1089;&#1086;&#1079;&#1076;&#1072;&#1085;.</text><rect fill="#F3E2D3" height="65.874" rx="23.4375" ry="23.4375" style="stroke:#60758A;stroke-width:0.9375;" width="451.875" x="3080.2148" y="1778.0786"/><text fill="#1F2937" font-family="Arial" font-size="24.375" lengthAdjust="spacing" textLength="414.375" x="3098.9648" y="1819.454">status = story_project_unavailable</text><polygon fill="#EEF4FA" points="2874.9023,1916.7627,2897.4023,1939.2627,2874.9023,1961.7627,2852.4023,1939.2627,2874.9023,1916.7627" style="stroke:#71859B;stroke-width:0.9375;"/><polygon fill="#EEF4FA" points="2444.5898,1973.0127,2467.0898,1995.5127,2444.5898,2018.0127,2422.0898,1995.5127,2444.5898,1973.0127" style="stroke:#71859B;stroke-width:0.9375;"/><rect fill="#C2E1D7" height="65.874" rx="23.4375" ry="23.4375" style="stroke:#60758A;stroke-width:0.9375;" width="193.125" x="2348.0273" y="2055.5127"/><text fill="#1F2937" font-family="Arial" font-size="24.375" lengthAdjust="spacing" textLength="155.625" x="2366.7773" y="2096.8881">genre_router</text><ellipse cx="2444.5898" cy="2179.5117" fill="none" rx="20.625" ry="20.625" style="stroke:#222222;stroke-width:1.875;"/><ellipse cx="2444.5898" cy="2179.5117" fill="#222222" rx="11.25" ry="11.25" style="stroke:#222222;stroke-width:1.875;"/><line style="stroke:#61758A;stroke-width:1.875;" x1="2444.5898" x2="2444.5898" y1="134.9121" y2="172.4121"/><polygon fill="#61758A" points="2437.0898,153.6621,2444.5898,172.4121,2452.0898,153.6621,2444.5898,161.1621" style="stroke:#61758A;stroke-width:1.875;"/><line style="stroke:#61758A;stroke-width:1.875;" x1="1742.8125" x2="1742.8125" y1="888.0322" y2="953.6572"/><polygon fill="#61758A" points="1735.3125,934.9072,1742.8125,953.6572,1750.3125,934.9072,1742.8125,942.4072" style="stroke:#61758A;stroke-width:1.875;"/><line style="stroke:#61758A;stroke-width:1.875;" x1="1167.6563" x2="969.375" y1="752.5342" y2="752.5342"/><line style="stroke:#61758A;stroke-width:1.875;" x1="969.375" x2="969.375" y1="752.5342" y2="812.7832"/><polygon fill="#61758A" points="961.875,794.0332,969.375,812.7832,976.875,794.0332,969.375,801.5332" style="stroke:#61758A;stroke-width:1.875;"/><line style="stroke:#61758A;stroke-width:1.875;" x1="1544.5313" x2="1742.8125" y1="752.5342" y2="752.5342"/><line style="stroke:#61758A;stroke-width:1.875;" x1="1742.8125" x2="1742.8125" y1="752.5342" y2="793.7842"/><polygon fill="#61758A" points="1735.3125,775.0342,1742.8125,793.7842,1750.3125,775.0342,1742.8125,782.5342" style="stroke:#61758A;stroke-width:1.875;"/><line style="stroke:#61758A;stroke-width:1.875;" x1="969.375" x2="969.375" y1="878.6572" y2="1066.2744"/><line style="stroke:#61758A;stroke-width:1.875;" x1="969.375" x2="785.8594" y1="1066.2744" y2="1066.2744"/><polygon fill="#61758A" points="804.6094,1058.7744,785.8594,1066.2744,804.6094,1073.7744,797.1094,1066.2744" style="stroke:#61758A;stroke-width:1.875;"/><line style="stroke:#61758A;stroke-width:1.875;" x1="658.3594" x2="170.625" y1="688.7842" y2="688.7842"/><line style="stroke:#61758A;stroke-width:1.875;" x1="170.625" x2="170.625" y1="688.7842" y2="848.3423"/><polygon fill="#61758A" points="163.125,829.5923,170.625,848.3423,178.125,829.5923,170.625,837.0923" style="stroke:#61758A;stroke-width:1.875;"/><line style="stroke:#61758A;stroke-width:1.875;" x1="868.3594" x2="1356.0938" y1="688.7842" y2="688.7842"/><line style="stroke:#61758A;stroke-width:1.875;" x1="1356.0938" x2="1356.0938" y1="688.7842" y2="730.0342"/><polygon fill="#61758A" points="1348.5938,711.2842,1356.0938,730.0342,1363.5938,711.2842,1356.0938,718.7842" style="stroke:#61758A;stroke-width:1.875;"/><line style="stroke:#61758A;stroke-width:1.875;" x1="170.625" x2="170.625" y1="914.2163" y2="1066.2744"/><line style="stroke:#61758A;stroke-width:1.875;" x1="170.625" x2="740.8594" y1="1066.2744" y2="1066.2744"/><polygon fill="#61758A" points="722.1094,1058.7744,740.8594,1066.2744,722.1094,1073.7744,729.6094,1066.2744" style="stroke:#61758A;stroke-width:1.875;"/><line style="stroke:#61758A;stroke-width:1.875;" x1="763.3594" x2="763.3594" y1="600.6592" y2="666.2842"/><polygon fill="#61758A" points="755.8594,647.5342,763.3594,666.2842,770.8594,647.5342,763.3594,655.0342" style="stroke:#61758A;stroke-width:1.875;"/><line style="stroke:#61758A;stroke-width:1.875;" x1="1408.2422" x2="763.3594" y1="493.5352" y2="493.5352"/><line style="stroke:#61758A;stroke-width:1.875;" x1="763.3594" x2="763.3594" y1="493.5352" y2="534.7852"/><polygon fill="#61758A" points="755.8594,516.0352,763.3594,534.7852,770.8594,516.0352,763.3594,523.5352" style="stroke:#61758A;stroke-width:1.875;"/><line style="stroke:#61758A;stroke-width:1.875;" x1="1811.3672" x2="2433.75" y1="493.5352" y2="493.5352"/><line style="stroke:#61758A;stroke-width:1.875;" x1="2433.75" x2="2433.75" y1="493.5352" y2="553.7842"/><polygon fill="#61758A" points="2426.25,535.0342,2433.75,553.7842,2441.25,535.0342,2433.75,542.5342" style="stroke:#61758A;stroke-width:1.875;"/><line style="stroke:#61758A;stroke-width:1.875;" x1="763.3594" x2="763.3594" y1="1088.7744" y2="1122.5244"/><line style="stroke:#61758A;stroke-width:1.875;" x1="763.3594" x2="1587.3047" y1="1122.5244" y2="1122.5244"/><polygon fill="#61758A" points="1568.5547,1115.0244,1587.3047,1122.5244,1568.5547,1130.0244,1576.0547,1122.5244" style="stroke:#61758A;stroke-width:1.875;"/><line style="stroke:#61758A;stroke-width:1.875;" x1="2433.75" x2="2433.75" y1="619.6582" y2="1122.5244"/><line style="stroke:#61758A;stroke-width:1.875;" x1="2433.75" x2="1632.3047" y1="1122.5244" y2="1122.5244"/><polygon fill="#61758A" points="1651.0547,1115.0244,1632.3047,1122.5244,1651.0547,1130.0244,1643.5547,1122.5244" style="stroke:#61758A;stroke-width:1.875;"/><line style="stroke:#61758A;stroke-width:1.875;" x1="1609.8047" x2="1609.8047" y1="405.4102" y2="471.0352"/><polygon fill="#61758A" points="1602.3047,452.2852,1609.8047,471.0352,1617.3047,452.2852,1609.8047,459.7852" style="stroke:#61758A;stroke-width:1.875;"/><line style="stroke:#61758A;stroke-width:1.875;" x1="2310.5273" x2="1609.8047" y1="298.2861" y2="298.2861"/><line style="stroke:#61758A;stroke-width:1.875;" x1="1609.8047" x2="1609.8047" y1="298.2861" y2="339.5361"/><polygon fill="#61758A" points="1602.3047,320.7861,1609.8047,339.5361,1617.3047,320.7861,1609.8047,328.2861" style="stroke:#61758A;stroke-width:1.875;"/><line style="stroke:#61758A;stroke-width:1.875;" x1="2578.6523" x2="3301.875" y1="298.2861" y2="298.2861"/><line style="stroke:#61758A;stroke-width:1.875;" x1="3301.875" x2="3301.875" y1="298.2861" y2="339.5361"/><polygon fill="#61758A" points="3294.375,320.7861,3301.875,339.5361,3309.375,320.7861,3301.875,328.2861" style="stroke:#61758A;stroke-width:1.875;"/><line style="stroke:#61758A;stroke-width:1.875;" x1="1609.8047" x2="1609.8047" y1="1145.0244" y2="1178.7744"/><line style="stroke:#61758A;stroke-width:1.875;" x1="1609.8047" x2="2422.0898" y1="1178.7744" y2="1178.7744"/><polygon fill="#61758A" points="2403.3398,1171.2744,2422.0898,1178.7744,2403.3398,1186.2744,2410.8398,1178.7744" style="stroke:#61758A;stroke-width:1.875;"/><line style="stroke:#61758A;stroke-width:1.875;" x1="3301.875" x2="3301.875" y1="462.1582" y2="1178.7744"/><line style="stroke:#61758A;stroke-width:1.875;" x1="3301.875" x2="2467.0898" y1="1178.7744" y2="1178.7744"/><polygon fill="#61758A" points="2485.8398,1171.2744,2467.0898,1178.7744,2485.8398,1186.2744,2478.3398,1178.7744" style="stroke:#61758A;stroke-width:1.875;"/><line style="stroke:#61758A;stroke-width:1.875;" x1="2444.5898" x2="2444.5898" y1="238.2861" y2="275.7861"/><polygon fill="#61758A" points="2437.0898,257.0361,2444.5898,275.7861,2452.0898,257.0361,2444.5898,264.5361" style="stroke:#61758A;stroke-width:1.875;"/><line style="stroke:#61758A;stroke-width:1.875;" x1="2444.5898" x2="2444.5898" y1="1201.2744" y2="1238.7744"/><polygon fill="#61758A" points="2437.0898,1220.0244,2444.5898,1238.7744,2452.0898,1220.0244,2444.5898,1227.5244" style="stroke:#61758A;stroke-width:1.875;"/><line style="stroke:#61758A;stroke-width:1.875;" x1="2444.5898" x2="2444.5898" y1="1333.0225" y2="1370.5225"/><polygon fill="#61758A" points="2437.0898,1351.7725,2444.5898,1370.5225,2452.0898,1351.7725,2444.5898,1359.2725" style="stroke:#61758A;stroke-width:1.875;"/><line style="stroke:#61758A;stroke-width:1.875;" x1="2712.7148" x2="2443.6523" y1="1669.3945" y2="1669.3945"/><line style="stroke:#61758A;stroke-width:1.875;" x1="2443.6523" x2="2443.6523" y1="1669.3945" y2="1763.8916"/><polygon fill="#61758A" points="2436.1523,1745.1416,2443.6523,1763.8916,2451.1523,1745.1416,2443.6523,1752.6416" style="stroke:#61758A;stroke-width:1.875;"/><line style="stroke:#61758A;stroke-width:1.875;" x1="3037.0898" x2="3306.1523" y1="1669.3945" y2="1669.3945"/><line style="stroke:#61758A;stroke-width:1.875;" x1="3306.1523" x2="3306.1523" y1="1669.3945" y2="1778.0786"/><polygon fill="#61758A" points="3298.6523,1759.3286,3306.1523,1778.0786,3313.6523,1759.3286,3306.1523,1766.8286" style="stroke:#61758A;stroke-width:1.875;"/><line style="stroke:#61758A;stroke-width:1.875;" x1="2443.6523" x2="2443.6523" y1="1829.7656" y2="1939.2627"/><line style="stroke:#61758A;stroke-width:1.875;" x1="2443.6523" x2="2852.4023" y1="1939.2627" y2="1939.2627"/><polygon fill="#61758A" points="2833.6523,1931.7627,2852.4023,1939.2627,2833.6523,1946.7627,2841.1523,1939.2627" style="stroke:#61758A;stroke-width:1.875;"/><line style="stroke:#61758A;stroke-width:1.875;" x1="3306.1523" x2="3306.1523" y1="1843.9526" y2="1939.2627"/><line style="stroke:#61758A;stroke-width:1.875;" x1="3306.1523" x2="2897.4023" y1="1939.2627" y2="1939.2627"/><polygon fill="#61758A" points="2916.1523,1931.7627,2897.4023,1939.2627,2916.1523,1946.7627,2908.6523,1939.2627" style="stroke:#61758A;stroke-width:1.875;"/><line style="stroke:#61758A;stroke-width:1.875;" x1="2874.9023" x2="2874.9023" y1="1603.5205" y2="1641.0205"/><polygon fill="#61758A" points="2867.4023,1622.2705,2874.9023,1641.0205,2882.4023,1622.2705,2874.9023,1629.7705" style="stroke:#61758A;stroke-width:1.875;"/><line style="stroke:#61758A;stroke-width:1.875;" x1="2305.8398" x2="2036.7773" y1="1496.3965" y2="1496.3965"/><line style="stroke:#61758A;stroke-width:1.875;" x1="2036.7773" x2="2036.7773" y1="1496.3965" y2="1537.6465"/><polygon fill="#61758A" points="2029.2773,1518.8965,2036.7773,1537.6465,2044.2773,1518.8965,2036.7773,1526.3965" style="stroke:#61758A;stroke-width:1.875;"/><line style="stroke:#61758A;stroke-width:1.875;" x1="2583.3398" x2="2874.9023" y1="1496.3965" y2="1496.3965"/><line style="stroke:#61758A;stroke-width:1.875;" x1="2874.9023" x2="2874.9023" y1="1496.3965" y2="1537.6465"/><polygon fill="#61758A" points="2867.4023,1518.8965,2874.9023,1537.6465,2882.4023,1518.8965,2874.9023,1526.3965" style="stroke:#61758A;stroke-width:1.875;"/><line style="stroke:#61758A;stroke-width:1.875;" x1="2036.7773" x2="2036.7773" y1="1603.5205" y2="1995.5127"/><line style="stroke:#61758A;stroke-width:1.875;" x1="2036.7773" x2="2422.0898" y1="1995.5127" y2="1995.5127"/><polygon fill="#61758A" points="2403.3398,1988.0127,2422.0898,1995.5127,2403.3398,2003.0127,2410.8398,1995.5127" style="stroke:#61758A;stroke-width:1.875;"/><line style="stroke:#61758A;stroke-width:1.875;" x1="2874.9023" x2="2874.9023" y1="1961.7627" y2="1995.5127"/><line style="stroke:#61758A;stroke-width:1.875;" x1="2874.9023" x2="2467.0898" y1="1995.5127" y2="1995.5127"/><polygon fill="#61758A" points="2485.8398,1988.0127,2467.0898,1995.5127,2485.8398,2003.0127,2478.3398,1995.5127" style="stroke:#61758A;stroke-width:1.875;"/><line style="stroke:#61758A;stroke-width:1.875;" x1="2444.5898" x2="2444.5898" y1="1436.3965" y2="1473.8965"/><polygon fill="#61758A" points="2437.0898,1455.1465,2444.5898,1473.8965,2452.0898,1455.1465,2444.5898,1462.6465" style="stroke:#61758A;stroke-width:1.875;"/><line style="stroke:#61758A;stroke-width:1.875;" x1="2444.5898" x2="2444.5898" y1="2018.0127" y2="2055.5127"/><polygon fill="#61758A" points="2437.0898,2036.7627,2444.5898,2055.5127,2452.0898,2036.7627,2444.5898,2044.2627" style="stroke:#61758A;stroke-width:1.875;"/><line style="stroke:#61758A;stroke-width:1.875;" x1="2444.5898" x2="2444.5898" y1="2121.3867" y2="2158.8867"/><polygon fill="#61758A" points="2437.0898,2140.1367,2444.5898,2158.8867,2452.0898,2140.1367,2444.5898,2147.6367" style="stroke:#61758A;stroke-width:1.875;"/><rect fill="none" height="240.1465" id="_legend" rx="14.0625" ry="14.0625" style="stroke:#000000;stroke-width:1.875;" width="658.125" x="3230.2148" y="2220.7617"/><text fill="#000000" font-family="Arial" font-size="26.25" font-weight="bold" lengthAdjust="spacing" textLength="127.5" x="3248.9648" y="2258.2526">&#1054;&#1090;&#1090;&#1077;&#1085;&#1086;&#1082;</text><text fill="#000000" font-family="Arial" font-size="26.25" font-weight="bold" lengthAdjust="spacing" textLength="181.875" x="3395.2148" y="2258.2526">&#1053;&#1072;&#1079;&#1085;&#1072;&#1095;&#1077;&#1085;&#1080;&#1077;</text><rect fill="#DCE9F7" height="30.5566" style="stroke:none;stroke-width:1.875;" width="146.25" x="3239.5898" y="2264.4434"/><text fill="#000000" font-family="Arial" font-size="26.25" lengthAdjust="spacing" textLength="7.5" x="3239.5898" y="2288.8092">&#160;</text><text fill="#000000" font-family="Arial" font-size="26.25" lengthAdjust="spacing" textLength="271.875" x="3393.3398" y="2288.8092">&#1047;&#1072;&#1075;&#1088;&#1091;&#1079;&#1082;&#1072; &#1082;&#1086;&#1085;&#1090;&#1077;&#1082;&#1089;&#1090;&#1072;</text><rect fill="#C3DFE7" height="30.5566" style="stroke:none;stroke-width:1.875;" width="146.25" x="3239.5898" y="2295"/><text fill="#000000" font-family="Arial" font-size="26.25" lengthAdjust="spacing" textLength="7.5" x="3239.5898" y="2319.3658">&#160;</text><text fill="#000000" font-family="Arial" font-size="26.25" lengthAdjust="spacing" textLength="478.125" x="3393.3398" y="2319.3658">&#1050;&#1086;&#1085;&#1090;&#1077;&#1082;&#1089;&#1090; &#1089;&#1091;&#1097;&#1077;&#1089;&#1090;&#1074;&#1091;&#1102;&#1097;&#1077;&#1081; &#1080;&#1089;&#1090;&#1086;&#1088;&#1080;&#1080;</text><rect fill="#D9EDE7" height="30.5566" style="stroke:none;stroke-width:1.875;" width="146.25" x="3239.5898" y="2325.5566"/><text fill="#000000" font-family="Arial" font-size="26.25" lengthAdjust="spacing" textLength="7.5" x="3239.5898" y="2349.9225">&#160;</text><text fill="#000000" font-family="Arial" font-size="26.25" lengthAdjust="spacing" textLength="202.5" x="3393.3398" y="2349.9225">&#1053;&#1086;&#1074;&#1072;&#1103; &#1080;&#1089;&#1090;&#1086;&#1088;&#1080;&#1103;</text><rect fill="#ABD7C8" height="30.5566" style="stroke:none;stroke-width:1.875;" width="146.25" x="3239.5898" y="2356.1133"/><text fill="#000000" font-family="Arial" font-size="26.25" lengthAdjust="spacing" textLength="7.5" x="3239.5898" y="2380.4791">&#160;</text><text fill="#000000" font-family="Arial" font-size="26.25" lengthAdjust="spacing" textLength="303.75" x="3393.3398" y="2380.4791">&#1057;&#1086;&#1079;&#1076;&#1072;&#1085;&#1080;&#1077; story project</text><rect fill="#F3E2D3" height="30.5566" style="stroke:none;stroke-width:1.875;" width="146.25" x="3239.5898" y="2386.6699"/><text fill="#000000" font-family="Arial" font-size="26.25" lengthAdjust="spacing" textLength="7.5" x="3239.5898" y="2411.0358">&#160;</text><text fill="#000000" font-family="Arial" font-size="26.25" lengthAdjust="spacing" textLength="270" x="3393.3398" y="2411.0358">Graceful degradation</text><rect fill="#F4D9D9" height="30.5566" style="stroke:none;stroke-width:1.875;" width="146.25" x="3239.5898" y="2417.2266"/><text fill="#000000" font-family="Arial" font-size="26.25" lengthAdjust="spacing" textLength="7.5" x="3239.5898" y="2441.5924">&#160;</text><text fill="#000000" font-family="Arial" font-size="26.25" lengthAdjust="spacing" textLength="453.75" x="3393.3398" y="2441.5924">Story &#1085;&#1077; &#1089;&#1091;&#1097;&#1077;&#1089;&#1090;&#1074;&#1091;&#1077;&#1090; -&gt; HTTP 404</text><line style="stroke:#000000;stroke-width:1.875;" x1="3239.5898" x2="3878.9648" y1="2233.8867" y2="2233.8867"/><line style="stroke:#000000;stroke-width:1.875;" x1="3239.5898" x2="3878.9648" y1="2264.4434" y2="2264.4434"/><line style="stroke:#000000;stroke-width:1.875;" x1="3239.5898" x2="3878.9648" y1="2295" y2="2295"/><line style="stroke:#000000;stroke-width:1.875;" x1="3239.5898" x2="3878.9648" y1="2325.5566" y2="2325.5566"/><line style="stroke:#000000;stroke-width:1.875;" x1="3239.5898" x2="3878.9648" y1="2356.1133" y2="2356.1133"/><line style="stroke:#000000;stroke-width:1.875;" x1="3239.5898" x2="3878.9648" y1="2386.6699" y2="2386.6699"/><line style="stroke:#000000;stroke-width:1.875;" x1="3239.5898" x2="3878.9648" y1="2417.2266" y2="2417.2266"/><line style="stroke:#000000;stroke-width:1.875;" x1="3239.5898" x2="3878.9648" y1="2447.7832" y2="2447.7832"/><line style="stroke:#000000;stroke-width:1.875;" x1="3239.5898" x2="3239.5898" y1="2233.8867" y2="2447.7832"/><line style="stroke:#000000;stroke-width:1.875;" x1="3385.8398" x2="3385.8398" y1="2233.8867" y2="2447.7832"/><line style="stroke:#000000;stroke-width:1.875;" x1="3878.9648" x2="3878.9648" y1="2233.8867" y2="2447.7832"/><!--SRC=[dLTjJnj74Fv-ls8bVm6reVZTFfTKzhqqaTeA2THFIDR6NfihvpltxWob8L80qHSrAehweLAbL4f_WKFYO22uVs7l7tLcruOxtm6XHk9ykpEpiy_CF3CEhC1cXF_9X_nj-3myvAVyd0y97nF-Bv_mT_mjduG7yEr4hf_3rqjO6F7pS1-Ui7J1nxWGFkV3y20yXESb284Uc82NYP05IKNnjoodJptQ8qzeQwlhkGEdhRcswv6CgS6V7f7mDsdRtR6SBkbGssUHdNRV8jdAScH5Pnqwi0FJTO9lQ8-HkcTHEtr_pVgHaMm-ihcE25nlLTAsfaxc2lbIeH4Hg7kUkpFTB6NBnKezUadQ2gnjAzWbJnK2duRhjPataruMqhWUEI1hvghvibZLBTfpdNPCgPoj5AkDsFOyZePX5inwL2JfFswk1TIRBPVobKgZ89QDAqEbNBrKpodFeXTot83DBfC8ODcicrhoeWrDg-gb-OlcyuLiiIYieoEAaj4resgMLTkbxQOVkDvkimNYx8UWfYXMXop8DQkDUOcvDeBS7FBBBnP9iCaSie2lYueu9wCNZAAPLxiiQFPQ_MRWkhRVz6c7sRirAO8MSJjs4W4R4yngA0Cu9DsuE41h63d3K1CMhhnSh5rBuraTH8giaC0Ri9kiIijvtJJAQgmWeRp25udIgyKrHMmygxiPn9P5h7STj-zRFiGSP4HTNq2T_Wn7ZC83DI7_WCXh19Z-ARjzZ_Kidv473udLPZH5eiiSZwNQtKsrQ5EdEw1TTgChFTQ3nntRpMtc-PRhA0cvM92Qc6Di5esOB8CW8P3N5XXm3qJg4f6QYnN6rMC-4CiI0nxm9DsD8JQ7430annC87-ZT5d0HT3DlvFIy6lTouD1jQjdqYSrgIPrRmeqV_WySV0HkZo7Cet0VoJiy9f3Ul_0nVoEu_6jjzJEzeQRgxxZULiTsTsOK_WvpXh-N6KEGwi7812ibLJtSHyL30SA4dn4PdwM4R1BlEp2NS1NqgbvLlwNsW1c8lBhXh25sQ8k8Khi_OYRrW_hgOtdX4NZzHjpoL8OmLUNQ0S9FoAFrzLLIM2vyx2sdUTcVJq2heyJVb5imkK_gt030Eh0ZGSFpx1VFZF-P4R0uugS4M6p6P-_HjXWHpf2BXln3U0nfCbvIql6QWf02G4Ql6ZgGPPG3eAgVFjjmqcW1jfPdEmag44C6W3KzBQELZRAkgotNjbahQ7hi-u45jCUSmDzm5ZuXZnwlVpKjU0aU9ioHm6NCFqWW-HZR07H08wiNLERu0uzD-qNVSxy3k_EzJS93i6AHyrERMwEeQve9bwR1m0VFOmR1KTh69fS6LxsXbxMAoby1w6Ve7cc1U33rAT8Peyk9fhZXN2csLsxhPvbwGSzfMPM_1WD78aCkPxqCmtyI_WOfCBlxtOaAd3O4uaA0fjI21eSmcS842l-7uU-2Tu_ZYNjJBqjapOsxqGHIxjjMvfBvhZ9E3Ugzwhani6mOlu2I08kNiZ9F471OmI8FNyxHcHYaBi8Nq1f6I6IYUJTXjWkOjnJdBFw7A5uvw_y4mJn6enEeRaXvY0o4uzEu0fxRH_Zy06hdAjhpGX3IVM5737MtKy5LYUQWhifgrDqQpfD0gOhDkgWgqTbR8VnlI8q3uVo4dnDSmIeuHO-nGs9cWXDxojxdqqdquLxAhwBahn-X8OSsrFWhBa34CF2hh6SS1o15uGsPRooR8n88r9CyMD0PcdabVd29ZXsHWrSX9-iOvLvVOoRybnKxJHifB3CBXB_qQ8jr1ZPfiwv7spJ0Z9OYef-2Y6oYqt347HSi3mFVhCk19W0iOLR-0m00]--></g></svg>