<?xml version="1.0" encoding="us-ascii" standalone="no"?><svg xmlns="http://www.w3.org/2000/svg" xmlns:xlink="http://www.w3.org/1999/xlink" contentStyleType="text/css" height="2994.375px" preserveAspectRatio="none" style="width:1978px;height:2994px;background:#FCFCFD;" version="1.1" viewBox="0 0 1978 2994" width="1978.125px" zoomAndPan="magnify"><defs/><g><rect fill="#FCFCFD" height="2994.375" style="stroke:none;stroke-width:1.875;" width="1978.125" x="0" y="0"/><text fill="#26364A" font-family="Arial" font-size="33.75" font-weight="bold" lengthAdjust="spacing" textLength="1091.25" x="440.9766" y="68.8275">Synopsis Generator &#8212; &#1092;&#1072;&#1082;&#1090;&#1080;&#1095;&#1077;&#1089;&#1082;&#1080;&#1081; LangGraph workflow</text><ellipse cx="752.3438" cy="116.1621" fill="#6388B4" rx="18.75" ry="18.75" style="stroke:#222222;stroke-width:1.875;"/><path d="M922.0313,153.6621 L922.0313,297.4072 L884.5313,304.9072 L922.0313,312.4072 L922.0313,456.1523 A0,0 0 0 0 922.0313,456.1523 L1495.7813,456.1523 A0,0 0 0 0 1495.7813,456.1523 L1495.7813,172.4121 L1477.0313,153.6621 L922.0313,153.6621 A0,0 0 0 0 922.0313,153.6621 " fill="#F8FAFC" style="stroke:#BCC8D4;stroke-width:0.9375;"/><path d="M1477.0313,153.6621 L1477.0313,172.4121 L1495.7813,172.4121 L1477.0313,153.6621 " fill="#F8FAFC" style="stroke:#BCC8D4;stroke-width:0.9375;"/><text fill="#334155" font-family="Arial" font-size="24.375" lengthAdjust="spacing" textLength="273.75" x="933.2813" y="185.6625">story_id &#1086;&#1090;&#1089;&#1091;&#1090;&#1089;&#1090;&#1074;&#1091;&#1077;&#1090;:</text><text fill="#334155" font-family="Arial" font-size="24.375" lengthAdjust="spacing" textLength="324.375" x="933.2813" y="214.0366">&#1087;&#1072;&#1084;&#1103;&#1090;&#1100; &#1086;&#1089;&#1090;&#1072;&#1105;&#1090;&#1089;&#1103; &#1087;&#1091;&#1089;&#1090;&#1086;&#1081;.</text><text fill="#334155" font-family="Arial" font-size="24.375" lengthAdjust="spacing" textLength="7.5" x="933.2813" y="242.4106">&#160;</text><text fill="#334155" font-family="Arial" font-size="24.375" lengthAdjust="spacing" textLength="262.5" x="933.2813" y="270.7846">story_id &#1089;&#1091;&#1097;&#1077;&#1089;&#1090;&#1074;&#1091;&#1077;&#1090;:</text><text fill="#334155" font-family="Arial" font-size="24.375" lengthAdjust="spacing" textLength="348.75" x="933.2813" y="299.1586">get_story_context &#1087;&#1099;&#1090;&#1072;&#1077;&#1090;&#1089;&#1103;</text><text fill="#334155" font-family="Arial" font-size="24.375" lengthAdjust="spacing" textLength="326.25" x="933.2813" y="327.5327">&#1079;&#1072;&#1075;&#1088;&#1091;&#1079;&#1080;&#1090;&#1100; premise, genre,</text><text fill="#334155" font-family="Arial" font-size="24.375" lengthAdjust="spacing" textLength="320.625" x="933.2813" y="355.9067">style, language &#1080; memory.</text><text fill="#334155" font-family="Arial" font-size="24.375" lengthAdjust="spacing" textLength="7.5" x="933.2813" y="384.2807">&#160;</text><text fill="#334155" font-family="Arial" font-size="24.375" lengthAdjust="spacing" textLength="337.5" x="933.2813" y="412.6547">&#1053;&#1077; &#1085;&#1072;&#1081;&#1076;&#1077;&#1085;&#1085;&#1099;&#1081; story_id &#1087;&#1088;&#1080;</text><text fill="#334155" font-family="Arial" font-size="24.375" lengthAdjust="spacing" textLength="534.375" x="933.2813" y="441.0287">&#1076;&#1086;&#1089;&#1090;&#1091;&#1087;&#1085;&#1086;&#1084; MCP -&gt; ValueError -&gt; HTTP 404.</text><rect fill="#DCE9F7" height="65.874" rx="23.4375" ry="23.4375" style="stroke:#60758A;stroke-width:0.9375;" width="264.375" x="620.1563" y="271.9702"/><text fill="#1F2937" font-family="Arial" font-size="24.375" lengthAdjust="spacing" textLength="226.875" x="638.9063" y="313.3456">load_story_context</text><rect fill="#D5E5F3" height="65.874" rx="23.4375" ry="23.4375" style="stroke:#60758A;stroke-width:0.9375;" width="288.75" x="607.9688" y="493.6523"/><text fill="#1F2937" font-family="Arial" font-size="24.375" lengthAdjust="spacing" textLength="251.25" x="626.7188" y="535.0278">collect_requirements</text><polygon fill="#EEF3F8" points="602.3438,597.0264,902.3438,597.0264,924.8438,619.5264,902.3438,642.0264,602.3438,642.0264,579.8438,619.5264,602.3438,597.0264" style="stroke:#74879B;stroke-width:0.9375;"/><text fill="#24364B" font-family="Arial" font-size="24.375" lengthAdjust="spacing" textLength="300" x="602.3438" y="627.9648">requirements_complete?</text><text fill="#000000" font-family="Arial" font-size="24.375" lengthAdjust="spacing" textLength="33.75" x="546.0938" y="613.7778">&#1076;&#1072;</text><text fill="#000000" font-family="Arial" font-size="24.375" lengthAdjust="spacing" textLength="46.875" x="924.8438" y="613.7778">&#1085;&#1077;&#1090;</text><rect fill="#CFE3EE" height="65.874" rx="23.4375" ry="23.4375" style="stroke:#60758A;stroke-width:0.9375;" width="288.75" x="317.5781" y="660.7764"/><text fill="#1F2937" font-family="Arial" font-size="24.375" lengthAdjust="spacing" textLength="251.25" x="336.3281" y="702.1518">ensure_story_project</text><polygon fill="#EEF3F8" points="910.5469,660.7764,1174.9219,660.7764,1197.4219,689.1504,1174.9219,717.5244,910.5469,717.5244,888.0469,689.1504,910.5469,660.7764" style="stroke:#74879B;stroke-width:0.9375;"/><text fill="#24364B" font-family="Arial" font-size="24.375" lengthAdjust="spacing" textLength="264.375" x="910.5469" y="683.4018">clarification_count &gt;=</text><text fill="#24364B" font-family="Arial" font-size="24.375" lengthAdjust="spacing" textLength="226.875" x="910.5469" y="711.7758">max_clarifications?</text><text fill="#000000" font-family="Arial" font-size="24.375" lengthAdjust="spacing" textLength="33.75" x="854.2969" y="683.4018">&#1076;&#1072;</text><text fill="#000000" font-family="Arial" font-size="24.375" lengthAdjust="spacing" textLength="46.875" x="1197.4219" y="683.4018">&#1085;&#1077;&#1090;</text><rect fill="#F0D8D8" height="65.874" rx="23.4375" ry="23.4375" style="stroke:#60758A;stroke-width:0.9375;" width="346.875" x="662.5781" y="736.2744"/><text fill="#1F2937" font-family="Arial" font-size="24.375" lengthAdjust="spacing" textLength="309.375" x="681.3281" y="777.6498">clarification_limit_reached</text><ellipse cx="836.0156" cy="860.2734" fill="none" rx="20.625" ry="20.625" style="stroke:#222222;stroke-width:1.875;"/><ellipse cx="836.0156" cy="860.2734" fill="#222222" rx="11.25" ry="11.25" style="stroke:#222222;stroke-width:1.875;"/><rect fill="#E8E0F1" height="65.874" rx="23.4375" ry="23.4375" style="stroke:#60758A;stroke-width:0.9375;" width="277.5" x="1110.7031" y="736.2744"/><text fill="#1F2937" font-family="Arial" font-size="24.375" lengthAdjust="spacing" textLength="240" x="1129.4531" y="777.6498">request_clarification</text><path d="M1425.7031,839.6484 L1425.7031,912.4585 L1388.2031,919.9585 L1425.7031,927.4585 L1425.7031,1000.2686 A0,0 0 0 0 1425.7031,1000.2686 L1853.2031,1000.2686 A0,0 0 0 0 1853.2031,1000.2686 L1853.2031,858.3984 L1834.4531,839.6484 L1425.7031,839.6484 A0,0 0 0 0 1425.7031,839.6484 " fill="#F8FAFC" style="stroke:#BCC8D4;stroke-width:0.9375;"/><path d="M1834.4531,839.6484 L1834.4531,858.3984 L1853.2031,858.3984 L1834.4531,839.6484 " fill="#F8FAFC" style="stroke:#BCC8D4;stroke-width:0.9375;"/><text fill="#334155" font-family="Arial" font-size="24.375" lengthAdjust="spacing" textLength="388.125" x="1436.9531" y="871.6489">Workflow &#1087;&#1088;&#1080;&#1086;&#1089;&#1090;&#1072;&#1085;&#1072;&#1074;&#1083;&#1080;&#1074;&#1072;&#1077;&#1090;&#1089;&#1103;.</text><text fill="#334155" font-family="Arial" font-size="24.375" lengthAdjust="spacing" textLength="210" x="1436.9531" y="900.0229">API &#1074;&#1086;&#1079;&#1074;&#1088;&#1072;&#1097;&#1072;&#1077;&#1090;:</text><text fill="#334155" font-family="Arial" font-size="24.375" lengthAdjust="spacing" textLength="217.5" x="1436.9531" y="928.3969">interrupted = true</text><text fill="#334155" font-family="Arial" font-size="24.375" lengthAdjust="spacing" textLength="331.875" x="1436.9531" y="956.7709">status = needs_clarification</text><text fill="#334155" font-family="Arial" font-size="24.375" lengthAdjust="spacing" textLength="112.5" x="1436.9531" y="985.145">thread_id</text><rect fill="#DED9EE" height="94.248" rx="23.4375" ry="23.4375" style="stroke:#60758A;stroke-width:0.9375;" width="277.5" x="1110.7031" y="872.8345"/><text fill="#1F2937" font-family="Arial" font-size="24.375" lengthAdjust="spacing" textLength="240" x="1129.4531" y="914.2099">wait_for_clarification</text><text fill="#1F2937" font-family="Arial" font-size="24.375" lengthAdjust="spacing" textLength="121.875" x="1129.4531" y="942.5839">interrupt()</text><path d="M1489.4531,1019.0186 L1489.4531,1091.8286 L1451.9531,1099.3286 L1489.4531,1106.8286 L1489.4531,1179.6387 A0,0 0 0 0 1489.4531,1179.6387 L1956.3281,1179.6387 A0,0 0 0 0 1956.3281,1179.6387 L1956.3281,1037.7686 L1937.5781,1019.0186 L1489.4531,1019.0186 A0,0 0 0 0 1489.4531,1019.0186 " fill="#F8FAFC" style="stroke:#BCC8D4;stroke-width:0.9375;"/><path d="M1937.5781,1019.0186 L1937.5781,1037.7686 L1956.3281,1037.7686 L1937.5781,1019.0186 " fill="#F8FAFC" style="stroke:#BCC8D4;stroke-width:0.9375;"/><text fill="#334155" font-family="Arial" font-size="24.375" lengthAdjust="spacing" textLength="240" x="1500.7031" y="1051.019">wait_for_clarification</text><text fill="#334155" font-family="Arial" font-size="24.375" lengthAdjust="spacing" textLength="262.5" x="1500.7031" y="1079.393">&#1079;&#1072;&#1087;&#1091;&#1089;&#1082;&#1072;&#1077;&#1090;&#1089;&#1103; &#1079;&#1072;&#1085;&#1086;&#1074;&#1086;.</text><text fill="#334155" font-family="Arial" font-size="24.375" lengthAdjust="spacing" textLength="427.5" x="1500.7031" y="1107.767">interrupt() &#1087;&#1086;&#1083;&#1091;&#1095;&#1072;&#1077;&#1090; resume value,</text><text fill="#334155" font-family="Arial" font-size="24.375" lengthAdjust="spacing" textLength="401.25" x="1500.7031" y="1136.1411">&#1086;&#1073;&#1085;&#1086;&#1074;&#1083;&#1103;&#1077;&#1090; latest_user_message</text><text fill="#334155" font-family="Arial" font-size="24.375" lengthAdjust="spacing" textLength="418.125" x="1500.7031" y="1164.5151">&#1080; &#1091;&#1074;&#1077;&#1083;&#1080;&#1095;&#1080;&#1074;&#1072;&#1077;&#1090; clarification_count.</text><rect fill="#D7D3E9" height="94.248" rx="23.4375" ry="23.4375" style="stroke:#60758A;stroke-width:0.9375;" width="405" x="1046.9531" y="1052.2046"/><text fill="#1F2937" font-family="Arial" font-size="24.375" lengthAdjust="spacing" textLength="367.5" x="1065.7031" y="1093.58">Command(resume=message)</text><text fill="#1F2937" font-family="Arial" font-size="24.375" lengthAdjust="spacing" textLength="213.75" x="1065.7031" y="1121.954">&#1090;&#1086;&#1090; &#1078;&#1077; thread_id</text><rect fill="#D5E5F3" height="65.874" rx="23.4375" ry="23.4375" style="stroke:#60758A;stroke-width:0.9375;" width="288.75" x="1105.0781" y="1217.1387"/><text fill="#1F2937" font-family="Arial" font-size="24.375" lengthAdjust="spacing" textLength="251.25" x="1123.8281" y="1258.5141">collect_requirements</text><polygon fill="#EEF3F8" points="752.3438,1301.7627,774.8438,1324.2627,752.3438,1346.7627,729.8438,1324.2627,752.3438,1301.7627" style="stroke:#74879B;stroke-width:0.9375;"/><path d="M886.4063,1365.5127 L886.4063,1438.3228 L848.9063,1445.8228 L886.4063,1453.3228 L886.4063,1526.1328 A0,0 0 0 0 886.4063,1526.1328 L1282.0313,1526.1328 A0,0 0 0 0 1282.0313,1526.1328 L1282.0313,1384.2627 L1263.2813,1365.5127 L886.4063,1365.5127 A0,0 0 0 0 886.4063,1365.5127 " fill="#F8FAFC" style="stroke:#BCC8D4;stroke-width:0.9375;"/><path d="M1263.2813,1365.5127 L1263.2813,1384.2627 L1282.0313,1384.2627 L1263.2813,1365.5127 " fill="#F8FAFC" style="stroke:#BCC8D4;stroke-width:0.9375;"/><text fill="#334155" font-family="Arial" font-size="24.375" lengthAdjust="spacing" textLength="315" x="897.6563" y="1397.5131">genre_router &#1079;&#1072;&#1087;&#1080;&#1089;&#1099;&#1074;&#1072;&#1077;&#1090;</text><text fill="#334155" font-family="Arial" font-size="24.375" lengthAdjust="spacing" textLength="187.5" x="897.6563" y="1425.8871">selected_writer.</text><text fill="#334155" font-family="Arial" font-size="24.375" lengthAdjust="spacing" textLength="7.5" x="897.6563" y="1454.2612">&#160;</text><text fill="#334155" font-family="Arial" font-size="24.375" lengthAdjust="spacing" textLength="339.375" x="897.6563" y="1482.6352">route_to_writer &#1085;&#1072;&#1087;&#1088;&#1072;&#1074;&#1083;&#1103;&#1077;&#1090;</text><text fill="#334155" font-family="Arial" font-size="24.375" lengthAdjust="spacing" textLength="356.25" x="897.6563" y="1511.0092">&#1074; &#1086;&#1076;&#1080;&#1085; &#1080;&#1079; &#1087;&#1103;&#1090;&#1080; Writer-&#1091;&#1079;&#1083;&#1086;&#1074;.</text><rect fill="#C6E0E8" height="65.874" rx="23.4375" ry="23.4375" style="stroke:#60758A;stroke-width:0.9375;" width="193.125" x="655.7813" y="1412.8857"/><text fill="#1F2937" font-family="Arial" font-size="24.375" lengthAdjust="spacing" textLength="155.625" x="674.5313" y="1454.2612">genre_router</text><polygon fill="#EEF3F8" points="662.3438,1646.1328,842.3438,1646.1328,864.8438,1668.6328,842.3438,1691.1328,662.3438,1691.1328,639.8438,1668.6328,662.3438,1646.1328" style="stroke:#74879B;stroke-width:0.9375;"/><text fill="#24364B" font-family="Arial" font-size="24.375" lengthAdjust="spacing" textLength="180" x="662.3438" y="1677.0712">selected_writer</text><rect fill="#C9DDF1" height="65.874" rx="23.4375" ry="23.4375" style="stroke:#60758A;stroke-width:0.9375;" width="204.375" x="20.625" y="1766.6309"/><text fill="#1F2937" font-family="Arial" font-size="24.375" lengthAdjust="spacing" textLength="166.875" x="39.375" y="1808.0063">fantasy_writer</text><rect fill="#D1D9F0" height="65.874" rx="23.4375" ry="23.4375" style="stroke:#60758A;stroke-width:0.9375;" width="195" x="308.4375" y="1766.6309"/><text fill="#1F2937" font-family="Arial" font-size="24.375" lengthAdjust="spacing" textLength="157.5" x="327.1875" y="1808.0063">drama_writer</text><rect fill="#D9D4EC" height="65.874" rx="23.4375" ry="23.4375" style="stroke:#60758A;stroke-width:0.9375;" width="191.25" x="600.9375" y="1766.6309"/><text fill="#1F2937" font-family="Arial" font-size="24.375" lengthAdjust="spacing" textLength="153.75" x="619.6875" y="1808.0063">thriller_writer</text><rect fill="#E2D2E6" height="65.874" rx="23.4375" ry="23.4375" style="stroke:#60758A;stroke-width:0.9375;" width="211.875" x="887.8125" y="1766.6309"/><text fill="#1F2937" font-family="Arial" font-size="24.375" lengthAdjust="spacing" textLength="174.375" x="906.5625" y="1808.0063">comedy_writer</text><rect fill="#E8D5DF" height="65.874" rx="23.4375" ry="23.4375" style="stroke:#60758A;stroke-width:0.9375;" width="223.125" x="1205.625" y="1766.6309"/><text fill="#1F2937" font-family="Arial" font-size="24.375" lengthAdjust="spacing" textLength="185.625" x="1224.375" y="1808.0063">universal_writer</text><polygon fill="#EEF3F8" points="752.3438,1907.5049,752.3438,1907.5049,774.8438,1930.0049,752.3438,1952.5049,752.3438,1952.5049,729.8438,1930.0049,752.3438,1907.5049" style="stroke:#74879B;stroke-width:0.9375;"/><path d="M836.7188,1971.2549 L836.7188,2015.6909 L799.2188,2023.1909 L836.7188,2030.6909 L836.7188,2075.127 A0,0 0 0 0 836.7188,2075.127 L1320.4688,2075.127 A0,0 0 0 0 1320.4688,2075.127 L1320.4688,1990.0049 L1301.7188,1971.2549 L836.7188,1971.2549 A0,0 0 0 0 836.7188,1971.2549 " fill="#F8FAFC" style="stroke:#BCC8D4;stroke-width:0.9375;"/><path d="M1301.7188,1971.2549 L1301.7188,1990.0049 L1320.4688,1990.0049 L1301.7188,1971.2549 " fill="#F8FAFC" style="stroke:#BCC8D4;stroke-width:0.9375;"/><text fill="#334155" font-family="Arial" font-size="24.375" lengthAdjust="spacing" textLength="444.375" x="847.9688" y="2003.2553">critique_passed = true &#1090;&#1086;&#1083;&#1100;&#1082;&#1086; &#1077;&#1089;&#1083;&#1080;:</text><text fill="#334155" font-family="Arial" font-size="24.375" lengthAdjust="spacing" textLength="238.125" x="847.9688" y="2031.6293">must_revise = false</text><text fill="#334155" font-family="Arial" font-size="24.375" lengthAdjust="spacing" textLength="198.75" x="847.9688" y="2060.0034">AND score &gt;= 8</text><rect fill="#DDDDEB" height="65.874" rx="23.4375" ry="23.4375" style="stroke:#60758A;stroke-width:0.9375;" width="93.75" x="705.4688" y="1990.2539"/><text fill="#1F2937" font-family="Arial" font-size="24.375" lengthAdjust="spacing" textLength="56.25" x="724.2188" y="2031.6293">critic</text><polygon fill="#EEF3F8" points="752.3438,1563.6328,774.8438,1586.1328,752.3438,1608.6328,729.8438,1586.1328,752.3438,1563.6328" style="stroke:#74879B;stroke-width:0.9375;"/><polygon fill="#EEF3F8" points="532.0313,2112.627,972.6563,2112.627,995.1563,2169.375,972.6563,2226.123,532.0313,2226.123,509.5313,2169.375,532.0313,2112.627" style="stroke:#74879B;stroke-width:0.9375;"/><text fill="#24364B" font-family="Arial" font-size="24.375" lengthAdjust="spacing" textLength="7.5" x="532.0313" y="2135.2524">&#160;</text><text fill="#24364B" font-family="Arial" font-size="24.375" lengthAdjust="spacing" textLength="279.375" x="532.0313" y="2163.6264">critique_passed = false</text><text fill="#24364B" font-family="Arial" font-size="24.375" lengthAdjust="spacing" textLength="440.625" x="532.0313" y="2192.0004">AND revision_count &lt; max_revisions</text><text fill="#24364B" font-family="Arial" font-size="24.375" lengthAdjust="spacing" textLength="13.125" x="532.0313" y="2220.3745">?</text><text fill="#000000" font-family="Arial" font-size="24.375" lengthAdjust="spacing" textLength="84.375" x="995.1563" y="2163.6264">REVISE</text><path d="M905.1563,2291.9971 L905.1563,2350.6201 L867.6563,2358.1201 L905.1563,2365.6201 L905.1563,2424.2432 A0,0 0 0 0 905.1563,2424.2432 L1402.0313,2424.2432 A0,0 0 0 0 1402.0313,2424.2432 L1402.0313,2310.7471 L1383.2813,2291.9971 L905.1563,2291.9971 A0,0 0 0 0 905.1563,2291.9971 " fill="#F8FAFC" style="stroke:#BCC8D4;stroke-width:0.9375;"/><path d="M1383.2813,2291.9971 L1383.2813,2310.7471 L1402.0313,2310.7471 L1383.2813,2291.9971 " fill="#F8FAFC" style="stroke:#BCC8D4;stroke-width:0.9375;"/><text fill="#334155" font-family="Arial" font-size="24.375" lengthAdjust="spacing" textLength="320.625" x="916.4063" y="2323.9975">PASS -&gt; status completed</text><text fill="#334155" font-family="Arial" font-size="24.375" lengthAdjust="spacing" textLength="7.5" x="916.4063" y="2352.3715">&#160;</text><text fill="#334155" font-family="Arial" font-size="24.375" lengthAdjust="spacing" textLength="436.875" x="916.4063" y="2380.7455">&#1051;&#1080;&#1084;&#1080;&#1090; &#1088;&#1077;&#1074;&#1080;&#1079;&#1080;&#1081; &#1087;&#1088;&#1080; &#1085;&#1077;&#1087;&#1088;&#1086;&#1081;&#1076;&#1077;&#1085;&#1085;&#1086;&#1081;</text><text fill="#334155" font-family="Arial" font-size="24.375" lengthAdjust="spacing" textLength="457.5" x="916.4063" y="2409.1196">&#1082;&#1088;&#1080;&#1090;&#1080;&#1082;&#1077; -&gt; completed_with_warnings</text><rect fill="#D5E7E9" height="65.874" rx="23.4375" ry="23.4375" style="stroke:#60758A;stroke-width:0.9375;" width="230.625" x="637.0313" y="2325.1831"/><text fill="#1F2937" font-family="Arial" font-size="24.375" lengthAdjust="spacing" textLength="193.125" x="655.7813" y="2366.5585">language_editor</text><path d="M920.1563,2442.9932 L920.1563,2515.8032 L882.6563,2523.3032 L920.1563,2530.8032 L920.1563,2603.6133 A0,0 0 0 0 920.1563,2603.6133 L1433.9063,2603.6133 A0,0 0 0 0 1433.9063,2603.6133 L1433.9063,2461.7432 L1415.1563,2442.9932 L920.1563,2442.9932 A0,0 0 0 0 920.1563,2442.9932 " fill="#F8FAFC" style="stroke:#BCC8D4;stroke-width:0.9375;"/><path d="M1415.1563,2442.9932 L1415.1563,2461.7432 L1433.9063,2461.7432 L1415.1563,2442.9932 " fill="#F8FAFC" style="stroke:#BCC8D4;stroke-width:0.9375;"/><text fill="#334155" font-family="Arial" font-size="24.375" lengthAdjust="spacing" textLength="425.625" x="931.4063" y="2474.9936">&#1055;&#1088;&#1080; &#1085;&#1072;&#1083;&#1080;&#1095;&#1080;&#1080; final_text &#1092;&#1086;&#1088;&#1084;&#1080;&#1088;&#1091;&#1077;&#1090;</text><text fill="#334155" font-family="Arial" font-size="24.375" lengthAdjust="spacing" textLength="474.375" x="931.4063" y="2503.3676">&#1085;&#1086;&#1074;&#1099;&#1081; &#1087;&#1086;&#1083;&#1085;&#1099;&#1081; StoryMemory snapshot.</text><text fill="#334155" font-family="Arial" font-size="24.375" lengthAdjust="spacing" textLength="7.5" x="931.4063" y="2531.7416">&#160;</text><text fill="#334155" font-family="Arial" font-size="24.375" lengthAdjust="spacing" textLength="356.25" x="931.4063" y="2560.1157">&#1055;&#1088;&#1080; &#1086;&#1096;&#1080;&#1073;&#1082;&#1077; &#1089;&#1090;&#1072;&#1088;&#1072;&#1103; memory</text><text fill="#334155" font-family="Arial" font-size="24.375" lengthAdjust="spacing" textLength="285" x="931.4063" y="2588.4897">&#1085;&#1077; &#1087;&#1077;&#1088;&#1077;&#1079;&#1072;&#1087;&#1080;&#1089;&#1099;&#1074;&#1072;&#1077;&#1090;&#1089;&#1103;.</text><rect fill="#CDE9E3" height="65.874" rx="23.4375" ry="23.4375" style="stroke:#60758A;stroke-width:0.9375;" width="260.625" x="622.0313" y="2490.3662"/><text fill="#1F2937" font-family="Arial" font-size="24.375" lengthAdjust="spacing" textLength="223.125" x="640.7813" y="2531.7416">memory_manager</text><path d="M885.4688,2622.3633 L885.4688,2751.9214 L847.9688,2759.4214 L885.4688,2766.9214 L885.4688,2896.4795 A0,0 0 0 0 885.4688,2896.4795 L1425.4688,2896.4795 A0,0 0 0 0 1425.4688,2896.4795 L1425.4688,2641.1133 L1406.7188,2622.3633 L885.4688,2622.3633 A0,0 0 0 0 885.4688,2622.3633 " fill="#F8FAFC" style="stroke:#BCC8D4;stroke-width:0.9375;"/><path d="M1406.7188,2622.3633 L1406.7188,2641.1133 L1425.4688,2641.1133 L1406.7188,2622.3633 " fill="#F8FAFC" style="stroke:#BCC8D4;stroke-width:0.9375;"/><text fill="#334155" font-family="Arial" font-size="24.375" lengthAdjust="spacing" textLength="378.75" x="896.7188" y="2654.3637">&#1054;&#1076;&#1080;&#1085; &#1088;&#1072;&#1079; &#1087;&#1086;&#1083;&#1091;&#1095;&#1072;&#1077;&#1090; MCP tools.</text><text fill="#334155" font-family="Arial" font-size="24.375" lengthAdjust="spacing" textLength="7.5" x="896.7188" y="2682.7377">&#160;</text><text fill="#334155" font-family="Arial" font-size="24.375" lengthAdjust="spacing" textLength="489.375" x="896.7188" y="2711.1118">1. save_synopsis &#8212; &#1077;&#1089;&#1083;&#1080; tool &#1076;&#1086;&#1089;&#1090;&#1091;&#1087;&#1077;&#1085;.</text><text fill="#334155" font-family="Arial" font-size="24.375" lengthAdjust="spacing" textLength="500.625" x="896.7188" y="2739.4858">2. save_story_memory &#8212; &#1085;&#1077;&#1079;&#1072;&#1074;&#1080;&#1089;&#1080;&#1084;&#1086; &#1086;&#1090;</text><text fill="#334155" font-family="Arial" font-size="24.375" lengthAdjust="spacing" textLength="412.5" x="919.2188" y="2767.8598">&#1091;&#1089;&#1087;&#1077;&#1093;&#1072; save_synopsis, &#1077;&#1089;&#1083;&#1080; &#1077;&#1089;&#1090;&#1100;:</text><text fill="#334155" font-family="Arial" font-size="24.375" lengthAdjust="spacing" textLength="472.5" x="919.2188" y="2796.2338">story_id + story_memory_ready + tool.</text><text fill="#334155" font-family="Arial" font-size="24.375" lengthAdjust="spacing" textLength="7.5" x="896.7188" y="2824.6078">&#160;</text><text fill="#334155" font-family="Arial" font-size="24.375" lengthAdjust="spacing" textLength="480" x="896.7188" y="2852.9819">source_generation_id &#1084;&#1086;&#1078;&#1077;&#1090; &#1073;&#1099;&#1090;&#1100; null,</text><text fill="#334155" font-family="Arial" font-size="24.375" lengthAdjust="spacing" textLength="466.875" x="896.7188" y="2881.3559">&#1077;&#1089;&#1083;&#1080; synopsis &#1085;&#1077; &#1091;&#1076;&#1072;&#1083;&#1086;&#1089;&#1100; &#1089;&#1086;&#1093;&#1088;&#1072;&#1085;&#1080;&#1090;&#1100;.</text><rect fill="#A9D9C3" height="65.874" rx="23.4375" ry="23.4375" style="stroke:#60758A;stroke-width:0.9375;" width="191.25" x="656.7188" y="2726.4844"/><text fill="#1F2937" font-family="Arial" font-size="24.375" lengthAdjust="spacing" textLength="153.75" x="675.4688" y="2767.8598">persist_story</text><ellipse cx="752.3438" cy="2954.6045" fill="none" rx="20.625" ry="20.625" style="stroke:#222222;stroke-width:1.875;"/><ellipse cx="752.3438" cy="2954.6045" fill="#222222" rx="11.25" ry="11.25" style="stroke:#222222;stroke-width:1.875;"/><line style="stroke:#60758A;stroke-width:1.875;" x1="752.3438" x2="752.3438" y1="134.9121" y2="271.9702"/><polygon fill="#60758A" points="744.8438,253.2202,752.3438,271.9702,759.8438,253.2202,752.3438,260.7202" style="stroke:#60758A;stroke-width:1.875;"/><line style="stroke:#60758A;stroke-width:1.875;" x1="752.3438" x2="752.3438" y1="337.8442" y2="493.6523"/><polygon fill="#60758A" points="744.8438,474.9023,752.3438,493.6523,759.8438,474.9023,752.3438,482.4023" style="stroke:#60758A;stroke-width:1.875;"/><line style="stroke:#60758A;stroke-width:1.875;" x1="836.0156" x2="836.0156" y1="802.1484" y2="839.6484"/><polygon fill="#60758A" points="828.5156,820.8984,836.0156,839.6484,843.5156,820.8984,836.0156,828.3984" style="stroke:#60758A;stroke-width:1.875;"/><line style="stroke:#60758A;stroke-width:1.875;" x1="1249.4531" x2="1249.4531" y1="802.1484" y2="872.8345"/><polygon fill="#60758A" points="1241.9531,854.0845,1249.4531,872.8345,1256.9531,854.0845,1249.4531,861.5845" style="stroke:#60758A;stroke-width:1.875;"/><line style="stroke:#60758A;stroke-width:1.875;" x1="1249.4531" x2="1249.4531" y1="967.0825" y2="1052.2046"/><polygon fill="#60758A" points="1241.9531,1033.4546,1249.4531,1052.2046,1256.9531,1033.4546,1249.4531,1040.9546" style="stroke:#60758A;stroke-width:1.875;"/><line style="stroke:#60758A;stroke-width:1.875;" x1="1249.4531" x2="1249.4531" y1="1146.4526" y2="1217.1387"/><polygon fill="#60758A" points="1241.9531,1198.3887,1249.4531,1217.1387,1256.9531,1198.3887,1249.4531,1205.8887" style="stroke:#60758A;stroke-width:1.875;"/><line style="stroke:#60758A;stroke-width:1.875;" x1="888.0469" x2="836.0156" y1="689.1504" y2="689.1504"/><line style="stroke:#60758A;stroke-width:1.875;" x1="836.0156" x2="836.0156" y1="689.1504" y2="736.2744"/><polygon fill="#60758A" points="828.5156,717.5244,836.0156,736.2744,843.5156,717.5244,836.0156,725.0244" style="stroke:#60758A;stroke-width:1.875;"/><line style="stroke:#60758A;stroke-width:1.875;" x1="1197.4219" x2="1249.4531" y1="689.1504" y2="689.1504"/><line style="stroke:#60758A;stroke-width:1.875;" x1="1249.4531" x2="1249.4531" y1="689.1504" y2="736.2744"/><polygon fill="#60758A" points="1241.9531,717.5244,1249.4531,736.2744,1256.9531,717.5244,1249.4531,725.0244" style="stroke:#60758A;stroke-width:1.875;"/><line style="stroke:#60758A;stroke-width:1.875;" x1="1249.4531" x2="1249.4531" y1="1283.0127" y2="1324.2627"/><line style="stroke:#60758A;stroke-width:1.875;" x1="1249.4531" x2="774.8438" y1="1324.2627" y2="1324.2627"/><polygon fill="#60758A" points="793.5938,1316.7627,774.8438,1324.2627,793.5938,1331.7627,786.0938,1324.2627" style="stroke:#60758A;stroke-width:1.875;"/><line style="stroke:#60758A;stroke-width:1.875;" x1="579.8438" x2="461.9531" y1="619.5264" y2="619.5264"/><line style="stroke:#60758A;stroke-width:1.875;" x1="461.9531" x2="461.9531" y1="619.5264" y2="660.7764"/><polygon fill="#60758A" points="454.4531,642.0264,461.9531,660.7764,469.4531,642.0264,461.9531,649.5264" style="stroke:#60758A;stroke-width:1.875;"/><line style="stroke:#60758A;stroke-width:1.875;" x1="924.8438" x2="1042.7344" y1="619.5264" y2="619.5264"/><line style="stroke:#60758A;stroke-width:1.875;" x1="1042.7344" x2="1042.7344" y1="619.5264" y2="660.7764"/><polygon fill="#60758A" points="1035.2344,642.0264,1042.7344,660.7764,1050.2344,642.0264,1042.7344,649.5264" style="stroke:#60758A;stroke-width:1.875;"/><line style="stroke:#60758A;stroke-width:1.875;" x1="461.9531" x2="461.9531" y1="726.6504" y2="1324.2627"/><line style="stroke:#60758A;stroke-width:1.875;" x1="461.9531" x2="729.8438" y1="1324.2627" y2="1324.2627"/><polygon fill="#60758A" points="711.0938,1316.7627,729.8438,1324.2627,711.0938,1331.7627,718.5938,1324.2627" style="stroke:#60758A;stroke-width:1.875;"/><line style="stroke:#60758A;stroke-width:1.875;" x1="752.3438" x2="752.3438" y1="559.5264" y2="597.0264"/><polygon fill="#60758A" points="744.8438,578.2764,752.3438,597.0264,759.8438,578.2764,752.3438,585.7764" style="stroke:#60758A;stroke-width:1.875;"/><line style="stroke:#60758A;stroke-width:1.875;" x1="752.3438" x2="752.3438" y1="1346.7627" y2="1412.8857"/><polygon fill="#60758A" points="744.8438,1394.1357,752.3438,1412.8857,759.8438,1394.1357,752.3438,1401.6357" style="stroke:#60758A;stroke-width:1.875;"/><line style="stroke:#60758A;stroke-width:1.875;" x1="639.8438" x2="122.8125" y1="1668.6328" y2="1668.6328"/><line style="stroke:#60758A;stroke-width:1.875;" x1="122.8125" x2="122.8125" y1="1668.6328" y2="1766.6309"/><polygon fill="#60758A" points="115.3125,1747.8809,122.8125,1766.6309,130.3125,1747.8809,122.8125,1755.3809" style="stroke:#60758A;stroke-width:1.875;"/><text fill="#000000" font-family="Arial" font-size="24.375" lengthAdjust="spacing" textLength="166.875" x="122.8125" y="1726.0703">fantasy_writer</text><line style="stroke:#60758A;stroke-width:1.875;" x1="864.8438" x2="1317.1875" y1="1668.6328" y2="1668.6328"/><line style="stroke:#60758A;stroke-width:1.875;" x1="1317.1875" x2="1317.1875" y1="1668.6328" y2="1766.6309"/><polygon fill="#60758A" points="1309.6875,1747.8809,1317.1875,1766.6309,1324.6875,1747.8809,1317.1875,1755.3809" style="stroke:#60758A;stroke-width:1.875;"/><text fill="#000000" font-family="Arial" font-size="24.375" lengthAdjust="spacing" textLength="185.625" x="1317.1875" y="1726.0703">universal_writer</text><line style="stroke:#60758A;stroke-width:1.875;" x1="405.9375" x2="405.9375" y1="1668.6328" y2="1766.6309"/><polygon fill="#60758A" points="398.4375,1747.8809,405.9375,1766.6309,413.4375,1747.8809,405.9375,1755.3809" style="stroke:#60758A;stroke-width:1.875;"/><text fill="#000000" font-family="Arial" font-size="24.375" lengthAdjust="spacing" textLength="157.5" x="405.9375" y="1716.6953">drama_writer</text><line style="stroke:#60758A;stroke-width:1.875;" x1="752.3438" x2="752.3438" y1="1691.1328" y2="1716.2988"/><line style="stroke:#60758A;stroke-width:1.875;" x1="752.3438" x2="696.5625" y1="1716.2988" y2="1716.2988"/><line style="stroke:#60758A;stroke-width:1.875;" x1="696.5625" x2="696.5625" y1="1716.2988" y2="1766.6309"/><polygon fill="#60758A" points="689.0625,1747.8809,696.5625,1766.6309,704.0625,1747.8809,696.5625,1755.3809" style="stroke:#60758A;stroke-width:1.875;"/><text fill="#000000" font-family="Arial" font-size="24.375" lengthAdjust="spacing" textLength="153.75" x="696.5625" y="1727.9453">thriller_writer</text><line style="stroke:#60758A;stroke-width:1.875;" x1="993.75" x2="993.75" y1="1668.6328" y2="1766.6309"/><polygon fill="#60758A" points="986.25,1747.8809,993.75,1766.6309,1001.25,1747.8809,993.75,1755.3809" style="stroke:#60758A;stroke-width:1.875;"/><text fill="#000000" font-family="Arial" font-size="24.375" lengthAdjust="spacing" textLength="174.375" x="993.75" y="1716.6953">comedy_writer</text><line style="stroke:#60758A;stroke-width:1.875;" x1="122.8125" x2="122.8125" y1="1832.5049" y2="1930.0049"/><line style="stroke:#60758A;stroke-width:1.875;" x1="122.8125" x2="729.8438" y1="1930.0049" y2="1930.0049"/><polygon fill="#60758A" points="711.0938,1922.5049,729.8438,1930.0049,711.0938,1937.5049,718.5938,1930.0049" style="stroke:#60758A;stroke-width:1.875;"/><line style="stroke:#60758A;stroke-width:1.875;" x1="1317.1875" x2="1317.1875" y1="1832.5049" y2="1930.0049"/><line style="stroke:#60758A;stroke-width:1.875;" x1="1317.1875" x2="774.8438" y1="1930.0049" y2="1930.0049"/><polygon fill="#60758A" points="793.5938,1922.5049,774.8438,1930.0049,793.5938,1937.5049,786.0938,1930.0049" style="stroke:#60758A;stroke-width:1.875;"/><line style="stroke:#60758A;stroke-width:1.875;" x1="405.9375" x2="405.9375" y1="1832.5049" y2="1930.0049"/><polygon fill="#60758A" points="398.4375,1911.2549,405.9375,1930.0049,413.4375,1911.2549,405.9375,1918.7549" style="stroke:#60758A;stroke-width:1.875;"/><line style="stroke:#60758A;stroke-width:1.875;" x1="696.5625" x2="696.5625" y1="1832.5049" y2="1841.8799"/><line style="stroke:#60758A;stroke-width:1.875;" x1="696.5625" x2="752.3438" y1="1841.8799" y2="1841.8799"/><line style="stroke:#60758A;stroke-width:1.875;" x1="752.3438" x2="752.3438" y1="1841.8799" y2="1907.5049"/><polygon fill="#60758A" points="744.8438,1888.7549,752.3438,1907.5049,759.8438,1888.7549,752.3438,1896.2549" style="stroke:#60758A;stroke-width:1.875;"/><line style="stroke:#60758A;stroke-width:1.875;" x1="993.75" x2="993.75" y1="1832.5049" y2="1930.0049"/><polygon fill="#60758A" points="986.25,1911.2549,993.75,1930.0049,1001.25,1911.2549,993.75,1918.7549" style="stroke:#60758A;stroke-width:1.875;"/><line style="stroke:#60758A;stroke-width:1.875;" x1="752.3438" x2="752.3438" y1="1952.5049" y2="1990.2539"/><polygon fill="#60758A" points="744.8438,1971.5039,752.3438,1990.2539,759.8438,1971.5039,752.3438,1979.0039" style="stroke:#60758A;stroke-width:1.875;"/><line style="stroke:#60758A;stroke-width:1.875;" x1="752.3438" x2="752.3438" y1="1608.6328" y2="1646.1328"/><polygon fill="#60758A" points="744.8438,1627.3828,752.3438,1646.1328,759.8438,1627.3828,752.3438,1634.8828" style="stroke:#60758A;stroke-width:1.875;"/><line style="stroke:#60758A;stroke-width:1.875;" x1="995.1563" x2="1525.3125" y1="2169.375" y2="2169.375"/><polygon fill="#60758A" points="1517.8125,1870.0049,1525.3125,1851.2549,1532.8125,1870.0049,1525.3125,1862.5049" style="stroke:#60758A;stroke-width:1.875;"/><line style="stroke:#60758A;stroke-width:1.875;" x1="1525.3125" x2="1525.3125" y1="1586.1328" y2="2169.375"/><line style="stroke:#60758A;stroke-width:1.875;" x1="1525.3125" x2="774.8438" y1="1586.1328" y2="1586.1328"/><polygon fill="#60758A" points="793.5938,1578.6328,774.8438,1586.1328,793.5938,1593.6328,786.0938,1586.1328" style="stroke:#60758A;stroke-width:1.875;"/><line style="stroke:#60758A;stroke-width:1.875;" x1="752.3438" x2="752.3438" y1="2056.1279" y2="2112.627"/><polygon fill="#60758A" points="744.8438,2093.877,752.3438,2112.627,759.8438,2093.877,752.3438,2101.377" style="stroke:#60758A;stroke-width:1.875;"/><line style="stroke:#60758A;stroke-width:1.875;" x1="752.3438" x2="752.3438" y1="1478.7598" y2="1563.6328"/><polygon fill="#60758A" points="744.8438,1544.8828,752.3438,1563.6328,759.8438,1544.8828,752.3438,1552.3828" style="stroke:#60758A;stroke-width:1.875;"/><line style="stroke:#60758A;stroke-width:1.875;" x1="752.3438" x2="752.3438" y1="2226.123" y2="2325.1831"/><polygon fill="#60758A" points="744.8438,2306.4331,752.3438,2325.1831,759.8438,2306.4331,752.3438,2313.9331" style="stroke:#60758A;stroke-width:1.875;"/><text fill="#000000" font-family="Arial" font-size="24.375" lengthAdjust="spacing" textLength="440.625" x="759.8438" y="2270.4346">PASS &#1080;&#1083;&#1080; &#1076;&#1086;&#1089;&#1090;&#1080;&#1075;&#1085;&#1091;&#1090; max_revisions</text><line style="stroke:#60758A;stroke-width:1.875;" x1="752.3438" x2="752.3438" y1="2391.0571" y2="2490.3662"/><polygon fill="#60758A" points="744.8438,2471.6162,752.3438,2490.3662,759.8438,2471.6162,752.3438,2479.1162" style="stroke:#60758A;stroke-width:1.875;"/><line style="stroke:#60758A;stroke-width:1.875;" x1="752.3438" x2="752.3438" y1="2556.2402" y2="2726.4844"/><polygon fill="#60758A" points="744.8438,2707.7344,752.3438,2726.4844,759.8438,2707.7344,752.3438,2715.2344" style="stroke:#60758A;stroke-width:1.875;"/><line style="stroke:#60758A;stroke-width:1.875;" x1="752.3438" x2="752.3438" y1="2792.3584" y2="2933.9795"/><polygon fill="#60758A" points="744.8438,2915.2295,752.3438,2933.9795,759.8438,2915.2295,752.3438,2922.7295" style="stroke:#60758A;stroke-width:1.875;"/><!--SRC=[VLVTRjis5BxNKn38JOAbWHCxYQoi7HnBxWgiHJ0NxKq1WxDecwiiUIGLDni6fEcARcY0OC3kXcsluAR9aYQD-mhIA-n9TWufsvATpGOCYUV_y3i_Lbm5Z3GFmcWWkIJtMSW4LP4W_np-HjAVab5obHubb-cRv3nzcLmbbya7yXKDk_S57VJ8C1BFEq4qj2pvd8S3AcYVV4FRpxiYYaE_7WMWQAbHXw-Ruv0zwaT37dP9XmQIvIZ-W9DrkvGxSLc7ne5gHA5wHFkCr0IdmUtq9l-UaVLoZlWOWvkHxDj8cPCRM-MjIYt7K1CY6cR4hTBsfbtB1qdRYkzpTK1-i0ZPZOJFH96Na9pozSP6jRmDPowd_IZqT-TJv7cDSiFECUGrRbVixUhkZ9ZtkW9U8wcfg9WSRfLjUxS2XzvK_sQjwjcszMC-X31IpBY_S65sezQepmUsMw_RRgKOMBbSMT_Sr7hH0SjQSkjUjR7j117rMn9mTD1g0pjxeNOiIriKlDjJeCKGkK-ISNgKlanVwT-Zv3Hz1L0xSe0b-GJm-vYU0EKOsP0yId_LZ2T01Hay6YSVrgoyHgtj5mHiKL-NgQ9FgECjAaKEL8f6B-3rVNe8OXU0UpGz4ApF9Li51Q5WgzhKGG3l0HH2JBkC99Uap_gWMJkI_96Sa-G6z7n8pf9pUBf9tqBTp4B-b1ucbyXvPi82Ov-0RPny90_hU-JEFVA41Z7p08C2txvy_7YFL4gLDOk5lhuvJFMcjzaeE-qe25XRjGJxBkRWAGkLX6Jp3bdE7q7C_K705FjYXQWU2yao61-jeBzBzOPNzZo7XJ8MB4lHG4JVWbhGnA16WVi6awJvKNKxe89tU9ig7eMWEmuLkNVtMTYdBre5cboq1nOR9TTsRQUe9U1zZd7GTe_vEveHV1cWo88FeCEplL9ZtS4WcLH5gqPwoVNSAWGsfA2t4uaYpxEG0mg4Y0TgUMN7A2r053zFimwNtTa4XVfsJvDhE3cTmMSj4whjFI1mFWO4dOBK2C0uce0GFrExp2TtYH8nomXGHIgMS1OovikYkncBwa62V42HVf_1mSIxxPQzgbEF-dqQ-d3_Ckwpktqc9Q1qvLc8rP8UaUHl0EXKqN-5VdlMCg8k4rs1C1Ic2J3726I8Vcq-skKLBEbnSWrYRumGCIwIVOJxwaJtE7cNARbEJpHRG1NUSIoPQ6NXJ9Wl2LJFAPJPjHvJqmiXjq1qxTQa_MyTQNRUiSoljLJVyagUxUXMq8Ak2R7DjxOyBKiKkFOIUa3c6dOGXiQOtneA3cowRsY9begoCzD247QZMIQmQPnYXiuWqXk8Fhb0Q9xWa2PFjTmTtRgkCN_vVY7OW56b6-MGgtQFBC_viABJqQPOQHqQAYeF2XHi55NNXP8hKdToSZvC5ZelvQwxrKR9oTFoCW143gaN2s9Lj-BLdJboNX9Q6lCNdFGst0rlooaGyr9noFUPa3HO4BJTJRVXpDDt30PCrdI_TE7ZxJfj8FEsniXSyMWAjANMW4evBNAYXzLrUWmbCoPweGBCcgRGZoL2Rn_c372RlKYtaaSkaUr8CEYknBRou3KNIeOz3XlSidMRrOaUrAALpvhrvmHRzUHGMj2cOVzR_jfxyg3fhLWmTFPgpIO237oS3YfuVG_J38PrKNp7pADjQ3wJeTXYFeT9CbySMYjeprhTP2hvUd3-3le_ujGbWFfpGFqb3c4OdQRxOaMSwyVnRBJYCyfU8OVsy0gw6rYOgcx1pVLQGogWuNTbVeJMNQ_gbHqpkrlGCy7l1O-JloQsHzCUSqawF0I4w2q2rkGniA3ZXsRRG2dTmFJSDqqlMmAQE5qVQeD4XdGWUv4oMqDcPfp-30RUwIYobGT7o4csOHZLvwZqN2VfblvYPb4kpbhLhTRBpW1WpMMs12s4-MVMKtJ3kLXirRYPg2WAf7PtVOr8kW_RmkIl0_vXc61QynMt6xWhxBuR4p6zP9YGZEXD5iifng9nCDQxeQbEFMamvDV9g6XuTMRLh7pfSJPdf_lMPoHl3ZSC_m0EqKcpEKQnQBDMr_pvmHh19GqSm469y_8Thecm2OPn4E2KcbgSHg_l108zqo31i8_Xzk3XjKxdZLabyvUYLvj_0G00]--></g></svg>