<?xml version="1.0" encoding="us-ascii" standalone="no"?><svg xmlns="http://www.w3.org/2000/svg" xmlns:xlink="http://www.w3.org/1999/xlink" contentStyleType="text/css" height="1771.875px" preserveAspectRatio="none" style="width:1306px;height:1771px;background:#FCFCFD;" version="1.1" viewBox="0 0 1306 1771" width="1306.875px" zoomAndPan="magnify"><defs/><g><rect fill="#FCFCFD" height="1771.875" style="stroke:none;stroke-width:1.875;" width="1306.875" x="0" y="0"/><text fill="#22324A" font-family="Arial" font-size="33.75" font-weight="bold" lengthAdjust="spacing" textLength="750" x="275.625" y="68.8275">&#1062;&#1080;&#1082;&#1083; Writer &#8594; Critic &#8594; Language Editor</text><ellipse cx="359.5313" cy="116.1621" fill="#6FA8DC" rx="18.75" ry="18.75" style="stroke:#222222;stroke-width:1.875;"/><rect fill="#D9E6F2" height="65.874" rx="23.4375" ry="23.4375" style="stroke:#5C6B80;stroke-width:0.9375;" width="217.5" x="250.7813" y="172.4121"/><text fill="#1F2937" font-family="Arial" font-size="24.375" lengthAdjust="spacing" textLength="180" x="269.5313" y="213.7875">selected_writer</text><path d="M450.4688,339.5361 L450.4688,469.0942 L412.9688,476.5942 L450.4688,484.0942 L450.4688,613.6523 A0,0 0 0 0 450.4688,613.6523 L883.5938,613.6523 A0,0 0 0 0 883.5938,613.6523 L883.5938,358.2861 L864.8438,339.5361 L450.4688,339.5361 A0,0 0 0 0 450.4688,339.5361 " fill="#F8FAFC" style="stroke:#B8C4D6;stroke-width:0.9375;"/><path d="M864.8438,339.5361 L864.8438,358.2861 L883.5938,358.2861 L864.8438,339.5361 " fill="#F8FAFC" style="stroke:#B8C4D6;stroke-width:0.9375;"/><text fill="#334155" font-family="Arial" font-size="24.375" lengthAdjust="spacing" textLength="230.625" x="461.7188" y="371.5366">&#1055;&#1077;&#1088;&#1074;&#1072;&#1103; &#1080;&#1090;&#1077;&#1088;&#1072;&#1094;&#1080;&#1103;:</text><text fill="#334155" font-family="Arial" font-size="24.375" lengthAdjust="spacing" textLength="264.375" x="461.7188" y="399.9106">&#1089;&#1086;&#1079;&#1076;&#1072;&#1105;&#1090; draft &#1089; &#1085;&#1091;&#1083;&#1103;.</text><text fill="#334155" font-family="Arial" font-size="24.375" lengthAdjust="spacing" textLength="7.5" x="461.7188" y="428.2846">&#160;</text><text fill="#334155" font-family="Arial" font-size="24.375" lengthAdjust="spacing" textLength="292.5" x="461.7188" y="456.6586">&#1055;&#1088;&#1080; &#1088;&#1077;&#1074;&#1080;&#1079;&#1080;&#1080; &#1087;&#1086;&#1083;&#1091;&#1095;&#1072;&#1077;&#1090;:</text><text fill="#334155" font-family="Arial" font-size="24.375" lengthAdjust="spacing" textLength="193.125" x="461.7188" y="485.0327">- &#1090;&#1077;&#1082;&#1091;&#1097;&#1080;&#1081; draft</text><text fill="#334155" font-family="Arial" font-size="24.375" lengthAdjust="spacing" textLength="260.625" x="461.7188" y="513.4067">- revision_instructions</text><text fill="#334155" font-family="Arial" font-size="24.375" lengthAdjust="spacing" textLength="7.5" x="461.7188" y="541.7807">&#160;</text><text fill="#334155" font-family="Arial" font-size="24.375" lengthAdjust="spacing" textLength="393.75" x="461.7188" y="570.1547">&#1053;&#1072; &#1088;&#1077;&#1074;&#1080;&#1079;&#1080;&#1080; Writer &#1091;&#1074;&#1077;&#1083;&#1080;&#1095;&#1080;&#1074;&#1072;&#1077;&#1090;</text><text fill="#334155" font-family="Arial" font-size="24.375" lengthAdjust="spacing" textLength="240" x="461.7188" y="598.5287">revision_count &#1085;&#1072; 1.</text><rect fill="#C9DDF1" height="65.874" rx="23.4375" ry="23.4375" style="stroke:#5C6B80;stroke-width:0.9375;" width="106.875" x="306.0938" y="443.6572"/><text fill="#1F2937" font-family="Arial" font-size="24.375" lengthAdjust="spacing" textLength="69.375" x="324.8438" y="485.0327">Writer</text><path d="M445.7813,669.9023 L445.7813,771.0864 L408.2813,778.5864 L445.7813,786.0864 L445.7813,887.2705 A0,0 0 0 0 445.7813,887.2705 L937.0313,887.2705 A0,0 0 0 0 937.0313,887.2705 L937.0313,688.6523 L918.2813,669.9023 L445.7813,669.9023 A0,0 0 0 0 445.7813,669.9023 " fill="#F8FAFC" style="stroke:#B8C4D6;stroke-width:0.9375;"/><path d="M918.2813,669.9023 L918.2813,688.6523 L937.0313,688.6523 L918.2813,669.9023 " fill="#F8FAFC" style="stroke:#B8C4D6;stroke-width:0.9375;"/><text fill="#334155" font-family="Arial" font-size="24.375" lengthAdjust="spacing" textLength="451.875" x="457.0313" y="701.9028">critique_passed = true, &#1090;&#1086;&#1083;&#1100;&#1082;&#1086; &#1077;&#1089;&#1083;&#1080;:</text><text fill="#334155" font-family="Arial" font-size="24.375" lengthAdjust="spacing" textLength="238.125" x="457.0313" y="730.2768">must_revise = false</text><text fill="#334155" font-family="Arial" font-size="24.375" lengthAdjust="spacing" textLength="198.75" x="457.0313" y="758.6508">AND score &gt;= 8</text><text fill="#334155" font-family="Arial" font-size="24.375" lengthAdjust="spacing" textLength="7.5" x="457.0313" y="787.0248">&#160;</text><text fill="#334155" font-family="Arial" font-size="24.375" lengthAdjust="spacing" textLength="232.5" x="457.0313" y="815.3989">Critic &#1074;&#1086;&#1079;&#1074;&#1088;&#1072;&#1097;&#1072;&#1077;&#1090;:</text><text fill="#334155" font-family="Arial" font-size="24.375" lengthAdjust="spacing" textLength="163.125" x="457.0313" y="843.7729">score, issues,</text><text fill="#334155" font-family="Arial" font-size="24.375" lengthAdjust="spacing" textLength="251.25" x="457.0313" y="872.1469">revision_instructions.</text><rect fill="#D9D4EC" height="65.874" rx="23.4375" ry="23.4375" style="stroke:#5C6B80;stroke-width:0.9375;" width="97.5" x="310.7813" y="745.6494"/><text fill="#1F2937" font-family="Arial" font-size="24.375" lengthAdjust="spacing" textLength="60" x="329.5313" y="787.0248">Critic</text><polygon fill="#F7F9FC" points="359.5313,275.7861,382.0313,298.2861,359.5313,320.7861,337.0313,298.2861,359.5313,275.7861" style="stroke:#7A8CA5;stroke-width:0.9375;"/><polygon fill="#F7F9FC" points="139.2188,924.7705,579.8438,924.7705,602.3438,981.5186,579.8438,1038.2666,139.2188,1038.2666,116.7188,981.5186,139.2188,924.7705" style="stroke:#7A8CA5;stroke-width:0.9375;"/><text fill="#2F3E52" font-family="Arial" font-size="24.375" lengthAdjust="spacing" textLength="7.5" x="139.2188" y="947.3959">&#160;</text><text fill="#2F3E52" font-family="Arial" font-size="24.375" lengthAdjust="spacing" textLength="279.375" x="139.2188" y="975.77">critique_passed = false</text><text fill="#2F3E52" font-family="Arial" font-size="24.375" lengthAdjust="spacing" textLength="440.625" x="139.2188" y="1004.144">AND revision_count &lt; max_revisions</text><text fill="#2F3E52" font-family="Arial" font-size="24.375" lengthAdjust="spacing" textLength="13.125" x="139.2188" y="1032.518">?</text><text fill="#000000" font-family="Arial" font-size="24.375" lengthAdjust="spacing" textLength="84.375" x="602.3438" y="975.77">REVISE</text><rect fill="#D5E7E9" height="65.874" rx="23.4375" ry="23.4375" style="stroke:#5C6B80;stroke-width:0.9375;" width="230.625" x="244.2188" y="1121.1392"/><text fill="#1F2937" font-family="Arial" font-size="24.375" lengthAdjust="spacing" textLength="193.125" x="262.9688" y="1162.5146">language_editor</text><polygon fill="#F7F9FC" points="259.2188,1224.5132,459.8438,1224.5132,482.3438,1247.0132,459.8438,1269.5132,259.2188,1269.5132,236.7188,1247.0132,259.2188,1224.5132" style="stroke:#7A8CA5;stroke-width:0.9375;"/><text fill="#2F3E52" font-family="Arial" font-size="24.375" lengthAdjust="spacing" textLength="200.625" x="259.2188" y="1255.4517">critique_passed?</text><text fill="#000000" font-family="Arial" font-size="24.375" lengthAdjust="spacing" textLength="33.75" x="202.9688" y="1241.2646">&#1076;&#1072;</text><text fill="#000000" font-family="Arial" font-size="24.375" lengthAdjust="spacing" textLength="46.875" x="482.3438" y="1241.2646">&#1085;&#1077;&#1090;</text><rect fill="#BFDCCE" height="65.874" rx="23.4375" ry="23.4375" style="stroke:#5C6B80;stroke-width:0.9375;" width="275.625" x="20.625" y="1288.2632"/><text fill="#1F2937" font-family="Arial" font-size="24.375" lengthAdjust="spacing" textLength="238.125" x="39.375" y="1329.6387">status = completed</text><path d="M825,1288.2632 L825,1332.6993 L787.5,1340.1993 L825,1347.6993 L825,1392.1353 A0,0 0 0 0 825,1392.1353 L1284.375,1392.1353 A0,0 0 0 0 1284.375,1392.1353 L1284.375,1307.0132 L1265.625,1288.2632 L825,1288.2632 A0,0 0 0 0 825,1288.2632 " fill="#F8FAFC" style="stroke:#B8C4D6;stroke-width:0.9375;"/><path d="M1265.625,1288.2632 L1265.625,1307.0132 L1284.375,1307.0132 L1265.625,1288.2632 " fill="#F8FAFC" style="stroke:#B8C4D6;stroke-width:0.9375;"/><text fill="#334155" font-family="Arial" font-size="24.375" lengthAdjust="spacing" textLength="277.5" x="836.25" y="1320.2637">&#1069;&#1090;&#1086;&#1090; &#1087;&#1091;&#1090;&#1100; &#1074;&#1086;&#1079;&#1084;&#1086;&#1078;&#1077;&#1085;,</text><text fill="#334155" font-family="Arial" font-size="24.375" lengthAdjust="spacing" textLength="406.875" x="836.25" y="1348.6377">&#1082;&#1086;&#1075;&#1076;&#1072; &#1076;&#1086;&#1089;&#1090;&#1080;&#1075;&#1085;&#1091;&#1090; max_revisions,</text><text fill="#334155" font-family="Arial" font-size="24.375" lengthAdjust="spacing" textLength="420" x="836.25" y="1377.0117">&#1072; Critic &#1074;&#1089;&#1105; &#1077;&#1097;&#1105; &#1085;&#1077; &#1087;&#1088;&#1080;&#1085;&#1103;&#1083; &#1090;&#1077;&#1082;&#1089;&#1090;.</text><rect fill="#E9D9C5" height="65.874" rx="23.4375" ry="23.4375" style="stroke:#5C6B80;stroke-width:0.9375;" width="453.75" x="333.75" y="1307.2623"/><text fill="#1F2937" font-family="Arial" font-size="24.375" lengthAdjust="spacing" textLength="416.25" x="352.5" y="1348.6377">status = completed_with_warnings</text><polygon fill="#F7F9FC" points="359.5313,1403.3853,382.0313,1425.8853,359.5313,1448.3853,337.0313,1425.8853,359.5313,1403.3853" style="stroke:#7A8CA5;stroke-width:0.9375;"/><ellipse cx="359.5313" cy="1506.5103" fill="none" rx="20.625" ry="20.625" style="stroke:#222222;stroke-width:1.875;"/><ellipse cx="359.5313" cy="1506.5103" fill="#222222" rx="11.25" ry="11.25" style="stroke:#222222;stroke-width:1.875;"/><line style="stroke:#5B6F8E;stroke-width:1.875;" x1="359.5313" x2="359.5313" y1="134.9121" y2="172.4121"/><polygon fill="#5B6F8E" points="352.0313,153.6621,359.5313,172.4121,367.0313,153.6621,359.5313,161.1621" style="stroke:#5B6F8E;stroke-width:1.875;"/><line style="stroke:#5B6F8E;stroke-width:1.875;" x1="359.5313" x2="359.5313" y1="509.5313" y2="745.6494"/><polygon fill="#5B6F8E" points="352.0313,726.8994,359.5313,745.6494,367.0313,726.8994,359.5313,734.3994" style="stroke:#5B6F8E;stroke-width:1.875;"/><line style="stroke:#5B6F8E;stroke-width:1.875;" x1="359.5313" x2="359.5313" y1="320.7861" y2="443.6572"/><polygon fill="#5B6F8E" points="352.0313,424.9072,359.5313,443.6572,367.0313,424.9072,359.5313,432.4072" style="stroke:#5B6F8E;stroke-width:1.875;"/><line style="stroke:#5B6F8E;stroke-width:1.875;" x1="602.3438" x2="959.5313" y1="981.5186" y2="981.5186"/><polygon fill="#5B6F8E" points="952.0313,651.1523,959.5313,632.4023,967.0313,651.1523,959.5313,643.6523" style="stroke:#5B6F8E;stroke-width:1.875;"/><line style="stroke:#5B6F8E;stroke-width:1.875;" x1="959.5313" x2="959.5313" y1="298.2861" y2="981.5186"/><line style="stroke:#5B6F8E;stroke-width:1.875;" x1="959.5313" x2="382.0313" y1="298.2861" y2="298.2861"/><polygon fill="#5B6F8E" points="400.7813,290.7861,382.0313,298.2861,400.7813,305.7861,393.2813,298.2861" style="stroke:#5B6F8E;stroke-width:1.875;"/><line style="stroke:#5B6F8E;stroke-width:1.875;" x1="359.5313" x2="359.5313" y1="811.5234" y2="924.7705"/><polygon fill="#5B6F8E" points="352.0313,906.0205,359.5313,924.7705,367.0313,906.0205,359.5313,913.5205" style="stroke:#5B6F8E;stroke-width:1.875;"/><line style="stroke:#5B6F8E;stroke-width:1.875;" x1="359.5313" x2="359.5313" y1="238.2861" y2="275.7861"/><polygon fill="#5B6F8E" points="352.0313,257.0361,359.5313,275.7861,367.0313,257.0361,359.5313,264.5361" style="stroke:#5B6F8E;stroke-width:1.875;"/><line style="stroke:#5B6F8E;stroke-width:1.875;" x1="359.5313" x2="359.5313" y1="1038.2666" y2="1121.1392"/><polygon fill="#5B6F8E" points="352.0313,1102.3892,359.5313,1121.1392,367.0313,1102.3892,359.5313,1109.8892" style="stroke:#5B6F8E;stroke-width:1.875;"/><text fill="#000000" font-family="Arial" font-size="24.375" lengthAdjust="spacing" textLength="204.375" x="367.0313" y="1082.5781">PASS &#1080;&#1083;&#1080; &#1083;&#1080;&#1084;&#1080;&#1090;</text><line style="stroke:#5B6F8E;stroke-width:1.875;" x1="236.7188" x2="158.4375" y1="1247.0132" y2="1247.0132"/><line style="stroke:#5B6F8E;stroke-width:1.875;" x1="158.4375" x2="158.4375" y1="1247.0132" y2="1288.2632"/><polygon fill="#5B6F8E" points="150.9375,1269.5132,158.4375,1288.2632,165.9375,1269.5132,158.4375,1277.0132" style="stroke:#5B6F8E;stroke-width:1.875;"/><line style="stroke:#5B6F8E;stroke-width:1.875;" x1="482.3438" x2="560.625" y1="1247.0132" y2="1247.0132"/><line style="stroke:#5B6F8E;stroke-width:1.875;" x1="560.625" x2="560.625" y1="1247.0132" y2="1307.2623"/><polygon fill="#5B6F8E" points="553.125,1288.5123,560.625,1307.2623,568.125,1288.5123,560.625,1296.0123" style="stroke:#5B6F8E;stroke-width:1.875;"/><line style="stroke:#5B6F8E;stroke-width:1.875;" x1="158.4375" x2="158.4375" y1="1354.1373" y2="1425.8853"/><line style="stroke:#5B6F8E;stroke-width:1.875;" x1="158.4375" x2="337.0313" y1="1425.8853" y2="1425.8853"/><polygon fill="#5B6F8E" points="318.2813,1418.3853,337.0313,1425.8853,318.2813,1433.3853,325.7813,1425.8853" style="stroke:#5B6F8E;stroke-width:1.875;"/><line style="stroke:#5B6F8E;stroke-width:1.875;" x1="560.625" x2="560.625" y1="1373.1363" y2="1425.8853"/><line style="stroke:#5B6F8E;stroke-width:1.875;" x1="560.625" x2="382.0313" y1="1425.8853" y2="1425.8853"/><polygon fill="#5B6F8E" points="400.7813,1418.3853,382.0313,1425.8853,400.7813,1433.3853,393.2813,1425.8853" style="stroke:#5B6F8E;stroke-width:1.875;"/><line style="stroke:#5B6F8E;stroke-width:1.875;" x1="359.5313" x2="359.5313" y1="1187.0132" y2="1224.5132"/><polygon fill="#5B6F8E" points="352.0313,1205.7632,359.5313,1224.5132,367.0313,1205.7632,359.5313,1213.2632" style="stroke:#5B6F8E;stroke-width:1.875;"/><line style="stroke:#5B6F8E;stroke-width:1.875;" x1="359.5313" x2="359.5313" y1="1448.3853" y2="1485.8853"/><polygon fill="#5B6F8E" points="352.0313,1467.1353,359.5313,1485.8853,367.0313,1467.1353,359.5313,1474.6353" style="stroke:#5B6F8E;stroke-width:1.875;"/><rect fill="none" height="179.0332" id="_legend" rx="14.0625" ry="14.0625" style="stroke:#000000;stroke-width:1.875;" width="570" x="690" y="1547.7603"/><text fill="#000000" font-family="Arial" font-size="26.25" font-weight="bold" lengthAdjust="spacing" textLength="75" x="708.75" y="1585.2512">&#1062;&#1074;&#1077;&#1090;</text><text fill="#000000" font-family="Arial" font-size="26.25" font-weight="bold" lengthAdjust="spacing" textLength="181.875" x="802.5" y="1585.2512">&#1053;&#1072;&#1079;&#1085;&#1072;&#1095;&#1077;&#1085;&#1080;&#1077;</text><rect fill="#C9DDF1" height="30.5566" style="stroke:none;stroke-width:1.875;" width="93.75" x="699.375" y="1591.442"/><text fill="#000000" font-family="Arial" font-size="26.25" lengthAdjust="spacing" textLength="7.5" x="699.375" y="1615.8078">&#160;</text><text fill="#000000" font-family="Arial" font-size="26.25" lengthAdjust="spacing" textLength="75" x="800.625" y="1615.8078">Writer</text><rect fill="#D9D4EC" height="30.5566" style="stroke:none;stroke-width:1.875;" width="93.75" x="699.375" y="1621.9986"/><text fill="#000000" font-family="Arial" font-size="26.25" lengthAdjust="spacing" textLength="7.5" x="699.375" y="1646.3644">&#160;</text><text fill="#000000" font-family="Arial" font-size="26.25" lengthAdjust="spacing" textLength="63.75" x="800.625" y="1646.3644">Critic</text><rect fill="#D5E7E9" height="30.5566" style="stroke:none;stroke-width:1.875;" width="93.75" x="699.375" y="1652.5552"/><text fill="#000000" font-family="Arial" font-size="26.25" lengthAdjust="spacing" textLength="7.5" x="699.375" y="1676.9211">&#160;</text><text fill="#000000" font-family="Arial" font-size="26.25" lengthAdjust="spacing" textLength="210" x="800.625" y="1676.9211">Language Editor</text><rect fill="#E9D9C5" height="30.5566" style="stroke:none;stroke-width:1.875;" width="93.75" x="699.375" y="1683.1119"/><text fill="#000000" font-family="Arial" font-size="26.25" lengthAdjust="spacing" textLength="7.5" x="699.375" y="1707.4777">&#160;</text><text fill="#000000" font-family="Arial" font-size="26.25" lengthAdjust="spacing" textLength="442.5" x="800.625" y="1707.4777">&#1047;&#1072;&#1074;&#1077;&#1088;&#1096;&#1077;&#1085;&#1080;&#1077; &#1087;&#1086; &#1083;&#1080;&#1084;&#1080;&#1090;&#1091; &#1088;&#1077;&#1074;&#1080;&#1079;&#1080;&#1081;</text><line style="stroke:#000000;stroke-width:1.875;" x1="699.375" x2="1250.625" y1="1560.8853" y2="1560.8853"/><line style="stroke:#000000;stroke-width:1.875;" x1="699.375" x2="1250.625" y1="1591.442" y2="1591.442"/><line style="stroke:#000000;stroke-width:1.875;" x1="699.375" x2="1250.625" y1="1621.9986" y2="1621.9986"/><line style="stroke:#000000;stroke-width:1.875;" x1="699.375" x2="1250.625" y1="1652.5552" y2="1652.5552"/><line style="stroke:#000000;stroke-width:1.875;" x1="699.375" x2="1250.625" y1="1683.1119" y2="1683.1119"/><line style="stroke:#000000;stroke-width:1.875;" x1="699.375" x2="1250.625" y1="1713.6685" y2="1713.6685"/><line style="stroke:#000000;stroke-width:1.875;" x1="699.375" x2="699.375" y1="1560.8853" y2="1713.6685"/><line style="stroke:#000000;stroke-width:1.875;" x1="793.125" x2="793.125" y1="1560.8853" y2="1713.6685"/><line style="stroke:#000000;stroke-width:1.875;" x1="1250.625" x2="1250.625" y1="1560.8853" y2="1713.6685"/><!--SRC=[RLNTQXj75BxVfpZW6nkS44cMBCcnosf_e512YKfpAIRQaJH4sbLdHr5_N8XjI688cEIcLwLtlGi8jMwLE7PUOVOL-YJzPdTbhnGXMCsUt- -SyvrP9TIGa_vJB_H7VKLFf51Sqdyltv63e-YcnszOs9-mFYSl42gIbXK_4-6OIJQYfwpxh2-ZIHWuqJ2IjEKx-Ba5YtZ0WcWgmZxrs33c1Kqm5bIgFoX8NDvZaw7oer0zOYDEjXHik5dV5ZzpAbKAokzCANUg-YPL3h9ShfJtx8A1BMKqpPNLLislUyKYMLU9vqBzHBzOH6t5v39EpRVhhWEXTrl_hQYGhkIN6vLzo5gH3BXSvd5gBLHFv0esYiAWYC-lUDNodMh5Rz-kEtQreFnY1Fj-mtUiNuibX97YAVmlhUk-xJlhu5frPy-jhPPHgUoLgjKqhkc1PMsv3Q_cbvin7_Akua5dcjBdmB8a7tC62w8jf-6wVgdvPAcY38iK_O722v7-GrycB_HSpv8BqelaD7sT9IznlcYc9ic9lj7_whyXVPkSKY1PJq58-ZevqrV9nNqhZmJ71U5nYN0BU2pmgZ_3-IevIrxf6KAVPY7laKcaFq9-3hCFMT1S9Vbp4Oiex8WmLdA2yKTXdEVuNS_MC-HR0onpoA-0-nNayonTwdKRi8lEA-16aD9zg7WOfFr8M-Kst3tFQMQRjwbLNQFvOS8xOnR7FA130Zg-Qqen9Rx13jyGafuO45cTeqciEcbw3lDi1OtSVkHIt8qafwD3gcUrvIiFvARRytGAvyMcfGwx9E9umkFTrSgAhLgjB2C3JGS2LyssjQcC9Iw3QgrN3sd4VkmiXR7rrGxoq_PZx_klszwETU-8lhNRRH37r4pceJyP5XqOVbQzVQ_H7ERtLuUdznSqeaVRQoWGLmruIDk6PZjc72tVTHol2RAhIGoGtMWq7dBm_C3YW0lBQzEQrDPhk0sdki6sCnLgq9ao6U8AZ0ysqF-zcHvOhJ-3YwV9csN_F-7v3_XqdJNQp5R_PS0H7ZV92TmM45mRhzKUvGwpku72-gqXnhdv0sgJ3Ai2vmlS-lac8EBAu70GFRFiqTYoXhnl51dkuqFpoPYRwicSiHC035A3-02Cm9TqR1q_p9V_w7Yv8gamepc4ERnCc8uAmhMFJQRDsWkj_WsfJE8NoUlRL6R32vDFpbONz0DY07jMWVK_]--></g></svg>