<?xml version="1.0" encoding="us-ascii" standalone="no"?><svg xmlns="http://www.w3.org/2000/svg" xmlns:xlink="http://www.w3.org/1999/xlink" contentStyleType="text/css" height="1777.5px" preserveAspectRatio="none" style="width:1505px;height:1777px;background:#FCFCFD;" version="1.1" viewBox="0 0 1505 1777" width="1505.625px" zoomAndPan="magnify"><defs/><g><rect fill="#FCFCFD" height="1777.5" style="stroke:none;stroke-width:1.875;" width="1505.625" x="0" y="0"/><text fill="#28364A" font-family="Arial" font-size="33.75" font-weight="bold" lengthAdjust="spacing" textLength="751.875" x="374.5313" y="68.8275">&#1052;&#1072;&#1088;&#1096;&#1088;&#1091;&#1090;&#1080;&#1079;&#1072;&#1094;&#1080;&#1103; &#1084;&#1077;&#1078;&#1076;&#1091; Writer-&#1091;&#1079;&#1083;&#1072;&#1084;&#1080;</text><ellipse cx="733.5938" cy="116.1621" fill="#6D8FB5" rx="18.75" ry="18.75" style="stroke:#222222;stroke-width:1.875;"/><path d="M867.6563,153.6621 L867.6563,311.5942 L830.1563,319.0942 L867.6563,326.5942 L867.6563,484.5264 A0,0 0 0 0 867.6563,484.5264 L1387.0313,484.5264 A0,0 0 0 0 1387.0313,484.5264 L1387.0313,172.4121 L1368.2813,153.6621 L867.6563,153.6621 A0,0 0 0 0 867.6563,153.6621 " fill="#F8FAFC" style="stroke:#C0CAD6;stroke-width:0.9375;"/><path d="M1368.2813,153.6621 L1368.2813,172.4121 L1387.0313,172.4121 L1368.2813,153.6621 " fill="#F8FAFC" style="stroke:#C0CAD6;stroke-width:0.9375;"/><text fill="#334155" font-family="Arial" font-size="24.375" lengthAdjust="spacing" textLength="386.25" x="878.9063" y="185.6625">genre &#1087;&#1088;&#1080;&#1074;&#1086;&#1076;&#1080;&#1090;&#1089;&#1103; &#1082; lowercase.</text><text fill="#334155" font-family="Arial" font-size="24.375" lengthAdjust="spacing" textLength="7.5" x="878.9063" y="214.0366">&#160;</text><text fill="#334155" font-family="Arial" font-size="24.375" lengthAdjust="spacing" textLength="395.625" x="878.9063" y="242.4106">&#1055;&#1088;&#1086;&#1074;&#1077;&#1088;&#1082;&#1072; &#1082;&#1083;&#1102;&#1095;&#1077;&#1074;&#1099;&#1093; &#1089;&#1083;&#1086;&#1074; &#1080;&#1076;&#1105;&#1090;</text><text fill="#334155" font-family="Arial" font-size="24.375" lengthAdjust="spacing" textLength="346.875" x="878.9063" y="270.7846">&#1074; &#1092;&#1080;&#1082;&#1089;&#1080;&#1088;&#1086;&#1074;&#1072;&#1085;&#1085;&#1086;&#1084; &#1087;&#1086;&#1088;&#1103;&#1076;&#1082;&#1077;:</text><text fill="#334155" font-family="Arial" font-size="24.375" lengthAdjust="spacing" textLength="480" x="878.9063" y="299.1586">fantasy -&gt; drama -&gt; thriller -&gt; comedy.</text><text fill="#334155" font-family="Arial" font-size="24.375" lengthAdjust="spacing" textLength="7.5" x="878.9063" y="327.5327">&#160;</text><text fill="#334155" font-family="Arial" font-size="24.375" lengthAdjust="spacing" textLength="414.375" x="878.9063" y="355.9067">&#1055;&#1077;&#1088;&#1074;&#1086;&#1077; &#1089;&#1086;&#1074;&#1087;&#1072;&#1076;&#1077;&#1085;&#1080;&#1077; &#1086;&#1087;&#1088;&#1077;&#1076;&#1077;&#1083;&#1103;&#1077;&#1090;</text><text fill="#334155" font-family="Arial" font-size="24.375" lengthAdjust="spacing" textLength="187.5" x="878.9063" y="384.2807">selected_writer.</text><text fill="#334155" font-family="Arial" font-size="24.375" lengthAdjust="spacing" textLength="7.5" x="878.9063" y="412.6547">&#160;</text><text fill="#334155" font-family="Arial" font-size="24.375" lengthAdjust="spacing" textLength="247.5" x="878.9063" y="441.0287">&#1053;&#1077;&#1090; &#1089;&#1086;&#1074;&#1087;&#1072;&#1076;&#1077;&#1085;&#1080;&#1081; -&gt;</text><text fill="#334155" font-family="Arial" font-size="24.375" lengthAdjust="spacing" textLength="193.125" x="878.9063" y="469.4028">universal_writer.</text><rect fill="#D9E6F2" height="65.874" rx="23.4375" ry="23.4375" style="stroke:#66788D;stroke-width:0.9375;" width="193.125" x="637.0313" y="286.1572"/><text fill="#1F2937" font-family="Arial" font-size="24.375" lengthAdjust="spacing" textLength="155.625" x="655.7813" y="327.5327">genre_router</text><path d="M879.8438,503.2764 L879.8438,590.2734 L842.3438,597.7734 L879.8438,605.2734 L879.8438,692.2705 A0,0 0 0 0 879.8438,692.2705 L1254.8438,692.2705 A0,0 0 0 0 1254.8438,692.2705 L1254.8438,522.0264 L1236.0938,503.2764 L879.8438,503.2764 A0,0 0 0 0 879.8438,503.2764 " fill="#F8FAFC" style="stroke:#C0CAD6;stroke-width:0.9375;"/><path d="M1236.0938,503.2764 L1236.0938,522.0264 L1254.8438,522.0264 L1236.0938,503.2764 " fill="#F8FAFC" style="stroke:#C0CAD6;stroke-width:0.9375;"/><text fill="#334155" font-family="Arial" font-size="24.375" lengthAdjust="spacing" textLength="331.875" x="891.0938" y="535.2768">route_to_writer &#1087;&#1088;&#1086;&#1074;&#1077;&#1088;&#1103;&#1077;&#1090;,</text><text fill="#334155" font-family="Arial" font-size="24.375" lengthAdjust="spacing" textLength="335.625" x="891.0938" y="563.6508">&#1095;&#1090;&#1086; selected_writer &#1074;&#1093;&#1086;&#1076;&#1080;&#1090;</text><text fill="#334155" font-family="Arial" font-size="24.375" lengthAdjust="spacing" textLength="285" x="891.0938" y="592.0248">&#1074; &#1088;&#1072;&#1079;&#1088;&#1077;&#1096;&#1105;&#1085;&#1085;&#1099;&#1081; &#1085;&#1072;&#1073;&#1086;&#1088;.</text><text fill="#334155" font-family="Arial" font-size="24.375" lengthAdjust="spacing" textLength="7.5" x="891.0938" y="620.3989">&#160;</text><text fill="#334155" font-family="Arial" font-size="24.375" lengthAdjust="spacing" textLength="330" x="891.0938" y="648.7729">&#1053;&#1077;&#1080;&#1079;&#1074;&#1077;&#1089;&#1090;&#1085;&#1086;&#1077; &#1079;&#1085;&#1072;&#1095;&#1077;&#1085;&#1080;&#1077; -&gt;</text><text fill="#334155" font-family="Arial" font-size="24.375" lengthAdjust="spacing" textLength="193.125" x="891.0938" y="677.1469">universal_writer.</text><rect fill="#D3E1EF" height="65.874" rx="23.4375" ry="23.4375" style="stroke:#66788D;stroke-width:0.9375;" width="217.5" x="624.8438" y="564.8364"/><text fill="#1F2937" font-family="Arial" font-size="24.375" lengthAdjust="spacing" textLength="180" x="643.5938" y="606.2119">route_to_writer</text><polygon fill="#EEF2F7" points="643.5938,729.7705,823.5938,729.7705,846.0938,752.2705,823.5938,774.7705,643.5938,774.7705,621.0938,752.2705,643.5938,729.7705" style="stroke:#78899D;stroke-width:0.9375;"/><text fill="#28364A" font-family="Arial" font-size="24.375" lengthAdjust="spacing" textLength="180" x="643.5938" y="760.7089">selected_writer</text><rect fill="#C9DDF1" height="65.874" rx="23.4375" ry="23.4375" style="stroke:#66788D;stroke-width:0.9375;" width="204.375" x="20.625" y="850.2686"/><text fill="#1F2937" font-family="Arial" font-size="24.375" lengthAdjust="spacing" textLength="166.875" x="39.375" y="891.644">fantasy_writer</text><rect fill="#D1D9F0" height="65.874" rx="23.4375" ry="23.4375" style="stroke:#66788D;stroke-width:0.9375;" width="195" x="308.4375" y="850.2686"/><text fill="#1F2937" font-family="Arial" font-size="24.375" lengthAdjust="spacing" textLength="157.5" x="327.1875" y="891.644">drama_writer</text><rect fill="#D9D4EC" height="65.874" rx="23.4375" ry="23.4375" style="stroke:#66788D;stroke-width:0.9375;" width="191.25" x="582.1875" y="850.2686"/><text fill="#1F2937" font-family="Arial" font-size="24.375" lengthAdjust="spacing" textLength="153.75" x="600.9375" y="891.644">thriller_writer</text><rect fill="#E2D2E6" height="65.874" rx="23.4375" ry="23.4375" style="stroke:#66788D;stroke-width:0.9375;" width="211.875" x="869.0625" y="850.2686"/><text fill="#1F2937" font-family="Arial" font-size="24.375" lengthAdjust="spacing" textLength="174.375" x="887.8125" y="891.644">comedy_writer</text><rect fill="#E8D5DF" height="65.874" rx="23.4375" ry="23.4375" style="stroke:#66788D;stroke-width:0.9375;" width="223.125" x="1186.875" y="850.2686"/><text fill="#1F2937" font-family="Arial" font-size="24.375" lengthAdjust="spacing" textLength="185.625" x="1205.625" y="891.644">universal_writer</text><polygon fill="#EEF2F7" points="733.5938,953.6426,733.5938,953.6426,756.0938,976.1426,733.5938,998.6426,733.5938,998.6426,711.0938,976.1426,733.5938,953.6426" style="stroke:#78899D;stroke-width:0.9375;"/><path d="M855.4688,1017.3926 L855.4688,1161.1377 L817.9688,1168.6377 L855.4688,1176.1377 L855.4688,1319.8828 A0,0 0 0 0 855.4688,1319.8828 L1401.0938,1319.8828 A0,0 0 0 0 1401.0938,1319.8828 L1401.0938,1036.1426 L1382.3438,1017.3926 L855.4688,1017.3926 A0,0 0 0 0 855.4688,1017.3926 " fill="#F8FAFC" style="stroke:#C0CAD6;stroke-width:0.9375;"/><path d="M1382.3438,1017.3926 L1382.3438,1036.1426 L1401.0938,1036.1426 L1382.3438,1017.3926 " fill="#F8FAFC" style="stroke:#C0CAD6;stroke-width:0.9375;"/><text fill="#334155" font-family="Arial" font-size="24.375" lengthAdjust="spacing" textLength="506.25" x="866.7188" y="1049.393">&#1042;&#1089;&#1077; Writer &#1080;&#1089;&#1087;&#1086;&#1083;&#1100;&#1079;&#1091;&#1102;&#1090; &#1086;&#1073;&#1097;&#1080;&#1081; &#1084;&#1077;&#1093;&#1072;&#1085;&#1080;&#1079;&#1084;.</text><text fill="#334155" font-family="Arial" font-size="24.375" lengthAdjust="spacing" textLength="7.5" x="866.7188" y="1077.767">&#160;</text><text fill="#334155" font-family="Arial" font-size="24.375" lengthAdjust="spacing" textLength="221.25" x="866.7188" y="1106.1411">&#1042; prompt &#1074;&#1093;&#1086;&#1076;&#1103;&#1090;:</text><text fill="#334155" font-family="Arial" font-size="24.375" lengthAdjust="spacing" textLength="468.75" x="866.7188" y="1134.5151">- idea / genre / style / language / length</text><text fill="#334155" font-family="Arial" font-size="24.375" lengthAdjust="spacing" textLength="273.75" x="866.7188" y="1162.8891">- latest_user_message</text><text fill="#334155" font-family="Arial" font-size="24.375" lengthAdjust="spacing" textLength="191.25" x="866.7188" y="1191.2631">- story_memory</text><text fill="#334155" font-family="Arial" font-size="24.375" lengthAdjust="spacing" textLength="7.5" x="866.7188" y="1219.6371">&#160;</text><text fill="#334155" font-family="Arial" font-size="24.375" lengthAdjust="spacing" textLength="373.125" x="866.7188" y="1248.0112">&#1055;&#1088;&#1080; &#1088;&#1077;&#1074;&#1080;&#1079;&#1080;&#1080; &#1076;&#1086;&#1087;&#1086;&#1083;&#1085;&#1080;&#1090;&#1077;&#1083;&#1100;&#1085;&#1086;:</text><text fill="#334155" font-family="Arial" font-size="24.375" lengthAdjust="spacing" textLength="193.125" x="866.7188" y="1276.3852">- &#1090;&#1077;&#1082;&#1091;&#1097;&#1080;&#1081; draft</text><text fill="#334155" font-family="Arial" font-size="24.375" lengthAdjust="spacing" textLength="260.625" x="866.7188" y="1304.7592">- revision_instructions</text><rect fill="#D7DFE8" height="65.874" rx="23.4375" ry="23.4375" style="stroke:#66788D;stroke-width:0.9375;" width="168.75" x="649.2188" y="1135.7007"/><text fill="#1F2937" font-family="Arial" font-size="24.375" lengthAdjust="spacing" textLength="131.25" x="667.9688" y="1177.0761">_run_writer</text><rect fill="#D5DDE7" height="65.874" rx="23.4375" ry="23.4375" style="stroke:#66788D;stroke-width:0.9375;" width="93.75" x="686.7188" y="1357.3828"/><text fill="#1F2937" font-family="Arial" font-size="24.375" lengthAdjust="spacing" textLength="56.25" x="705.4688" y="1398.7582">critic</text><ellipse cx="733.5938" cy="1481.3818" fill="none" rx="20.625" ry="20.625" style="stroke:#222222;stroke-width:1.875;"/><ellipse cx="733.5938" cy="1481.3818" fill="#222222" rx="11.25" ry="11.25" style="stroke:#222222;stroke-width:1.875;"/><line style="stroke:#66788D;stroke-width:1.875;" x1="733.5938" x2="733.5938" y1="134.9121" y2="286.1572"/><polygon fill="#66788D" points="726.0938,267.4072,733.5938,286.1572,741.0938,267.4072,733.5938,274.9072" style="stroke:#66788D;stroke-width:1.875;"/><line style="stroke:#66788D;stroke-width:1.875;" x1="733.5938" x2="733.5938" y1="352.0313" y2="564.8364"/><polygon fill="#66788D" points="726.0938,546.0864,733.5938,564.8364,741.0938,546.0864,733.5938,553.5864" style="stroke:#66788D;stroke-width:1.875;"/><line style="stroke:#66788D;stroke-width:1.875;" x1="621.0938" x2="122.8125" y1="752.2705" y2="752.2705"/><line style="stroke:#66788D;stroke-width:1.875;" x1="122.8125" x2="122.8125" y1="752.2705" y2="850.2686"/><polygon fill="#66788D" points="115.3125,831.5186,122.8125,850.2686,130.3125,831.5186,122.8125,839.0186" style="stroke:#66788D;stroke-width:1.875;"/><text fill="#000000" font-family="Arial" font-size="24.375" lengthAdjust="spacing" textLength="166.875" x="122.8125" y="809.7079">fantasy_writer</text><line style="stroke:#66788D;stroke-width:1.875;" x1="846.0938" x2="1298.4375" y1="752.2705" y2="752.2705"/><line style="stroke:#66788D;stroke-width:1.875;" x1="1298.4375" x2="1298.4375" y1="752.2705" y2="850.2686"/><polygon fill="#66788D" points="1290.9375,831.5186,1298.4375,850.2686,1305.9375,831.5186,1298.4375,839.0186" style="stroke:#66788D;stroke-width:1.875;"/><text fill="#000000" font-family="Arial" font-size="24.375" lengthAdjust="spacing" textLength="185.625" x="1298.4375" y="809.7079">universal_writer</text><line style="stroke:#66788D;stroke-width:1.875;" x1="405.9375" x2="405.9375" y1="752.2705" y2="850.2686"/><polygon fill="#66788D" points="398.4375,831.5186,405.9375,850.2686,413.4375,831.5186,405.9375,839.0186" style="stroke:#66788D;stroke-width:1.875;"/><text fill="#000000" font-family="Arial" font-size="24.375" lengthAdjust="spacing" textLength="157.5" x="405.9375" y="800.3329">drama_writer</text><line style="stroke:#66788D;stroke-width:1.875;" x1="733.5938" x2="733.5938" y1="774.7705" y2="799.9365"/><line style="stroke:#66788D;stroke-width:1.875;" x1="733.5938" x2="677.8125" y1="799.9365" y2="799.9365"/><line style="stroke:#66788D;stroke-width:1.875;" x1="677.8125" x2="677.8125" y1="799.9365" y2="850.2686"/><polygon fill="#66788D" points="670.3125,831.5186,677.8125,850.2686,685.3125,831.5186,677.8125,839.0186" style="stroke:#66788D;stroke-width:1.875;"/><text fill="#000000" font-family="Arial" font-size="24.375" lengthAdjust="spacing" textLength="153.75" x="677.8125" y="811.5829">thriller_writer</text><line style="stroke:#66788D;stroke-width:1.875;" x1="975" x2="975" y1="752.2705" y2="850.2686"/><polygon fill="#66788D" points="967.5,831.5186,975,850.2686,982.5,831.5186,975,839.0186" style="stroke:#66788D;stroke-width:1.875;"/><text fill="#000000" font-family="Arial" font-size="24.375" lengthAdjust="spacing" textLength="174.375" x="975" y="800.3329">comedy_writer</text><line style="stroke:#66788D;stroke-width:1.875;" x1="122.8125" x2="122.8125" y1="916.1426" y2="976.1426"/><line style="stroke:#66788D;stroke-width:1.875;" x1="122.8125" x2="711.0938" y1="976.1426" y2="976.1426"/><polygon fill="#66788D" points="692.3438,968.6426,711.0938,976.1426,692.3438,983.6426,699.8438,976.1426" style="stroke:#66788D;stroke-width:1.875;"/><line style="stroke:#66788D;stroke-width:1.875;" x1="1298.4375" x2="1298.4375" y1="916.1426" y2="976.1426"/><line style="stroke:#66788D;stroke-width:1.875;" x1="1298.4375" x2="756.0938" y1="976.1426" y2="976.1426"/><polygon fill="#66788D" points="774.8438,968.6426,756.0938,976.1426,774.8438,983.6426,767.3438,976.1426" style="stroke:#66788D;stroke-width:1.875;"/><line style="stroke:#66788D;stroke-width:1.875;" x1="405.9375" x2="405.9375" y1="916.1426" y2="976.1426"/><polygon fill="#66788D" points="398.4375,957.3926,405.9375,976.1426,413.4375,957.3926,405.9375,964.8926" style="stroke:#66788D;stroke-width:1.875;"/><line style="stroke:#66788D;stroke-width:1.875;" x1="677.8125" x2="677.8125" y1="916.1426" y2="925.5176"/><line style="stroke:#66788D;stroke-width:1.875;" x1="677.8125" x2="733.5938" y1="925.5176" y2="925.5176"/><line style="stroke:#66788D;stroke-width:1.875;" x1="733.5938" x2="733.5938" y1="925.5176" y2="953.6426"/><polygon fill="#66788D" points="726.0938,934.8926,733.5938,953.6426,741.0938,934.8926,733.5938,942.3926" style="stroke:#66788D;stroke-width:1.875;"/><line style="stroke:#66788D;stroke-width:1.875;" x1="975" x2="975" y1="916.1426" y2="976.1426"/><polygon fill="#66788D" points="967.5,957.3926,975,976.1426,982.5,957.3926,975,964.8926" style="stroke:#66788D;stroke-width:1.875;"/><line style="stroke:#66788D;stroke-width:1.875;" x1="733.5938" x2="733.5938" y1="630.7104" y2="729.7705"/><polygon fill="#66788D" points="726.0938,711.0205,733.5938,729.7705,741.0938,711.0205,733.5938,718.5205" style="stroke:#66788D;stroke-width:1.875;"/><line style="stroke:#66788D;stroke-width:1.875;" x1="733.5938" x2="733.5938" y1="998.6426" y2="1135.7007"/><polygon fill="#66788D" points="726.0938,1116.9507,733.5938,1135.7007,741.0938,1116.9507,733.5938,1124.4507" style="stroke:#66788D;stroke-width:1.875;"/><line style="stroke:#66788D;stroke-width:1.875;" x1="733.5938" x2="733.5938" y1="1201.5747" y2="1357.3828"/><polygon fill="#66788D" points="726.0938,1338.6328,733.5938,1357.3828,741.0938,1338.6328,733.5938,1346.1328" style="stroke:#66788D;stroke-width:1.875;"/><line style="stroke:#66788D;stroke-width:1.875;" x1="733.5938" x2="733.5938" y1="1423.2568" y2="1460.7568"/><polygon fill="#66788D" points="726.0938,1442.0068,733.5938,1460.7568,741.0938,1442.0068,733.5938,1449.5068" style="stroke:#66788D;stroke-width:1.875;"/><rect fill="none" height="209.5898" id="_legend" rx="14.0625" ry="14.0625" style="stroke:#000000;stroke-width:1.875;" width="425.625" x="1034.0625" y="1522.6318"/><text fill="#000000" font-family="Arial" font-size="26.25" font-weight="bold" lengthAdjust="spacing" textLength="256.875" x="1052.8125" y="1560.1227">&#1062;&#1074;&#1077;&#1090;&#1086;&#1074;&#1072;&#1103; &#1075;&#1088;&#1091;&#1087;&#1087;&#1072;</text><text fill="#000000" font-family="Arial" font-size="26.25" font-weight="bold" lengthAdjust="spacing" textLength="91.875" x="1328.4375" y="1560.1227">Writer</text><rect fill="#C9DDF1" height="30.5566" style="stroke:none;stroke-width:1.875;" width="275.625" x="1043.4375" y="1566.3135"/><text fill="#000000" font-family="Arial" font-size="26.25" lengthAdjust="spacing" textLength="7.5" x="1043.4375" y="1590.6793">&#160;</text><text fill="#000000" font-family="Arial" font-size="26.25" lengthAdjust="spacing" textLength="99.375" x="1326.5625" y="1590.6793">Fantasy</text><rect fill="#D1D9F0" height="30.5566" style="stroke:none;stroke-width:1.875;" width="275.625" x="1043.4375" y="1596.8701"/><text fill="#000000" font-family="Arial" font-size="26.25" lengthAdjust="spacing" textLength="7.5" x="1043.4375" y="1621.236">&#160;</text><text fill="#000000" font-family="Arial" font-size="26.25" lengthAdjust="spacing" textLength="84.375" x="1326.5625" y="1621.236">Drama</text><rect fill="#D9D4EC" height="30.5566" style="stroke:none;stroke-width:1.875;" width="275.625" x="1043.4375" y="1627.4268"/><text fill="#000000" font-family="Arial" font-size="26.25" lengthAdjust="spacing" textLength="7.5" x="1043.4375" y="1651.7926">&#160;</text><text fill="#000000" font-family="Arial" font-size="26.25" lengthAdjust="spacing" textLength="86.25" x="1326.5625" y="1651.7926">Thriller</text><rect fill="#E2D2E6" height="30.5566" style="stroke:none;stroke-width:1.875;" width="275.625" x="1043.4375" y="1657.9834"/><text fill="#000000" font-family="Arial" font-size="26.25" lengthAdjust="spacing" textLength="7.5" x="1043.4375" y="1682.3492">&#160;</text><text fill="#000000" font-family="Arial" font-size="26.25" lengthAdjust="spacing" textLength="106.875" x="1326.5625" y="1682.3492">Comedy</text><rect fill="#E8D5DF" height="30.5566" style="stroke:none;stroke-width:1.875;" width="275.625" x="1043.4375" y="1688.54"/><text fill="#000000" font-family="Arial" font-size="26.25" lengthAdjust="spacing" textLength="7.5" x="1043.4375" y="1712.9059">&#160;</text><text fill="#000000" font-family="Arial" font-size="26.25" lengthAdjust="spacing" textLength="116.25" x="1326.5625" y="1712.9059">Universal</text><line style="stroke:#000000;stroke-width:1.875;" x1="1043.4375" x2="1450.3125" y1="1535.7568" y2="1535.7568"/><line style="stroke:#000000;stroke-width:1.875;" x1="1043.4375" x2="1450.3125" y1="1566.3135" y2="1566.3135"/><line style="stroke:#000000;stroke-width:1.875;" x1="1043.4375" x2="1450.3125" y1="1596.8701" y2="1596.8701"/><line style="stroke:#000000;stroke-width:1.875;" x1="1043.4375" x2="1450.3125" y1="1627.4268" y2="1627.4268"/><line style="stroke:#000000;stroke-width:1.875;" x1="1043.4375" x2="1450.3125" y1="1657.9834" y2="1657.9834"/><line style="stroke:#000000;stroke-width:1.875;" x1="1043.4375" x2="1450.3125" y1="1688.54" y2="1688.54"/><line style="stroke:#000000;stroke-width:1.875;" x1="1043.4375" x2="1450.3125" y1="1719.0967" y2="1719.0967"/><line style="stroke:#000000;stroke-width:1.875;" x1="1043.4375" x2="1043.4375" y1="1535.7568" y2="1719.0967"/><line style="stroke:#000000;stroke-width:1.875;" x1="1319.0625" x2="1319.0625" y1="1535.7568" y2="1719.0967"/><line style="stroke:#000000;stroke-width:1.875;" x1="1450.3125" x2="1450.3125" y1="1535.7568" y2="1719.0967"/><!--SRC=[ZLLFRzf85B_xKuoKIoirsm01ZBEj18nzt4kxsYEQuWcCQcmq7eBOpKe9QRUxwcgZzjpLtdgcQRoX9A5VOUORzStOfWPIgLZ8zdk_z_ytpuA9W2BvJixKYVeJ_cTgAkVo2jx_a7DrZkIDJEJ_ybATeLyu4vJlgZDGNyiPQEQM5JzduP1mCa3FIFTvZqUZq6z7GSJHZjU62nSGSP_uqPY5FNH8WfWMDFwGePAzLv1WUaX6WV2YKFn41XGrEIF1tVedx5UAIfM2ygckwglAlakL9LcsAxNzPW7Gv3mQPyfQhMxRk5WawGfsnCG4_MOX-BKYxbE-ZjRoGe2ILsvKwaQA6Hb4eT_QR9JhUcLl7LBq2ruR3LnKR-UlbKy4uRcuXcslLJLYTnMdZXkjbctzNYmeZ0JDYzaQeEqrlVPseUszTXFNDWkjLFPBrQhnhXEnh1tSS6jUsUdHaDCEE0Rs75YMYSXPho-C1wD5yhCw0TvToAMy1DvDrQdctW85qPZoBedf3vP1o_y0jmHS0lU5d056Ngj_r2jWwOLwhLuYTGha10G2TvVgZPgcTXT8lG390jJppCLCtiArb3SGNIw1- -SGUo4JnrWSab2GU89s7oCV6aNqW-Xp5WIKw-TkDA3-P9MMIKYdd-WCjFlF4E0Iqhg5i0a2aIunCQ9h29LacSKqe5r1_SxO7A_SuRyQS9UhJn3SG4OXEw8y9i7AaeQ-cQTkVSKjkPvZcjuHKGRPxlu689r3rjyqoGS6frx1NbXk9WjjLI_paQtwV0BPNkbQOQ6yqJrMho5hU9Z93xhFXHBDgj71Ji7zhUaU201f1ffsxZlAZSTCTFletaPwzzD0cZxeNZRFbGfblvrs0sElvAph3ugcPlxRXhY46zwUKzIkcULikSEoWVVTjhC1M3DEwRLjwfPnsQqvQ-ermyq-5MrjNCMUiua0SsXbsaDDdJhsNDlfy57uJTh8jy3C9FiYm4c3DpX2mEk_OV9dS1wdcl0Vr5-6iFeR0ZoPcO5UoPkS06_Ha4U3eLZHI9shQNhwTX7pAK4Fi_Nm4CLY4kXxGCBUYFJC8mrxef_10o9eB3gZ6Deve74Ca4mJYuXFG3Q0Ms69p94vZXScfJcy0ekNQHKwJ-1ZOke1LkOf6Ta2walBWi4VYap5wH6BMHHsM1WBFeAlH1J6QmUoYh5RTxhGCTOzq3io6bfMG7iQapRs-16IxyrfcARxIQ_0Z_gR36d12a00o3f-R1t_c17tyJ7oibLbf2ahGOhDrafbXcyWUvelC2DEkGJYjc5J9ZGa0U7FEKr03accgLfV0000]--></g></svg>